<?xml version="1.0" encoding="utf-8"?>
<!-- Generator: Adobe Illustrator 16.0.0, SVG Export Plug-In . SVG Version: 6.00 Build 0)  -->
<!DOCTYPE svg PUBLIC "-//W3C//DTD SVG 1.0//EN" "http://www.w3.org/TR/2001/REC-SVG-20010904/DTD/svg10.dtd">
<svg version="1.0" xmlns="http://www.w3.org/2000/svg" xmlns:xlink="http://www.w3.org/1999/xlink" x="0px" y="0px" width="300px"
	 height="300px" viewBox="0 0 300 300" enable-background="new 0 0 300 300" xml:space="preserve">
<g id="icon-robot">
</g>
<g id="icon-libro">
</g>
<g id="icon-djcp">
</g>
<g id="icon-casco">
</g>
<g id="icon-antena">
</g>
<g id="icon-auto">
</g>
<g id="icon-eficiencia">
</g>
<g id="icon-gas">
</g>
<g id="icon-medic">
</g>
<g id="icon-logomarca">
</g>
<g id="icon-metrologia">
</g>
<g id="icon-graficos">
</g>
<g id="icon-aceros">
	<g>
		<polygon fill-rule="evenodd" clip-rule="evenodd" fill="#334352" points="29.225,203.523 148.536,137.457 150.671,137.463 
			151.184,138.242 152.479,140.603 31.263,207.231 		"/>
		<polygon fill-rule="evenodd" clip-rule="evenodd" fill="#1F3449" points="147.945,140.837 148.536,137.457 150.671,137.463 
			270.818,203.549 268.785,207.262 		"/>
		<g>
			<path fill-rule="evenodd" clip-rule="evenodd" fill="#1F3449" d="M155.754,120.159L155.754,120.159v-7.958h5.359
				c1.297,0,2.359-1.092,2.359-2.428v-2.435h-7.719h-8.057h-8.149v2.435c0,1.336,1.063,2.428,2.36,2.428h5.789v4.593
				c-5.072,0.729-12.165,5.971-12.165,16.081c0,10.114,8.684,15.884,16.507,15.884c6.721,0,12.354-4.825,13.801-11.3
				c0.391-0.934-1.166-2.035-1.871-1.085c-1.584,2.313-2.764,4.101-7.184,5.051c-5.51,1.182-10.672-1.736-11.018-8.55
				c-0.352-6.813,4.739-11.155,9.986-10.919V120.159z"/>
			<path fill-rule="evenodd" clip-rule="evenodd" fill="#1F3449" d="M127.631,63.172h2.686V47.715h-2.686V63.172L127.631,63.172z
				 M172.574,63.172h2.693V47.715h-2.693V63.172z"/>
			<path fill-rule="evenodd" clip-rule="evenodd" fill="#DA942D" d="M117.135,61.822h68.626c2.217,0,4.029,1.813,4.029,4.032v38.668
				c0,2.217-1.813,4.029-4.029,4.029h-68.626c-2.223,0-4.035-1.813-4.035-4.029V65.854C113.1,63.635,114.912,61.822,117.135,61.822z
				"/>
			<path fill-rule="evenodd" clip-rule="evenodd" fill="#425B73" d="M129.391,77.833c4.081,0,7.386,3.312,7.386,7.39
				c0,4.081-3.305,7.39-7.386,7.39c-4.081,0-7.393-3.309-7.393-7.39C121.999,81.145,125.311,77.833,129.391,77.833z"/>
			<path fill-rule="evenodd" clip-rule="evenodd" fill="#1F3449" d="M129.391,82.533c1.48,0,2.686,1.206,2.686,2.689
				s-1.206,2.686-2.686,2.686c-1.486,0-2.686-1.202-2.686-2.686S127.905,82.533,129.391,82.533z"/>
			<path fill-rule="evenodd" clip-rule="evenodd" fill="#E3AC30" d="M165.07,104.096l-45.158-37.814h65.23
				c0.105,0,0.189,0.088,0.189,0.195V103.9c0,0.107-0.084,0.195-0.189,0.195H165.07z"/>
			<path fill-rule="evenodd" clip-rule="evenodd" fill="#425B73" d="M174.342,77.833c4.08,0,7.393,3.312,7.393,7.39
				c0,4.081-3.313,7.39-7.393,7.39c-4.082,0-7.387-3.309-7.387-7.39C166.955,81.145,170.26,77.833,174.342,77.833z"/>
			<path fill-rule="evenodd" clip-rule="evenodd" fill="#1F3449" d="M174.342,82.533c1.486,0,2.686,1.206,2.686,2.689
				s-1.199,2.686-2.686,2.686c-1.48,0-2.688-1.202-2.688-2.686S172.861,82.533,174.342,82.533z"/>
		</g>
		<g>
			<rect x="22.93" y="210.671" fill-rule="evenodd" clip-rule="evenodd" fill="#425B73" width="254.14" height="41.614"/>
			<path fill-rule="evenodd" clip-rule="evenodd" fill="#1F3449" d="M25.206,205.706h3.24c0.437,0,0.795,0.355,0.795,0.796v8.338
				c0,0.439-0.358,0.795-0.795,0.795h-3.24c-0.437,0-0.795-0.355-0.795-0.795v-8.338C24.41,206.062,24.769,205.706,25.206,205.706z"
				/>
			<path fill-rule="evenodd" clip-rule="evenodd" fill="#DFEDF7" d="M27.862,206.215c0.427,0,0.772,0.346,0.772,0.775
				c0,0.428-0.345,0.776-0.772,0.776c-0.43,0-0.776-0.349-0.776-0.776C27.086,206.561,27.432,206.215,27.862,206.215z"/>
			<path fill-rule="evenodd" clip-rule="evenodd" fill="#1F3449" d="M274.848,205.735H271.6c-0.436,0-0.789,0.355-0.789,0.792v8.342
				c0,0.439,0.354,0.795,0.789,0.795h3.248c0.436,0,0.787-0.355,0.787-0.795v-8.342
				C275.635,206.091,275.283,205.735,274.848,205.735z"/>
			<path fill-rule="evenodd" clip-rule="evenodd" fill="#DFEDF7" d="M272.188,206.244c-0.424,0-0.775,0.346-0.775,0.772
				c0,0.431,0.352,0.775,0.775,0.775c0.43,0,0.775-0.345,0.775-0.775C272.963,206.59,272.617,206.244,272.188,206.244z"/>
			<polygon fill-rule="evenodd" clip-rule="evenodd" fill="#425B73" points="25.989,205.686 32.071,202.188 33.989,205.531 
				27.907,209.028 			"/>
			<rect x="232.596" y="220.143" fill-rule="evenodd" clip-rule="evenodd" fill="#192A3A" width="26.938" height="22.671"/>
			<rect x="240.992" y="222.079" fill-rule="evenodd" clip-rule="evenodd" fill="#334352" width="18.541" height="18.798"/>
			<rect x="200.574" y="220.143" fill-rule="evenodd" clip-rule="evenodd" fill="#192A3A" width="26.938" height="22.671"/>
			<polygon fill-rule="evenodd" clip-rule="evenodd" fill="#425B73" points="266.055,205.561 267.979,202.219 274.061,205.715 
				272.146,209.054 			"/>
			<rect x="208.971" y="222.079" fill-rule="evenodd" clip-rule="evenodd" fill="#334352" width="18.541" height="18.798"/>
			<rect x="168.553" y="220.143" fill-rule="evenodd" clip-rule="evenodd" fill="#192A3A" width="26.936" height="22.671"/>
			<rect x="176.949" y="222.079" fill-rule="evenodd" clip-rule="evenodd" fill="#334352" width="18.539" height="18.798"/>
			<rect x="136.53" y="220.143" fill-rule="evenodd" clip-rule="evenodd" fill="#192A3A" width="26.937" height="22.671"/>
			<rect x="144.926" y="222.079" fill-rule="evenodd" clip-rule="evenodd" fill="#334352" width="18.541" height="18.798"/>
			<rect x="104.508" y="220.143" fill-rule="evenodd" clip-rule="evenodd" fill="#192A3A" width="26.937" height="22.671"/>
			<rect x="112.904" y="222.079" fill-rule="evenodd" clip-rule="evenodd" fill="#334352" width="18.541" height="18.798"/>
			<rect x="72.485" y="220.143" fill-rule="evenodd" clip-rule="evenodd" fill="#192A3A" width="26.938" height="22.671"/>
			<rect x="80.882" y="222.079" fill-rule="evenodd" clip-rule="evenodd" fill="#334352" width="18.541" height="18.798"/>
			<rect x="40.467" y="220.143" fill-rule="evenodd" clip-rule="evenodd" fill="#192A3A" width="26.934" height="22.671"/>
			<rect x="48.863" y="222.079" fill-rule="evenodd" clip-rule="evenodd" fill="#334352" width="18.538" height="18.798"/>
		</g>
	</g>
</g>
<g id="icon-pinturas">
</g>
<g id="icon-encendedores">
</g>
<g id="icon-escolares">
</g>
<g id="icon-pilas">
</g>
<g id="icon-mobiliarios">
</g>
<g id="icon-aluminio">
</g>
<g id="icon-usados">
</g>
</svg>
