<?xml version="1.0" encoding="utf-8"?>
<!-- Generator: Adobe Illustrator 16.0.0, SVG Export Plug-In . SVG Version: 6.00 Build 0)  -->
<!DOCTYPE svg PUBLIC "-//W3C//DTD SVG 1.0//EN" "http://www.w3.org/TR/2001/REC-SVG-20010904/DTD/svg10.dtd">
<svg version="1.0" xmlns="http://www.w3.org/2000/svg" xmlns:xlink="http://www.w3.org/1999/xlink" x="0px" y="0px" width="300px"
	 height="300px" viewBox="0 0 300 300" enable-background="new 0 0 300 300" xml:space="preserve">
<g id="icon-robot">
</g>
<g id="icon-libro">
</g>
<g id="icon-djcp">
</g>
<g id="icon-casco">
</g>
<g id="icon-antena">
</g>
<g id="icon-auto">
	<g>
		<g>
			<path fill="#A01127" d="M263.736,130.657l-12.458-8.621l-11.425-49.807c-2.741-11.95-13.375-20.421-25.638-20.421H85.784
				c-12.26,0-22.894,8.471-25.638,20.421l-11.424,49.807l-12.459,8.621c-8.243,5.708-13.163,15.095-13.163,25.118v44.822
				c0,8.326,6.75,15.072,15.075,15.072h223.648c8.325,0,15.075-6.746,15.075-15.072v-44.822
				C276.899,145.748,271.979,136.362,263.736,130.657L263.736,130.657z M263.736,130.657"/>
			<path fill="#73B3B7" d="M236.716,122.033H63.287l10.697-46.629C75.254,69.871,80.104,66,85.787,66h128.429
				c5.683,0,10.533,3.871,11.806,9.404L236.716,122.033z M236.716,122.033"/>
			<path fill="#FFFFFF" d="M216.887,159.383"/>
			<path fill="#CCCCCC" d="M271.488,194.15H28.512c-5.943,0-10.76,4.82-10.76,10.76c0,5.945,4.816,10.76,10.76,10.76h242.977
				c5.943,0,10.76-4.814,10.76-10.76C282.248,198.971,277.432,194.15,271.488,194.15L271.488,194.15z M271.488,194.15"/>
			<path fill="#666666" d="M37.285,215.67v26.268c0,3.457,2.799,6.254,6.252,6.254h23.965c3.455,0,6.256-2.797,6.256-6.254V215.67"
				/>
			<path fill="#666666" d="M226.245,215.67v26.268c0,3.457,2.801,6.254,6.253,6.254h23.965c3.452,0,6.253-2.797,6.253-6.254V215.67"
				/>
			<path fill="#4D4D4D" d="M191.584,215.67v3.186c0,7.732-6.269,14.002-14.002,14.002h-45.539c-7.729,0-13.998-6.27-13.998-14.002
				v-3.186"/>
			<path fill="#90C1C5" d="M236.716,122.033h-59.71L120.972,66h93.244c5.683,0,10.533,3.871,11.806,9.404L236.716,122.033z
				 M236.716,122.033"/>
			<rect x="103.877" y="159.383" fill="#7C1A1D" width="97.412" height="7.742"/>
			<rect x="103.877" y="172.428" fill="#7C1A1D" width="97.412" height="7.744"/>
		</g>
		<circle fill="#FFFFFF" cx="63.235" cy="167.125" r="15.39"/>
		<circle fill="#FFFFFF" cx="236.716" cy="167.125" r="15.39"/>
	</g>
</g>
<g id="icon-eficiencia">
</g>
<g id="icon-gas">
</g>
<g id="icon-medic">
</g>
<g id="icon-logomarca">
</g>
<g id="icon-metrologia">
</g>
<g id="icon-graficos">
</g>
<g id="icon-aceros">
</g>
<g id="icon-pinturas">
</g>
<g id="icon-encendedores">
</g>
<g id="icon-escolares">
</g>
<g id="icon-pilas">
</g>
<g id="icon-mobiliarios">
</g>
<g id="icon-aluminio">
</g>
<g id="icon-usados">
</g>
</svg>
