<?xml version="1.0" encoding="utf-8"?>
<!-- Generator: Adobe Illustrator 16.0.0, SVG Export Plug-In . SVG Version: 6.00 Build 0)  -->
<!DOCTYPE svg PUBLIC "-//W3C//DTD SVG 1.0//EN" "http://www.w3.org/TR/2001/REC-SVG-20010904/DTD/svg10.dtd">
<svg version="1.0" xmlns="http://www.w3.org/2000/svg" xmlns:xlink="http://www.w3.org/1999/xlink" x="0px" y="0px" width="300px"
	 height="300px" viewBox="0 0 300 300" enable-background="new 0 0 300 300" xml:space="preserve">
<g id="icon-robot">
</g>
<g id="icon-libro">
</g>
<g id="icon-djcp">
</g>
<g id="icon-casco">
</g>
<g id="icon-antena">
</g>
<g id="icon-auto">
</g>
<g id="icon-eficiencia">
</g>
<g id="icon-gas">
</g>
<g id="icon-medic">
</g>
<g id="icon-logomarca">
</g>
<g id="icon-metrologia">
</g>
<g id="icon-graficos">
</g>
<g id="icon-aceros">
</g>
<g id="icon-pinturas">
	<g>
		<path fill="#999999" d="M184.5,86.854H53.617l17.274,144.223c0,0,1.283,11.035,13.076,11.035c14.042,0,58.63,0,65.213,0
			c0.53,0,0.818,0,0.818,0c2.037,0,7.718,0,15.001,0c16.256,0,40.515,0,50.211,0c11.793,0,13.076-11.035,13.076-11.035
			l17.276-144.223H184.5z"/>
		<g>
			<path fill="none" stroke="#F2EEDC" stroke-width="8" stroke-miterlimit="10" d="M35.98,73.831c0,0-4.922,114.328,115.046,114.328
				c119.965,0,110.633-111.354,110.633-111.354"/>
			<g>
				<path fill="#AEADB3" d="M258.275,85.085c0,1.65-1.35,3-3,3H44.723c-1.65,0-3-1.35-3-3V61.556c0-1.65,1.35-3,3-3h210.553
					c1.65,0,3,1.35,3,3V85.085z"/>
			</g>
			<circle fill="#3D3937" cx="261.661" cy="73.831" r="7.076"/>
			<circle fill="#3D3937" cx="38.34" cy="73.319" r="7.076"/>
			<path opacity="0.2" fill="#4F4E4E" d="M41.723,64.655c0,0-1.074,12.293,0.564,18.51c0.467,1.77,0.859,3.031,1.473,4.545
				c3.97,1.67,9.26-1.797,10.871,0.227c1.957,2.459,0.246,5.957,0.246,13.281c5.862,3.467,13.245,4.865,21.708,5.631
				c26.043,2.359,34.248-19.172,42.656-23.684c8.406-4.514,17.923,21.064,17.327,38.756c-0.597,17.691-9.413,43.783,13.022,43.783
				s4.527-28.371,4.203-44.604c-0.517-25.836,20.717-43.115,29.684-43.219c8.966-0.102,8.355,19.838,34.913,18.303
				c26.555-1.535,38.183-37.629,33.415-37.629c-4.314,0-174.77,1.58-206.39,2.102C42.082,60.71,41.723,64.655,41.723,64.655z"/>
			<path fill="#4794CF" d="M41.723,61.888c0,0-1.074,12.293,0.564,18.508c4.768,18.096,17.372,22.152,34.298,23.686
				c26.043,2.359,34.248-19.172,42.656-23.686c8.406-4.512,17.923,21.064,17.327,38.758c-0.597,17.691-9.413,43.781,13.022,43.781
				s4.527-28.371,4.203-44.602c-0.517-25.838,20.717-43.117,29.684-43.219c8.966-0.104,8.355,19.838,34.913,18.303
				c26.555-1.537,36.604-34.861,31.837-34.861L45.416,57.888C42.082,57.942,41.723,61.888,41.723,61.888z"/>
		</g>
		<path fill="none" d="M165,242.112"/>
		<path fill="none" d="M184.5,88.085"/>
	</g>
</g>
<g id="icon-encendedores">
</g>
<g id="icon-escolares">
</g>
<g id="icon-pilas">
</g>
<g id="icon-mobiliarios">
</g>
<g id="icon-aluminio">
</g>
<g id="icon-usados">
</g>
</svg>
