<?xml version="1.0" encoding="utf-8"?>
<!-- Generator: Adobe Illustrator 16.0.0, SVG Export Plug-In . SVG Version: 6.00 Build 0)  -->
<!DOCTYPE svg PUBLIC "-//W3C//DTD SVG 1.0//EN" "http://www.w3.org/TR/2001/REC-SVG-20010904/DTD/svg10.dtd">
<svg version="1.0" xmlns="http://www.w3.org/2000/svg" xmlns:xlink="http://www.w3.org/1999/xlink" x="0px" y="0px" width="300px"
	 height="300px" viewBox="0 0 300 300" enable-background="new 0 0 300 300" xml:space="preserve">
<g id="icon-robot">
</g>
<g id="icon-libro">
	<g>
		<path fill="#272727" d="M278.219,73.415V56.001l-2.53-0.972c-0.867-0.343-21.308-8.269-48.579-8.269
			c-29.206,0-54.399,8.902-74.849,26.447C131.756,55.662,106.59,46.76,77.346,46.76c-27.271,0-47.717,7.926-48.577,8.269
			l-2.478,0.972v16.13c-8.282,1.554-13.434,4.343-13.434,8.833v166.101h122.338c4.236,3.822,10.463,6.176,17.352,6.176
			c6.911,0,13.125-2.354,17.325-6.176h119.271V80.963C289.143,77.279,284.985,74.869,278.219,73.415L278.219,73.415z
			 M150.898,233.99c-10.147-4.195-45.132-17.494-80.16-17.494c-13.837,0-26.112,2.102-36.568,6.309V61.494
			c6.129-2.002,22.731-6.808,43.176-6.808c26.927,0,50.035,8.142,68.891,23.962v96.303l4.662-5.146V233.99z M270.281,222.838
			c-11.238-4.498-24.087-6.771-38.382-6.771c-35.021,0-68.332,13.426-78.326,17.838v-64.1l4.642,5.146V78.648
			c18.854-15.82,41.964-23.962,68.895-23.962c20.409,0,37.08,4.806,43.172,6.808V222.838z M270.281,222.838"/>
	</g>
</g>
<g id="icon-djcp">
</g>
<g id="icon-casco">
</g>
<g id="icon-antena">
</g>
<g id="icon-auto">
</g>
<g id="icon-eficiencia">
</g>
<g id="icon-gas">
</g>
<g id="icon-medic">
</g>
<g id="icon-logomarca">
</g>
<g id="icon-metrologia">
</g>
<g id="icon-graficos">
</g>
<g id="icon-aceros">
</g>
<g id="icon-pinturas">
</g>
<g id="icon-encendedores">
</g>
<g id="icon-escolares">
</g>
<g id="icon-pilas">
</g>
<g id="icon-mobiliarios">
</g>
<g id="icon-aluminio">
</g>
<g id="icon-usados">
</g>
</svg>
