<?xml version="1.0" encoding="utf-8"?>
<!-- Generator: Adobe Illustrator 16.0.0, SVG Export Plug-In . SVG Version: 6.00 Build 0)  -->
<!DOCTYPE svg PUBLIC "-//W3C//DTD SVG 1.0//EN" "http://www.w3.org/TR/2001/REC-SVG-20010904/DTD/svg10.dtd">
<svg version="1.0" xmlns="http://www.w3.org/2000/svg" xmlns:xlink="http://www.w3.org/1999/xlink" x="0px" y="0px" width="300px"
	 height="300px" viewBox="0 0 300 300" enable-background="new 0 0 300 300" xml:space="preserve">
<g id="icon-robot">
</g>
<g id="icon-libro">
</g>
<g id="icon-djcp">
</g>
<g id="icon-casco">
</g>
<g id="icon-antena">
</g>
<g id="icon-auto">
</g>
<g id="icon-eficiencia">
</g>
<g id="icon-gas">
</g>
<g id="icon-medic">
</g>
<g id="icon-logomarca">
</g>
<g id="icon-metrologia">
</g>
<g id="icon-graficos">
	<g>
		<g>
			<polygon fill="#4794CF" points="253.896,89.779 108.119,235.558 64.444,191.882 210.226,46.101 			"/>
		</g>
		<path fill="none" d="M64.444,191.882"/>
		<path fill="none" d="M253.896,89.779"/>
		<path fill="none" d="M283.146,16.851"/>
		<polygon fill="#4794CF" points="210.226,46.101 208.254,48.071 251.837,91.838 253.896,89.779 283.146,16.851 		"/>
		
			<rect x="63.363" y="127.514" transform="matrix(0.7071 -0.7071 0.7071 0.7071 -55.9749 161.0759)" fill="#62A7DC" width="206.172" height="41.183"/>
		<polygon fill="#62A7DC" points="283.146,16.851 224.785,60.652 253.896,89.779 		"/>
		<polygon fill="#5D9DC7" points="253.896,89.779 239.344,75.223 283.146,16.851 		"/>
		
			<rect x="70.649" y="145.097" transform="matrix(0.7071 -0.7071 0.7071 0.7071 -58.9924 168.3577)" fill="#5D9DC7" width="206.164" height="20.586"/>
		<polygon fill="#A68A66" points="253.899,89.756 273.551,40.776 259.208,26.434 210.233,46.074 210.229,46.075 		"/>
		<polygon fill="#B89C70" points="273.547,40.8 263.981,31.234 224.785,60.652 253.896,89.779 		"/>
		<polygon fill="#D5B780" points="273.547,40.8 268.765,36.017 239.344,75.223 253.896,89.779 		"/>
		<g>
			<g>
				
					<rect x="42.313" y="206.813" transform="matrix(-0.7071 -0.7071 0.7071 -0.7071 -35.4101 438.9408)" fill="#DBDAD9" width="61.77" height="39.981"/>
				<path fill="#C64C4B" d="M60.367,239.637l-21.839-21.842l-15.542,15.541c-8.178,8.18-8.177,21.437,0,29.615l7.035,7.033
					l7.031,7.032c8.178,8.178,21.434,8.178,29.612-0.001l15.541-15.542L60.367,239.637z"/>
				<path fill="#C3C3C3" d="M46.707,203.893c1.635-1.635,4.13-1.791,5.572-0.349l44.18,44.181c1.443,1.441,1.287,3.937-0.348,5.573
					l0,0c-1.637,1.635-4.132,1.792-5.574,0.35l-44.18-44.181C44.915,208.025,45.07,205.529,46.707,203.893L46.707,203.893z"/>
				
					<rect x="46.381" y="218.633" transform="matrix(-0.7071 -0.7071 0.7071 -0.7071 -25.5926 434.8669)" fill="#AAAAAA" width="61.772" height="8.201"/>
				<g>
					<polygon fill="#5D9DC7" points="239.344,75.223 93.563,221.001 108.119,235.558 253.896,89.779 238.596,90.525 					"/>
					<polygon fill="#DBBD83" points="268.765,36.017 239.344,75.217 239.344,75.223 238.596,90.525 253.896,89.779 253.903,89.779 
						273.547,40.8 					"/>
				</g>
				
					<rect x="56.087" y="130.529" transform="matrix(0.7071 -0.7071 0.7071 0.7071 -52.9586 153.8001)" fill="#62A7DC" width="206.173" height="20.595"/>
				<g>
					<polygon fill="#B0752D" points="210.226,46.1 210.226,46.101 210.226,46.1 					"/>
					<polygon fill="#7A9E41" points="210.229,46.097 210.226,46.1 210.229,46.099 					"/>
					<polygon fill="#4794CF" points="210.226,46.101 64.444,191.882 78.999,206.438 224.777,60.661 208.718,60.65 					"/>
					<polygon fill="#A68A66" points="259.204,26.457 210.229,46.099 210.226,46.1 210.226,46.101 208.718,60.65 224.777,60.661 
						224.789,60.661 263.981,31.234 					"/>
				</g>
				<polygon fill="#BCA072" points="224.789,60.661 263.981,31.234 268.765,36.017 239.344,75.217 224.034,75.964 				"/>
				<polygon fill="#5D9DC7" points="283.146,16.851 273.547,40.8 268.765,36.017 				"/>
				<polygon fill="#62A7DC" points="263.981,31.234 283.146,16.851 268.765,36.017 				"/>
				<polygon fill="#4794CF" points="259.204,26.457 283.146,16.851 263.981,31.234 				"/>
			</g>
			<g>
				
					<rect x="170.889" y="162.783" transform="matrix(-0.7071 0.7071 -0.7071 -0.7071 456.5953 189.116)" fill="#5D5B5B" width="36.48" height="52.683"/>
				
					<rect x="172.012" y="188.974" transform="matrix(-0.7071 0.7071 -0.7071 -0.7071 466.6528 193.2935)" fill="#807F7F" width="42.565" height="8.636"/>
				
					<rect x="169.732" y="184.756" transform="matrix(-0.7071 0.7071 -0.7071 -0.7071 453.9742 187.7837)" fill="#434343" width="36.723" height="6.324"/>
				<path fill="#BCA072" d="M138.732,108.626C86.168,56.062,36.818,20.196,28.507,28.507c-8.308,8.308,27.559,57.656,80.124,110.223
					c17.941,17.943,35.51,33.936,51.193,46.896l12.9-12.9l12.901-12.901C172.666,144.137,156.676,126.568,138.732,108.626z"/>
			</g>
		</g>
		<path fill="#171717" d="M271.787,255.483c-1.589-13.063-5.882-31.178-17.17-45.48c-26.578-33.665-49.741-5.127-49.741-5.127
			s-28.53,23.162,5.127,49.741c0.372,0.292,0.745,0.584,1.125,0.866c25.292,19.079,61.509,17.152,61.509,17.152
			S273.011,265.565,271.787,255.483z"/>
		<path fill="#CC6A6F" d="M30.021,269.984l30.346-30.348l21.839,21.837l-15.541,15.542c-8.179,8.179-21.435,8.179-29.612,0.001
			L30.021,269.984z"/>
		<path fill="#424341" d="M271.756,255.495c-1.589-13.063-5.882-31.178-17.17-45.48c-26.578-33.665-49.741-5.127-49.741-5.127
			l50.605,50.607l17.155,17.152C272.605,272.647,272.979,265.577,271.756,255.495z"/>
		<path fill="#9F3F72" d="M271.787,255.483h-16.278l-0.027-0.027h-44.354c25.095,18.931,60.925,17.182,61.482,17.153l0.026,0.026
			C272.637,272.636,273.011,265.565,271.787,255.483z"/>
		<path fill="#C03B7D" d="M271.787,255.483h-16.306l17.155,17.152C272.637,272.636,273.011,265.565,271.787,255.483z"/>
		<path fill="#DBBD83" d="M172.725,172.698L28.507,28.479c8.312-8.311,57.661,27.555,110.226,80.119
			c17.943,17.942,33.934,35.511,46.894,51.198L172.725,172.698z"/>
	</g>
</g>
<g id="icon-aceros">
</g>
<g id="icon-pinturas">
</g>
<g id="icon-encendedores">
</g>
<g id="icon-escolares">
</g>
<g id="icon-pilas">
</g>
<g id="icon-mobiliarios">
</g>
<g id="icon-aluminio">
</g>
<g id="icon-usados">
</g>
</svg>
