<?xml version="1.0" encoding="utf-8"?>
<!-- Generator: Adobe Illustrator 16.0.0, SVG Export Plug-In . SVG Version: 6.00 Build 0)  -->
<!DOCTYPE svg PUBLIC "-//W3C//DTD SVG 1.0//EN" "http://www.w3.org/TR/2001/REC-SVG-20010904/DTD/svg10.dtd">
<svg version="1.0" xmlns="http://www.w3.org/2000/svg" xmlns:xlink="http://www.w3.org/1999/xlink" x="0px" y="0px" width="300px"
	 height="300px" viewBox="0 0 300 300" enable-background="new 0 0 300 300" xml:space="preserve">
<g id="icon-robot">
</g>
<g id="icon-libro">
</g>
<g id="icon-djcp">
</g>
<g id="icon-casco">
</g>
<g id="icon-antena">
</g>
<g id="icon-auto">
</g>
<g id="icon-eficiencia">
</g>
<g id="icon-gas">
</g>
<g id="icon-medic">
</g>
<g id="icon-logomarca">
</g>
<g id="icon-metrologia">
</g>
<g id="icon-graficos">
</g>
<g id="icon-aceros">
</g>
<g id="icon-pinturas">
</g>
<g id="icon-encendedores">
</g>
<g id="icon-escolares">
</g>
<g id="icon-pilas">
</g>
<g id="icon-mobiliarios">
	<g>
		<path fill="#4794CF" d="M131.998,179.058c0,3.923-1.574,7.493-4.16,10.052c-2.59,2.559-6.129,4.162-10.055,4.162H36.178
			c-7.852,0-14.219-6.363-14.219-14.214H131.998L131.998,179.058z"/>
		<g>
			<path fill="#BAD8D8" d="M260.6,92.632L260.6,92.632c-0.521-0.571,0.35-0.765,0.455-1.534c0.123-0.943-0.754-2.302-2.467-3.836
				c-3.686-3.287-2.229-6.462-0.498-8.707c0.227-0.299,0.723-0.386,1.086-0.189l0,0c0.34,0.179,0.449,0.547,0.23,0.83
				c-2.207,2.893-2.094,5.082,0.334,7.247c2.02,1.804,4.047,4.39,2.063,6.239C261.477,92.98,260.889,92.947,260.6,92.632
				L260.6,92.632z"/>
			<path fill="#BAD8D8" d="M255.51,92.632L255.51,92.632c-0.523-0.571,0.344-0.765,0.451-1.534c0.125-0.943-0.748-2.302-2.465-3.836
				c-3.688-3.287-2.227-6.462-0.496-8.707c0.229-0.299,0.719-0.386,1.084-0.189l0,0c0.34,0.179,0.445,0.547,0.232,0.83
				c-2.211,2.893-2.098,5.082,0.33,7.247c2.025,1.804,4.047,4.39,2.066,6.239C256.391,92.98,255.797,92.947,255.51,92.632
				L255.51,92.632z"/>
			<path fill="#79471D" d="M194.408,141.413v25.789v25.789h63.551v74.437c0,1.314,1.066,2.369,2.373,2.369h5.277
				c1.307,0,2.369-1.055,2.369-2.369v-74.437v-25.789v-25.789H194.408z"/>
			<path fill="#BAD8D8" d="M250.414,92.632L250.414,92.632c-0.523-0.571,0.354-0.765,0.453-1.534
				c0.127-0.943-0.746-2.302-2.463-3.836c-3.688-3.287-2.227-6.462-0.5-8.707c0.23-0.299,0.721-0.386,1.084-0.189l0,0
				c0.348,0.179,0.451,0.547,0.232,0.83c-2.209,2.893-2.096,5.082,0.332,7.247c2.025,1.804,4.049,4.39,2.064,6.239
				C251.297,92.98,250.701,92.947,250.414,92.632L250.414,92.632z"/>
			<polygon fill="#593216" points="88.75,141.814 267.979,141.814 267.979,125.25 88.75,125.25 88.75,141.814 			"/>
			<path fill="#79471D" d="M272.896,116.625H74.979c-2.842,0-5.145,2.301-5.145,5.143s2.303,5.145,5.145,5.145H79.9v139.274
				c0,1.997,1.607,3.61,3.59,3.61h2.834c1.984,0,3.592-1.613,3.592-3.61V126.912h182.98c2.84,0,5.145-2.303,5.145-5.145
				S275.736,116.625,272.896,116.625z"/>
			<path fill="#DE9F2F" d="M234.396,153.019c0,1.77-1.432,3.199-3.199,3.199s-3.205-1.43-3.205-3.199s1.438-3.206,3.205-3.206
				S234.396,151.249,234.396,153.019L234.396,153.019z"/>
			<path fill="#DE9F2F" d="M234.396,177.868c0,1.77-1.432,3.199-3.199,3.199s-3.205-1.43-3.205-3.199s1.438-3.204,3.205-3.204
				S234.396,176.099,234.396,177.868L234.396,177.868z"/>
			<polygon fill="#593216" points="267.979,164.355 194.408,164.355 194.408,167.202 267.979,167.202 267.979,164.355 			"/>
			<polygon fill="#593216" points="267.979,190.145 194.408,190.145 194.408,192.991 267.979,192.991 267.979,190.145 			"/>
			<path fill="#A4C5D3" d="M219.955,37.51V99.8c0,1.179-0.957,2.127-2.141,2.127h-92.957c-1.178,0-2.129-0.948-2.129-2.127V37.51
				c0-1.179,0.951-2.145,2.129-2.145h92.957C218.998,35.365,219.955,36.331,219.955,37.51L219.955,37.51z"/>
			<polygon fill="#4F4F4F" points="138.889,108.707 128.543,108.707 128.543,106.48 138.889,106.48 138.889,108.707 			"/>
			<polygon fill="#4F4F4F" points="214.141,108.707 203.793,108.707 203.793,106.48 214.141,106.48 214.141,108.707 			"/>
			<path fill="#2B2B2B" d="M219.955,99.795c0,1.18-0.957,2.139-2.133,2.139h-92.959c-1.178,0-2.135-0.959-2.135-2.139V37.504
				c0-1.173,0.957-2.132,2.135-2.132h92.959c1.176,0,2.133,0.959,2.133,2.132V99.795L219.955,99.795z M217.822,30.203h-92.959
				c-4.031,0-7.311,3.275-7.311,7.301v62.291c0,4.03,3.279,7.313,7.311,7.313h92.959c4.027,0,7.307-3.282,7.307-7.313V37.504
				C225.129,33.479,221.85,30.203,217.822,30.203L217.822,30.203z"/>
			<path fill="#2B2B2B" d="M233.748,109.999v0.765c0,3.234-2.619,5.861-5.863,5.861h-113.09c-3.236,0-5.867-2.627-5.867-5.861
				v-0.765c0-0.034,0-0.061,0.014-0.091h124.797C233.748,109.938,233.748,109.965,233.748,109.999L233.748,109.999z"/>
			<path fill="#CBD5D4" d="M233.738,109.908H108.941c0.043-0.781,0.684-1.38,1.459-1.38h121.879
				C233.064,108.528,233.693,109.127,233.738,109.908L233.738,109.908z"/>
			<path fill="#50A7B5" d="M175.139,104.988h-7.518c-0.494,0-0.896-0.398-0.896-0.891v-0.021c0-0.493,0.402-0.896,0.896-0.896h7.518
				c0.492,0,0.896,0.403,0.896,0.896v0.021C176.035,104.59,175.631,104.988,175.139,104.988L175.139,104.988z"/>
			<path fill="#BAD8D8" d="M185.781,35.365l9.83,0.007l-36.121,66.555h-34.633c-1.178,0-2.129-0.948-2.129-2.127V87.667
				L185.781,35.365L185.781,35.365z"/>
			<path fill="#50A7B5" d="M106.789,111.516H89.916V91.344c0-2.984,2.418-5.405,5.404-5.405h6.066c2.984,0,5.402,2.421,5.402,5.405
				V111.516L106.789,111.516z"/>
			<path fill="#BAD8D8" d="M97.365,92.363c0,1.365-1.105,2.472-2.473,2.472c-1.363,0-2.473-1.106-2.473-2.472
				c0-1.364,1.109-2.471,2.473-2.471C96.26,89.893,97.365,90.999,97.365,92.363L97.365,92.363z"/>
			<path fill="#BAD8D8" d="M99.441,99.416c0,0.982-0.795,1.783-1.779,1.783c-0.982,0-1.779-0.801-1.779-1.783
				c0-0.98,0.797-1.776,1.779-1.776C98.646,97.64,99.441,98.436,99.441,99.416L99.441,99.416z"/>
			<path fill="#BAD8D8" d="M103.262,93.057c0,0.984-0.797,1.778-1.779,1.778s-1.779-0.794-1.779-1.778
				c0-0.985,0.797-1.781,1.779-1.781S103.262,92.071,103.262,93.057L103.262,93.057z"/>
			<path fill="#BAD8D8" d="M103.785,101.133c0,0.637-0.516,1.153-1.152,1.153c-0.635,0-1.15-0.517-1.15-1.153
				c0-0.631,0.516-1.148,1.15-1.148C103.27,99.984,103.785,100.502,103.785,101.133L103.785,101.133z"/>
			<path fill="#BAD8D8" d="M97.031,108.43c0,0.637-0.516,1.148-1.148,1.148c-0.637,0-1.152-0.512-1.152-1.148
				c0-0.636,0.516-1.148,1.152-1.148C96.516,107.281,97.031,107.794,97.031,108.43L97.031,108.43z"/>
			<path fill="#BAD8D8" d="M95.117,102.953c0,0.743-0.604,1.35-1.348,1.35c-0.746,0-1.35-0.606-1.35-1.35s0.604-1.35,1.35-1.35
				C94.514,101.604,95.117,102.21,95.117,102.953L95.117,102.953z"/>
			<polygon fill="#CBD5D4" points="106.789,116.533 89.916,116.533 89.916,110.916 106.789,110.916 106.789,116.533 			"/>
			<path fill="#BAD8D8" d="M101.051,105.651c0,0.743-0.604,1.349-1.348,1.349c-0.746,0-1.35-0.605-1.35-1.349
				c0-0.749,0.604-1.349,1.35-1.349C100.447,104.303,101.051,104.902,101.051,105.651L101.051,105.651z"/>
			<path fill="#E0A533" d="M266.895,112.451h-5.057v-2.868h4.541c0.393,0,0.715-0.315,0.715-0.706v-6.61
				c0-0.395-0.322-0.712-0.715-0.712h-4.541v-2.869h5.057c1.691,0,3.064,1.375,3.064,3.066v7.637
				C269.959,111.08,268.586,112.451,266.895,112.451L266.895,112.451z"/>
			<path fill="#E0A533" d="M256.203,94.61h-8.23v19.081c0,1.549,1.27,2.846,2.816,2.846h5.414h5.408c1.584,0,2.85-1.297,2.85-2.846
				V94.61H256.203z"/>
			<polygon fill="#2B2B2B" points="47.742,176.022 39.816,176.022 39.816,144.798 47.742,144.798 47.742,176.022 			"/>
			<polygon fill="#2B2B2B" points="88.639,266.178 83.99,266.178 83.99,248.143 88.639,248.143 88.639,266.178 			"/>
			<polygon fill="#2B2B2B" points="74.141,176.022 66.207,176.022 66.207,144.798 74.141,144.798 74.141,176.022 			"/>
			<path fill="#62A7DC" d="M117.783,164.844H36.178c-3.93,0-7.469,1.604-10.051,4.163c-2.59,2.554-4.168,6.124-4.168,10.051
				c0,7.851,6.367,14.214,14.219,14.214h81.605c3.926,0,7.465-1.604,10.055-4.162c2.586-2.559,4.16-6.129,4.16-10.052
				C131.998,171.208,125.639,164.844,117.783,164.844z"/>
			<polygon fill="#2B2B2B" points="114.293,196.474 39.816,196.474 39.816,191.25 114.293,191.25 114.293,196.474 			"/>
			<polygon fill="#2B2B2B" points="99.809,140.326 76.98,140.326 76.98,137.127 99.809,137.127 99.809,140.326 			"/>
			<polygon fill="#2B2B2B" points="81.02,250.379 73.955,250.379 73.955,194.874 81.02,194.874 81.02,250.379 			"/>
			<path fill="#2B2B2B" d="M47.742,251.308v14.87h4.65v-12.554c0-0.558,0.455-1.016,1.02-1.016h48.148
				c0.563,0,1.02,0.458,1.02,1.016v12.554h4.645v-14.87c0-1.744-1.414-3.165-3.158-3.165H50.908
				C49.16,248.143,47.742,249.563,47.742,251.308L47.742,251.308z"/>
			<path fill="#2B2B2B" d="M57.041,262.834c0,3.847-3.121,6.963-6.973,6.963s-6.969-3.116-6.969-6.963
				c0-3.855,3.117-6.974,6.969-6.974S57.041,258.979,57.041,262.834L57.041,262.834z"/>
			<path fill="#474748" d="M53.879,262.834c0,2.104-1.703,3.806-3.811,3.806c-2.104,0-3.809-1.702-3.809-3.806
				c0-2.111,1.705-3.816,3.809-3.816C52.176,259.018,53.879,260.723,53.879,262.834L53.879,262.834z"/>
			<path fill="#2B2B2B" d="M111.875,262.834c0,3.847-3.119,6.963-6.973,6.963c-3.852,0-6.969-3.116-6.969-6.963
				c0-3.855,3.117-6.974,6.969-6.974C108.756,255.86,111.875,258.979,111.875,262.834L111.875,262.834z"/>
			<path fill="#474748" d="M108.713,262.834c0,2.104-1.703,3.806-3.811,3.806c-2.104,0-3.811-1.702-3.811-3.806
				c0-2.111,1.707-3.816,3.811-3.816C107.01,259.018,108.713,260.723,108.713,262.834L108.713,262.834z"/>
			<path fill="#2B2B2B" d="M86.316,269.797L86.316,269.797c-2.402,0-4.367-1.963-4.367-4.363v-5.204
				c0-2.406,1.965-4.369,4.367-4.369l0,0c2.4,0,4.369,1.963,4.369,4.369v5.204C90.686,267.834,88.717,269.797,86.316,269.797
				L86.316,269.797z"/>
			<polygon fill="#2B2B2B" points="71.074,266.178 66.428,266.178 66.428,248.143 71.074,248.143 71.074,266.178 			"/>
			<path fill="#2B2B2B" d="M68.75,269.797L68.75,269.797c-2.402,0-4.369-1.963-4.369-4.363v-5.204c0-2.406,1.967-4.369,4.369-4.369
				l0,0c2.402,0,4.367,1.963,4.367,4.369v5.204C73.117,267.834,71.152,269.797,68.75,269.797L68.75,269.797z"/>
			<path fill="#4794CF" d="M125.934,144.798H96.936c-3.348,0-6.064-2.718-6.064-6.071l0,0c0-3.354,2.717-6.066,6.064-6.066h28.998
				c3.35,0,6.064,2.712,6.064,6.066l0,0C131.998,142.08,129.283,144.798,125.934,144.798L125.934,144.798z"/>
			<path fill="#62A7DC" d="M71.113,151.737H42.219c-8.447,0-15.293-6.849-15.293-15.298V74.832c0-8.447,6.846-15.293,15.293-15.293
				h28.895c8.447,0,15.295,6.846,15.295,15.293v61.607C86.408,144.889,79.561,151.737,71.113,151.737L71.113,151.737z"/>
		</g>
		<path fill="#E9BC2F" d="M264.475,94.605v19.08c0,1.55-1.266,2.847-2.85,2.847h-5.408V94.605H264.475L264.475,94.605z"/>
	</g>
</g>
<g id="icon-aluminio">
</g>
<g id="icon-usados">
</g>
</svg>
