<?xml version="1.0" encoding="utf-8"?>
<!-- Generator: Adobe Illustrator 16.0.0, SVG Export Plug-In . SVG Version: 6.00 Build 0)  -->
<!DOCTYPE svg PUBLIC "-//W3C//DTD SVG 1.0//EN" "http://www.w3.org/TR/2001/REC-SVG-20010904/DTD/svg10.dtd">
<svg version="1.0" xmlns="http://www.w3.org/2000/svg" xmlns:xlink="http://www.w3.org/1999/xlink" x="0px" y="0px" width="300px"
	 height="300px" viewBox="0 0 300 300" enable-background="new 0 0 300 300" xml:space="preserve">
<g id="icon-robot">
</g>
<g id="icon-libro">
</g>
<g id="icon-djcp">
</g>
<g id="icon-casco">
</g>
<g id="icon-antena">
</g>
<g id="icon-auto">
</g>
<g id="icon-eficiencia">
</g>
<g id="icon-gas">
</g>
<g id="icon-medic">
</g>
<g id="icon-logomarca">
</g>
<g id="icon-metrologia">
</g>
<g id="icon-graficos">
</g>
<g id="icon-aceros">
</g>
<g id="icon-pinturas">
</g>
<g id="icon-encendedores">
</g>
<g id="icon-escolares">
</g>
<g id="icon-pilas">
	<g>
		<g>
			<g>
				<path fill="#A0A0A0" d="M172.5,31c0-3.3-2.7-6-6-6h-33c-3.3,0-6,2.7-6,6v17.667c0,3.3,2.7,6,6,6h33c3.3,0,6-2.7,6-6V31z"/>
			</g>
		</g>
		<path fill="#151415" d="M188.454,38.334h-76.908c-3.646,0-6.63,4.5-6.63,10v74.333V265c0,5.5,2.983,10,6.63,10h76.908
			c3.646,0,6.63-4.5,6.63-10V122.667V48.334C195.084,42.834,192.101,38.334,188.454,38.334z"/>
		<path fill="#D0A560" d="M188.454,38.334h-76.908c-3.646,0-6.63,4.5-6.63,10v74.333h90.168V48.334
			C195.084,42.834,192.101,38.334,188.454,38.334z"/>
		<g>
			<path opacity="0.2" fill="#464446" d="M109.366,122.667h-4.45V265c0,5.5,2.983,10,6.63,10h9.347
				c-7.131-19.609-12.143-65.95-12.143-120C108.75,143.838,108.964,133.005,109.366,122.667z"/>
			<path opacity="0.2" fill="#464446" d="M104.916,48.334v74.333h4.45c1.441-37.072,5.305-67.756,10.414-84.333h-8.234
				C107.899,38.334,104.916,42.834,104.916,48.334z"/>
		</g>
		<g>
			<path d="M168.118,76.173V68.36h-7.875v-5.395h7.875v-7.813h5.25v7.813h7.896v5.395h-7.896v7.813H168.118z"/>
		</g>
	</g>
</g>
<g id="icon-mobiliarios">
</g>
<g id="icon-aluminio">
</g>
<g id="icon-usados">
</g>
</svg>
