<?xml version="1.0" encoding="utf-8"?>
<!-- Generator: Adobe Illustrator 16.0.0, SVG Export Plug-In . SVG Version: 6.00 Build 0)  -->
<!DOCTYPE svg PUBLIC "-//W3C//DTD SVG 1.0//EN" "http://www.w3.org/TR/2001/REC-SVG-20010904/DTD/svg10.dtd">
<svg version="1.0" xmlns="http://www.w3.org/2000/svg" xmlns:xlink="http://www.w3.org/1999/xlink" x="0px" y="0px" width="300px"
	 height="300px" viewBox="0 0 300 300" enable-background="new 0 0 300 300" xml:space="preserve">
<g id="icon-robot">
</g>
<g id="icon-libro">
</g>
<g id="icon-djcp">
</g>
<g id="icon-casco">
</g>
<g id="icon-antena">
</g>
<g id="icon-auto">
</g>
<g id="icon-eficiencia">
</g>
<g id="icon-gas">
	<g>
		<linearGradient id="SVGID_1_" gradientUnits="userSpaceOnUse" x1="104.7305" y1="81.71" x2="104.7305" y2="157.2646">
			<stop  offset="0" style="stop-color:#DCAF4C"/>
			<stop  offset="0.1689" style="stop-color:#DBAC48"/>
			<stop  offset="0.3299" style="stop-color:#D7A23C"/>
			<stop  offset="0.4874" style="stop-color:#D19422"/>
			<stop  offset="0.51" style="stop-color:#D0911C"/>
			<stop  offset="0.83" style="stop-color:#C06025"/>
			<stop  offset="0.9195" style="stop-color:#B8451C"/>
			<stop  offset="1" style="stop-color:#B22217"/>
		</linearGradient>
		<path fill="url(#SVGID_1_)" d="M85.076,81.71c0,0,19.477,9.436,29.298,28.523c10.01,19.454-0.782,32.373,10.01,47.031
			c0,0-17.42-18.418-18.944-34.603C103.892,106.474,96.645,94.813,85.076,81.71z"/>
		<linearGradient id="SVGID_2_" gradientUnits="userSpaceOnUse" x1="150" y1="5.7988" x2="150" y2="294.2012">
			<stop  offset="0" style="stop-color:#DCAF4C"/>
			<stop  offset="0.1689" style="stop-color:#DBAC48"/>
			<stop  offset="0.3299" style="stop-color:#D7A23C"/>
			<stop  offset="0.4874" style="stop-color:#D19422"/>
			<stop  offset="0.51" style="stop-color:#D0911C"/>
			<stop  offset="0.83" style="stop-color:#C06025"/>
			<stop  offset="0.9195" style="stop-color:#B8451C"/>
			<stop  offset="1" style="stop-color:#B22217"/>
		</linearGradient>
		<path fill="url(#SVGID_2_)" d="M196.752,250.363c0,0,32.891-25.651,37.006-82.186c4.11-56.528-32.885-49.324-45.217-89.415
			c-12.33-40.068,7.184-72.964,7.184-72.964s-63.712,33.909-50.347,103.798c13.353,69.887-15.417,79.147-44.205,62.702
			c-28.776-16.451-23.635-78.107-23.635-78.107s-47.277,72.962,10.281,122.298c0,0-23.641,13.356-46.251-29.818
			c0,0,14.89,93.984,94.25,107.53c-32.68-14.541-47.488-57.676-47.488-57.676s21.255,28.634,36.054,28.841
			c14.822,0.195-12.456-22.924-12.304-42.98c0,0,19.417,29.051,37.911,14.14c18.499-14.899,29.291-39.564,19.276-71.167
			c0,0,22.351,45.217,12.321,71.167c-10.007,25.952-1.523,38.285,17.735,30.579c0,0-4.605,18.725-26.572,27.097l0,0
			c69.722-12.837,85.68-98.783,85.68-98.783S241.983,239.015,196.752,250.363z"/>
		<path opacity="0.1" fill="#050306" d="M135.818,294.201c-8.813-3.906-16.291-9.9-22.556-16.563
			c-38.264-18.754-71.694-90.968-71.694-90.968S56.458,280.655,135.818,294.201z"/>
		<g opacity="0.1">
			<polygon fill="#050306" points="172.752,294.201 172.752,294.201 172.752,294.201 			"/>
			<path fill="#050306" d="M197.165,272.594c-3.066,6.188-10.01,16.127-24.413,21.607c69.722-12.837,85.68-98.783,85.68-98.783
				s-6.927,18.301-24.077,34.27l0,0C234.354,229.688,218.907,260.35,197.165,272.594z"/>
		</g>
		<path opacity="0.1" fill="#050306" d="M101.16,105.572L101.16,105.572c2.21,5.257,3.678,10.841,4.279,17.09
			c1.524,16.185,18.944,34.603,18.944,34.603c-5.366-6.182-10.033-20.242-11.776-28.903
			C110.878,119.694,101.16,105.572,101.16,105.572z"/>
	</g>
</g>
<g id="icon-medic">
</g>
<g id="icon-logomarca">
</g>
<g id="icon-metrologia">
</g>
<g id="icon-graficos">
</g>
<g id="icon-aceros">
</g>
<g id="icon-pinturas">
</g>
<g id="icon-encendedores">
</g>
<g id="icon-escolares">
</g>
<g id="icon-pilas">
</g>
<g id="icon-mobiliarios">
</g>
<g id="icon-aluminio">
</g>
<g id="icon-usados">
</g>
</svg>
