<?xml version="1.0" encoding="utf-8"?>
<!-- Generator: Adobe Illustrator 16.0.0, SVG Export Plug-In . SVG Version: 6.00 Build 0)  -->
<!DOCTYPE svg PUBLIC "-//W3C//DTD SVG 1.0//EN" "http://www.w3.org/TR/2001/REC-SVG-20010904/DTD/svg10.dtd">
<svg version="1.0" xmlns="http://www.w3.org/2000/svg" xmlns:xlink="http://www.w3.org/1999/xlink" x="0px" y="0px" width="300px"
	 height="300px" viewBox="0 0 300 300" enable-background="new 0 0 300 300" xml:space="preserve">
<g id="icon-robot">
</g>
<g id="icon-libro">
</g>
<g id="icon-djcp">
</g>
<g id="icon-casco">
	<g>
		<path fill="#4794CF" d="M151.681,251.501c34.521-0.021,137.024-17.132,137.024-17.132s-9.601-9.659-9.601-10.642
			c0-70.914-57.805-128.414-129.112-128.414c-71.285,0-129.09,57.5-129.09,128.414c0,0.9-9.607,10.406-9.607,10.406
			S116.319,251.524,151.681,251.501z"/>
		<path fill="#62A7DC" d="M151.681,223.669h127.344c0,0,0.08-41.55,0.08-42.515c0-70.925-57.805-128.424-129.112-128.424
			c-71.285,0-129.09,57.499-129.09,128.424c0,0.897,0.073,42.515,0.073,42.515H151.681z"/>
		<path fill="#4794CF" d="M178.137,51.127c-8.473-1.721-17.245-2.629-26.225-2.629c-9.152,0-18.074,0.95-26.684,2.726V186.01
			c0,0,10.335,4.47,26.279,4.47c15.957,0,26.629-4.47,26.629-4.47V51.127z"/>
		<rect x="20.553" y="167.609" fill="#424241" width="258.4" height="21.506"/>
		<g>
			<path fill="#8E8B8A" d="M149.992,222.9c-24.552,0-44.529-19.982-44.529-44.532c0-24.56,19.978-44.554,44.529-44.554
				c24.573,0,44.543,19.994,44.543,44.554C194.535,202.918,174.565,222.9,149.992,222.9L149.992,222.9z"/>
			<g>
				<path fill="#FFFFFF" d="M149.992,213.979c-19.636,0-35.619-15.973-35.619-35.611c0-19.648,15.983-35.632,35.619-35.632
					c19.649,0,35.632,15.983,35.632,35.632C185.624,198.007,169.642,213.979,149.992,213.979L149.992,213.979z"/>
				<path fill="#BDBDBC" d="M149.992,145.275c18.254,0,33.102,14.836,33.102,33.093c0,18.246-14.848,33.089-33.102,33.089
					c-18.242,0-33.086-14.843-33.086-33.089C116.906,160.111,131.75,145.275,149.992,145.275 M149.992,140.201
					c-21.07,0-38.152,17.089-38.152,38.167c0,21.083,17.082,38.155,38.152,38.155c21.089,0,38.168-17.072,38.168-38.155
					C188.16,157.29,171.081,140.201,149.992,140.201L149.992,140.201z"/>
			</g>
		</g>
	</g>
</g>
<g id="icon-antena">
</g>
<g id="icon-auto">
</g>
<g id="icon-eficiencia">
</g>
<g id="icon-gas">
</g>
<g id="icon-medic">
</g>
<g id="icon-logomarca">
</g>
<g id="icon-metrologia">
</g>
<g id="icon-graficos">
</g>
<g id="icon-aceros">
</g>
<g id="icon-pinturas">
</g>
<g id="icon-encendedores">
</g>
<g id="icon-escolares">
</g>
<g id="icon-pilas">
</g>
<g id="icon-mobiliarios">
</g>
<g id="icon-aluminio">
</g>
<g id="icon-usados">
</g>
</svg>
