<?xml version="1.0" encoding="utf-8"?>
<!-- Generator: Adobe Illustrator 16.0.0, SVG Export Plug-In . SVG Version: 6.00 Build 0)  -->
<!DOCTYPE svg PUBLIC "-//W3C//DTD SVG 1.0//EN" "http://www.w3.org/TR/2001/REC-SVG-20010904/DTD/svg10.dtd">
<svg version="1.0" xmlns="http://www.w3.org/2000/svg" xmlns:xlink="http://www.w3.org/1999/xlink" x="0px" y="0px" width="300px"
	 height="300px" viewBox="0 0 300 300" enable-background="new 0 0 300 300" xml:space="preserve">
<g id="icon-robot">
</g>
<g id="icon-libro">
</g>
<g id="icon-djcp">
</g>
<g id="icon-casco">
</g>
<g id="icon-antena">
</g>
<g id="icon-auto">
</g>
<g id="icon-eficiencia">
</g>
<g id="icon-gas">
</g>
<g id="icon-medic">
</g>
<g id="icon-logomarca">
</g>
<g id="icon-metrologia">
</g>
<g id="icon-graficos">
</g>
<g id="icon-aceros">
</g>
<g id="icon-pinturas">
</g>
<g id="icon-encendedores">
	<g>
		<g>
			<path fill="#C5C7C8" d="M173.884,129.82h36.865c9.641,0,17.458-7.815,17.458-17.457V41.745c0-9.643-7.817-17.458-17.458-17.458
				h-36.865c-2.142,0-3.879,1.735-3.879,3.877v97.779C170.005,128.085,171.742,129.82,173.884,129.82z"/>
			<path fill="#8A8B8F" d="M111.418,122.738c0,7.877-6.385,14.261-14.26,14.261s-14.259-6.384-14.259-14.261
				c0-7.873,6.384-14.258,14.259-14.258S111.418,114.865,111.418,122.738z"/>
			<path fill="#7A7B7E" d="M105.597,122.738c0,4.662-3.776,8.439-8.438,8.439c-4.66,0-8.439-3.777-8.439-8.439
				c0-4.658,3.779-8.438,8.439-8.438C101.82,114.3,105.597,118.08,105.597,122.738z"/>
			<path fill="#B1B3B4" d="M153.906,144.566v-24.155c0-6.563-5.369-11.931-11.932-11.931H123.35
				c-6.563,0-11.932,5.368-11.932,11.931v24.155H153.906z"/>
			<g>
				<path fill="#B5B7B9" d="M168.894,130.719c-1.477-0.572-3.078-0.898-4.756-0.898H84.984c-7.283,0-13.191,5.906-13.191,13.19
					v104.441c0,3.17,0.53,6.215,1.492,9.06c3.77,11.14,14.288,19.166,26.693,19.199h49.167c14.824-0.04,26.959-11.496,28.088-26.043
					v-108.18C176.665,136.551,173.372,132.453,168.894,130.719z"/>
				<path fill="#C5C7C8" d="M100.102,275.713h49.013c0.026,0,0.052-0.002,0.077-0.002h-49.166
					C100.051,275.711,100.076,275.713,100.102,275.713z"/>
			</g>
			<path fill="#B5B7B9" d="M228.205,41.751v70.609c0,9.649-7.81,17.46-17.46,17.46H188c20.079-15.354,33.617-44.35,33.617-77.605
				c0-9.032-1.001-17.762-2.863-25.98C224.376,29.133,228.205,34.986,228.205,41.751z"/>
			<ellipse fill="#7A7B7E" cx="124.514" cy="115.756" rx="5.529" ry="1.455"/>
			<ellipse fill="#7A7B7E" cx="124.514" cy="121.285" rx="5.529" ry="1.453"/>
			<ellipse fill="#7A7B7E" cx="139.646" cy="115.756" rx="5.528" ry="1.455"/>
			<ellipse fill="#7A7B7E" cx="139.646" cy="121.285" rx="5.528" ry="1.453"/>
			<g>
				<path fill="#E5B24B" d="M132.662,39.023c0,0-51.586,65.965,0,65.965S132.662,39.023,132.662,39.023z"/>
				<path fill="#D37C33" d="M132.662,60.82c0,0-34.54,44.168,0,44.168C167.2,104.988,132.662,60.82,132.662,60.82z"/>
			</g>
		</g>
		<path fill="#C5C7C8" d="M169.912,145.339c0-4.953-0.343-9.831-0.973-14.62c-1.477-0.572-3.077-0.898-4.756-0.898H85.03
			c-7.283,0-13.19,5.906-13.19,13.19v104.441c0,3.17,0.529,6.215,1.492,9.06C128.035,248.15,169.912,201.566,169.912,145.339z"/>
		<circle fill="#62A7DC" cx="172.635" cy="131.955" r="14.745"/>
		<path fill="#4794CF" d="M187.38,131.956c0,8.148-6.602,14.749-14.75,14.749c-7.193,0-13.188-5.156-14.47-11.989
			c2.702,3.015,6.625,4.9,10.979,4.9c8.148,0,14.747-6.601,14.747-14.736c0-0.943-0.092-1.875-0.269-2.76
			C185.959,124.728,187.38,128.175,187.38,131.956z"/>
	</g>
</g>
<g id="icon-escolares">
</g>
<g id="icon-pilas">
</g>
<g id="icon-mobiliarios">
</g>
<g id="icon-aluminio">
</g>
<g id="icon-usados">
</g>
</svg>
