<?xml version="1.0" encoding="utf-8"?>
<!-- Generator: Adobe Illustrator 16.0.0, SVG Export Plug-In . SVG Version: 6.00 Build 0)  -->
<!DOCTYPE svg PUBLIC "-//W3C//DTD SVG 1.0//EN" "http://www.w3.org/TR/2001/REC-SVG-20010904/DTD/svg10.dtd">
<svg version="1.0" xmlns="http://www.w3.org/2000/svg" xmlns:xlink="http://www.w3.org/1999/xlink" x="0px" y="0px" width="300px"
	 height="300px" viewBox="0 0 300 300" enable-background="new 0 0 300 300" xml:space="preserve">
<g id="icon-robot">
</g>
<g id="icon-libro">
</g>
<g id="icon-djcp">
</g>
<g id="icon-casco">
</g>
<g id="icon-antena">
</g>
<g id="icon-auto">
</g>
<g id="icon-eficiencia">
</g>
<g id="icon-gas">
</g>
<g id="icon-medic">
</g>
<g id="icon-logomarca">
</g>
<g id="icon-metrologia">
	<g>
		<circle fill="#FFFFFF" cx="150.002" cy="183.869" r="73.594"/>
		<g>
			<path fill="none" d="M149.975,257.52c37.191,0,68.061-27.747,72.919-63.694c0.432-3.237,0.703-6.585,0.703-9.932
				c0-8.636-1.515-16.895-4.268-24.607c-4.53-12.852-12.572-24.023-22.937-32.491c-3.562-2.918-7.447-5.51-11.5-7.725
				c-5.128-2.75-10.574-4.964-16.35-6.476c-5.937-1.565-12.2-2.377-18.622-2.377c-6.42,0-12.624,0.812-18.618,2.377
				c-5.67,1.463-11.014,3.616-16.088,6.319c-4.205,2.262-8.147,4.91-11.817,7.881c-10.364,8.419-18.351,19.64-22.937,32.491
				c-2.753,7.713-4.269,15.972-4.269,24.607c0.162,3.347,0.434,6.694,0.866,9.932C81.914,229.713,112.786,257.52,149.975,257.52z
				 M92.119,220.004l-2.378-4.103l15.115-8.741l2.375,4.099L92.119,220.004z M117.913,244.126l-4.098-2.371l8.795-15.172
				l4.107,2.378L117.913,244.126z M152.348,252.062h-4.751v-17.485h4.751V252.062z M181.981,244.073l-8.742-15.112l4.1-2.378
				l8.743,15.115L181.981,244.073z M218.144,186.27h-17.491v-4.752h17.491V186.27z M207.841,147.731l2.364,4.104l-15.109,8.74
				l-2.373-4.1L207.841,147.731z M195.096,207.16l15.109,8.741l-2.364,4.103l-15.118-8.745L195.096,207.16z M182.035,123.662
				l2.914,1.674l1.187,0.703l-0.485,0.809l-8.259,14.298l-4.098-2.376L182.035,123.662z M147.597,115.727h4.751v17.488h-4.751
				V115.727z M140.532,183.894c0-5.181,4.209-9.396,9.389-9.396c1.569,0,2.969,0.38,4.268,1.032
				c14.787-13.011,30.061-26.126,30.817-25.314c0.753,0.808-13.012,15.328-26.719,29.358c0.647,1.298,1.024,2.756,1.024,4.319
				c0,5.183-4.209,9.389-9.391,9.389c-1.513,0-2.912-0.38-4.152-0.969c-7.884,7.993-13.821,13.924-13.821,13.924
				c-1.568,1.51-4.152,1.46-5.664-0.159c-1.507-1.623-1.462-4.157,0.104-5.722c0,0,6.317-5.67,14.738-13.224
				C140.746,186.107,140.532,185.028,140.532,183.894z M115.271,125.175l2.642-1.513l8.75,15.107l-4.106,2.376l-8.311-14.298
				l-0.483-0.809L115.271,125.175z M92.173,147.731l15.109,8.745l-2.378,4.1l-15.109-8.74L92.173,147.731z M81.803,181.518h17.491
				v4.752H81.803V181.518z"/>
			<polygon points="122.557,141.146 126.663,138.77 117.913,123.662 115.271,125.175 113.763,126.039 114.246,126.848 			"/>
			<polygon points="107.282,156.477 92.173,147.731 89.795,151.836 104.904,160.576 			"/>
			<rect x="147.597" y="115.727" width="4.751" height="17.488"/>
			<rect x="81.803" y="181.518" width="17.491" height="4.752"/>
			<path d="M238.973,278.563h-2.527H63.566h-2.54c-1.779,0-3.185,1.404-3.185,3.185c0,1.779,1.405,3.185,3.185,3.185h177.946
				c1.788,0,3.19-1.405,3.19-3.185C242.163,280.022,240.705,278.563,238.973,278.563z"/>
			<polygon points="173.239,228.961 181.981,244.073 186.082,241.698 177.339,226.583 			"/>
			<rect x="147.597" y="234.576" width="4.751" height="17.485"/>
			<polygon points="113.815,241.755 117.913,244.126 126.718,228.961 122.61,226.583 			"/>
			<polygon points="89.741,215.901 92.119,220.004 107.231,211.259 104.856,207.16 			"/>
			<polygon points="185.65,126.848 186.136,126.039 184.949,125.336 182.035,123.662 173.294,138.77 177.392,141.146 			"/>
			<rect x="200.652" y="181.518" width="17.491" height="4.752"/>
			<polygon points="210.205,215.901 195.096,207.16 192.723,211.259 207.841,220.004 			"/>
			<polygon points="210.205,151.836 207.841,147.731 192.723,156.477 195.096,160.576 			"/>
			<path d="M126.283,206.078c1.512,1.619,4.096,1.669,5.664,0.159c0,0,5.938-5.931,13.821-13.924c1.24,0.589,2.64,0.969,4.152,0.969
				c5.182,0,9.391-4.206,9.391-9.389c0-1.563-0.377-3.021-1.024-4.319c13.707-14.03,27.472-28.551,26.719-29.358
				c-0.757-0.812-16.03,12.304-30.817,25.314c-1.299-0.652-2.698-1.032-4.268-1.032c-5.18,0-9.389,4.215-9.389,9.396
				c0,1.135,0.214,2.214,0.594,3.239c-8.421,7.554-14.738,13.224-14.738,13.224C124.821,201.921,124.776,204.455,126.283,206.078z"
				/>
		</g>
		<g>
			<g>
				<path fill="#808080" d="M102.807,114.232h12.519V83.428c-4.315-1.037-8.479-2.313-12.519-3.761V114.232z"/>
				<path fill="#808080" d="M184.949,114.232h12.524V79.609c-4.048,1.453-8.207,2.661-12.524,3.76V114.232z"/>
				<path fill="#606060" d="M103.748,73.145c-0.313,0.018-0.627,0.035-0.941,0.052v8.778c4.039,1.351,8.203,2.541,12.519,3.509
					V77.77C111.388,76.441,107.5,74.893,103.748,73.145z"/>
				<path fill="#606060" d="M184.949,77.618v7.812c4.317-1.025,8.477-2.154,12.524-3.51v-9.364
					C193.426,74.48,189.213,76.172,184.949,77.618z"/>
			</g>
			<path fill="#62A7DC" d="M257.168,15.067H42.787c-1.297,0-2.379,1.079-2.379,2.376c0,1.295,1.082,2.373,2.379,2.373h4.151
				C48.795,38.63,62.684,55.33,83.659,66.728c5.864,3.187,12.283,5.959,19.147,8.247c4.039,1.351,8.203,2.541,12.519,3.509
				c10.847,2.483,22.505,3.888,34.649,3.888c12.255,0,24.018-1.404,34.975-3.941c4.317-1.025,8.477-2.154,12.524-3.51
				c31.301-10.467,53.212-31.029,55.588-55.049h4.166c1.285,0,2.364-1.08,2.364-2.377C259.54,16.146,258.462,15.067,257.168,15.067z
				"/>
		</g>
		<g>
			<path opacity="0.1" fill="#606060" d="M149.793,258.52c37.76,0,69.101-28.172,74.034-64.668
				c0.438-3.287,0.714-6.687,0.714-10.084c0-8.768-1.538-17.152-4.333-24.983c-4.6-13.048-12.765-24.392-23.287-32.988
				c-0.024-0.021-0.05-0.038-0.075-0.058L99.19,238.673C112.514,250.976,130.292,258.52,149.793,258.52z"/>
			<path fill="none" d="M168.543,112.595c-5.937-1.565-12.2-2.377-18.622-2.377c-6.42,0-12.624,0.812-18.618,2.377
				c-5.67,1.463-11.014,3.616-16.088,6.319c-4.205,2.262-8.147,4.91-11.817,7.881c-10.364,8.419-18.351,19.64-22.937,32.491
				c-2.753,7.713-4.269,15.972-4.269,24.607c0.162,3.347,0.434,6.694,0.866,9.932c2.348,17.353,10.79,32.803,23.076,44.146
				l96.185-111.233c-3.542-2.895-7.401-5.467-11.427-7.668C179.765,116.32,174.318,114.106,168.543,112.595z"/>
			<g>
				<path fill="none" d="M168.543,112.595c-5.937-1.565-12.2-2.377-18.622-2.377c-6.42,0-12.624,0.812-18.618,2.377
					c-5.67,1.463-11.014,3.616-16.088,6.319c-4.205,2.262-8.147,4.91-11.817,7.881c-10.364,8.419-18.351,19.64-22.937,32.491
					c-2.753,7.713-4.269,15.972-4.269,24.607c0.162,3.347,0.434,6.694,0.866,9.932c2.348,17.353,10.79,32.803,23.076,44.146
					c13.123,12.117,30.633,19.548,49.84,19.548c37.191,0,68.061-27.747,72.919-63.694c0.432-3.237,0.703-6.585,0.703-9.932
					c0-8.636-1.515-16.895-4.268-24.607c-4.53-12.852-12.572-24.023-22.937-32.491c-0.023-0.02-0.049-0.037-0.073-0.057
					c-3.542-2.895-7.401-5.467-11.427-7.668C179.765,116.32,174.318,114.106,168.543,112.595z"/>
				<path fill="#D6CD87" d="M224.403,208.396c0.7-1.998,1.294-4.046,1.785-6.151c0.641-2.75,1.132-5.501,1.507-8.365
					c0.435-3.239,0.65-6.588,0.65-9.986c0-8.959-1.517-17.538-4.317-25.584c-0.913-2.697-1.998-5.342-3.187-7.879
					c-0.914-1.94-1.891-3.831-2.972-5.668l-2.478-24.181c0-4.037-3.042-7.377-6.948-7.865c-0.323-0.041-0.65-0.068-0.984-0.068
					h-9.986h-12.524h-2.318c-1.887-0.863-3.777-1.674-5.725-2.372c-2.533-0.919-5.121-1.728-7.77-2.378
					c-6.096-1.561-12.527-2.376-19.162-2.376c-6.584,0-13.007,0.815-19.162,2.376c-2.643,0.65-5.234,1.459-7.771,2.378
					c-1.941,0.698-3.832,1.509-5.721,2.372h-1.996h-12.519H92.494c-4.371,0-7.936,3.563-7.936,7.934l-2.48,24.181
					c-1.081,1.89-2.049,3.728-2.971,5.668c-1.187,2.591-2.262,5.182-3.185,7.879c-2.807,7.989-4.319,16.625-4.319,25.584
					c0,3.347,0.219,6.694,0.646,9.986c0.33,2.806,0.866,5.615,1.516,8.365c0.543,2.053,1.136,4.153,1.777,6.151l-6.725,65.79
					l-0.121,1.189H231.26L224.403,208.396z M222.894,193.825c-4.858,35.947-35.728,63.694-72.919,63.694
					c-19.207,0-36.717-7.431-49.84-19.548c-12.286-11.344-20.729-26.794-23.076-44.146c-0.433-3.237-0.704-6.585-0.866-9.932
					c0-8.636,1.516-16.895,4.269-24.607c4.586-12.852,12.572-24.072,22.937-32.491c3.67-2.971,7.612-5.619,11.817-7.881
					c5.074-2.703,10.418-4.856,16.088-6.319c5.994-1.565,12.198-2.377,18.618-2.377c6.422,0,12.686,0.812,18.622,2.377
					c5.775,1.512,11.222,3.726,16.35,6.476c4.025,2.201,7.885,4.773,11.427,7.668c0.024,0.02,0.05,0.037,0.073,0.057
					c10.364,8.468,18.406,19.64,22.937,32.491c2.753,7.713,4.268,15.972,4.268,24.607
					C223.597,187.24,223.325,190.588,222.894,193.825z"/>
			</g>
		</g>
		<path fill="#4794CF" d="M83.675,66.728c5.864,3.187,12.283,5.959,19.147,8.247c4.039,1.351,8.203,2.541,12.519,3.509
			c10.847,2.483,22.505,3.888,34.649,3.888c12.255,0,24.018-1.404,34.975-3.941c4.317-1.025,8.477-2.154,12.524-3.51
			c31.301-10.467,53.212-31.029,55.588-55.049l-7.062,4.795C238.954,29.463,177.016,66.728,83.675,66.728z"/>
		<path fill="#BCB278" d="M231.26,275.376l-6.856-66.979c0.7-1.998,1.294-4.046,1.785-6.151c0.641-2.75,1.132-5.501,1.507-8.365
			c0.435-3.239,0.65-6.588,0.65-9.986c0-8.959-1.517-17.538-4.317-25.584c-0.913-2.697-1.998-5.342-3.187-7.879
			c-0.914-1.94-1.891-3.831-2.972-5.668l-2.478-24.181c0-4.037-3.042-7.377-6.948-7.865l-12.125,14.021
			c0.024,0.02,0.05,0.037,0.073,0.057c10.364,8.468,18.406,19.64,22.937,32.491c2.753,7.713,4.268,15.972,4.268,24.607
			c0,3.347-0.271,6.694-0.703,9.932c-4.858,35.947-35.728,63.694-72.919,63.694c-19.207,0-36.717-7.431-49.84-19.548l-31.316,36.215
			l-0.121,1.189H231.26z"/>
	</g>
</g>
<g id="icon-graficos">
</g>
<g id="icon-aceros">
</g>
<g id="icon-pinturas">
</g>
<g id="icon-encendedores">
</g>
<g id="icon-escolares">
</g>
<g id="icon-pilas">
</g>
<g id="icon-mobiliarios">
</g>
<g id="icon-aluminio">
</g>
<g id="icon-usados">
</g>
</svg>
