<?xml version="1.0" encoding="utf-8"?>
<!-- Generator: Adobe Illustrator 16.0.0, SVG Export Plug-In . SVG Version: 6.00 Build 0)  -->
<!DOCTYPE svg PUBLIC "-//W3C//DTD SVG 1.0//EN" "http://www.w3.org/TR/2001/REC-SVG-20010904/DTD/svg10.dtd">
<svg version="1.0" xmlns="http://www.w3.org/2000/svg" xmlns:xlink="http://www.w3.org/1999/xlink" x="0px" y="0px" width="300px"
	 height="300px" viewBox="0 0 300 300" enable-background="new 0 0 300 300" xml:space="preserve">
<g id="icon-robot">
</g>
<g id="icon-libro">
</g>
<g id="icon-djcp">
</g>
<g id="icon-casco">
</g>
<g id="icon-antena">
</g>
<g id="icon-auto">
</g>
<g id="icon-eficiencia">
	<g>
		<polygon fill="#044E30" points="33.633,7.664 33.633,42.626 150.947,42.626 162.65,23.687 150.947,7.664 		"/>
		<polygon fill="#77A23C" points="33.642,49.288 33.642,84.25 167.367,84.25 179.295,66.769 167.367,49.288 		"/>
		<polygon fill="#C1C731" points="33.471,90.911 33.471,125.857 183.633,125.857 195.785,108.384 183.633,90.911 		"/>
		<polygon fill="#F1E32E" points="33.471,132.523 33.471,167.488 203.979,167.488 216.584,150.005 203.979,132.523 		"/>
		<polygon fill="#DDB421" points="33.471,174.141 33.471,209.104 220.488,209.104 233.238,191.62 220.488,174.141 		"/>
		<polygon fill="#C5711B" points="33.471,215.755 33.471,250.718 237.008,250.718 249.877,233.236 237.008,215.755 		"/>
		<polygon fill="#B22217" points="33.471,257.379 33.471,292.336 253.078,292.336 266.529,275.081 252.729,257.379 		"/>
	</g>
</g>
<g id="icon-gas">
</g>
<g id="icon-medic">
</g>
<g id="icon-logomarca">
</g>
<g id="icon-metrologia">
</g>
<g id="icon-graficos">
</g>
<g id="icon-aceros">
</g>
<g id="icon-pinturas">
</g>
<g id="icon-encendedores">
</g>
<g id="icon-escolares">
</g>
<g id="icon-pilas">
</g>
<g id="icon-mobiliarios">
</g>
<g id="icon-aluminio">
</g>
<g id="icon-usados">
</g>
</svg>
