<?xml version="1.0" encoding="utf-8"?>
<!-- Generator: Adobe Illustrator 16.0.0, SVG Export Plug-In . SVG Version: 6.00 Build 0)  -->
<!DOCTYPE svg PUBLIC "-//W3C//DTD SVG 1.0//EN" "http://www.w3.org/TR/2001/REC-SVG-20010904/DTD/svg10.dtd">
<svg version="1.0" xmlns="http://www.w3.org/2000/svg" xmlns:xlink="http://www.w3.org/1999/xlink" x="0px" y="0px" width="300px"
	 height="300px" viewBox="0 0 300 300" enable-background="new 0 0 300 300" xml:space="preserve">
<g id="Capa_10" display="none">
	<g display="inline">
		<g>
			<g>
				<g>
					<g>
						<g>
							<path fill="#CCCCCC" d="M190.537,129.027c0,0-1.608-0.445-3.242-0.721c-0.8-0.159-1.59-0.277-2.152-0.356
								c-0.475-0.058-0.79-0.084-0.79-0.084l2.692-29.682c0,0,0.206,0.026,0.563,0.053c0.329,0.048,0.794,0.092,1.356,0.162
								c1.067,0.141,2.443,0.347,3.778,0.611c2.691,0.479,5.306,1.178,5.306,1.178L190.537,129.027z"/>
							<path fill="#221E1F" d="M190.537,129.518c-0.027,0-0.074-0.012-0.114-0.021c-0.018-0.009-1.625-0.431-3.212-0.712
								c-0.799-0.158-1.59-0.268-2.129-0.339l-0.805-0.092c-0.246-0.039-0.439-0.267-0.412-0.531l2.691-29.687
								c0.014-0.131,0.071-0.241,0.176-0.328c0.088-0.089,0.224-0.119,0.348-0.106l1.941,0.211c0.936,0.119,2.351,0.33,3.822,0.606
								c2.67,0.492,5.297,1.182,5.341,1.195c0.26,0.07,0.399,0.338,0.338,0.593l-7.493,28.848c-0.045,0.123-0.132,0.227-0.237,0.29
								C190.718,129.488,190.638,129.518,190.537,129.518z M184.879,127.432l0.32,0.035c0.566,0.083,1.371,0.202,2.2,0.356
								c1.1,0.197,2.193,0.452,2.795,0.606l7.261-27.898c-0.878-0.211-2.824-0.689-4.788-1.041c-1.45-0.281-2.842-0.479-3.778-0.602
								l-1.4-0.162L184.879,127.432z"/>
						</g>
					</g>
					<g>
						<g>
							<path fill="#CCCCCC" d="M197.117,131.298c0,0-0.364-0.15-0.905-0.396c-0.559-0.211-1.291-0.522-2.06-0.782
								c-0.765-0.276-1.563-0.509-2.144-0.686c-0.606-0.175-1.007-0.29-1.007-0.29l7.797-28.767c0,0,0.659,0.193,1.639,0.466
								c0.984,0.298,2.285,0.693,3.58,1.159c1.309,0.439,2.588,0.979,3.567,1.357c0.972,0.414,1.612,0.704,1.612,0.704
								L197.117,131.298z"/>
							<path fill="#221E1F" d="M197.117,131.79c-0.069,0-0.127-0.017-0.197-0.045l-0.896-0.386c-0.171-0.061-0.37-0.145-0.576-0.229
								c-0.431-0.171-0.944-0.369-1.453-0.536c-0.62-0.229-1.238-0.426-1.766-0.58l-1.357-0.396
								c-0.255-0.075-0.408-0.342-0.348-0.605l7.806-28.755c0.031-0.133,0.124-0.237,0.237-0.308
								c0.105-0.061,0.246-0.075,0.374-0.04l1.897,0.541c0.958,0.293,2.143,0.658,3.347,1.103c1.055,0.342,2.122,0.768,2.975,1.115
								l0.605,0.237l1.621,0.698c0.133,0.047,0.226,0.149,0.26,0.268c0.057,0.124,0.057,0.263-0.005,0.387l-12.079,27.235
								C197.482,131.684,197.307,131.79,197.117,131.79z M191.609,128.816l0.922,0.267c0.535,0.15,1.164,0.356,1.783,0.58
								c0.519,0.167,1.037,0.378,1.498,0.563c0.202,0.079,0.391,0.153,0.57,0.218l0.48,0.211l11.688-26.348l-1.754-0.733
								c-0.847-0.325-1.901-0.75-2.938-1.103c-1.19-0.426-2.363-0.794-3.316-1.076l-1.393-0.405L191.609,128.816z"/>
						</g>
					</g>
					<g>
						<g>
							<path fill="#CCCCCC" d="M202.621,134.395c0,0-0.058-0.049-0.188-0.136c-0.131-0.075-0.316-0.206-0.531-0.359
								c-0.422-0.295-1.059-0.664-1.674-1.042c-0.672-0.342-1.309-0.725-1.841-0.962c-0.519-0.254-0.865-0.417-0.865-0.417
								l12.414-27.099c0,0,0.641,0.311,1.594,0.759c0.962,0.457,2.228,1.169,3.501,1.854c1.257,0.747,2.5,1.49,3.427,2.145
								c0.457,0.307,0.848,0.565,1.116,0.754c0.268,0.176,0.418,0.281,0.418,0.281L202.621,134.395z"/>
							<path fill="#221E1F" d="M202.621,134.891c-0.104,0-0.206-0.044-0.295-0.114l0,0c-0.013,0-0.056-0.044-0.157-0.101
								l-0.545-0.36c-0.304-0.22-0.677-0.445-1.08-0.694l-0.581-0.342c-0.206-0.106-0.43-0.225-0.649-0.356
								c-0.404-0.211-0.782-0.431-1.12-0.58l-0.887-0.431c-0.229-0.119-0.33-0.405-0.217-0.641l12.394-27.091
								c0.053-0.117,0.145-0.215,0.28-0.259c0.127-0.052,0.26-0.048,0.382,0.018l1.592,0.769c0.892,0.413,1.988,1.01,3.162,1.652
								l0.354,0.206c0.011,0,0.093,0.044,0.093,0.044c1.217,0.738,2.474,1.476,3.388,2.122l1.106,0.747
								c0.281,0.18,0.443,0.312,0.443,0.312c0.206,0.152,0.255,0.461,0.102,0.681l-17.36,24.204
								c-0.079,0.115-0.197,0.188-0.329,0.206C202.666,134.882,202.639,134.891,202.621,134.891z M198.167,131.241l0.444,0.215
								c0.343,0.154,0.755,0.382,1.177,0.607c0.22,0.127,0.443,0.245,0.654,0.365l0.606,0.355c0.431,0.254,0.835,0.509,1.143,0.729
								l0.316,0.211l16.797-23.426v-0.005l-1.12-0.754c-0.9-0.625-2.139-1.354-3.338-2.079l-0.422-0.223
								c-1.155-0.655-2.258-1.248-3.105-1.639l-1.146-0.562L198.167,131.241z"/>
						</g>
					</g>
					<g>
						<g>
							<path fill="#CCCCCC" d="M206.671,138.125c-0.008,0.009-0.03-0.058-0.135-0.154c-0.089-0.101-0.212-0.237-0.365-0.414
								c-0.162-0.166-0.321-0.377-0.532-0.593c-0.22-0.192-0.452-0.421-0.663-0.632c-0.224-0.243-0.479-0.44-0.716-0.637
								c-0.242-0.197-0.462-0.395-0.649-0.549c-0.404-0.299-0.672-0.514-0.672-0.514l17.745-23.936c0,0,0.599,0.461,1.503,1.146
								c0.443,0.351,0.949,0.786,1.503,1.252c0.544,0.47,1.128,0.961,1.687,1.515c0.553,0.536,1.103,1.085,1.63,1.6
								c0.513,0.522,0.976,1.044,1.366,1.484c0.395,0.435,0.711,0.804,0.948,1.059c0.233,0.255,0.344,0.421,0.344,0.421
								L206.671,138.125z"/>
							<path fill="#221E1F" d="M206.671,138.625c-0.17,0-0.315-0.101-0.418-0.246c-0.017,0-0.073-0.066-0.073-0.079l-0.373-0.401
								c-0.066-0.079-0.137-0.153-0.212-0.241c-0.088-0.104-0.193-0.223-0.298-0.338c-0.226-0.197-0.445-0.417-0.681-0.649
								c-0.146-0.154-0.313-0.29-0.461-0.422l-0.22-0.185c-0.098-0.07-0.198-0.163-0.286-0.259
								c-0.119-0.092-0.224-0.188-0.339-0.269l-0.672-0.509c-0.21-0.158-0.264-0.461-0.1-0.681l17.745-23.945
								c0.084-0.104,0.193-0.171,0.339-0.184c0.118-0.014,0.25,0.013,0.359,0.091l1.499,1.134c0.325,0.255,0.685,0.567,1.058,0.887
								l0.8,0.677c0.443,0.386,0.927,0.799,1.375,1.256l1.643,1.59c0.361,0.382,0.712,0.764,1.016,1.102l1.313,1.473
								c0.255,0.28,0.383,0.464,0.383,0.464c0.141,0.216,0.105,0.498-0.093,0.664l-22.981,18.951
								C206.896,138.58,206.79,138.625,206.671,138.625z M203.618,134.54l0.3,0.224c0.117,0.083,0.24,0.193,0.386,0.312
								c0.075,0.084,0.167,0.163,0.264,0.237l0.215,0.185c0.193,0.157,0.382,0.32,0.55,0.496c0.202,0.211,0.426,0.422,0.637,0.624
								c0.149,0.137,0.264,0.272,0.373,0.4c0.053,0.08,0.119,0.15,0.18,0.202l0.203,0.229l22.253-18.335
								c-0.005-0.018-0.014-0.022-0.026-0.022l-1.309-1.484c-0.299-0.325-0.628-0.695-0.989-1.063l-1.625-1.582
								c-0.438-0.443-0.896-0.826-1.326-1.217l-0.809-0.673c-0.359-0.311-0.694-0.606-1.02-0.843l-1.089-0.843L203.618,134.54z"/>
						</g>
					</g>
					<g>
						<g>
							<path fill="#CCCCCC" d="M209.281,142.451c0,0-0.12-0.269-0.308-0.677c-0.149-0.426-0.488-0.904-0.743-1.427
								c-0.141-0.268-0.338-0.487-0.479-0.729c-0.154-0.219-0.277-0.452-0.413-0.632c-0.281-0.351-0.466-0.58-0.466-0.58
								l23.339-18.52c0,0,0.496,0.633,1.222,1.578c0.364,0.482,0.742,1.076,1.155,1.695c0.417,0.637,0.883,1.278,1.264,1.981
								c0.778,1.415,1.596,2.798,2.065,3.901c0.488,1.085,0.818,1.813,0.818,1.813L209.281,142.451z"/>
							<path fill="#221E1F" d="M209.281,142.938c-0.19,0-0.365-0.105-0.448-0.281l-0.295-0.672
								c-0.105-0.264-0.255-0.522-0.412-0.799c-0.11-0.207-0.233-0.405-0.339-0.624c-0.066-0.15-0.153-0.269-0.242-0.374
								c-0.073-0.11-0.148-0.211-0.206-0.317c-0.053-0.079-0.119-0.175-0.184-0.276c-0.071-0.106-0.124-0.211-0.193-0.298
								l-0.472-0.593c-0.162-0.211-0.131-0.514,0.084-0.686l23.344-18.506c0.114-0.092,0.236-0.131,0.369-0.114
								c0.127,0.018,0.25,0.088,0.324,0.189l1.222,1.576c0.264,0.344,0.531,0.756,0.804,1.173l0.369,0.55
								c0.132,0.206,0.264,0.399,0.386,0.597c0.309,0.458,0.616,0.918,0.893,1.424l0.347,0.597c0.681,1.221,1.323,2.377,1.735,3.342
								l0.816,1.81c0.058,0.124,0.063,0.26,0.006,0.378c-0.04,0.127-0.142,0.224-0.261,0.281l-27.463,11.588
								C209.416,142.926,209.346,142.938,209.281,142.938z M207.555,138.48l0.166,0.209c0.102,0.115,0.182,0.238,0.264,0.387
								c0.053,0.088,0.105,0.171,0.18,0.264c0.066,0.114,0.119,0.18,0.181,0.269c0.119,0.163,0.242,0.342,0.329,0.522
								c0.088,0.193,0.208,0.382,0.308,0.567c0.18,0.32,0.344,0.606,0.453,0.918l0.088,0.197l26.559-11.219l-0.606-1.361
								c-0.4-0.923-1.037-2.052-1.709-3.246l-0.334-0.603c-0.263-0.475-0.558-0.921-0.852-1.366c-0.141-0.197-0.269-0.4-0.391-0.588
								l-0.361-0.541c-0.268-0.417-0.527-0.803-0.773-1.128l-0.904-1.182L207.555,138.48z"/>
						</g>
					</g>
					<g>
						<g>
							<path fill="#CCCCCC" d="M210.669,147.691c0,0-0.018-0.354-0.136-0.829c-0.044-0.251-0.088-0.523-0.163-0.831
								c-0.018-0.153-0.04-0.316-0.075-0.475c-0.034-0.148-0.087-0.293-0.136-0.443c-0.084-0.303-0.162-0.605-0.224-0.896
								c-0.07-0.286-0.207-0.523-0.265-0.743c-0.152-0.421-0.255-0.712-0.255-0.712l27.666-11.064c0,0,0.277,0.747,0.686,1.862
								c0.188,0.548,0.452,1.203,0.646,1.911c0.197,0.702,0.403,1.449,0.615,2.209c0.088,0.377,0.193,0.742,0.285,1.125
								c0.088,0.368,0.158,0.733,0.232,1.072c0.133,0.724,0.251,1.37,0.356,1.937c0.237,1.129,0.299,1.871,0.299,1.871
								L210.669,147.691z"/>
							<path fill="#221E1F" d="M210.669,148.174c-0.106,0-0.216-0.043-0.313-0.105c-0.104-0.092-0.171-0.225-0.18-0.361
								c0,0-0.021-0.311-0.119-0.737l-0.185-1.045c-0.026-0.084-0.038-0.167-0.044-0.255l-0.131-0.426
								c-0.087-0.303-0.18-0.616-0.251-0.914c-0.031-0.159-0.088-0.29-0.136-0.414c-0.044-0.101-0.083-0.192-0.105-0.293
								l-0.25-0.698c-0.08-0.251,0.039-0.519,0.28-0.616l27.671-11.069c0.113-0.058,0.267-0.049,0.377,0
								c0.119,0.058,0.224,0.159,0.269,0.285l0.667,1.868c0.075,0.176,0.136,0.365,0.197,0.549c0.164,0.438,0.33,0.904,0.466,1.401
								l0.906,3.334c0.064,0.267,0.113,0.522,0.162,0.777l0.439,2.267c0.232,1.138,0.299,1.885,0.303,1.915
								c0.022,0.269-0.168,0.492-0.436,0.532l-29.519,4.006C210.713,148.174,210.69,148.174,210.669,148.174z M210.041,143.044
								l0.087,0.276c0.027,0.075,0.063,0.154,0.098,0.229c0.058,0.176,0.131,0.351,0.185,0.563c0.057,0.269,0.148,0.567,0.224,0.865
								l0.114,0.365c0,0.004,0.027,0.093,0.027,0.105c0.012,0.11,0.042,0.211,0.064,0.326l0.18,0.988
								c0.031,0.145,0.063,0.264,0.075,0.374l28.558-3.866c-0.04-0.325-0.106-0.791-0.229-1.361l-0.431-2.267
								c-0.044-0.241-0.097-0.479-0.148-0.721l-0.906-3.325c-0.118-0.461-0.281-0.904-0.431-1.309
								c-0.073-0.202-0.148-0.386-0.206-0.567l-0.501-1.379L210.041,143.044z"/>
						</g>
					</g>
					<g>
						<g>
							<path fill="#CCCCCC" d="M210.924,155.054c0,0,0-0.54,0-1.371c0-0.402,0-0.888,0-1.396c0-0.255,0-0.522,0-0.79
								c-0.004-0.185-0.018-0.383-0.022-0.563c-0.013-0.365-0.026-0.725-0.031-1.081c-0.008-0.334-0.025-0.659-0.07-0.9
								c-0.044-0.527-0.087-0.871-0.087-0.871l29.589-3.549c0,0,0.079,0.742,0.199,1.857c0.073,0.567,0.096,1.204,0.122,1.881
								c0.022,0.681,0.053,1.414,0.079,2.143c0.005,0.36,0.022,0.716,0.03,1.081c0,0.268,0,0.535,0,0.79c0,0.509,0,0.994,0,1.396
								c0,0.831,0,1.371,0,1.371H210.924z"/>
							<path fill="#221E1F" d="M240.732,155.536h-29.809c-0.269,0-0.479-0.215-0.479-0.482l-0.08-5.17
								c0-0.325-0.009-0.637-0.044-0.848l-0.096-0.904c-0.031-0.26,0.157-0.501,0.426-0.536l29.595-3.545
								c0.122-0.026,0.255,0.014,0.354,0.096c0.102,0.084,0.162,0.208,0.185,0.335l0.202,1.857c0.075,0.593,0.102,1.27,0.119,1.92
								l0.109,4.028v2.768C241.216,155.321,241.005,155.536,240.732,155.536z M211.42,154.562h28.826l-0.04-4.134l-0.08-2.138
								c-0.026-0.616-0.039-1.274-0.117-1.841l-0.142-1.37l-28.61,3.435l0.045,0.382c0.039,0.255,0.048,0.615,0.048,0.958
								l0.07,2.433V154.562z"/>
						</g>
					</g>
					<g>
						<g>
							<rect x="210.924" y="155.679" fill="#CCCCCC" width="29.809" height="8.763"/>
							<path fill="#221E1F" d="M240.732,164.924h-29.809c-0.269,0-0.479-0.215-0.479-0.482v-8.763c0-0.271,0.21-0.492,0.479-0.492
								h29.809c0.272,0,0.483,0.222,0.483,0.492v8.763C241.216,164.709,241.005,164.924,240.732,164.924z M211.42,163.944h28.826
								v-7.774H211.42V163.944z"/>
						</g>
					</g>
					<g>
						<g>
							<rect x="210.924" y="165.068" fill="#CCCCCC" width="29.809" height="8.757"/>
							<path fill="#221E1F" d="M240.732,174.312h-29.809c-0.269,0-0.479-0.22-0.479-0.486v-8.757c0-0.277,0.21-0.499,0.479-0.499
								h29.809c0.272,0,0.483,0.222,0.483,0.499v8.757C241.216,174.092,241.005,174.312,240.732,174.312z M211.42,173.333h28.826
								v-7.777H211.42V173.333z"/>
						</g>
					</g>
					<g>
						<g>
							<rect x="210.924" y="174.447" fill="#CCCCCC" width="29.809" height="8.761"/>
							<path fill="#221E1F" d="M240.732,183.695h-29.809c-0.269,0-0.479-0.22-0.479-0.487v-8.761c0-0.268,0.21-0.495,0.479-0.495
								h29.809c0.272,0,0.483,0.228,0.483,0.495v8.761C241.216,183.476,241.005,183.695,240.732,183.695z M211.42,182.716h28.826
								v-7.776H211.42V182.716z"/>
						</g>
					</g>
				</g>
				<g>
					<g>
						<g>
							<path fill="#CCCCCC" d="M109.454,129.027c0,0,1.625-0.445,3.244-0.721c0.819-0.159,1.603-0.277,2.169-0.356
								c0.472-0.058,0.789-0.084,0.789-0.084l-2.695-29.682c0,0-0.207,0.026-0.576,0.053c-0.325,0.048-0.791,0.092-1.35,0.162
								c-1.063,0.141-2.438,0.347-3.778,0.611c-2.693,0.479-5.309,1.178-5.309,1.178L109.454,129.027z"/>
							<path fill="#221E1F" d="M109.454,129.518c-0.09,0-0.163-0.03-0.249-0.074c-0.105-0.063-0.191-0.167-0.215-0.29l-7.514-28.848
								c-0.067-0.255,0.086-0.523,0.35-0.593c0.018-0.014,2.666-0.703,5.339-1.195c1.448-0.276,2.884-0.487,3.808-0.606l1.944-0.211
								c0.125-0.009,0.268,0.018,0.36,0.106c0.105,0.087,0.159,0.197,0.172,0.328l2.697,29.687c0.024,0.264-0.169,0.492-0.433,0.531
								l-0.799,0.092c-0.536,0.071-1.315,0.181-2.126,0.339c-1.579,0.281-3.185,0.703-3.205,0.712
								C109.546,129.506,109.498,129.518,109.454,129.518z M102.553,100.531l7.256,27.898c0.608-0.154,1.7-0.409,2.796-0.606
								c0.819-0.154,1.625-0.272,2.189-0.356l0.334-0.035l-2.609-28.706l-1.428,0.171c-0.92,0.114-2.308,0.313-3.745,0.593
								C105.38,99.841,103.421,100.32,102.553,100.531z"/>
						</g>
					</g>
					<g>
						<g>
							<path fill="#CCCCCC" d="M102.889,131.298c0,0,0.365-0.15,0.9-0.396c0.565-0.211,1.283-0.522,2.074-0.782
								c0.75-0.276,1.542-0.509,2.135-0.686c0.608-0.175,0.997-0.29,0.997-0.29l-7.792-28.767c0,0-0.65,0.193-1.632,0.466
								c-0.993,0.298-2.291,0.693-3.594,1.159c-1.293,0.439-2.589,0.979-3.553,1.357c-0.966,0.414-1.619,0.704-1.619,0.704
								L102.889,131.298z"/>
							<path fill="#221E1F" d="M102.889,131.79c-0.187,0-0.365-0.106-0.446-0.294l-12.078-27.235
								c-0.052-0.124-0.052-0.264-0.011-0.387c0.044-0.119,0.145-0.22,0.264-0.268l2.222-0.936c0.848-0.343,1.916-0.773,2.99-1.115
								c1.197-0.445,2.39-0.81,3.352-1.103l1.886-0.541c0.125-0.035,0.255-0.021,0.374,0.04c0.11,0.07,0.191,0.175,0.24,0.308
								l7.788,28.755c0.077,0.264-0.077,0.531-0.329,0.605l-1.366,0.396c-0.523,0.154-1.145,0.351-1.749,0.571
								c-0.527,0.167-1.03,0.374-1.476,0.545c-0.195,0.083-0.402,0.167-0.584,0.242l-0.885,0.372
								C103.019,131.773,102.961,131.79,102.889,131.79z M91.457,104.308l11.685,26.348l0.457-0.192
								c0.204-0.084,0.397-0.159,0.597-0.237c0.455-0.185,0.978-0.396,1.513-0.563c0.6-0.229,1.236-0.43,1.768-0.592l0.925-0.254
								l-7.549-27.825l-1.388,0.387c-0.949,0.299-2.128,0.667-3.31,1.093c-1.05,0.352-2.102,0.778-2.96,1.116L91.457,104.308z"/>
						</g>
					</g>
					<g>
						<g>
							<path fill="#CCCCCC" d="M97.372,134.395c0,0,0.077-0.049,0.191-0.136c0.149-0.075,0.316-0.206,0.546-0.359
								c0.407-0.295,1.048-0.664,1.672-1.042c0.666-0.342,1.307-0.725,1.838-0.962c0.522-0.254,0.861-0.417,0.861-0.417
								l-12.414-27.099c0,0-0.637,0.311-1.59,0.759c-0.962,0.457-2.236,1.169-3.505,1.854c-1.25,0.747-2.5,1.49-3.429,2.145
								c-0.45,0.307-0.839,0.565-1.107,0.754c-0.268,0.176-0.415,0.281-0.415,0.281L97.372,134.395z"/>
							<path fill="#221E1F" d="M97.372,134.891c-0.016,0-0.036-0.009-0.064-0.013c-0.134-0.014-0.253-0.087-0.325-0.202
								l-17.362-24.204c-0.156-0.22-0.119-0.528,0.093-0.681c0,0,0.162-0.132,0.446-0.312l1.111-0.756
								c0.914-0.637,2.175-1.375,3.38-2.113c0,0,0.086-0.044,0.097-0.044l0.374-0.206c1.164-0.642,2.264-1.248,3.141-1.656
								l1.605-0.765c0.115-0.066,0.248-0.07,0.374-0.018c0.129,0.044,0.219,0.142,0.283,0.259l12.395,27.091
								c0.114,0.236,0.023,0.522-0.227,0.641l-0.861,0.426c-0.354,0.154-0.734,0.374-1.145,0.585
								c-0.21,0.131-0.437,0.246-0.67,0.368l-0.551,0.33c-0.401,0.25-0.786,0.475-1.074,0.677l-0.545,0.374
								c-0.101,0.061-0.158,0.105-0.169,0.105C97.591,134.847,97.491,134.891,97.372,134.891z M80.704,110.296l16.798,23.426
								l0.33-0.22c0.296-0.211,0.7-0.466,1.126-0.721l0.569-0.337c0.254-0.137,0.474-0.255,0.685-0.382
								c0.43-0.225,0.843-0.453,1.206-0.62l0.413-0.202l-11.992-26.207l-1.16,0.562c-0.847,0.391-1.939,0.984-3.083,1.622
								l-0.369,0.206c-1.266,0.759-2.5,1.489-3.391,2.113l-1.125,0.754C80.704,110.291,80.704,110.296,80.704,110.296z"/>
						</g>
					</g>
					<g>
						<g>
							<path fill="#CCCCCC" d="M93.328,138.125c0.011,0.009,0.04-0.058,0.134-0.154c0.087-0.101,0.226-0.237,0.374-0.414
								c0.158-0.166,0.323-0.377,0.533-0.593c0.22-0.192,0.45-0.421,0.666-0.632c0.21-0.243,0.478-0.44,0.714-0.637
								c0.228-0.197,0.443-0.395,0.646-0.549c0.406-0.299,0.674-0.514,0.674-0.514L79.32,110.696c0,0-0.593,0.461-1.493,1.146
								c-0.451,0.351-0.953,0.786-1.505,1.252c-0.56,0.47-1.131,0.961-1.691,1.515c-0.556,0.536-1.105,1.085-1.624,1.6
								c-0.516,0.522-0.981,1.044-1.371,1.484c-0.397,0.435-0.711,0.804-0.951,1.059c-0.222,0.255-0.356,0.421-0.356,0.421
								L93.328,138.125z"/>
							<path fill="#221E1F" d="M93.328,138.625L93.328,138.625c-0.105,0-0.219-0.045-0.31-0.119l-22.994-18.951
								c-0.198-0.166-0.23-0.447-0.082-0.664c0,0,0.123-0.185,0.374-0.464l1.32-1.473c0.312-0.337,0.644-0.72,1.013-1.098
								l1.637-1.604c0.461-0.447,0.936-0.861,1.386-1.255l0.788-0.668c0.38-0.32,0.738-0.632,1.054-0.878l1.509-1.143
								c0.11-0.079,0.24-0.105,0.365-0.091c0.13,0.013,0.249,0.079,0.326,0.184l17.759,23.945c0.147,0.22,0.105,0.523-0.105,0.681
								l-0.682,0.509c-0.104,0.08-0.21,0.176-0.329,0.269c-0.088,0.096-0.189,0.188-0.298,0.264l-0.215,0.18
								c-0.154,0.133-0.316,0.269-0.45,0.405c-0.239,0.25-0.463,0.47-0.694,0.676c-0.097,0.106-0.196,0.225-0.288,0.33
								c-0.077,0.088-0.143,0.163-0.22,0.241l-0.437,0.479C93.66,138.524,93.486,138.625,93.328,138.625z M71.031,119.112
								l22.251,18.335l0.196-0.22c0.062-0.061,0.121-0.131,0.191-0.211c0.105-0.127,0.227-0.263,0.345-0.386
								c0.235-0.215,0.461-0.426,0.67-0.649c0.145-0.164,0.34-0.326,0.542-0.483l0.2-0.171c0.102-0.088,0.202-0.167,0.284-0.251
								c0.129-0.119,0.264-0.229,0.384-0.312l0.296-0.224l-17.171-23.154l-1.096,0.843c-0.312,0.251-0.656,0.536-1.025,0.843
								l-0.789,0.673c-0.437,0.386-0.896,0.773-1.326,1.208l-1.643,1.599c-0.345,0.359-0.677,0.729-0.982,1.054l-1.309,1.476
								C71.044,119.09,71.035,119.095,71.031,119.112z"/>
						</g>
					</g>
					<g>
						<g>
							<path fill="#CCCCCC" d="M90.723,142.451c0,0,0.125-0.269,0.313-0.677c0.146-0.426,0.478-0.904,0.742-1.427
								c0.134-0.268,0.33-0.487,0.47-0.729c0.163-0.219,0.281-0.452,0.411-0.632c0.292-0.351,0.459-0.58,0.459-0.58l-23.332-18.52
								c0,0-0.503,0.633-1.217,1.578c-0.364,0.482-0.747,1.076-1.164,1.695c-0.413,0.637-0.868,1.278-1.26,1.981
								c-0.78,1.415-1.59,2.798-2.054,3.901c-0.49,1.085-0.819,1.813-0.819,1.813L90.723,142.451z"/>
							<path fill="#221E1F" d="M90.723,142.938c-0.065,0-0.134-0.013-0.191-0.035l-27.457-11.588
								c-0.116-0.057-0.218-0.153-0.271-0.281c-0.037-0.119-0.037-0.255,0.007-0.378l0.833-1.823c0.401-0.953,1.043-2.1,1.724-3.316
								l0.354-0.611c0.274-0.506,0.58-0.967,0.891-1.424c0.122-0.197,0.255-0.391,0.374-0.583l0.369-0.55
								c0.284-0.431,0.556-0.843,0.811-1.187l1.226-1.576c0.077-0.101,0.187-0.167,0.33-0.189c0.125-0.017,0.255,0.021,0.36,0.114
								l23.352,18.506c0.207,0.172,0.239,0.475,0.073,0.686l-0.459,0.593c-0.072,0.087-0.133,0.192-0.191,0.298
								c-0.068,0.101-0.125,0.197-0.21,0.313c-0.044,0.07-0.105,0.171-0.194,0.276c-0.077,0.11-0.167,0.229-0.224,0.365
								c-0.121,0.232-0.226,0.431-0.345,0.637c-0.173,0.277-0.312,0.536-0.384,0.75l-0.339,0.721
								C91.077,142.833,90.901,142.938,90.723,142.938z M63.923,130.595l26.548,11.219l0.105-0.241
								c0.095-0.269,0.272-0.555,0.444-0.875c0.11-0.185,0.226-0.374,0.316-0.572c0.087-0.175,0.21-0.354,0.325-0.517
								c0.06-0.088,0.116-0.155,0.165-0.237c0.085-0.124,0.134-0.207,0.191-0.3c0.082-0.145,0.178-0.276,0.259-0.395l0.158-0.197
								L69.86,120.58l-0.909,1.19c-0.248,0.316-0.507,0.712-0.771,1.119l-0.365,0.546c-0.123,0.184-0.248,0.386-0.391,0.583
								c-0.288,0.445-0.595,0.892-0.854,1.363l-0.338,0.623c-0.682,1.182-1.298,2.311-1.683,3.224L63.923,130.595z"/>
						</g>
					</g>
					<g>
						<g>
							<path fill="#CCCCCC" d="M89.331,147.691c0,0,0.028-0.354,0.143-0.829c0.037-0.251,0.09-0.523,0.149-0.831
								c0.033-0.153,0.046-0.316,0.091-0.475c0.028-0.148,0.081-0.293,0.125-0.443c0.094-0.303,0.171-0.605,0.235-0.896
								c0.07-0.286,0.191-0.523,0.261-0.743c0.149-0.421,0.242-0.712,0.242-0.712l-27.659-11.064c0,0-0.275,0.747-0.686,1.862
								c-0.182,0.548-0.45,1.203-0.641,1.911c-0.193,0.702-0.405,1.449-0.608,2.209c-0.101,0.377-0.207,0.742-0.299,1.125
								c-0.09,0.368-0.158,0.733-0.224,1.072c-0.134,0.724-0.255,1.37-0.369,1.937c-0.211,1.129-0.292,1.871-0.292,1.871
								L89.331,147.691z"/>
							<path fill="#221E1F" d="M89.331,148.174c-0.02,0-0.036,0-0.063,0l-29.521-4.006c-0.269-0.04-0.455-0.269-0.431-0.532
								c0.004-0.03,0.066-0.777,0.301-1.919l0.43-2.263c0.044-0.255,0.101-0.51,0.158-0.765l0.916-3.351
								c0.134-0.492,0.306-0.958,0.459-1.379c0.068-0.202,0.134-0.391,0.203-0.562l0.685-1.873c0.028-0.126,0.133-0.227,0.244-0.285
								c0.13-0.049,0.263-0.058,0.397,0l27.659,11.069c0.239,0.097,0.373,0.365,0.296,0.616l-0.264,0.711
								c-0.032,0.088-0.061,0.18-0.104,0.281c-0.049,0.124-0.115,0.255-0.135,0.405c-0.085,0.307-0.162,0.62-0.248,0.923
								l-0.105,0.369c-0.049,0.145-0.049,0.229-0.073,0.321l-0.178,0.939c0,0.005-0.013,0.098-0.013,0.098
								c-0.105,0.426-0.121,0.737-0.121,0.737c-0.004,0.136-0.077,0.269-0.183,0.361C89.555,148.131,89.445,148.174,89.331,148.174z
								 M60.346,143.268l28.564,3.866c0.013-0.119,0.045-0.246,0.081-0.387l0.175-0.974c0.024-0.11,0.031-0.216,0.06-0.326
								c0-0.009,0.033-0.101,0.033-0.105l0.105-0.365c0.094-0.298,0.162-0.597,0.244-0.878c0.032-0.199,0.11-0.374,0.178-0.55
								c0.033-0.075,0.062-0.153,0.081-0.215l0.101-0.29L63.21,132.338l-0.515,1.379c-0.053,0.181-0.123,0.365-0.21,0.567
								c-0.134,0.405-0.301,0.848-0.422,1.309l-0.905,3.334c-0.053,0.233-0.099,0.475-0.143,0.721l-0.43,2.258
								C60.464,142.478,60.387,142.943,60.346,143.268z"/>
						</g>
					</g>
					<g>
						<g>
							<path fill="#CCCCCC" d="M89.076,155.054c0,0,0-0.54,0-1.371c0-0.402,0-0.888,0-1.396c0-0.255,0-0.522,0-0.79
								c0.004-0.185,0.02-0.383,0.02-0.563c0.014-0.365,0.029-0.725,0.053-1.081c0-0.334,0.004-0.659,0.048-0.9
								c0.062-0.527,0.105-0.871,0.105-0.871l-29.594-3.549c0,0-0.081,0.742-0.211,1.857c-0.064,0.567-0.092,1.204-0.116,1.881
								c-0.024,0.681-0.046,1.414-0.077,2.143c-0.004,0.36-0.018,0.716-0.033,1.081c0,0.268,0,0.535,0,0.79c0,0.509,0,0.994,0,1.396
								c0,0.831,0,1.371,0,1.371H89.076z"/>
							<path fill="#221E1F" d="M89.076,155.536H59.271c-0.268,0-0.479-0.215-0.479-0.482l0.02-4.647l0.072-2.148
								c0.033-0.65,0.053-1.327,0.138-1.92l0.2-1.857c0.011-0.127,0.082-0.251,0.174-0.335c0.101-0.083,0.235-0.11,0.369-0.096
								l29.594,3.545c0.263,0.035,0.45,0.276,0.426,0.545l-0.101,0.865c-0.048,0.237-0.057,0.536-0.057,0.866l-0.064,1.648v3.535
								C89.564,155.321,89.355,155.536,89.076,155.536z M59.766,154.562h28.816l0.076-4.722c0.007-0.351,0.007-0.689,0.058-0.984
								l0.035-0.342l-28.612-3.435l-0.149,1.37c-0.077,0.567-0.094,1.225-0.11,1.841l-0.114,3.997V154.562z"/>
						</g>
					</g>
					<g>
						<g>
							<rect x="59.271" y="155.679" fill="#CCCCCC" width="29.805" height="8.763"/>
							<path fill="#221E1F" d="M89.076,164.924H59.271c-0.268,0-0.479-0.215-0.479-0.482v-8.763c0-0.271,0.211-0.492,0.479-0.492
								h29.805c0.279,0,0.488,0.222,0.488,0.492v8.763C89.564,164.709,89.355,164.924,89.076,164.924z M59.766,163.944h28.816
								v-7.774H59.766V163.944z"/>
						</g>
					</g>
					<g>
						<g>
							<rect x="59.271" y="165.068" fill="#CCCCCC" width="29.805" height="8.757"/>
							<path fill="#221E1F" d="M89.076,174.312H59.271c-0.268,0-0.479-0.22-0.479-0.486v-8.757c0-0.277,0.211-0.499,0.479-0.499
								h29.805c0.279,0,0.488,0.222,0.488,0.499v8.757C89.564,174.092,89.355,174.312,89.076,174.312z M59.766,173.333h28.816
								v-7.777H59.766V173.333z"/>
						</g>
					</g>
					<g>
						<g>
							<rect x="59.271" y="174.447" fill="#CCCCCC" width="29.805" height="8.761"/>
							<path fill="#221E1F" d="M89.076,183.695H59.271c-0.268,0-0.479-0.22-0.479-0.487v-8.761c0-0.268,0.211-0.495,0.479-0.495
								h29.805c0.279,0,0.488,0.228,0.488,0.495v8.761C89.564,183.476,89.355,183.695,89.076,183.695z M59.766,182.716h28.816
								v-7.776H59.766V182.716z"/>
						</g>
					</g>
				</g>
			</g>
			<g>
				<path fill="#4794CF" d="M166.785,27.176c0,9.27-7.52,16.785-16.785,16.785c-9.266,0-16.775-7.516-16.775-16.785
					c0-9.259,7.509-16.78,16.775-16.78C159.266,10.396,166.785,17.917,166.785,27.176z"/>
			</g>
			<g>
				<path fill="#B12216" d="M178.554,88.345h-57.105c-8.32,0-15.045-6.733-15.045-15.049V41.654c0-8.31,6.725-15.044,15.045-15.044
					h57.105c8.315,0,15.049,6.734,15.049,15.044v31.642C193.603,81.611,186.869,88.345,178.554,88.345z"/>
			</g>
			<g>
				<path fill="#B12216" d="M184.523,183.915h-69.042c-10.978,0-19.897-8.901-19.897-19.883v-46.664
					c0-10.982,8.919-19.896,19.897-19.896h69.042c10.981,0,19.887,8.914,19.887,19.896v46.664
					C204.41,175.014,195.505,183.915,184.523,183.915z"/>
			</g>
			<g>
				<rect x="115.657" y="117.54" fill="#EDECF0" width="68.696" height="46.313"/>
			</g>
			<g>
				<g>
					<path fill="#F1E32E" d="M179.019,57.473c0,5.808-4.695,10.517-10.507,10.517c-5.799,0-10.508-4.709-10.508-10.517
						c0-5.798,4.709-10.499,10.508-10.499C174.323,46.974,179.019,51.674,179.019,57.473z"/>
				</g>
				<g>
					<path fill="#F1E32E" d="M142.004,57.473c0,5.808-4.709,10.517-10.522,10.517c-5.797,0-10.495-4.709-10.495-10.517
						c0-5.798,4.698-10.499,10.495-10.499C137.295,46.974,142.004,51.674,142.004,57.473z"/>
				</g>
			</g>
			<g>
				<g>
					<g>
						<rect x="157.939" y="178.801" fill="#B12216" width="37.702" height="92.225"/>
					</g>
					<g>
						<rect x="153.471" y="268.377" fill="#4794CF" width="46.638" height="21.228"/>
					</g>
				</g>
				<g>
					<g>
						<rect x="104.374" y="178.801" fill="#B12216" width="37.683" height="92.225"/>
					</g>
					<g>
						<rect x="99.911" y="268.377" fill="#4794CF" width="46.629" height="21.228"/>
					</g>
				</g>
				<g>
					<rect x="104.374" y="178.801" fill="#B12216" width="91.268" height="22.706"/>
				</g>
			</g>
			<g>
				<rect x="133.226" y="82.428" fill="#B12216" width="33.56" height="20.066"/>
			</g>
		</g>
		<g>
			<path fill="#4794CF" d="M216.041,205.352c-0.053-0.757,0-1.526,0.137-2.304c0.676-3.952,3.834-7.167,7.793-7.906
				c6.224-1.142,11.666,3.625,11.666,9.633c0,0.252-0.018,0.502-0.03,0.747c-0.255,3.34,2.538,6.12,5.873,6.12l0,0
				c3.149,0,5.706-2.471,5.891-5.61c0.079-1.384,0.026-2.811-0.172-4.265c-1.348-9.753-9.334-17.462-19.13-18.446
				c-12.919-1.304-23.809,8.804-23.809,21.454c0,0.537,0.026,1.06,0.048,1.586c0.22,2.993,2.75,5.281,5.745,5.281h0.255
				C213.695,211.642,216.238,208.729,216.041,205.352z"/>
		</g>
		<g>
			<path fill="#4794CF" d="M64.386,205.352c-0.048-0.757,0-1.526,0.13-2.304c0.685-3.952,3.842-7.167,7.797-7.906
				c6.223-1.142,11.667,3.625,11.667,9.633c0,0.252-0.016,0.502-0.028,0.747c-0.244,3.34,2.532,6.12,5.882,6.12l0,0
				c3.136,0,5.693-2.471,5.875-5.61c0.085-1.384,0.028-2.811-0.167-4.265c-1.351-9.753-9.346-17.462-19.128-18.446
				c-12.923-1.304-23.819,8.804-23.819,21.454c0,0.537,0.028,1.06,0.063,1.586c0.224,2.993,2.748,5.281,5.752,5.281h0.244
				C62.05,211.642,64.578,208.729,64.386,205.352z"/>
		</g>
	</g>
</g>
<g id="Capa_9" display="none">
	<g display="inline">
		<path fill="#272727" d="M277.219,73.415V56l-2.53-0.972c-0.867-0.343-21.308-8.269-48.579-8.269
			c-29.206,0-54.399,8.902-74.849,26.447C130.756,55.662,105.589,46.76,76.346,46.76c-27.271,0-47.717,7.926-48.578,8.269L25.291,56
			v16.13c-8.282,1.554-13.434,4.343-13.434,8.833v166.102h122.338c4.236,3.822,10.462,6.175,17.351,6.175
			c6.911,0,13.125-2.353,17.325-6.175h119.271V80.963C288.143,77.279,283.985,74.869,277.219,73.415L277.219,73.415z
			 M149.898,233.99c-10.147-4.196-45.132-17.494-80.16-17.494c-13.837,0-26.113,2.102-36.569,6.309V61.493
			c6.129-2.002,22.731-6.808,43.176-6.808c26.926,0,50.035,8.142,68.891,23.962v96.303l4.662-5.146V233.99z M269.281,222.837
			c-11.238-4.498-24.087-6.771-38.382-6.771c-35.021,0-68.332,13.426-78.326,17.838v-64.1l4.642,5.146V78.647
			c18.854-15.82,41.964-23.962,68.895-23.962c20.409,0,37.08,4.806,43.172,6.808V222.837z M269.281,222.837"/>
	</g>
</g>
<g id="Capa_8" display="none">
	<g display="inline">
		<path fill="#4794CF" d="M151.681,251.501c34.521-0.021,137.024-17.132,137.024-17.132s-9.601-9.659-9.601-10.642
			c0-70.914-57.805-128.414-129.113-128.414c-71.285,0-129.089,57.5-129.089,128.414c0,0.9-9.608,10.406-9.608,10.406
			S116.319,251.524,151.681,251.501z"/>
		<path fill="#62A7DC" d="M151.681,223.669h127.344c0,0,0.08-41.55,0.08-42.515c0-70.925-57.805-128.424-129.113-128.424
			c-71.285,0-129.089,57.499-129.089,128.424c0,0.897,0.073,42.515,0.073,42.515H151.681z"/>
		<path fill="#4794CF" d="M178.137,51.127c-8.473-1.721-17.245-2.629-26.225-2.629c-9.152,0-18.074,0.95-26.684,2.726V186.01
			c0,0,10.335,4.47,26.28,4.47c15.957,0,26.629-4.47,26.629-4.47V51.127z"/>
		<rect x="20.552" y="167.609" fill="#424241" width="258.401" height="21.506"/>
		<g>
			<path fill="#8E8B8A" d="M149.992,222.9c-24.551,0-44.528-19.982-44.528-44.532c0-24.56,19.977-44.554,44.528-44.554
				c24.574,0,44.543,19.994,44.543,44.554C194.535,202.918,174.565,222.9,149.992,222.9L149.992,222.9z"/>
			<g>
				<path fill="#FFFFFF" d="M149.992,213.979c-19.635,0-35.619-15.973-35.619-35.611c0-19.648,15.984-35.632,35.619-35.632
					c19.65,0,35.632,15.983,35.632,35.632C185.624,198.007,169.642,213.979,149.992,213.979L149.992,213.979z"/>
				<path fill="#BDBDBC" d="M149.992,145.275c18.254,0,33.102,14.836,33.102,33.093c0,18.246-14.848,33.089-33.102,33.089
					c-18.242,0-33.086-14.843-33.086-33.089C116.906,160.111,131.75,145.275,149.992,145.275 M149.992,140.201
					c-21.069,0-38.151,17.089-38.151,38.167c0,21.083,17.082,38.155,38.151,38.155c21.089,0,38.168-17.072,38.168-38.155
					C188.16,157.29,171.081,140.201,149.992,140.201L149.992,140.201z"/>
			</g>
		</g>
	</g>
</g>
<g id="Capa_7" display="none">
	<g display="inline">
		<g>
			<g>
				<path fill="#62A7DC" d="M105.814,55.056c-0.986-0.984-2.339-1.515-3.735-1.461c-1.387,0.044-2.696,0.676-3.603,1.732
					C88.166,67.256,81.92,82.793,81.92,99.764c0,16.687,6.039,31.974,16.041,43.833c0.903,1.068,2.216,1.714,3.614,1.772
					c1.396,0.061,2.773-0.471,3.76-1.453l1.681-1.688c1.835-1.831,1.96-4.765,0.292-6.758c-8.111-9.674-13.01-22.129-13.01-35.707
					c0-13.822,5.073-26.478,13.447-36.225c1.704-1.992,1.592-4.952-0.251-6.81L105.814,55.056z"/>
				<path fill="#62A7DC" d="M201.529,55.327c-0.908-1.056-2.222-1.682-3.603-1.732c-1.395-0.054-2.753,0.477-3.738,1.461
					l-1.678,1.673c-1.854,1.858-1.966,4.818-0.252,6.81c8.371,9.747,13.445,22.402,13.445,36.225c0,13.584-4.898,26.04-13.01,35.707
					c-1.666,1.993-1.538,4.927,0.286,6.758l1.689,1.681c0.984,0.989,2.354,1.521,3.751,1.467c1.404-0.065,2.715-0.711,3.622-1.779
					c10.004-11.859,16.041-27.146,16.041-43.833C218.084,82.793,211.838,67.256,201.529,55.327z"/>
				<path fill="#62A7DC" d="M85.735,41.709c1.79-1.977,1.729-5.012-0.157-6.898l-1.673-1.666c-0.973-0.968-2.29-1.492-3.659-1.461
					c-1.375,0.027-2.676,0.625-3.6,1.64c-15.94,17.575-25.667,40.893-25.667,66.433c0,25.271,9.518,48.354,25.152,65.855
					c0.919,1.034,2.217,1.64,3.598,1.678c1.383,0.04,2.7-0.481,3.687-1.467l1.663-1.664c1.882-1.878,1.968-4.881,0.199-6.864
					c-13.629-15.32-21.913-35.475-21.913-57.538C63.364,77.449,71.843,57.086,85.735,41.709z"/>
				<path fill="#62A7DC" d="M223.352,33.324c-0.918-1.015-2.213-1.613-3.594-1.64c-1.372-0.039-2.686,0.493-3.66,1.461l-1.671,1.673
					c-1.88,1.885-1.948,4.914-0.157,6.891c13.894,15.377,22.37,35.747,22.37,58.048c0,22.063-8.283,42.225-21.911,57.538
					c-1.764,1.97-1.685,4.993,0.188,6.864l1.674,1.664c0.985,0.985,2.303,1.507,3.684,1.476c1.384-0.038,2.684-0.652,3.599-1.687
					c15.637-17.501,25.153-40.592,25.153-65.855C249.026,74.217,239.299,50.899,223.352,33.324z"/>
				<path fill="#62A7DC" d="M63.806,19.868c1.833-1.971,1.775-5.042-0.132-6.947l-1.668-1.66c-0.953-0.969-2.27-1.499-3.628-1.473
					c-1.362,0.027-2.654,0.611-3.579,1.608C33.239,34.606,20.035,65.665,20.035,99.75c0,33.828,12.997,64.669,34.246,87.809
					c0.924,1.013,2.225,1.593,3.582,1.624c1.37,0.032,2.691-0.499,3.656-1.469l1.664-1.666c1.898-1.903,1.964-4.948,0.147-6.919
					c-19.183-20.94-30.921-48.804-30.921-79.379C32.409,68.943,44.338,40.86,63.806,19.868z"/>
				<path fill="#62A7DC" d="M245.205,11.396c-0.927-0.998-2.222-1.582-3.576-1.608c-1.363-0.026-2.681,0.504-3.644,1.469
					l-1.665,1.665c-1.909,1.905-1.963,4.976-0.13,6.947c19.472,20.992,31.396,49.075,31.396,79.896
					c0,30.569-11.729,58.439-30.918,79.382c-1.813,1.971-1.747,5.022,0.145,6.917l1.667,1.666c0.967,0.963,2.282,1.491,3.647,1.467
					c1.368-0.027,2.659-0.609,3.593-1.619c21.248-23.147,34.244-53.991,34.244-87.813C279.965,65.665,266.767,34.599,245.205,11.396
					z"/>
			</g>
			<path fill="#424241" d="M223.374,281.242L156.28,96.891c-0.034-0.088-0.086-0.153-0.122-0.247
				c-0.09-0.219-0.188-0.431-0.301-0.639c-0.11-0.185-0.207-0.372-0.333-0.545c-0.112-0.171-0.248-0.342-0.378-0.504
				c-0.145-0.172-0.279-0.344-0.443-0.504c-0.146-0.146-0.306-0.265-0.457-0.397c-0.175-0.153-0.354-0.299-0.551-0.425
				c-0.155-0.106-0.335-0.2-0.49-0.294c-0.223-0.125-0.461-0.237-0.704-0.332c-0.072-0.041-0.146-0.079-0.217-0.104
				c-0.087-0.035-0.19-0.041-0.28-0.067c-0.239-0.08-0.491-0.146-0.751-0.199c-0.187-0.04-0.385-0.066-0.574-0.088
				c-0.236-0.027-0.459-0.031-0.682-0.031c-0.215,0-0.445,0.004-0.672,0.031c-0.191,0.021-0.389,0.048-0.582,0.088
				c-0.253,0.053-0.496,0.119-0.743,0.199c-0.091,0.027-0.195,0.032-0.285,0.067c-0.074,0.026-0.136,0.064-0.21,0.104
				c-0.243,0.095-0.483,0.206-0.711,0.332c-0.164,0.094-0.323,0.188-0.487,0.294c-0.195,0.126-0.376,0.272-0.557,0.425
				c-0.153,0.132-0.306,0.251-0.446,0.397c-0.168,0.16-0.306,0.332-0.45,0.504c-0.136,0.162-0.263,0.333-0.379,0.504
				c-0.124,0.173-0.223,0.361-0.326,0.545c-0.117,0.208-0.215,0.419-0.302,0.639c-0.038,0.093-0.094,0.159-0.125,0.247
				L76.629,281.242c-1.262,3.467,0.521,7.301,3.992,8.565c0.754,0.278,1.515,0.404,2.29,0.404c2.711,0,5.276-1.678,6.262-4.403
				l8.7-23.871H202.13l8.702,23.871c0.977,2.726,3.545,4.403,6.267,4.403c0.761,0,1.529-0.126,2.285-0.404
				C222.854,288.543,224.639,284.709,223.374,281.242z M149.998,118.699l2.233,6.134l-6.607,5.911L149.998,118.699z M155.92,134.972
				l3.671,10.084H144.62L155.92,134.972z M136.756,155.077h15.359l-20.336,13.697L136.756,155.077z M164.589,158.761l6.64,18.255
				h-33.757L164.589,158.761z M125.126,187.029h31.534l-38.1,18.062L125.126,187.029z M175.632,189.144l7.908,21.705h-53.725
				L175.632,189.144z M112.819,220.866h54.234l-63.758,26.149L112.819,220.866z M117.772,251.91l70.226-28.808l10.486,28.808
				H117.772z"/>
			<path fill="#424241" d="M152.23,124.833l-2.233,2v13.422l5.922-5.283l3.671,10.084h-9.593v10.021h2.118l-2.118,1.421v12.076
				l14.591-9.813l6.64,18.255h-21.231v10.014h6.663l-6.663,3.162v11.087l25.634-12.135l7.908,21.705h-33.542v10.018h17.056
				l-17.056,6.995v10.83l38-15.589l10.486,28.808h-48.487v10.027h52.132l8.702,23.871c0.977,2.726,3.545,4.403,6.267,4.403
				c0.761,0,1.529-0.126,2.285-0.404c3.471-1.265,5.255-5.099,3.99-8.565L156.28,96.891c-0.034-0.088-0.086-0.153-0.122-0.247
				c-0.09-0.219-0.188-0.431-0.301-0.639c-0.11-0.185-0.207-0.372-0.333-0.545c-0.112-0.171-0.248-0.342-0.378-0.504
				c-0.145-0.172-0.279-0.344-0.443-0.504c-0.146-0.146-0.306-0.265-0.457-0.397c-0.175-0.153-0.354-0.299-0.551-0.425
				c-0.155-0.106-0.335-0.2-0.49-0.294c-0.223-0.125-0.461-0.237-0.704-0.332c-0.072-0.041-0.146-0.079-0.217-0.104
				c-0.087-0.035-0.19-0.041-0.28-0.067c-0.239-0.08-0.491-0.146-0.751-0.199c-0.187-0.04-0.385-0.066-0.574-0.088
				c-0.236-0.027-0.459-0.031-0.682-0.031v26.184L152.23,124.833z"/>
			<path fill="#438AB6" d="M149.998,75.104c-13.62,0-24.657,11.036-24.657,24.66c0,13.616,11.037,24.66,24.657,24.66
				c13.624,0,24.666-11.044,24.666-24.66C174.663,86.139,163.621,75.104,149.998,75.104z"/>
			<path fill="#4794CF" d="M174.663,99.764c0-13.625-11.042-24.66-24.666-24.66v49.32
				C163.621,124.423,174.663,113.379,174.663,99.764z"/>
		</g>
	</g>
</g>
<g id="Capa_6" display="none">
	<g display="inline">
		<path fill="#A01127" d="M263.736,130.657l-12.458-8.621l-11.425-49.807c-2.741-11.951-13.375-20.421-25.638-20.421H85.784
			c-12.26,0-22.894,8.47-25.637,20.421l-11.425,49.807l-12.458,8.621c-8.244,5.708-13.164,15.094-13.164,25.118v44.822
			c0,8.326,6.75,15.072,15.076,15.072h223.648c8.325,0,15.075-6.746,15.075-15.072v-44.822
			C276.899,145.749,271.979,136.362,263.736,130.657L263.736,130.657z M263.736,130.657"/>
		<path fill="#73B3B7" d="M236.716,122.033H63.287l10.697-46.628C75.254,69.871,80.104,66,85.787,66h128.429
			c5.683,0,10.533,3.871,11.806,9.405L236.716,122.033z M236.716,122.033"/>
		<path fill="#FFFFFF" d="M216.887,159.383"/>
		<path fill="#CCCCCC" d="M271.488,194.15H28.512c-5.944,0-10.76,4.82-10.76,10.76c0,5.945,4.816,10.76,10.76,10.76h242.976
			c5.943,0,10.76-4.814,10.76-10.76C282.248,198.971,277.432,194.15,271.488,194.15L271.488,194.15z M271.488,194.15"/>
		<path fill="#666666" d="M37.285,215.67v26.268c0,3.457,2.799,6.254,6.252,6.254h23.964c3.456,0,6.256-2.797,6.256-6.254V215.67"/>
		<path fill="#666666" d="M226.245,215.67v26.268c0,3.457,2.801,6.254,6.253,6.254h23.965c3.452,0,6.253-2.797,6.253-6.254V215.67"
			/>
		<path fill="#4D4D4D" d="M191.584,215.67v3.186c0,7.732-6.269,14.002-14.002,14.002h-45.539c-7.729,0-13.998-6.27-13.998-14.002
			v-3.186"/>
		<path fill="#90C1C5" d="M236.716,122.033h-59.71L120.972,66h93.244c5.683,0,10.533,3.871,11.806,9.405L236.716,122.033z
			 M236.716,122.033"/>
		<rect x="103.877" y="159.383" fill="#7C1A1D" width="97.412" height="7.742"/>
		<rect x="103.877" y="172.428" fill="#7C1A1D" width="97.412" height="7.744"/>
	</g>
	<circle display="inline" fill="#FFFFFF" cx="63.236" cy="167.125" r="15.389"/>
	<circle display="inline" fill="#FFFFFF" cx="236.716" cy="167.125" r="15.39"/>
</g>
<g id="Capa_5" display="none">
	<g display="inline">
		<polygon fill="#044E30" points="33.633,7.665 33.633,42.626 150.947,42.626 162.65,23.687 150.947,7.665 		"/>
		<polygon fill="#77A23C" points="33.642,49.288 33.642,84.25 167.368,84.25 179.296,66.769 167.368,49.288 		"/>
		<polygon fill="#C1C731" points="33.471,90.911 33.471,125.858 183.633,125.858 195.785,108.384 183.633,90.911 		"/>
		<polygon fill="#F1E32E" points="33.471,132.524 33.471,167.488 203.979,167.488 216.584,150.005 203.979,132.524 		"/>
		<polygon fill="#DDB421" points="33.471,174.141 33.471,209.104 220.488,209.104 233.239,191.62 220.488,174.141 		"/>
		<polygon fill="#C5711B" points="33.471,215.755 33.471,250.718 237.009,250.718 249.878,233.236 237.009,215.755 		"/>
		<polygon fill="#B22217" points="33.471,257.379 33.471,292.336 253.079,292.336 266.53,275.081 252.729,257.379 		"/>
	</g>
</g>
<g id="Capa_4" display="none">
	<g display="inline">
		<linearGradient id="SVGID_1_" gradientUnits="userSpaceOnUse" x1="104.73" y1="81.71" x2="104.73" y2="157.2651">
			<stop  offset="0" style="stop-color:#DCAF4C"/>
			<stop  offset="0.1689" style="stop-color:#DBAC48"/>
			<stop  offset="0.3299" style="stop-color:#D7A23C"/>
			<stop  offset="0.4874" style="stop-color:#D19422"/>
			<stop  offset="0.51" style="stop-color:#D0911C"/>
			<stop  offset="0.83" style="stop-color:#C06025"/>
			<stop  offset="0.9195" style="stop-color:#B8451C"/>
			<stop  offset="1" style="stop-color:#B22217"/>
		</linearGradient>
		<path fill="url(#SVGID_1_)" d="M85.076,81.71c0,0,19.477,9.436,29.298,28.524c10.01,19.454-0.783,32.373,10.01,47.031
			c0,0-17.42-18.418-18.945-34.602C103.892,106.474,96.644,94.814,85.076,81.71z"/>
		<linearGradient id="SVGID_2_" gradientUnits="userSpaceOnUse" x1="149.9995" y1="5.7993" x2="149.9995" y2="294.2017">
			<stop  offset="0" style="stop-color:#DCAF4C"/>
			<stop  offset="0.1689" style="stop-color:#DBAC48"/>
			<stop  offset="0.3299" style="stop-color:#D7A23C"/>
			<stop  offset="0.4874" style="stop-color:#D19422"/>
			<stop  offset="0.51" style="stop-color:#D0911C"/>
			<stop  offset="0.83" style="stop-color:#C06025"/>
			<stop  offset="0.9195" style="stop-color:#B8451C"/>
			<stop  offset="1" style="stop-color:#B22217"/>
		</linearGradient>
		<path fill="url(#SVGID_2_)" d="M196.752,250.363c0,0,32.891-25.651,37.006-82.186c4.11-56.528-32.885-49.324-45.217-89.415
			c-12.33-40.069,7.184-72.964,7.184-72.964s-63.712,33.909-50.347,103.798c13.353,69.886-15.417,79.147-44.205,62.702
			c-28.776-16.451-23.635-78.107-23.635-78.107s-47.277,72.961,10.282,122.297c0,0-23.641,13.356-46.251-29.818
			c0,0,14.89,93.984,94.25,107.53c-32.68-14.541-47.489-57.676-47.489-57.676s21.255,28.634,36.054,28.841
			c14.822,0.195-12.456-22.924-12.304-42.98c0,0,19.417,29.051,37.911,14.14c18.5-14.899,29.292-39.564,19.277-71.167
			c0,0,22.351,45.217,12.321,71.167c-10.007,25.952-1.523,38.285,17.735,30.579c0,0-4.605,18.725-26.572,27.097l0,0
			c69.722-12.837,85.68-98.783,85.68-98.783S241.983,239.015,196.752,250.363z"/>
		<path opacity="0.1" fill="#050306" d="M135.818,294.201c-8.813-3.906-16.292-9.9-22.556-16.563
			c-38.264-18.754-71.695-90.968-71.695-90.968S56.458,280.655,135.818,294.201z"/>
		<g opacity="0.1">
			<polygon fill="#050306" points="172.752,294.201 172.752,294.201 172.752,294.201 			"/>
			<path fill="#050306" d="M197.165,272.594c-3.066,6.188-10.01,16.127-24.413,21.607c69.722-12.837,85.68-98.783,85.68-98.783
				s-6.927,18.301-24.077,34.27l0,0C234.354,229.688,218.907,260.35,197.165,272.594z"/>
		</g>
		<path opacity="0.1" fill="#050306" d="M101.16,105.572L101.16,105.572c2.21,5.257,3.678,10.841,4.279,17.09
			c1.524,16.184,18.945,34.602,18.945,34.602c-5.366-6.182-10.034-20.242-11.776-28.903
			C110.878,119.694,101.16,105.572,101.16,105.572z"/>
	</g>
</g>
<g id="Capa_3" display="none">
	<g display="inline">
		<path id="XMLID_15_" fill="#272424" d="M62.126,234.24h45.066v23.516H66.688c-3.473,0-6.297,2.813-6.297,6.285v22.007
			c0,3.472,2.824,6.288,6.297,6.288h166.638c3.468,0,6.282-2.816,6.282-6.288v-22.007c0-3.472-2.814-6.285-6.282-6.285h-40.507
			V234.24h45.065c24.597,0,44.604-20.01,44.604-44.607V52.271c0-24.607-20.008-44.606-44.604-44.606H62.126
			c-24.6,0-44.615,20-44.615,44.606v137.362C17.512,214.23,37.527,234.24,62.126,234.24z M30.09,52.271
			c0-17.664,14.364-32.036,32.036-32.036h175.757c17.665,0,32.025,14.373,32.025,32.036v137.362
			c0,17.663-14.36,32.025-32.025,32.025H62.126c-17.672,0-32.036-14.362-32.036-32.025V52.271z M227.038,279.766H72.97v-9.439
			h154.068V279.766z M119.762,257.756V234.24h60.478v23.516H119.762z"/>
		<path id="XMLID_11_" fill="#272424" d="M180.427,204.661h32.521c17.771,0,32.207-14.445,32.207-32.195v-99.16
			c0-17.76-14.437-32.206-32.207-32.206H86.083c-17.754,0-32.193,14.445-32.193,32.206v99.16c0,17.75,14.439,32.195,32.193,32.195
			h32.538 M62.962,73.306c0-12.754,10.373-23.126,23.121-23.126h126.866c12.756,0,23.126,10.372,23.126,23.126v99.16
			c0,12.74-10.37,23.117-23.126,23.117H86.083c-12.748,0-23.121-10.377-23.121-23.117V73.306z M127.696,204.661h43.649"/>
		<g id="XMLID_6_">
			<path id="XMLID_9_" fill="#B12216" d="M103.139,141.238h27.873v27.871c0,1.602,1.305,2.897,2.883,2.897h31.241
				c1.596,0,2.889-1.296,2.889-2.897v-27.871h27.891c1.583,0,2.889-1.303,2.889-2.89v-31.236c0-1.592-1.306-2.891-2.889-2.891
				h-27.891V76.343c0-1.606-1.293-2.898-2.889-2.898h-31.241c-1.578,0-2.883,1.292-2.883,2.898v27.878h-27.873
				c-1.607,0-2.897,1.299-2.897,2.891v31.236C100.241,139.935,101.531,141.238,103.139,141.238z"/>
		</g>
	</g>
</g>
<g id="Capa_2" display="none">
	<g display="inline">
		<path fill="#22211F" d="M187.922,126.021c-6.602-2.812-11.755-4.446-17.487-5.811c-5.605-1.272-11.055-1.979-16.41-1.979
			c-5.116,0-8.949,0.827-11.678,2.399c-2.59,1.621-3.94,3.94-3.94,6.973c0,2.466,1.135,4.513,3.408,5.917
			c2.335,1.326,8.263,2.803,17.738,4.531c12.166,2.208,20.853,5.865,25.862,10.68c5.032,4.799,7.569,11.741,7.569,20.81
			c0,10.073-3.344,17.726-9.755,23.122c-6.447,5.351-15.796,7.966-27.982,7.966c-6.948,0-13.695-0.425-20.143-1.192
			c-6.501-0.808-12.543-2.13-18.381-3.696c-0.144-5.88-0.395-10.604-0.645-14.311c-0.191-3.758-0.441-7.062-1.045-9.997
			c6.323,3.055,12.496,5.379,18.866,6.989c6.364,1.596,12.267,2.432,17.886,2.432c5.856,0,10.09-0.836,12.801-2.291
			c2.608-1.456,3.927-3.769,3.927-7.015c0-4.724-5.385-8.222-16.227-10.542c-0.692-0.097-1.141-0.31-1.576-0.31
			c-0.519-0.224-1.319-0.328-2.333-0.479c-11.493-2.547-19.237-5.224-23.261-8.066c-3.295-2.431-5.916-5.55-7.825-9.479
			c-1.827-3.833-2.819-7.939-2.819-12.445c0-9.674,3.529-17.202,10.562-22.56c7.068-5.337,16.908-7.991,29.659-7.991
			c5.062,0,10.335,0.463,15.951,1.22c5.523,0.806,11.302,2.037,17.278,3.525"/>
		<path fill="#22211F" d="M187.922,104.422c0,0.854-0.095,1.729-0.095,2.726v4.11"/>
		<path fill="#22211F" d="M208.058,95.375c13.887,14.48,22.33,34.071,22.33,55.563c0,21.302-8.443,40.864-22.209,55.365
			c0.131,10.265,0.16,20.705,0.429,31.596c-16.776,11.169-36.972,17.708-58.631,17.708c-57.737,0-104.882-47.105-104.882-104.669
			c0-57.79,47.217-103.977,104.882-104.905c21.659-0.386,41.777,6.146,58.631,17.441C208.339,74.151,208.179,84.733,208.058,95.375
			 M149.977,81.083c-38.446,0-69.718,31.405-69.718,69.855c0,38.339,31.271,69.654,69.718,69.654
			c38.47,0,69.837-31.315,69.837-69.654C219.813,112.487,188.446,81.083,149.977,81.083"/>
		<path fill="#22211F" d="M230.021,269.6c0.091-4.32,0.091-8.665,0.091-13.078c31.891-24.25,52.673-62.713,52.673-105.584
			c0-43.08-20.782-81.425-52.673-105.675c0-4.416,0-8.797-0.091-13.212c-22.87-15.475-48.404-25.229-77.997-26.142
			C121.23,4.95,92.533,17.307,69.602,32.961v12.495c-31.736,24.277-52.387,62.518-52.387,105.481
			c0,42.871,20.764,81.334,52.673,105.584c0,4.514,0.09,8.873,0.09,13.078c22.805,15.463,50.375,24.545,79.999,24.545
			C179.574,294.145,207.151,285.063,230.021,269.6 M157.94,290.113l-9.032-9.886l0.292,10.214l-2.758,0.09l-0.585-14.307
			l2.943-0.087l8.978,9.904l-0.339-10.116l2.817-0.104l0.478,14.234L157.94,290.113z M168.502,289.133l-1.356-11.755l-4.585,0.576
			l-0.256-2.504l11.935-1.427l0.328,2.414l-4.466,0.615l1.432,11.698L168.502,289.133z M179.192,287.311l-3.407-13.871l2.799-0.688
			l3.529,13.845L179.192,287.311z M197.689,281.661l-11.732-6.514l3.57,9.547l-2.698,0.904l-4.812-13.388l2.734-0.998l11.516,6.647
			l-3.521-9.604l2.751-0.951l4.806,13.456L197.689,281.661z M220.44,271.098l-3.009,1.481l-2.538-1.77l-7.533,3.841l0.089,3.112
			l-2.519,1.326l-0.162-16.27l2.479-1.269L220.44,271.098z M213.187,26.433v16.313l-3.021-1.496l0.132-3.217l-7.569-3.833
			l-2.544,1.901l-2.494-1.325l13.015-9.525L213.187,26.433z M195.086,18.463c0.71,0.218,1.527,0.525,2.245,0.919
			c0.781,0.394,1.48,0.838,2.065,1.334c0,0,0,0.068-0.066,0.251c-0.137,0.25-0.137,0.438-0.263,0.537
			c-0.06,0.308-0.16,0.585-0.16,1.018c-0.096,0.287-0.191,0.618-0.191,0.893c-0.711-0.606-1.284-1.22-1.976-1.602
			c-0.718-0.529-1.445-0.845-2.192-1.028c-1.456-0.489-2.794-0.489-3.916,0.087c-1.158,0.534-1.946,1.543-2.514,3.053
			c-0.519,1.499-0.358,2.901,0.222,4.224c0.733,1.211,1.796,2.152,3.414,2.597c0.813,0.218,1.54,0.334,2.43,0.418
			c0.8,0,1.679-0.083,2.706-0.266c-0.407,0.668-0.729,1.152-0.867,1.65c-0.227,0.413-0.327,0.845-0.525,1.117
			c-0.609,0.113-1.433,0-2.203-0.081c-0.811-0.122-1.605-0.326-2.5-0.624c-1.458-0.49-2.572-1-3.367-1.681
			c-0.902-0.594-1.47-1.421-2.012-2.466c-0.347-0.782-0.604-1.663-0.604-2.701c0-0.961,0.113-1.979,0.395-2.973
			c0.751-2.268,1.999-3.758,3.743-4.546C190.632,17.684,192.746,17.684,195.086,18.463 M182.603,15.051l-3.165,13.917l-2.979-0.72
			l3.22-13.896L182.603,15.051z M167.718,12.344l-1.396,11.582l7.099,0.884l-0.353,2.65l-10.077-1.23l1.819-14.211L167.718,12.344z
			 M154.543,11.23c1.397,0,2.621,0.286,3.297,1.036c0.854,0.576,1.187,1.429,1.063,2.516c0,0.866-0.156,1.573-0.676,2.114
			c-0.387,0.577-1.063,0.884-2.018,1.095c1.004,0.183,1.84,0.604,2.484,1.192c0.584,0.593,0.738,1.411,0.738,2.412
			c0,1.295-0.405,2.331-1.205,3.021c-0.787,0.635-2.071,0.922-3.684,0.922l-6.782-0.113l0.317-14.254L154.543,11.23z
			 M131.333,12.344l1.045,8.528c0.065,1.218,0.495,2.118,1.086,2.677c0.692,0.376,1.641,0.585,2.961,0.376
			c0.705,0,1.277-0.211,1.755-0.511c0.531-0.274,0.812-0.606,1.194-1.083c0.083-0.325,0.167-0.674,0.167-0.925
			c0-0.438,0-0.977-0.085-1.821l-0.083-0.402l-0.968-7.761l2.746-0.251l1.111,8.913c0.292,1.923-0.137,3.332-1.027,4.439
			c-0.991,1.093-2.525,1.707-4.734,2.015c-2.125,0.29-3.839,0-4.932-0.827c-1.23-0.767-1.951-2.162-2.196-4.116l-1.021-8.866
			L131.333,12.344z M118.651,14.869c1.881-0.413,3.278-0.413,4.228,0.107c1.056,0.403,1.754,1.379,2.053,2.803
			c0.184,0.815,0.184,1.517,0.101,2.092c-0.101,0.722-0.4,1.346-0.931,1.785c-0.263,0.433-0.77,0.758-1.319,1.038
			c-0.562,0.295-1.375,0.538-2.502,0.854l-2.675,0.585l1.308,5.322l-2.979,0.672l-3.217-13.979L118.651,14.869z M106.593,18.174
			l0.9,2.256l-6.042,2.265l1.158,3.016l5.193-1.997l0.926,2.256l-5.312,1.971l1.468,3.626l6.364-2.397l0.914,2.176l-9.254,3.555
			l-5.134-13.307L106.593,18.174z M81.84,29.254l5.541-2.821c1.724-0.896,3.211-1.183,4.363-1.009
			c1.164,0.191,2.079,0.9,2.706,2.217c0.524,0.979,0.697,2.015,0.364,2.932c-0.162,0.88-0.771,1.6-1.697,2.274
			c0.58-0.048,1.23-0.048,1.697,0c0.645,0.221,1.104,0.412,1.618,0.818c0.238,0.113,0.322,0.182,0.622,0.42
			c1.551,1.209,2.489,1.824,2.923,2.015l-3.307,1.708c-0.947-0.806-1.695-1.409-2.417-1.899c-0.733-0.528-1.344-0.818-1.862-1.009
			c-0.352-0.191-0.645-0.295-1.092-0.191c-0.281,0-0.705,0.066-1.171,0.382L88.61,35.91l2.406,4.705l-2.644,1.423L81.84,29.254z
			 M27.908,150.938c0-67.24,54.9-122.123,122.069-122.123c67.275,0,122.129,54.883,122.129,122.123
			c0,67.093-54.854,121.973-122.129,121.973C82.808,272.91,27.908,218.03,27.908,150.938 M93.823,278.357v-3.148l-7.463-3.813
			l-2.538,1.899l-2.441-1.312l12.966-9.623l2.406,1.282l0.15,16.191L93.823,278.357z M108.425,283.898
			c0-1.239-0.22-2.237-0.299-3.016c-0.095-0.9-0.322-1.495-0.477-2.028c-0.155-0.418-0.333-0.706-0.579-0.9
			c-0.286-0.191-0.652-0.508-1.129-0.576l-1.695-0.656l-1.726,5.091l-2.835-0.93l4.716-13.492l5.822,2
			c1.837,0.594,3.176,1.419,3.785,2.428c0.663,0.934,0.663,2.101,0.281,3.542c-0.413,1.009-1.058,1.786-1.846,2.229
			c-0.77,0.476-1.748,0.559-2.799,0.364c0.376,0.288,0.807,0.71,1.063,1.372c0.328,0.443,0.544,0.901,0.632,1.557
			c0,0.184,0,0.393,0.054,0.717c0.281,1.896,0.472,3.095,0.668,3.463L108.425,283.898z M125.26,288.405
			c-1.158,0-2.149-0.201-3.253-0.504c-2.489-0.591-4.323-1.708-5.427-3.416c-1.115-1.689-1.409-3.725-0.877-5.915
			c0.609-2.201,1.689-3.823,3.498-4.85c1.809-0.897,3.911-1.142,6.437-0.493c0.918,0.252,1.718,0.598,2.626,0.973
			c0.782,0.45,1.571,0.847,2.268,1.43v0.191l-0.047,0.403c-0.144,0.317-0.209,0.638-0.209,0.922
			c-0.072,0.443-0.221,0.808-0.221,1.29c-0.914-0.778-1.791-1.384-2.621-1.895c-0.805-0.404-1.569-0.761-2.5-1.02
			c-1.522-0.375-2.925-0.162-4.019,0.403c-1.133,0.655-1.915,1.837-2.263,3.4c-0.382,1.435-0.186,2.814,0.549,3.996
			c0.843,1.163,1.971,2.007,3.679,2.41c0.531,0.039,1.133,0.19,1.653,0.31h1.623l0.472-2.144l-3.05-0.721l0.643-2.295l5.613,1.412
			l-1.481,6.031C127.355,288.405,126.341,288.539,125.26,288.405 M132.603,289.399l1.194-14.252l9.434,0.886l-0.222,2.324
			l-6.405-0.595l-0.323,3.21l5.66,0.497l-0.204,2.429l-5.653-0.49l-0.371,3.902l6.842,0.591l-0.209,2.366L132.603,289.399z
			 M156.531,21.218c0-0.713-0.227-1.19-0.591-1.499c-0.448-0.423-0.99-0.537-1.916-0.657h-3.212l-0.103,4.17h2.907
			c1.075,0,1.875-0.093,2.323-0.424C156.305,22.522,156.531,22.006,156.531,21.218 M156.209,15.128c0-0.538-0.214-1.057-0.495-1.269
			c-0.364-0.316-1.021-0.346-2.012-0.346l-2.794-0.152l-0.095,3.534l2.657,0.075c1.073,0,1.777-0.075,2.167-0.395
			C155.995,16.28,156.209,15.887,156.209,15.128 M213.073,269.391l-5.826-4.417l0.113,7.374L213.073,269.391z M210.363,28.421
			l-5.857,4.379l5.791,2.917L210.363,28.421z M93.953,272.91l0.09-7.307l-5.861,4.381L93.953,272.91z M121.785,20.43
			c0.436-0.558,0.508-1.134,0.335-1.835c-0.191-0.72-0.478-1.122-0.98-1.287c-0.429-0.257-1.241-0.257-2.227,0l-2.729,0.684
			l1.01,4.015l2.203-0.6C120.622,21.218,121.409,20.785,121.785,20.43 M92.126,30.964c0.263-0.588,0.263-1.201-0.088-1.893
			c-0.293-0.651-0.74-0.922-1.212-1.039c-0.526-0.092-1.194,0-2,0.54l-3.129,1.46l1.904,3.814l2.783-1.376
			C91.297,32.05,91.899,31.453,92.126,30.964 M111.53,274.535c0.209-0.71,0.209-1.239-0.139-1.625
			c-0.227-0.522-0.847-0.814-1.749-1.092l-3.225-1.221l-1.432,4.149l2.931,1.034c0.998,0.252,1.821,0.356,2.306,0.145
			C110.891,275.781,111.249,275.209,111.53,274.535"/>
	</g>
</g>
<g id="Capa_11" display="none">
	<g display="inline">
		<path fill="none" d="M149.975,257.52c37.191,0,68.061-27.747,72.919-63.694c0.432-3.237,0.703-6.585,0.703-9.932
			c0-8.636-1.515-16.895-4.268-24.607c-4.53-12.852-12.572-24.023-22.937-32.491c-3.562-2.918-7.447-5.509-11.5-7.725
			c-5.128-2.75-10.574-4.964-16.35-6.476c-5.937-1.565-12.2-2.377-18.622-2.377c-6.42,0-12.624,0.812-18.618,2.377
			c-5.67,1.463-11.014,3.617-16.088,6.319c-4.205,2.262-8.147,4.911-11.817,7.881c-10.364,8.419-18.351,19.64-22.937,32.491
			c-2.753,7.713-4.269,15.972-4.269,24.607c0.162,3.347,0.434,6.694,0.866,9.932C81.914,229.713,112.786,257.52,149.975,257.52z
			 M92.119,220.004l-2.378-4.103l15.115-8.741l2.375,4.099L92.119,220.004z M117.913,244.126l-4.098-2.371l8.795-15.172l4.107,2.378
			L117.913,244.126z M152.348,252.062h-4.751v-17.485h4.751V252.062z M181.981,244.073l-8.742-15.112l4.1-2.378l8.743,15.115
			L181.981,244.073z M218.144,186.27h-17.491v-4.752h17.491V186.27z M207.841,147.731l2.364,4.104l-15.109,8.74l-2.373-4.1
			L207.841,147.731z M195.096,207.16l15.109,8.741l-2.364,4.103l-15.118-8.745L195.096,207.16z M182.035,123.662l2.914,1.673
			l1.187,0.704l-0.485,0.808l-8.259,14.298l-4.098-2.376L182.035,123.662z M147.597,115.726h4.751v17.489h-4.751V115.726z
			 M140.532,183.894c0-5.181,4.209-9.396,9.389-9.396c1.569,0,2.969,0.38,4.268,1.032c14.787-13.011,30.061-26.126,30.817-25.314
			c0.753,0.808-13.012,15.328-26.719,29.358c0.647,1.298,1.024,2.756,1.024,4.319c0,5.183-4.209,9.389-9.391,9.389
			c-1.513,0-2.912-0.38-4.152-0.969c-7.884,7.993-13.821,13.924-13.821,13.924c-1.568,1.51-4.152,1.46-5.664-0.159
			c-1.507-1.623-1.462-4.157,0.104-5.722c0,0,6.317-5.67,14.738-13.224C140.746,186.107,140.532,185.028,140.532,183.894z
			 M115.271,125.175l2.642-1.513l8.75,15.107l-4.106,2.376l-8.311-14.298l-0.483-0.808L115.271,125.175z M92.173,147.731
			l15.109,8.745l-2.378,4.1l-15.109-8.74L92.173,147.731z M81.803,181.518h17.491v4.752H81.803V181.518z"/>
		<polygon points="122.557,141.146 126.663,138.769 117.913,123.662 115.271,125.175 113.763,126.039 114.246,126.847 		"/>
		<polygon points="107.282,156.477 92.173,147.731 89.795,151.836 104.904,160.576 		"/>
		<rect x="147.597" y="115.726" width="4.751" height="17.489"/>
		<rect x="81.803" y="181.518" width="17.491" height="4.752"/>
		<path d="M238.973,278.563h-2.527H63.566h-2.54c-1.779,0-3.185,1.404-3.185,3.185c0,1.779,1.405,3.185,3.185,3.185h177.946
			c1.788,0,3.19-1.405,3.19-3.185C242.163,280.022,240.705,278.563,238.973,278.563z"/>
		<polygon points="173.239,228.961 181.981,244.073 186.082,241.698 177.339,226.583 		"/>
		<rect x="147.597" y="234.576" width="4.751" height="17.485"/>
		<polygon points="113.815,241.755 117.913,244.126 126.718,228.961 122.61,226.583 		"/>
		<polygon points="89.741,215.901 92.119,220.004 107.231,211.259 104.856,207.16 		"/>
		<polygon points="185.65,126.847 186.136,126.039 184.949,125.335 182.035,123.662 173.294,138.769 177.392,141.146 		"/>
		<rect x="200.652" y="181.518" width="17.491" height="4.752"/>
		<polygon points="210.205,215.901 195.096,207.16 192.723,211.259 207.841,220.004 		"/>
		<polygon points="210.205,151.836 207.841,147.731 192.723,156.477 195.096,160.576 		"/>
		<path d="M126.283,206.078c1.512,1.619,4.096,1.669,5.664,0.159c0,0,5.938-5.931,13.821-13.924c1.24,0.589,2.64,0.969,4.152,0.969
			c5.182,0,9.391-4.206,9.391-9.389c0-1.563-0.377-3.021-1.024-4.319c13.707-14.03,27.472-28.551,26.719-29.358
			c-0.757-0.812-16.03,12.304-30.817,25.314c-1.299-0.652-2.698-1.032-4.268-1.032c-5.18,0-9.389,4.215-9.389,9.396
			c0,1.135,0.214,2.214,0.594,3.239c-8.421,7.554-14.738,13.224-14.738,13.224C124.821,201.921,124.776,204.455,126.283,206.078z"/>
	</g>
	<g display="inline">
		<g>
			<path fill="#808080" d="M102.807,114.232h12.519V85.483c-4.315-0.968-8.479-2.158-12.519-3.509V114.232z"/>
			<path fill="#808080" d="M184.949,114.232h12.524V81.92c-4.048,1.355-8.207,2.483-12.524,3.509V114.232z"/>
			<path fill="#606060" d="M103.748,73.145c-0.313,0.018-0.627,0.035-0.941,0.052v8.778c4.039,1.351,8.203,2.542,12.519,3.509V77.77
				C111.388,76.441,107.5,74.893,103.748,73.145z"/>
			<path fill="#606060" d="M184.949,77.618v7.812c4.317-1.026,8.477-2.154,12.524-3.509v-9.365
				C193.426,74.481,189.213,76.172,184.949,77.618z"/>
		</g>
		<path fill="#4A72B2" d="M257.168,15.067H42.787c-1.297,0-2.379,1.08-2.379,2.376c0,1.294,1.082,2.373,2.379,2.373h4.151
			C48.794,38.63,62.684,55.33,83.659,66.728c5.865,3.187,12.283,5.959,19.147,8.247c4.039,1.351,8.203,2.542,12.519,3.509
			c10.847,2.483,22.505,3.888,34.649,3.888c12.255,0,24.018-1.405,34.975-3.942c4.317-1.026,8.477-2.154,12.524-3.509
			c31.301-10.468,53.212-31.03,55.588-55.05h4.166c1.285,0,2.364-1.08,2.364-2.376C259.54,16.147,258.462,15.067,257.168,15.067z"/>
	</g>
	<g display="inline">
		<path opacity="0.05" fill="#606060" d="M149.975,257.52c37.191,0,68.061-27.747,72.919-63.694
			c0.432-3.237,0.703-6.585,0.703-9.932c0-8.636-1.515-16.895-4.268-24.607c-4.53-12.852-12.572-24.023-22.937-32.491
			c-0.023-0.02-0.049-0.037-0.073-0.057l-96.185,111.233C113.257,250.089,130.768,257.52,149.975,257.52z"/>
		<path fill="none" d="M168.543,112.595c-5.937-1.565-12.2-2.377-18.622-2.377c-6.42,0-12.624,0.812-18.618,2.377
			c-5.67,1.463-11.014,3.617-16.088,6.319c-4.205,2.262-8.147,4.911-11.817,7.881c-10.364,8.419-18.351,19.64-22.937,32.491
			c-2.753,7.713-4.269,15.972-4.269,24.607c0.162,3.347,0.434,6.694,0.866,9.932c2.348,17.353,10.79,32.803,23.076,44.146
			l96.185-111.233c-3.542-2.895-7.401-5.467-11.427-7.668C179.765,116.32,174.318,114.106,168.543,112.595z"/>
		<path fill="#DED38A" d="M77.059,193.825c-0.433-3.237-0.704-6.585-0.866-9.932c0-8.636,1.516-16.895,4.269-24.607
			c4.586-12.852,12.572-24.072,22.937-32.491c3.67-2.97,7.612-5.62,11.817-7.881c5.074-2.702,10.418-4.856,16.088-6.319
			c5.994-1.565,12.198-2.377,18.618-2.377c6.422,0,12.686,0.812,18.622,2.377c5.775,1.512,11.222,3.725,16.35,6.476
			c4.025,2.201,7.885,4.773,11.427,7.668l12.125-14.022c-0.323-0.041-0.65-0.068-0.984-0.068h-9.986h-12.524h-2.318
			c-1.887-0.864-3.777-1.673-5.725-2.372c-2.533-0.918-5.121-1.728-7.77-2.377c-6.096-1.561-12.527-2.376-19.162-2.376
			c-6.584,0-13.007,0.816-19.162,2.376c-2.643,0.65-5.234,1.459-7.771,2.377c-1.941,0.699-3.832,1.508-5.721,2.372h-1.996h-12.519
			H92.494c-4.371,0-7.936,3.563-7.936,7.934l-2.48,24.181c-1.081,1.89-2.049,3.728-2.971,5.668
			c-1.187,2.591-2.262,5.182-3.185,7.879c-2.807,7.989-4.319,16.625-4.319,25.584c0,3.347,0.219,6.694,0.646,9.986
			c0.33,2.806,0.866,5.615,1.516,8.365c0.543,2.053,1.136,4.153,1.777,6.151l-6.724,65.79l31.315-36.215
			C87.849,226.628,79.406,211.178,77.059,193.825z"/>
		<path fill="#BCB278" d="M231.26,275.376l-6.856-66.979c0.7-1.998,1.294-4.046,1.785-6.151c0.641-2.75,1.132-5.501,1.507-8.365
			c0.435-3.239,0.65-6.588,0.65-9.986c0-8.959-1.517-17.538-4.317-25.584c-0.913-2.697-1.998-5.342-3.187-7.879
			c-0.914-1.94-1.891-3.831-2.972-5.668l-2.478-24.181c0-4.037-3.042-7.377-6.948-7.866l-12.125,14.022
			c0.024,0.02,0.05,0.037,0.073,0.057c10.364,8.468,18.406,19.64,22.937,32.491c2.753,7.713,4.268,15.972,4.268,24.607
			c0,3.347-0.271,6.694-0.703,9.932c-4.858,35.947-35.728,63.694-72.919,63.694c-19.207,0-36.717-7.431-49.84-19.548l-31.315,36.215
			l-0.122,1.189H231.26z"/>
	</g>
	<path display="inline" opacity="0.2" fill="#010002" d="M83.675,66.728c5.865,3.187,12.283,5.959,19.147,8.247
		c4.039,1.351,8.203,2.542,12.519,3.509c10.847,2.483,22.505,3.888,34.649,3.888c12.255,0,24.018-1.405,34.975-3.942
		c4.317-1.026,8.477-2.154,12.524-3.509c31.301-10.468,53.212-31.03,55.588-55.05l-7.062,4.796
		C238.954,29.462,177.016,66.728,83.675,66.728z"/>
</g>
<g id="Capa_12" display="none">
	<g display="inline">
		<path fill="#C0B06D" d="M275.725,74.866c0,0.047-1.234,4.895-28.704,9.199c-19.749,3.096-46.056,4.8-74.073,4.8
			c-45.154,0-70.465-6.183-71.949-9.644c0.006,0.015-2.478-2.431-2.478-2.356l-2.5,2.5c0,3.308,2.715,7.542,23.888,10.956
			c14.177,2.285,33.013,3.544,53.038,3.544c28.269,0,54.851-1.726,74.848-4.859c29.516-4.626,32.93-10.285,32.93-14.14H275.725z"/>
		<rect x="165.461" y="112.532" fill="#359742" width="70.564" height="44.759"/>
		<rect x="197.146" y="154.865" fill="#C12721" width="74.161" height="42.334"/>
		<rect x="130.179" y="154.865" fill="#1680B0" width="70.564" height="42.334"/>
		<rect x="135.179" y="157.866" opacity="0.2" fill="#010002" width="6.729" height="36.331"/>
		<rect x="148.637" y="157.866" opacity="0.2" fill="#010002" width="6.73" height="36.331"/>
		<rect x="162.097" y="157.866" opacity="0.2" fill="#010002" width="6.729" height="36.331"/>
		<rect x="175.555" y="157.866" opacity="0.2" fill="#010002" width="6.729" height="36.331"/>
		<rect x="189.013" y="157.866" opacity="0.2" fill="#010002" width="6.729" height="36.331"/>
		<rect x="137.665" y="159.357" fill="#1680B0" width="6.178" height="33.349"/>
		<rect x="150.018" y="159.357" fill="#1680B0" width="6.177" height="33.349"/>
		<rect x="163.076" y="159.357" fill="#1680B0" width="4.77" height="33.349"/>
		<rect x="174.727" y="159.357" fill="#1680B0" width="6.177" height="33.349"/>
		<rect x="187.079" y="159.357" fill="#1680B0" width="6.178" height="33.349"/>
		<rect x="205.744" y="157.866" opacity="0.2" fill="#010002" width="6.729" height="36.331"/>
		<path fill="#2D2D2D" d="M90.521,48.199h-5.176H67.442c-4.4,0-9.17,3.404-10.601,7.565L34.77,119.968
			c-1.43,4.161-2.601,11.166-2.601,15.565V155.2c0,4.4,3.6,8,8,8h50.352c4.4,0,8-3.6,8-8v-3.334v-16.333c0-4.399,0-11.6,0-16V56.199
			C98.521,51.799,94.921,48.199,90.521,48.199z"/>
		<path fill="#C12721" d="M104.969,65.533h-6.448H43.632c-2.509,0-4.543,2.089-4.543,4.666s2.034,4.667,4.543,4.667h54.889h6.448
			c2.509,0,4.543-2.09,4.543-4.667S107.478,65.533,104.969,65.533z"/>
		<path fill="#EFCC3D" d="M103.813,122.866h-5.292H26.877c-3.147,0-5.699,2.09-5.699,4.667s2.552,4.666,5.699,4.666h71.644h5.292
			c3.147,0,5.699-2.089,5.699-4.666S106.96,122.866,103.813,122.866z"/>
		<path opacity="0.2" fill="#010002" d="M90.521,48.199h-5.176V153.75h13.176v-18.217c0-4.4,0-11.6,0-16V56.199
			C98.521,51.799,94.921,48.199,90.521,48.199z"/>
		<rect x="219.202" y="157.866" opacity="0.2" fill="#010002" width="6.729" height="36.331"/>
		<path fill="#D4E7EA" d="M109.512,192.706v-32.84c0-4.4-3.6-8-8-8h-5.176H29.179c-4.4,0-8,3.6-8,8v32.84H109.512z"/>
		<rect x="232.661" y="157.866" opacity="0.2" fill="#010002" width="6.729" height="36.331"/>
		<rect x="246.119" y="157.866" opacity="0.2" fill="#010002" width="6.729" height="36.331"/>
		<rect x="259.576" y="157.866" opacity="0.2" fill="#010002" width="6.73" height="36.331"/>
		<rect x="208.229" y="159.357" fill="#C12721" width="6.178" height="33.349"/>
		<rect x="220.583" y="159.357" fill="#C12721" width="6.177" height="33.349"/>
		<rect x="233.705" y="159.357" fill="#C12721" width="4.641" height="33.349"/>
		<g>
			<path fill="#EFCC3D" d="M278.225,176.535c-2.762,0-5-2.238-5-5V67.865c0-2.761,2.238-5,5-5s5,2.239,5,5v103.67
				C283.225,174.297,280.986,176.535,278.225,176.535z"/>
		</g>
		<rect x="245.291" y="159.357" fill="#C12721" width="6.177" height="33.349"/>
		<rect x="257.643" y="159.357" fill="#C12721" width="6.178" height="33.349"/>
		<path opacity="0.2" fill="#010002" d="M109.512,192.706v-32.84c0-4.4-3.6-8-8-8h-5.176v40.84"/>
		<path fill="#2D2D2D" d="M284.035,166.597c-1.461,0-3.553,0-5.811,0c-2.688,0-5.609,0-8,0h-63.927
			c-4.4,0-11.044,1.922-14.765,4.271l-25.447,16.067c-3.721,2.349-10.364,4.271-14.765,4.271H18.082c-4.4,0-7.18,3.505-6.177,7.789
			l2.271,9.705c1.002,4.285,2.244,9.59,2.759,11.791c0.515,2.2,1.756,7.505,2.759,11.789l2.746,11.732
			c1.002,4.284,5.423,7.789,9.823,7.789h217.199c2.35,0,5.268,0,8,0c2.385,0,4.627,0,6.223,0c3.422,0,6.83-2.599,7.574-5.775
			c0.742-3.177,1.771-7.575,2.287-9.775c0.141-0.602,0.336-1.439,0.566-2.42l0.369-1.581l7.684-32.826l5.857-25.037
			C289.025,170.102,287.23,166.597,284.035,166.597z"/>
		<circle fill="#8CB8C3" cx="231.179" cy="194.865" r="10.666"/>
		<polygon fill="#565656" points="262.227,232.249 122.488,232.249 106.328,216.489 15.999,216.489 17.871,224.49 103.072,224.49 
			119.232,240.25 260.275,240.25 272.609,240.25 274.48,232.249 		"/>
		<path fill="#2D2D2D" d="M282.164,199.423l-7.684,32.826l-0.369,1.581c0.611-2.608,1.465-6.256,2.193-9.37L282.164,199.423z"/>
		<path opacity="0.3" d="M271.258,246.025l1.352-5.775l1.502-6.42c-0.23,0.98-0.426,1.818-0.566,2.42
			C273.029,238.45,272,242.849,271.258,246.025z"/>
		<path opacity="0.3" d="M282.164,199.423l5.857-25.037c1.004-4.284-0.791-7.789-3.986-7.789c-1.461,0-3.553,0-5.811,0
			l-15.998,65.652l-1.951,8.001l-2.814,11.551c2.385,0,4.627,0,6.223,0c3.422,0,6.83-2.599,7.574-5.775
			c0.742-3.177,1.771-7.575,2.287-9.775c0.141-0.602,0.336-1.439,0.566-2.42l0.369-1.581L282.164,199.423z"/>
		<path opacity="0.3" fill="#010002" d="M104.969,65.533h-6.448v9.333h6.448c2.509,0,4.543-2.09,4.543-4.667
			S107.478,65.533,104.969,65.533z"/>
		<path opacity="0.3" fill="#010002" d="M103.813,122.867h-5.292v9.332h5.292c3.147,0,5.699-2.089,5.699-4.666
			S106.96,122.867,103.813,122.867z"/>
		<rect x="170.462" y="115.534" opacity="0.2" fill="#010002" width="6.729" height="36.331"/>
		<rect x="183.92" y="115.534" opacity="0.2" fill="#010002" width="6.729" height="36.331"/>
		<rect x="197.379" y="115.534" opacity="0.2" fill="#010002" width="6.729" height="36.331"/>
		<rect x="210.837" y="115.534" opacity="0.2" fill="#010002" width="6.729" height="36.331"/>
		<rect x="224.295" y="115.534" opacity="0.2" fill="#010002" width="6.729" height="36.331"/>
		<rect x="172.947" y="117.025" fill="#359742" width="6.178" height="33.349"/>
		<rect x="185.301" y="117.025" fill="#359742" width="6.177" height="33.349"/>
		<rect x="198.474" y="117.025" fill="#359742" width="4.539" height="33.349"/>
		<rect x="210.009" y="117.025" fill="#359742" width="6.177" height="33.349"/>
		<rect x="222.361" y="117.025" fill="#359742" width="6.178" height="33.349"/>
	</g>
</g>
<g id="Capa_13">
	<g>
		<g>
			<path fill="#45565C" d="M251.923,182.701c-17.883,0-32.381-14.641-32.381-32.701c0-18.06,14.498-32.701,32.381-32.701
				c10.928,0,21.656,5.472,28.355,13.846l12.01-12.011c-9.348-11.866-23.946-19.51-40.365-19.51
				c-28.217,0-51.094,22.554-51.094,50.375c0,27.82,22.877,50.375,51.094,50.375c16.049,0,30.361-7.301,39.728-18.71l-12.017-12.018
				C272.904,177.574,262.504,182.701,251.923,182.701z"/>
		</g>
		<g>
			<g>
				<path fill="#45565C" d="M58.805,182.701c-17.883,0-32.381-14.641-32.381-32.701c0-18.06,14.498-32.701,32.381-32.701
					c10.928,0,21.656,5.472,28.354,13.846l12.011-12.011c-9.347-11.866-23.946-19.51-40.365-19.51
					c-28.218,0-51.094,22.554-51.094,50.375c0,27.82,22.875,50.375,51.094,50.375c16.048,0,30.36-7.301,39.728-18.71l-12.017-12.018
					C79.786,177.574,69.386,182.701,58.805,182.701z"/>
			</g>
		</g>
		<circle fill="#C1344E" cx="251.557" cy="150.179" r="20.873"/>
		<polygon fill="#45565C" points="169.908,101.967 169.908,162.937 130.021,101.967 111.813,101.967 111.813,197.554 
			130.021,197.554 130.021,136.584 169.908,197.554 188.115,197.554 188.115,101.967 		"/>
	</g>
</g>
</svg>
