<?xml version="1.0" encoding="utf-8"?>
<!-- Generator: Adobe Illustrator 16.0.0, SVG Export Plug-In . SVG Version: 6.00 Build 0)  -->
<!DOCTYPE svg PUBLIC "-//W3C//DTD SVG 1.0//EN" "http://www.w3.org/TR/2001/REC-SVG-20010904/DTD/svg10.dtd">
<svg version="1.0" xmlns="http://www.w3.org/2000/svg" xmlns:xlink="http://www.w3.org/1999/xlink" x="0px" y="0px" width="300px"
	 height="300px" viewBox="0 0 300 300" enable-background="new 0 0 300 300" xml:space="preserve">
<g id="icon-robot">
</g>
<g id="icon-libro">
</g>
<g id="icon-djcp">
</g>
<g id="icon-casco">
</g>
<g id="icon-antena">
</g>
<g id="icon-auto">
</g>
<g id="icon-eficiencia">
</g>
<g id="icon-gas">
</g>
<g id="icon-medic">
	<g>
		<path id="XMLID_15_" fill="#272424" d="M62.126,234.24h45.066v23.516H66.688c-3.473,0-6.297,2.813-6.297,6.285v22.007
			c0,3.472,2.824,6.288,6.297,6.288h166.638c3.468,0,6.282-2.816,6.282-6.288v-22.007c0-3.472-2.814-6.285-6.282-6.285h-40.507
			V234.24h45.065c24.597,0,44.604-20.01,44.604-44.607V52.271c0-24.606-20.008-44.606-44.604-44.606H62.126
			c-24.6,0-44.615,20-44.615,44.606v137.362C17.512,214.23,37.527,234.24,62.126,234.24z M30.09,52.271
			c0-17.663,14.364-32.036,32.036-32.036h175.757c17.665,0,32.025,14.373,32.025,32.036v137.362
			c0,17.663-14.36,32.025-32.025,32.025H62.126c-17.672,0-32.036-14.362-32.036-32.025V52.271z M227.038,279.766H72.97v-9.439
			h154.068V279.766z M119.762,257.756V234.24h60.478v23.516H119.762z"/>
		<path id="XMLID_11_" fill="#272424" d="M180.427,204.661h32.521c17.771,0,32.207-14.445,32.207-32.195v-99.16
			c0-17.761-14.437-32.206-32.207-32.206H86.083c-17.754,0-32.193,14.445-32.193,32.206v99.16c0,17.75,14.439,32.195,32.193,32.195
			h32.538 M62.962,73.306c0-12.755,10.373-23.127,23.121-23.127h126.866c12.756,0,23.126,10.372,23.126,23.127v99.16
			c0,12.74-10.37,23.117-23.126,23.117H86.083c-12.748,0-23.121-10.377-23.121-23.117V73.306z M127.696,204.661h43.649"/>
		<g id="XMLID_6_">
			<path id="XMLID_9_" fill="#B12216" d="M103.139,141.238h27.873v27.871c0,1.602,1.305,2.897,2.883,2.897h31.241
				c1.596,0,2.889-1.296,2.889-2.897v-27.871h27.891c1.583,0,2.889-1.304,2.889-2.89v-31.236c0-1.593-1.306-2.892-2.889-2.892
				h-27.891V76.343c0-1.606-1.293-2.898-2.889-2.898h-31.241c-1.578,0-2.883,1.292-2.883,2.898v27.878h-27.873
				c-1.607,0-2.897,1.299-2.897,2.892v31.236C100.241,139.935,101.531,141.238,103.139,141.238z"/>
		</g>
	</g>
</g>
<g id="icon-logomarca">
</g>
<g id="icon-metrologia">
</g>
<g id="icon-graficos">
</g>
<g id="icon-aceros">
</g>
<g id="icon-pinturas">
</g>
<g id="icon-encendedores">
</g>
<g id="icon-escolares">
</g>
<g id="icon-pilas">
</g>
<g id="icon-mobiliarios">
</g>
<g id="icon-aluminio">
</g>
<g id="icon-usados">
</g>
</svg>
