<?xml version="1.0" encoding="utf-8"?>
<!-- Generator: Adobe Illustrator 16.0.0, SVG Export Plug-In . SVG Version: 6.00 Build 0)  -->
<!DOCTYPE svg PUBLIC "-//W3C//DTD SVG 1.0//EN" "http://www.w3.org/TR/2001/REC-SVG-20010904/DTD/svg10.dtd">
<svg version="1.0" xmlns="http://www.w3.org/2000/svg" xmlns:xlink="http://www.w3.org/1999/xlink" x="0px" y="0px" width="300px"
	 height="300px" viewBox="0 0 300 300" enable-background="new 0 0 300 300" xml:space="preserve">
<g id="icon-robot">
</g>
<g id="icon-libro">
</g>
<g id="icon-djcp">
</g>
<g id="icon-casco">
</g>
<g id="icon-antena">
</g>
<g id="icon-auto">
</g>
<g id="icon-eficiencia">
</g>
<g id="icon-gas">
</g>
<g id="icon-medic">
</g>
<g id="icon-logomarca">
</g>
<g id="icon-metrologia">
</g>
<g id="icon-graficos">
</g>
<g id="icon-aceros">
</g>
<g id="icon-pinturas">
</g>
<g id="icon-encendedores">
</g>
<g id="icon-escolares">
</g>
<g id="icon-pilas">
</g>
<g id="icon-mobiliarios">
</g>
<g id="icon-aluminio">
</g>
<g id="icon-usados">
	<g>
		<rect x="171.115" y="101.29" fill="#BEBDB2" width="29.816" height="27.378"/>
		<rect x="206.365" y="101.29" fill="#BEBDB2" width="37.334" height="27.378"/>
		<rect x="33.838" y="98.125" fill="#BEBDB2" width="128.496" height="109.057"/>
		<rect x="51.352" y="172.363" fill="#D68731" width="35.893" height="34.818"/>
		<rect x="104.758" y="172.363" fill="#D68731" width="35.893" height="34.818"/>
		<polygon fill="#939A90" points="158.164,98.125 200.932,126.271 200.932,207.182 158.164,207.182 		"/>
		<rect x="23.893" y="86.192" fill="#7D7E81" width="134.271" height="11.933"/>
		<rect x="33.838" y="98.125" fill="#939A90" width="125.621" height="21.504"/>
		<rect x="42.594" y="104.353" fill="#1C77B4" width="19.992" height="18.569"/>
		<rect x="69.299" y="104.353" fill="#1C77B4" width="19.99" height="18.569"/>
		<rect x="96.002" y="104.353" fill="#1C77B4" width="19.99" height="18.569"/>
		<rect x="122.705" y="104.353" fill="#1C77B4" width="19.99" height="18.569"/>
		<polygon fill="#7D7E81" points="200.805,134.682 150.814,95.593 158.164,86.189 208.152,125.278 		"/>
		<polygon fill="#899086" points="190.572,98.125 233.344,126.271 233.344,207.182 190.572,207.182 		"/>
		
			<rect x="180.228" y="104.468" transform="matrix(0.7878 0.616 -0.616 0.7878 113.0145 -107.1235)" fill="#7D7E81" width="63.457" height="11.935"/>
		<rect x="51.352" y="172.363" fill="#CE751C" width="35.893" height="5.731"/>
		<rect x="51.352" y="172.363" fill="#B15624" width="5.731" height="34.818"/>
		<rect x="104.758" y="172.363" fill="#B15624" width="5.73" height="34.818"/>
		<rect x="104.758" y="172.363" fill="#CE751C" width="35.893" height="5.731"/>
		<rect x="42.594" y="104.353" fill="#30549C" width="6.09" height="18.569"/>
		<rect x="69.299" y="104.353" fill="#30549C" width="6.087" height="18.569"/>
		<rect x="96.002" y="104.353" fill="#30549C" width="6.087" height="18.569"/>
		<rect x="122.705" y="104.353" fill="#30549C" width="6.086" height="18.569"/>
		<polygon fill="#80867D" points="225.99,98.125 268.754,126.271 268.754,207.182 225.99,207.182 		"/>
		
			<rect x="215.709" y="104.467" transform="matrix(0.7878 0.616 -0.616 0.7878 120.5364 -128.9756)" fill="#7D7E81" width="63.46" height="11.937"/>
		<rect x="27.985" y="205.333" fill="#525252" width="248.122" height="8.478"/>
	</g>
</g>
</svg>
