<?xml version="1.0" encoding="utf-8"?>
<!-- Generator: Adobe Illustrator 16.0.0, SVG Export Plug-In . SVG Version: 6.00 Build 0)  -->
<!DOCTYPE svg PUBLIC "-//W3C//DTD SVG 1.0//EN" "http://www.w3.org/TR/2001/REC-SVG-20010904/DTD/svg10.dtd">
<svg version="1.0" xmlns="http://www.w3.org/2000/svg" xmlns:xlink="http://www.w3.org/1999/xlink" x="0px" y="0px" width="300px"
	 height="300px" viewBox="0 0 300 300" enable-background="new 0 0 300 300" xml:space="preserve">
<g id="icon-robot">
	<g>
		<g>
			<g>
				<g>
					<g>
						<g>
							<path fill="#CCCCCC" d="M190.537,129.027c0,0-1.608-0.445-3.242-0.721c-0.8-0.159-1.59-0.277-2.152-0.356
								c-0.475-0.058-0.79-0.084-0.79-0.084l2.692-29.682c0,0,0.206,0.026,0.563,0.053c0.329,0.048,0.794,0.092,1.356,0.162
								c1.067,0.141,2.443,0.347,3.778,0.611c2.691,0.479,5.306,1.178,5.306,1.178L190.537,129.027z"/>
							<path fill="#221E1F" d="M190.537,129.518c-0.027,0-0.074-0.012-0.114-0.021c-0.018-0.009-1.625-0.431-3.212-0.712
								c-0.799-0.158-1.59-0.268-2.129-0.339l-0.805-0.092c-0.246-0.039-0.439-0.267-0.412-0.531l2.691-29.687
								c0.014-0.131,0.071-0.241,0.176-0.328c0.088-0.089,0.224-0.119,0.348-0.106l1.941,0.211c0.936,0.119,2.351,0.33,3.822,0.606
								c2.67,0.492,5.297,1.182,5.341,1.195c0.26,0.07,0.399,0.338,0.338,0.593l-7.493,28.848c-0.045,0.123-0.132,0.227-0.237,0.29
								C190.718,129.488,190.638,129.518,190.537,129.518z M184.879,127.432l0.32,0.035c0.566,0.083,1.371,0.202,2.2,0.356
								c1.1,0.197,2.193,0.452,2.795,0.606l7.261-27.898c-0.878-0.211-2.824-0.689-4.788-1.041c-1.45-0.281-2.842-0.479-3.778-0.602
								l-1.4-0.162L184.879,127.432z"/>
						</g>
					</g>
					<g>
						<g>
							<path fill="#CCCCCC" d="M197.117,131.298c0,0-0.364-0.15-0.905-0.396c-0.559-0.211-1.291-0.522-2.06-0.782
								c-0.765-0.276-1.563-0.509-2.144-0.686c-0.606-0.175-1.007-0.29-1.007-0.29l7.797-28.767c0,0,0.659,0.193,1.639,0.466
								c0.984,0.298,2.285,0.693,3.58,1.159c1.309,0.439,2.588,0.979,3.567,1.357c0.972,0.414,1.612,0.704,1.612,0.704
								L197.117,131.298z"/>
							<path fill="#221E1F" d="M197.117,131.79c-0.069,0-0.127-0.017-0.197-0.045l-0.896-0.386c-0.171-0.061-0.37-0.145-0.576-0.229
								c-0.431-0.171-0.944-0.369-1.453-0.536c-0.62-0.229-1.238-0.426-1.766-0.58l-1.357-0.396
								c-0.255-0.075-0.408-0.342-0.348-0.605l7.806-28.755c0.031-0.133,0.124-0.237,0.237-0.308
								c0.105-0.061,0.246-0.075,0.374-0.04l1.897,0.541c0.958,0.293,2.143,0.658,3.347,1.103c1.055,0.342,2.122,0.768,2.975,1.115
								l0.605,0.237l1.621,0.698c0.133,0.047,0.226,0.149,0.26,0.268c0.057,0.124,0.057,0.263-0.005,0.387l-12.079,27.235
								C197.482,131.684,197.307,131.79,197.117,131.79z M191.609,128.816l0.922,0.267c0.535,0.15,1.164,0.356,1.783,0.58
								c0.519,0.167,1.037,0.378,1.498,0.563c0.202,0.079,0.391,0.153,0.57,0.218l0.48,0.211l11.688-26.348l-1.754-0.733
								c-0.847-0.325-1.901-0.75-2.938-1.103c-1.19-0.426-2.363-0.794-3.316-1.076l-1.393-0.405L191.609,128.816z"/>
						</g>
					</g>
					<g>
						<g>
							<path fill="#CCCCCC" d="M202.621,134.395c0,0-0.058-0.049-0.188-0.136c-0.131-0.075-0.316-0.206-0.531-0.359
								c-0.422-0.295-1.059-0.664-1.674-1.042c-0.672-0.342-1.309-0.725-1.841-0.962c-0.519-0.254-0.865-0.417-0.865-0.417
								l12.414-27.099c0,0,0.641,0.311,1.594,0.759c0.962,0.457,2.228,1.169,3.501,1.854c1.257,0.747,2.5,1.49,3.427,2.145
								c0.457,0.307,0.848,0.565,1.116,0.754c0.268,0.176,0.418,0.281,0.418,0.281L202.621,134.395z"/>
							<path fill="#221E1F" d="M202.621,134.891c-0.104,0-0.206-0.044-0.295-0.114l0,0c-0.013,0-0.056-0.044-0.157-0.101
								l-0.545-0.36c-0.304-0.22-0.677-0.445-1.08-0.694l-0.581-0.342c-0.206-0.106-0.43-0.225-0.649-0.356
								c-0.404-0.211-0.782-0.431-1.12-0.58l-0.887-0.431c-0.229-0.119-0.33-0.405-0.217-0.641l12.394-27.091
								c0.053-0.117,0.145-0.215,0.28-0.259c0.127-0.052,0.26-0.048,0.382,0.018l1.592,0.769c0.892,0.413,1.988,1.01,3.162,1.652
								l0.354,0.206c0.011,0,0.093,0.044,0.093,0.044c1.217,0.738,2.474,1.476,3.388,2.122l1.106,0.747
								c0.281,0.18,0.443,0.312,0.443,0.312c0.206,0.152,0.255,0.461,0.102,0.681l-17.36,24.204
								c-0.079,0.115-0.197,0.188-0.329,0.206C202.666,134.882,202.639,134.891,202.621,134.891z M198.167,131.241l0.444,0.215
								c0.343,0.154,0.755,0.382,1.177,0.607c0.22,0.127,0.443,0.245,0.654,0.365l0.606,0.355c0.431,0.254,0.835,0.509,1.143,0.729
								l0.316,0.211l16.797-23.426v-0.005l-1.12-0.754c-0.9-0.625-2.139-1.354-3.338-2.079l-0.422-0.223
								c-1.155-0.655-2.258-1.248-3.105-1.639l-1.146-0.562L198.167,131.241z"/>
						</g>
					</g>
					<g>
						<g>
							<path fill="#CCCCCC" d="M206.671,138.125c-0.008,0.009-0.03-0.058-0.135-0.154c-0.089-0.101-0.212-0.237-0.365-0.414
								c-0.162-0.166-0.321-0.377-0.532-0.593c-0.22-0.192-0.452-0.421-0.663-0.632c-0.224-0.243-0.479-0.44-0.716-0.637
								c-0.242-0.197-0.462-0.395-0.649-0.549c-0.404-0.299-0.672-0.514-0.672-0.514l17.745-23.936c0,0,0.599,0.461,1.503,1.146
								c0.443,0.351,0.949,0.786,1.503,1.252c0.544,0.47,1.128,0.961,1.687,1.515c0.553,0.536,1.103,1.085,1.63,1.6
								c0.513,0.522,0.976,1.044,1.366,1.484c0.395,0.435,0.711,0.804,0.948,1.059c0.233,0.255,0.344,0.421,0.344,0.421
								L206.671,138.125z"/>
							<path fill="#221E1F" d="M206.671,138.625c-0.17,0-0.315-0.101-0.418-0.246c-0.017,0-0.073-0.066-0.073-0.079l-0.373-0.401
								c-0.066-0.079-0.137-0.153-0.212-0.241c-0.088-0.104-0.193-0.223-0.298-0.338c-0.226-0.197-0.445-0.417-0.681-0.649
								c-0.146-0.154-0.313-0.29-0.461-0.422l-0.22-0.185c-0.098-0.07-0.198-0.163-0.286-0.259
								c-0.119-0.092-0.224-0.188-0.339-0.269l-0.672-0.509c-0.21-0.158-0.264-0.461-0.1-0.681l17.745-23.945
								c0.084-0.104,0.193-0.171,0.339-0.184c0.118-0.014,0.25,0.013,0.359,0.091l1.499,1.134c0.325,0.255,0.685,0.567,1.058,0.887
								l0.8,0.677c0.443,0.386,0.927,0.799,1.375,1.256l1.643,1.59c0.361,0.382,0.712,0.764,1.016,1.102l1.313,1.473
								c0.255,0.28,0.383,0.464,0.383,0.464c0.141,0.216,0.105,0.498-0.093,0.664l-22.981,18.951
								C206.896,138.58,206.79,138.625,206.671,138.625z M203.618,134.54l0.3,0.224c0.117,0.083,0.24,0.193,0.386,0.312
								c0.075,0.084,0.167,0.163,0.264,0.237l0.215,0.185c0.193,0.157,0.382,0.32,0.55,0.496c0.202,0.211,0.426,0.422,0.637,0.624
								c0.149,0.137,0.264,0.272,0.373,0.4c0.053,0.08,0.119,0.15,0.18,0.202l0.203,0.229l22.253-18.335
								c-0.005-0.018-0.014-0.022-0.026-0.022l-1.309-1.484c-0.299-0.325-0.628-0.695-0.989-1.063l-1.625-1.582
								c-0.438-0.443-0.896-0.826-1.326-1.217l-0.809-0.673c-0.359-0.311-0.694-0.606-1.02-0.843l-1.089-0.843L203.618,134.54z"/>
						</g>
					</g>
					<g>
						<g>
							<path fill="#CCCCCC" d="M209.281,142.451c0,0-0.12-0.269-0.308-0.677c-0.149-0.426-0.488-0.904-0.743-1.427
								c-0.141-0.268-0.338-0.487-0.479-0.729c-0.154-0.219-0.277-0.452-0.413-0.632c-0.281-0.351-0.466-0.58-0.466-0.58
								l23.339-18.52c0,0,0.496,0.633,1.222,1.578c0.364,0.482,0.742,1.076,1.155,1.695c0.417,0.637,0.883,1.278,1.264,1.981
								c0.778,1.415,1.596,2.798,2.065,3.901c0.488,1.085,0.818,1.813,0.818,1.813L209.281,142.451z"/>
							<path fill="#221E1F" d="M209.281,142.938c-0.19,0-0.365-0.105-0.448-0.281l-0.295-0.672
								c-0.105-0.264-0.255-0.522-0.412-0.799c-0.11-0.207-0.233-0.405-0.339-0.624c-0.066-0.15-0.153-0.269-0.242-0.374
								c-0.073-0.11-0.148-0.211-0.206-0.317c-0.053-0.079-0.119-0.175-0.184-0.276c-0.071-0.106-0.124-0.211-0.193-0.298
								l-0.472-0.593c-0.162-0.211-0.131-0.514,0.084-0.686l23.344-18.506c0.114-0.092,0.236-0.131,0.369-0.114
								c0.127,0.018,0.25,0.088,0.324,0.189l1.222,1.576c0.264,0.344,0.531,0.756,0.804,1.173l0.369,0.55
								c0.132,0.206,0.264,0.399,0.386,0.597c0.309,0.458,0.616,0.918,0.893,1.424l0.347,0.597c0.681,1.221,1.323,2.377,1.735,3.342
								l0.816,1.81c0.058,0.124,0.063,0.26,0.006,0.378c-0.04,0.127-0.142,0.224-0.261,0.281l-27.463,11.588
								C209.416,142.926,209.346,142.938,209.281,142.938z M207.555,138.48l0.166,0.209c0.102,0.115,0.182,0.238,0.264,0.387
								c0.053,0.088,0.105,0.171,0.18,0.264c0.066,0.114,0.119,0.18,0.181,0.269c0.119,0.163,0.242,0.342,0.329,0.522
								c0.088,0.193,0.208,0.382,0.308,0.567c0.18,0.32,0.344,0.606,0.453,0.918l0.088,0.197l26.559-11.219l-0.606-1.361
								c-0.4-0.923-1.037-2.052-1.709-3.246l-0.334-0.603c-0.263-0.475-0.558-0.921-0.852-1.366c-0.141-0.197-0.269-0.4-0.391-0.588
								l-0.361-0.541c-0.268-0.417-0.527-0.803-0.773-1.128l-0.904-1.182L207.555,138.48z"/>
						</g>
					</g>
					<g>
						<g>
							<path fill="#CCCCCC" d="M210.669,147.691c0,0-0.018-0.354-0.136-0.829c-0.044-0.251-0.088-0.523-0.163-0.831
								c-0.018-0.153-0.04-0.316-0.075-0.475c-0.034-0.148-0.087-0.293-0.136-0.443c-0.084-0.303-0.162-0.605-0.224-0.896
								c-0.07-0.286-0.207-0.523-0.265-0.743c-0.152-0.421-0.255-0.712-0.255-0.712l27.666-11.064c0,0,0.277,0.747,0.686,1.862
								c0.188,0.548,0.452,1.203,0.646,1.911c0.197,0.702,0.403,1.449,0.615,2.209c0.088,0.377,0.193,0.742,0.285,1.125
								c0.088,0.368,0.158,0.733,0.232,1.072c0.133,0.724,0.251,1.37,0.356,1.937c0.237,1.129,0.299,1.871,0.299,1.871
								L210.669,147.691z"/>
							<path fill="#221E1F" d="M210.669,148.174c-0.106,0-0.216-0.043-0.313-0.105c-0.104-0.092-0.171-0.225-0.18-0.361
								c0,0-0.021-0.311-0.119-0.737l-0.185-1.045c-0.026-0.084-0.038-0.167-0.044-0.255l-0.131-0.426
								c-0.087-0.303-0.18-0.616-0.251-0.914c-0.031-0.159-0.088-0.29-0.136-0.414c-0.044-0.101-0.083-0.192-0.105-0.293
								l-0.25-0.698c-0.08-0.251,0.039-0.519,0.28-0.616l27.671-11.069c0.113-0.058,0.267-0.049,0.377,0
								c0.119,0.058,0.224,0.159,0.269,0.285l0.667,1.868c0.075,0.176,0.136,0.365,0.197,0.549c0.164,0.438,0.33,0.904,0.466,1.401
								l0.906,3.334c0.064,0.267,0.113,0.522,0.162,0.777l0.439,2.267c0.232,1.138,0.299,1.885,0.303,1.915
								c0.022,0.269-0.168,0.492-0.436,0.532l-29.519,4.006C210.713,148.174,210.69,148.174,210.669,148.174z M210.041,143.044
								l0.087,0.276c0.027,0.075,0.063,0.154,0.098,0.229c0.058,0.176,0.131,0.351,0.185,0.563c0.057,0.269,0.148,0.567,0.224,0.865
								l0.114,0.365c0,0.004,0.027,0.093,0.027,0.105c0.012,0.11,0.042,0.211,0.064,0.326l0.18,0.988
								c0.031,0.145,0.063,0.264,0.075,0.374l28.558-3.866c-0.04-0.325-0.106-0.791-0.229-1.361l-0.431-2.267
								c-0.044-0.241-0.097-0.479-0.148-0.721l-0.906-3.325c-0.118-0.461-0.281-0.904-0.431-1.309
								c-0.073-0.202-0.148-0.386-0.206-0.567l-0.501-1.379L210.041,143.044z"/>
						</g>
					</g>
					<g>
						<g>
							<path fill="#CCCCCC" d="M210.924,155.054c0,0,0-0.54,0-1.371c0-0.402,0-0.888,0-1.396c0-0.255,0-0.522,0-0.79
								c-0.004-0.185-0.018-0.383-0.022-0.563c-0.013-0.365-0.026-0.725-0.031-1.081c-0.008-0.334-0.025-0.659-0.07-0.9
								c-0.044-0.527-0.087-0.871-0.087-0.871l29.589-3.549c0,0,0.079,0.742,0.199,1.857c0.073,0.567,0.096,1.204,0.122,1.881
								c0.022,0.681,0.053,1.414,0.079,2.143c0.005,0.36,0.022,0.716,0.03,1.081c0,0.268,0,0.535,0,0.79c0,0.509,0,0.994,0,1.396
								c0,0.831,0,1.371,0,1.371H210.924z"/>
							<path fill="#221E1F" d="M240.732,155.536h-29.809c-0.269,0-0.479-0.215-0.479-0.482l-0.08-5.17
								c0-0.325-0.009-0.637-0.044-0.848l-0.096-0.904c-0.031-0.26,0.157-0.501,0.426-0.536l29.595-3.545
								c0.122-0.026,0.255,0.014,0.354,0.096c0.102,0.084,0.162,0.208,0.185,0.335l0.202,1.857c0.075,0.593,0.102,1.27,0.119,1.92
								l0.109,4.028v2.768C241.216,155.321,241.005,155.536,240.732,155.536z M211.42,154.562h28.826l-0.04-4.134l-0.08-2.138
								c-0.026-0.616-0.039-1.274-0.117-1.841l-0.142-1.37l-28.61,3.435l0.045,0.382c0.039,0.255,0.048,0.615,0.048,0.958
								l0.07,2.433V154.562z"/>
						</g>
					</g>
					<g>
						<g>
							<rect x="210.924" y="155.679" fill="#CCCCCC" width="29.809" height="8.763"/>
							<path fill="#221E1F" d="M240.732,164.924h-29.809c-0.269,0-0.479-0.215-0.479-0.482v-8.763c0-0.271,0.21-0.492,0.479-0.492
								h29.809c0.272,0,0.483,0.222,0.483,0.492v8.763C241.216,164.709,241.005,164.924,240.732,164.924z M211.42,163.944h28.826
								v-7.774H211.42V163.944z"/>
						</g>
					</g>
					<g>
						<g>
							<rect x="210.924" y="165.068" fill="#CCCCCC" width="29.809" height="8.757"/>
							<path fill="#221E1F" d="M240.732,174.312h-29.809c-0.269,0-0.479-0.22-0.479-0.486v-8.757c0-0.277,0.21-0.499,0.479-0.499
								h29.809c0.272,0,0.483,0.222,0.483,0.499v8.757C241.216,174.092,241.005,174.312,240.732,174.312z M211.42,173.333h28.826
								v-7.777H211.42V173.333z"/>
						</g>
					</g>
					<g>
						<g>
							<rect x="210.924" y="174.447" fill="#CCCCCC" width="29.809" height="8.761"/>
							<path fill="#221E1F" d="M240.732,183.695h-29.809c-0.269,0-0.479-0.22-0.479-0.487v-8.761c0-0.268,0.21-0.495,0.479-0.495
								h29.809c0.272,0,0.483,0.228,0.483,0.495v8.761C241.216,183.476,241.005,183.695,240.732,183.695z M211.42,182.716h28.826
								v-7.776H211.42V182.716z"/>
						</g>
					</g>
				</g>
				<g>
					<g>
						<g>
							<path fill="#CCCCCC" d="M109.454,129.027c0,0,1.625-0.445,3.244-0.721c0.819-0.159,1.603-0.277,2.169-0.356
								c0.472-0.058,0.789-0.084,0.789-0.084l-2.695-29.682c0,0-0.207,0.026-0.576,0.053c-0.325,0.048-0.791,0.092-1.35,0.162
								c-1.063,0.141-2.438,0.347-3.778,0.611c-2.693,0.479-5.309,1.178-5.309,1.178L109.454,129.027z"/>
							<path fill="#221E1F" d="M109.454,129.518c-0.09,0-0.163-0.03-0.249-0.074c-0.105-0.063-0.191-0.167-0.215-0.29l-7.514-28.848
								c-0.067-0.255,0.086-0.523,0.35-0.593c0.018-0.014,2.666-0.703,5.339-1.195c1.448-0.276,2.884-0.487,3.808-0.606l1.944-0.211
								c0.125-0.009,0.268,0.018,0.36,0.106c0.105,0.087,0.159,0.197,0.172,0.328l2.697,29.687c0.024,0.264-0.169,0.492-0.433,0.531
								l-0.799,0.092c-0.536,0.071-1.315,0.181-2.126,0.339c-1.579,0.281-3.185,0.703-3.205,0.712
								C109.546,129.506,109.498,129.518,109.454,129.518z M102.553,100.531l7.256,27.898c0.608-0.154,1.7-0.409,2.796-0.606
								c0.819-0.154,1.625-0.272,2.189-0.356l0.334-0.035l-2.609-28.706l-1.428,0.171c-0.92,0.114-2.308,0.313-3.745,0.593
								C105.38,99.841,103.421,100.32,102.553,100.531z"/>
						</g>
					</g>
					<g>
						<g>
							<path fill="#CCCCCC" d="M102.889,131.298c0,0,0.365-0.15,0.9-0.396c0.565-0.211,1.283-0.522,2.074-0.782
								c0.75-0.276,1.542-0.509,2.135-0.686c0.608-0.175,0.997-0.29,0.997-0.29l-7.792-28.767c0,0-0.65,0.193-1.632,0.466
								c-0.993,0.298-2.291,0.693-3.594,1.159c-1.293,0.439-2.589,0.979-3.553,1.357c-0.966,0.414-1.619,0.704-1.619,0.704
								L102.889,131.298z"/>
							<path fill="#221E1F" d="M102.889,131.79c-0.187,0-0.365-0.106-0.446-0.294l-12.078-27.235
								c-0.052-0.124-0.052-0.264-0.011-0.387c0.044-0.119,0.145-0.22,0.264-0.268l2.222-0.936c0.848-0.343,1.916-0.773,2.99-1.115
								c1.197-0.445,2.39-0.81,3.352-1.103l1.886-0.541c0.125-0.035,0.255-0.021,0.374,0.04c0.11,0.07,0.191,0.175,0.24,0.308
								l7.788,28.755c0.077,0.264-0.077,0.531-0.329,0.605l-1.366,0.396c-0.523,0.154-1.145,0.351-1.749,0.571
								c-0.527,0.167-1.03,0.374-1.476,0.545c-0.195,0.083-0.402,0.167-0.584,0.242l-0.885,0.372
								C103.019,131.773,102.961,131.79,102.889,131.79z M91.457,104.308l11.685,26.348l0.457-0.192
								c0.204-0.084,0.397-0.159,0.597-0.237c0.455-0.185,0.978-0.396,1.513-0.563c0.6-0.229,1.236-0.43,1.768-0.592l0.925-0.254
								l-7.549-27.825l-1.388,0.387c-0.949,0.299-2.128,0.667-3.31,1.093c-1.05,0.352-2.102,0.778-2.96,1.116L91.457,104.308z"/>
						</g>
					</g>
					<g>
						<g>
							<path fill="#CCCCCC" d="M97.372,134.395c0,0,0.077-0.049,0.191-0.136c0.149-0.075,0.316-0.206,0.546-0.359
								c0.407-0.295,1.048-0.664,1.672-1.042c0.666-0.342,1.307-0.725,1.838-0.962c0.522-0.254,0.861-0.417,0.861-0.417
								l-12.414-27.099c0,0-0.637,0.311-1.59,0.759c-0.962,0.457-2.236,1.169-3.505,1.854c-1.25,0.747-2.5,1.49-3.429,2.145
								c-0.45,0.307-0.839,0.565-1.107,0.754c-0.268,0.176-0.415,0.281-0.415,0.281L97.372,134.395z"/>
							<path fill="#221E1F" d="M97.372,134.891c-0.016,0-0.036-0.009-0.064-0.013c-0.134-0.014-0.253-0.087-0.325-0.202
								l-17.362-24.204c-0.156-0.22-0.119-0.528,0.093-0.681c0,0,0.162-0.132,0.446-0.312l1.111-0.756
								c0.914-0.637,2.175-1.375,3.38-2.113c0,0,0.086-0.044,0.097-0.044l0.374-0.206c1.164-0.642,2.264-1.248,3.141-1.656
								l1.605-0.765c0.115-0.066,0.248-0.07,0.374-0.018c0.129,0.044,0.219,0.142,0.283,0.259l12.395,27.091
								c0.114,0.236,0.023,0.522-0.227,0.641l-0.861,0.426c-0.354,0.154-0.734,0.374-1.145,0.585
								c-0.21,0.131-0.437,0.246-0.67,0.368l-0.551,0.33c-0.401,0.25-0.786,0.475-1.074,0.677l-0.545,0.374
								c-0.101,0.061-0.158,0.105-0.169,0.105C97.591,134.847,97.491,134.891,97.372,134.891z M80.704,110.296l16.798,23.426
								l0.33-0.22c0.296-0.211,0.7-0.466,1.126-0.721l0.569-0.337c0.254-0.137,0.474-0.255,0.685-0.382
								c0.43-0.225,0.843-0.453,1.206-0.62l0.413-0.202l-11.992-26.207l-1.16,0.562c-0.847,0.391-1.939,0.984-3.083,1.622
								l-0.369,0.206c-1.266,0.759-2.5,1.489-3.391,2.113l-1.125,0.754C80.704,110.291,80.704,110.296,80.704,110.296z"/>
						</g>
					</g>
					<g>
						<g>
							<path fill="#CCCCCC" d="M93.328,138.125c0.011,0.009,0.04-0.058,0.134-0.154c0.087-0.101,0.226-0.237,0.374-0.414
								c0.158-0.166,0.323-0.377,0.533-0.593c0.22-0.192,0.45-0.421,0.666-0.632c0.21-0.243,0.478-0.44,0.714-0.637
								c0.228-0.197,0.443-0.395,0.646-0.549c0.406-0.299,0.674-0.514,0.674-0.514L79.32,110.696c0,0-0.593,0.461-1.493,1.146
								c-0.451,0.351-0.953,0.786-1.505,1.252c-0.56,0.47-1.131,0.961-1.691,1.515c-0.556,0.536-1.105,1.085-1.624,1.6
								c-0.516,0.522-0.981,1.044-1.371,1.484c-0.397,0.435-0.711,0.804-0.951,1.059c-0.222,0.255-0.356,0.421-0.356,0.421
								L93.328,138.125z"/>
							<path fill="#221E1F" d="M93.328,138.625L93.328,138.625c-0.105,0-0.219-0.045-0.31-0.119l-22.994-18.951
								c-0.198-0.166-0.23-0.447-0.082-0.664c0,0,0.123-0.185,0.374-0.464l1.32-1.473c0.312-0.337,0.644-0.72,1.013-1.098
								l1.637-1.604c0.461-0.447,0.936-0.861,1.386-1.255l0.788-0.668c0.38-0.32,0.738-0.632,1.054-0.878l1.509-1.143
								c0.11-0.079,0.24-0.105,0.365-0.091c0.13,0.013,0.249,0.079,0.326,0.184l17.759,23.945c0.147,0.22,0.105,0.523-0.105,0.681
								l-0.682,0.509c-0.104,0.08-0.21,0.176-0.329,0.269c-0.088,0.096-0.189,0.188-0.298,0.264l-0.215,0.18
								c-0.154,0.133-0.316,0.269-0.45,0.405c-0.239,0.25-0.463,0.47-0.694,0.676c-0.097,0.106-0.196,0.225-0.288,0.33
								c-0.077,0.088-0.143,0.163-0.22,0.241l-0.437,0.479C93.66,138.524,93.486,138.625,93.328,138.625z M71.031,119.112
								l22.251,18.335l0.196-0.22c0.062-0.061,0.121-0.131,0.191-0.211c0.105-0.127,0.227-0.263,0.345-0.386
								c0.235-0.215,0.461-0.426,0.67-0.649c0.145-0.164,0.34-0.326,0.542-0.483l0.2-0.171c0.102-0.088,0.202-0.167,0.284-0.251
								c0.129-0.119,0.264-0.229,0.384-0.312l0.296-0.224l-17.171-23.154l-1.096,0.843c-0.312,0.251-0.656,0.536-1.025,0.843
								l-0.789,0.673c-0.437,0.386-0.896,0.773-1.326,1.208l-1.643,1.599c-0.345,0.359-0.677,0.729-0.982,1.054l-1.309,1.476
								C71.044,119.09,71.035,119.095,71.031,119.112z"/>
						</g>
					</g>
					<g>
						<g>
							<path fill="#CCCCCC" d="M90.723,142.451c0,0,0.125-0.269,0.313-0.677c0.146-0.426,0.478-0.904,0.742-1.427
								c0.134-0.268,0.33-0.487,0.47-0.729c0.163-0.219,0.281-0.452,0.411-0.632c0.292-0.351,0.459-0.58,0.459-0.58l-23.332-18.52
								c0,0-0.503,0.633-1.217,1.578c-0.364,0.482-0.747,1.076-1.164,1.695c-0.413,0.637-0.868,1.278-1.26,1.981
								c-0.78,1.415-1.59,2.798-2.054,3.901c-0.49,1.085-0.819,1.813-0.819,1.813L90.723,142.451z"/>
							<path fill="#221E1F" d="M90.723,142.938c-0.065,0-0.134-0.013-0.191-0.035l-27.457-11.588
								c-0.116-0.057-0.218-0.153-0.271-0.281c-0.037-0.119-0.037-0.255,0.007-0.378l0.833-1.823c0.401-0.953,1.043-2.1,1.724-3.316
								l0.354-0.611c0.274-0.506,0.58-0.967,0.891-1.424c0.122-0.197,0.255-0.391,0.374-0.583l0.369-0.55
								c0.284-0.431,0.556-0.843,0.811-1.187l1.226-1.576c0.077-0.101,0.187-0.167,0.33-0.189c0.125-0.017,0.255,0.021,0.36,0.114
								l23.352,18.506c0.207,0.172,0.239,0.475,0.073,0.686l-0.459,0.593c-0.072,0.087-0.133,0.192-0.191,0.298
								c-0.068,0.101-0.125,0.197-0.21,0.313c-0.044,0.07-0.105,0.171-0.194,0.276c-0.077,0.11-0.167,0.229-0.224,0.365
								c-0.121,0.232-0.226,0.431-0.345,0.637c-0.173,0.277-0.312,0.536-0.384,0.75l-0.339,0.721
								C91.077,142.833,90.901,142.938,90.723,142.938z M63.923,130.595l26.548,11.219l0.105-0.241
								c0.095-0.269,0.272-0.555,0.444-0.875c0.11-0.185,0.226-0.374,0.316-0.572c0.087-0.175,0.21-0.354,0.325-0.517
								c0.06-0.088,0.116-0.155,0.165-0.237c0.085-0.124,0.134-0.207,0.191-0.3c0.082-0.145,0.178-0.276,0.259-0.395l0.158-0.197
								L69.86,120.58l-0.909,1.19c-0.248,0.316-0.507,0.712-0.771,1.119l-0.365,0.546c-0.123,0.184-0.248,0.386-0.391,0.583
								c-0.288,0.445-0.595,0.892-0.854,1.363l-0.338,0.623c-0.682,1.182-1.298,2.311-1.683,3.224L63.923,130.595z"/>
						</g>
					</g>
					<g>
						<g>
							<path fill="#CCCCCC" d="M89.331,147.691c0,0,0.028-0.354,0.143-0.829c0.037-0.251,0.09-0.523,0.149-0.831
								c0.033-0.153,0.046-0.316,0.091-0.475c0.028-0.148,0.081-0.293,0.125-0.443c0.094-0.303,0.171-0.605,0.235-0.896
								c0.07-0.286,0.191-0.523,0.261-0.743c0.149-0.421,0.242-0.712,0.242-0.712l-27.659-11.064c0,0-0.275,0.747-0.686,1.862
								c-0.182,0.548-0.45,1.203-0.641,1.911c-0.193,0.702-0.405,1.449-0.608,2.209c-0.101,0.377-0.207,0.742-0.299,1.125
								c-0.09,0.368-0.158,0.733-0.224,1.072c-0.134,0.724-0.255,1.37-0.369,1.937c-0.211,1.129-0.292,1.871-0.292,1.871
								L89.331,147.691z"/>
							<path fill="#221E1F" d="M89.331,148.174c-0.02,0-0.036,0-0.063,0l-29.521-4.006c-0.269-0.04-0.455-0.269-0.431-0.532
								c0.004-0.03,0.066-0.777,0.301-1.919l0.43-2.263c0.044-0.255,0.101-0.51,0.158-0.765l0.916-3.351
								c0.134-0.492,0.306-0.958,0.459-1.379c0.068-0.202,0.134-0.391,0.203-0.562l0.685-1.873c0.028-0.126,0.133-0.227,0.244-0.285
								c0.13-0.049,0.263-0.058,0.397,0l27.659,11.069c0.239,0.097,0.373,0.365,0.296,0.616l-0.264,0.711
								c-0.032,0.088-0.061,0.18-0.104,0.281c-0.049,0.124-0.115,0.255-0.135,0.405c-0.085,0.307-0.162,0.62-0.248,0.923
								l-0.105,0.369c-0.049,0.145-0.049,0.229-0.073,0.321l-0.178,0.939c0,0.005-0.013,0.098-0.013,0.098
								c-0.105,0.426-0.121,0.737-0.121,0.737c-0.004,0.136-0.077,0.269-0.183,0.361C89.555,148.131,89.445,148.174,89.331,148.174z
								 M60.346,143.268l28.564,3.866c0.013-0.119,0.045-0.246,0.081-0.387l0.175-0.974c0.024-0.11,0.031-0.216,0.06-0.326
								c0-0.009,0.033-0.101,0.033-0.105l0.105-0.365c0.094-0.298,0.162-0.597,0.244-0.878c0.032-0.199,0.11-0.374,0.178-0.55
								c0.033-0.075,0.062-0.153,0.081-0.215l0.101-0.29L63.21,132.338l-0.515,1.379c-0.053,0.181-0.123,0.365-0.21,0.567
								c-0.134,0.405-0.301,0.848-0.422,1.309l-0.905,3.334c-0.053,0.233-0.099,0.475-0.143,0.721l-0.43,2.258
								C60.464,142.478,60.387,142.943,60.346,143.268z"/>
						</g>
					</g>
					<g>
						<g>
							<path fill="#CCCCCC" d="M89.076,155.054c0,0,0-0.54,0-1.371c0-0.402,0-0.888,0-1.396c0-0.255,0-0.522,0-0.79
								c0.004-0.185,0.02-0.383,0.02-0.563c0.014-0.365,0.029-0.725,0.053-1.081c0-0.334,0.004-0.659,0.048-0.9
								c0.062-0.527,0.105-0.871,0.105-0.871l-29.594-3.549c0,0-0.081,0.742-0.211,1.857c-0.064,0.567-0.092,1.204-0.116,1.881
								c-0.024,0.681-0.046,1.414-0.077,2.143c-0.004,0.36-0.018,0.716-0.033,1.081c0,0.268,0,0.535,0,0.79c0,0.509,0,0.994,0,1.396
								c0,0.831,0,1.371,0,1.371H89.076z"/>
							<path fill="#221E1F" d="M89.076,155.536H59.271c-0.268,0-0.479-0.215-0.479-0.482l0.02-4.647l0.072-2.148
								c0.033-0.65,0.053-1.327,0.138-1.92l0.2-1.857c0.011-0.127,0.082-0.251,0.174-0.335c0.101-0.083,0.235-0.11,0.369-0.096
								l29.594,3.545c0.263,0.035,0.45,0.276,0.426,0.545l-0.101,0.865c-0.048,0.237-0.057,0.536-0.057,0.866l-0.064,1.648v3.535
								C89.564,155.321,89.355,155.536,89.076,155.536z M59.766,154.562h28.816l0.076-4.722c0.007-0.351,0.007-0.689,0.058-0.984
								l0.035-0.342l-28.612-3.435l-0.149,1.37c-0.077,0.567-0.094,1.225-0.11,1.841l-0.114,3.997V154.562z"/>
						</g>
					</g>
					<g>
						<g>
							<rect x="59.271" y="155.679" fill="#CCCCCC" width="29.805" height="8.763"/>
							<path fill="#221E1F" d="M89.076,164.924H59.271c-0.268,0-0.479-0.215-0.479-0.482v-8.763c0-0.271,0.211-0.492,0.479-0.492
								h29.805c0.279,0,0.488,0.222,0.488,0.492v8.763C89.564,164.709,89.355,164.924,89.076,164.924z M59.766,163.944h28.816
								v-7.774H59.766V163.944z"/>
						</g>
					</g>
					<g>
						<g>
							<rect x="59.271" y="165.068" fill="#CCCCCC" width="29.805" height="8.757"/>
							<path fill="#221E1F" d="M89.076,174.312H59.271c-0.268,0-0.479-0.22-0.479-0.486v-8.757c0-0.277,0.211-0.499,0.479-0.499
								h29.805c0.279,0,0.488,0.222,0.488,0.499v8.757C89.564,174.092,89.355,174.312,89.076,174.312z M59.766,173.333h28.816
								v-7.777H59.766V173.333z"/>
						</g>
					</g>
					<g>
						<g>
							<rect x="59.271" y="174.447" fill="#CCCCCC" width="29.805" height="8.761"/>
							<path fill="#221E1F" d="M89.076,183.695H59.271c-0.268,0-0.479-0.22-0.479-0.487v-8.761c0-0.268,0.211-0.495,0.479-0.495
								h29.805c0.279,0,0.488,0.228,0.488,0.495v8.761C89.564,183.476,89.355,183.695,89.076,183.695z M59.766,182.716h28.816
								v-7.776H59.766V182.716z"/>
						</g>
					</g>
				</g>
			</g>
			<g>
				<path fill="#4794CF" d="M166.785,27.176c0,9.27-7.52,16.785-16.785,16.785c-9.266,0-16.775-7.516-16.775-16.785
					c0-9.259,7.509-16.78,16.775-16.78C159.266,10.396,166.785,17.917,166.785,27.176z"/>
			</g>
			<g>
				<path fill="#B12216" d="M178.554,88.345h-57.105c-8.32,0-15.045-6.733-15.045-15.049V41.654c0-8.31,6.725-15.044,15.045-15.044
					h57.105c8.315,0,15.049,6.734,15.049,15.044v31.642C193.603,81.611,186.869,88.345,178.554,88.345z"/>
			</g>
			<g>
				<path fill="#B12216" d="M184.523,183.915h-69.042c-10.978,0-19.897-8.901-19.897-19.883v-46.664
					c0-10.982,8.919-19.896,19.897-19.896h69.042c10.981,0,19.887,8.914,19.887,19.896v46.664
					C204.41,175.014,195.505,183.915,184.523,183.915z"/>
			</g>
			<g>
				<rect x="115.657" y="117.54" fill="#EDECF0" width="68.696" height="46.313"/>
			</g>
			<g>
				<g>
					<path fill="#F1E32E" d="M179.019,57.473c0,5.808-4.695,10.517-10.507,10.517c-5.799,0-10.508-4.709-10.508-10.517
						c0-5.798,4.709-10.499,10.508-10.499C174.323,46.974,179.019,51.674,179.019,57.473z"/>
				</g>
				<g>
					<path fill="#F1E32E" d="M142.004,57.473c0,5.808-4.709,10.517-10.522,10.517c-5.797,0-10.495-4.709-10.495-10.517
						c0-5.798,4.698-10.499,10.495-10.499C137.295,46.974,142.004,51.674,142.004,57.473z"/>
				</g>
			</g>
			<g>
				<g>
					<g>
						<rect x="157.939" y="178.801" fill="#B12216" width="37.702" height="92.225"/>
					</g>
					<g>
						<rect x="153.471" y="268.377" fill="#4794CF" width="46.638" height="21.228"/>
					</g>
				</g>
				<g>
					<g>
						<rect x="104.374" y="178.801" fill="#B12216" width="37.683" height="92.225"/>
					</g>
					<g>
						<rect x="99.911" y="268.377" fill="#4794CF" width="46.629" height="21.228"/>
					</g>
				</g>
				<g>
					<rect x="104.374" y="178.801" fill="#B12216" width="91.268" height="22.706"/>
				</g>
			</g>
			<g>
				<rect x="133.226" y="82.428" fill="#B12216" width="33.56" height="20.066"/>
			</g>
		</g>
		<g>
			<path fill="#4794CF" d="M216.041,205.352c-0.053-0.757,0-1.526,0.137-2.304c0.676-3.952,3.834-7.167,7.793-7.906
				c6.224-1.142,11.666,3.625,11.666,9.633c0,0.252-0.018,0.502-0.03,0.747c-0.255,3.34,2.538,6.12,5.873,6.12l0,0
				c3.149,0,5.706-2.471,5.891-5.61c0.079-1.384,0.026-2.811-0.172-4.265c-1.348-9.753-9.334-17.462-19.13-18.446
				c-12.919-1.304-23.809,8.804-23.809,21.454c0,0.537,0.026,1.06,0.048,1.586c0.22,2.993,2.75,5.281,5.745,5.281h0.255
				C213.695,211.642,216.238,208.729,216.041,205.352z"/>
		</g>
		<g>
			<path fill="#4794CF" d="M64.386,205.352c-0.048-0.757,0-1.526,0.13-2.304c0.685-3.952,3.842-7.167,7.797-7.906
				c6.223-1.142,11.667,3.625,11.667,9.633c0,0.252-0.016,0.502-0.028,0.747c-0.244,3.34,2.532,6.12,5.882,6.12l0,0
				c3.136,0,5.693-2.471,5.875-5.61c0.085-1.384,0.028-2.811-0.167-4.265c-1.351-9.753-9.346-17.462-19.128-18.446
				c-12.923-1.304-23.819,8.804-23.819,21.454c0,0.537,0.028,1.06,0.063,1.586c0.224,2.993,2.748,5.281,5.752,5.281h0.244
				C62.05,211.642,64.578,208.729,64.386,205.352z"/>
		</g>
	</g>
</g>
<g id="icon-libro">
</g>
<g id="icon-djcp">
</g>
<g id="icon-casco">
</g>
<g id="icon-antena">
</g>
<g id="icon-auto">
</g>
<g id="icon-eficiencia">
</g>
<g id="icon-gas">
</g>
<g id="icon-medic">
</g>
<g id="icon-logomarca">
</g>
<g id="icon-metrologia">
</g>
<g id="icon-graficos">
</g>
<g id="icon-aceros">
</g>
<g id="icon-pinturas">
</g>
<g id="icon-encendedores">
</g>
<g id="icon-escolares">
</g>
<g id="icon-pilas">
</g>
<g id="icon-mobiliarios">
</g>
<g id="icon-aluminio">
</g>
<g id="icon-usados">
</g>
</svg>
