<?xml version="1.0" encoding="utf-8"?>
<!-- Generator: Adobe Illustrator 16.0.0, SVG Export Plug-In . SVG Version: 6.00 Build 0)  -->
<!DOCTYPE svg PUBLIC "-//W3C//DTD SVG 1.0//EN" "http://www.w3.org/TR/2001/REC-SVG-20010904/DTD/svg10.dtd">
<svg version="1.0" xmlns="http://www.w3.org/2000/svg" xmlns:xlink="http://www.w3.org/1999/xlink" x="0px" y="0px" width="300px"
	 height="300px" viewBox="0 0 300 300" enable-background="new 0 0 300 300" xml:space="preserve">
<g id="icon-robot">
</g>
<g id="icon-libro">
</g>
<g id="icon-djcp">
</g>
<g id="icon-casco">
</g>
<g id="icon-antena">
</g>
<g id="icon-auto">
</g>
<g id="icon-eficiencia">
</g>
<g id="icon-gas">
</g>
<g id="icon-medic">
</g>
<g id="icon-logomarca">
	<g>
		<path fill="#22211F" d="M187.922,126.021c-6.602-2.813-11.755-4.446-17.487-5.811c-5.605-1.272-11.055-1.979-16.41-1.979
			c-5.116,0-8.949,0.827-11.679,2.399c-2.59,1.621-3.939,3.94-3.939,6.974c0,2.466,1.135,4.513,3.408,5.916
			c2.335,1.326,8.264,2.803,17.738,4.531c12.166,2.209,20.853,5.865,25.862,10.681c5.032,4.799,7.569,11.741,7.569,20.81
			c0,10.073-3.344,17.726-9.755,23.122c-6.447,5.351-15.796,7.966-27.982,7.966c-6.948,0-13.695-0.425-20.143-1.192
			c-6.501-0.808-12.543-2.13-18.381-3.696c-0.144-5.88-0.395-10.604-0.646-14.311c-0.19-3.758-0.441-7.062-1.045-9.997
			c6.323,3.055,12.496,5.379,18.866,6.989c6.364,1.596,12.267,2.432,17.886,2.432c5.856,0,10.09-0.836,12.801-2.291
			c2.608-1.456,3.927-3.769,3.927-7.015c0-4.724-5.385-8.222-16.227-10.542c-0.692-0.097-1.141-0.31-1.576-0.31
			c-0.519-0.224-1.319-0.328-2.333-0.479c-11.492-2.547-19.236-5.224-23.261-8.066c-3.295-2.431-5.916-5.55-7.825-9.479
			c-1.826-3.833-2.819-7.939-2.819-12.445c0-9.674,3.528-17.202,10.562-22.56c7.068-5.338,16.908-7.991,29.659-7.991
			c5.062,0,10.335,0.463,15.951,1.221c5.523,0.806,11.302,2.036,17.278,3.525"/>
		<path fill="#22211F" d="M187.922,104.422c0,0.854-0.095,1.729-0.095,2.726v4.11"/>
		<path fill="#22211F" d="M208.058,95.374c13.887,14.48,22.33,34.071,22.33,55.563c0,21.302-8.443,40.864-22.209,55.365
			c0.131,10.265,0.16,20.705,0.429,31.596c-16.776,11.169-36.972,17.708-58.631,17.708c-57.737,0-104.883-47.105-104.883-104.669
			c0-57.79,47.218-103.978,104.883-104.905c21.659-0.386,41.777,6.146,58.631,17.441C208.339,74.15,208.179,84.732,208.058,95.374
			 M149.977,81.082c-38.446,0-69.718,31.405-69.718,69.855c0,38.339,31.271,69.654,69.718,69.654
			c38.47,0,69.837-31.315,69.837-69.654C219.813,112.487,188.446,81.082,149.977,81.082"/>
		<path fill="#22211F" d="M230.021,269.6c0.091-4.32,0.091-8.665,0.091-13.078c31.891-24.25,52.673-62.713,52.673-105.584
			c0-43.08-20.782-81.426-52.673-105.675c0-4.416,0-8.798-0.091-13.213c-22.87-15.475-48.404-25.229-77.997-26.142
			C121.23,4.949,92.533,17.307,69.602,32.961v12.495c-31.736,24.276-52.387,62.518-52.387,105.481
			c0,42.871,20.764,81.334,52.674,105.584c0,4.514,0.09,8.873,0.09,13.078c22.805,15.463,50.375,24.545,79.998,24.545
			C179.574,294.145,207.151,285.063,230.021,269.6 M157.94,290.113l-9.032-9.886l0.292,10.214l-2.758,0.09l-0.585-14.307
			l2.943-0.087l8.978,9.904l-0.339-10.116l2.817-0.104l0.478,14.234L157.94,290.113z M168.502,289.133l-1.356-11.755l-4.585,0.576
			l-0.256-2.504l11.935-1.427l0.328,2.414l-4.466,0.615l1.432,11.698L168.502,289.133z M179.192,287.311l-3.407-13.871l2.799-0.688
			l3.529,13.845L179.192,287.311z M197.689,281.661l-11.732-6.514l3.57,9.547l-2.698,0.904l-4.812-13.388l2.734-0.998l11.516,6.647
			l-3.521-9.604l2.751-0.951l4.806,13.456L197.689,281.661z M220.44,271.098l-3.009,1.481l-2.538-1.77l-7.533,3.841l0.089,3.112
			l-2.519,1.326l-0.162-16.27l2.479-1.269L220.44,271.098z M213.187,26.433v16.313l-3.021-1.496l0.132-3.218l-7.569-3.833
			l-2.544,1.901l-2.494-1.325l13.015-9.525L213.187,26.433z M195.086,18.463c0.71,0.218,1.527,0.524,2.245,0.919
			c0.781,0.394,1.48,0.839,2.065,1.334c0,0,0,0.068-0.066,0.252c-0.137,0.25-0.137,0.438-0.263,0.536
			c-0.06,0.309-0.16,0.586-0.16,1.018c-0.096,0.287-0.191,0.618-0.191,0.893c-0.711-0.605-1.284-1.22-1.976-1.602
			c-0.718-0.529-1.445-0.845-2.192-1.028c-1.456-0.489-2.794-0.489-3.916,0.088c-1.158,0.534-1.946,1.543-2.514,3.053
			c-0.519,1.499-0.358,2.901,0.222,4.225c0.733,1.211,1.796,2.151,3.414,2.597c0.813,0.218,1.54,0.334,2.43,0.418
			c0.8,0,1.679-0.084,2.706-0.266c-0.407,0.668-0.729,1.151-0.867,1.649c-0.227,0.413-0.327,0.846-0.525,1.117
			c-0.609,0.113-1.433,0-2.203-0.08c-0.811-0.122-1.605-0.326-2.5-0.624c-1.458-0.49-2.572-1-3.367-1.681
			c-0.902-0.595-1.47-1.422-2.012-2.466c-0.347-0.782-0.604-1.663-0.604-2.701c0-0.961,0.113-1.979,0.395-2.974
			c0.751-2.268,1.999-3.758,3.743-4.546C190.632,17.684,192.746,17.684,195.086,18.463 M182.603,15.051l-3.165,13.916l-2.979-0.72
			l3.22-13.896L182.603,15.051z M167.718,12.344l-1.396,11.581l7.099,0.884l-0.353,2.65l-10.077-1.229l1.819-14.211L167.718,12.344z
			 M154.543,11.23c1.397,0,2.621,0.286,3.297,1.035c0.854,0.576,1.187,1.43,1.063,2.516c0,0.866-0.156,1.573-0.676,2.114
			c-0.387,0.576-1.063,0.884-2.018,1.095c1.004,0.184,1.84,0.604,2.484,1.192c0.584,0.593,0.738,1.411,0.738,2.411
			c0,1.296-0.405,2.331-1.205,3.021c-0.787,0.635-2.071,0.922-3.684,0.922l-6.782-0.113l0.317-14.254L154.543,11.23z
			 M131.332,12.344l1.045,8.528c0.065,1.218,0.496,2.118,1.086,2.677c0.692,0.376,1.642,0.585,2.962,0.376
			c0.704,0,1.277-0.211,1.755-0.511c0.531-0.274,0.813-0.605,1.194-1.083c0.083-0.325,0.167-0.675,0.167-0.925
			c0-0.438,0-0.977-0.084-1.821l-0.083-0.402l-0.968-7.762l2.746-0.251l1.111,8.913c0.291,1.923-0.137,3.331-1.027,4.439
			c-0.99,1.093-2.525,1.707-4.734,2.015c-2.125,0.289-3.838,0-4.932-0.827c-1.23-0.767-1.951-2.161-2.195-4.116l-1.021-8.866
			L131.332,12.344z M118.65,14.869c1.881-0.413,3.279-0.413,4.229,0.106c1.056,0.403,1.754,1.379,2.053,2.804
			c0.185,0.814,0.185,1.517,0.102,2.092c-0.102,0.723-0.4,1.347-0.932,1.785c-0.263,0.434-0.77,0.759-1.318,1.038
			c-0.563,0.296-1.375,0.538-2.502,0.854l-2.676,0.585l1.309,5.322l-2.979,0.672l-3.218-13.979L118.65,14.869z M106.593,18.174
			l0.9,2.256l-6.042,2.265l1.158,3.016l5.193-1.996l0.926,2.256l-5.312,1.971l1.468,3.626l6.364-2.396l0.913,2.176l-9.254,3.555
			l-5.133-13.307L106.593,18.174z M81.84,29.254l5.541-2.821c1.725-0.896,3.212-1.183,4.363-1.009
			c1.164,0.191,2.078,0.9,2.705,2.218c0.525,0.979,0.697,2.015,0.364,2.932c-0.162,0.88-0.771,1.6-1.696,2.274
			c0.58-0.048,1.23-0.048,1.696,0c0.646,0.221,1.104,0.411,1.618,0.817c0.237,0.113,0.322,0.182,0.621,0.421
			c1.551,1.209,2.489,1.823,2.924,2.015l-3.308,1.708c-0.947-0.807-1.694-1.409-2.417-1.899c-0.733-0.527-1.344-0.817-1.863-1.009
			c-0.352-0.19-0.645-0.295-1.092-0.19c-0.281,0-0.704,0.065-1.17,0.382l-1.518,0.817l2.406,4.705l-2.644,1.424L81.84,29.254z
			 M27.908,150.938c0-67.24,54.899-122.123,122.068-122.123c67.275,0,122.129,54.883,122.129,122.123
			c0,67.093-54.854,121.973-122.129,121.973C82.808,272.91,27.908,218.03,27.908,150.938 M93.822,278.357v-3.148l-7.463-3.813
			l-2.537,1.899l-2.441-1.312l12.967-9.623l2.406,1.282l0.149,16.191L93.822,278.357z M108.425,283.898
			c0-1.239-0.22-2.237-0.3-3.016c-0.095-0.9-0.322-1.495-0.477-2.028c-0.155-0.418-0.334-0.706-0.578-0.9
			c-0.287-0.191-0.652-0.508-1.13-0.576l-1.694-0.656l-1.727,5.091l-2.835-0.93l4.716-13.492l5.822,2
			c1.837,0.594,3.176,1.419,3.784,2.428c0.663,0.934,0.663,2.101,0.281,3.542c-0.413,1.009-1.058,1.786-1.847,2.229
			c-0.77,0.476-1.747,0.559-2.799,0.364c0.377,0.288,0.807,0.71,1.063,1.372c0.328,0.443,0.544,0.901,0.633,1.557
			c0,0.184,0,0.393,0.054,0.717c0.28,1.896,0.472,3.095,0.668,3.463L108.425,283.898z M125.26,288.405
			c-1.158,0-2.148-0.201-3.253-0.504c-2.489-0.591-4.323-1.708-5.427-3.416c-1.115-1.689-1.409-3.725-0.878-5.915
			c0.608-2.201,1.689-3.823,3.498-4.85c1.809-0.897,3.911-1.142,6.437-0.493c0.918,0.252,1.719,0.598,2.627,0.973
			c0.781,0.45,1.57,0.847,2.268,1.43v0.191l-0.047,0.403c-0.145,0.317-0.209,0.638-0.209,0.922c-0.072,0.443-0.222,0.808-0.222,1.29
			c-0.913-0.778-1.79-1.384-2.621-1.895c-0.806-0.404-1.569-0.761-2.501-1.02c-1.521-0.375-2.925-0.162-4.018,0.403
			c-1.134,0.655-1.916,1.837-2.264,3.4c-0.381,1.435-0.186,2.814,0.55,3.996c0.843,1.163,1.971,2.007,3.679,2.41
			c0.531,0.039,1.133,0.19,1.653,0.31h1.623l0.472-2.144l-3.049-0.721l0.643-2.295l5.613,1.412l-1.48,6.031
			C127.355,288.405,126.341,288.539,125.26,288.405 M132.603,289.399l1.194-14.252l9.434,0.886l-0.222,2.324l-6.405-0.595
			l-0.322,3.21l5.66,0.497l-0.204,2.429l-5.653-0.49l-0.371,3.902l6.842,0.591l-0.209,2.366L132.603,289.399z M156.531,21.218
			c0-0.714-0.227-1.19-0.591-1.499c-0.448-0.423-0.99-0.536-1.916-0.656h-3.212l-0.103,4.17h2.907c1.075,0,1.875-0.093,2.323-0.424
			C156.305,22.521,156.531,22.006,156.531,21.218 M156.209,15.128c0-0.537-0.214-1.057-0.495-1.269
			c-0.364-0.316-1.021-0.346-2.012-0.346l-2.794-0.152l-0.096,3.534l2.657,0.074c1.073,0,1.777-0.074,2.167-0.395
			C155.995,16.28,156.209,15.887,156.209,15.128 M213.073,269.391l-5.826-4.417l0.113,7.374L213.073,269.391z M210.363,28.421
			l-5.857,4.379l5.791,2.916L210.363,28.421z M93.953,272.91l0.09-7.307l-5.861,4.381L93.953,272.91z M121.785,20.43
			c0.436-0.559,0.508-1.134,0.336-1.836c-0.191-0.72-0.479-1.122-0.98-1.287c-0.429-0.257-1.241-0.257-2.227,0l-2.729,0.684
			l1.01,4.016l2.203-0.6C120.621,21.218,121.408,20.784,121.785,20.43 M92.126,30.964c0.263-0.588,0.263-1.2-0.089-1.893
			c-0.293-0.65-0.74-0.922-1.212-1.039c-0.526-0.092-1.194,0-1.999,0.54l-3.129,1.46l1.904,3.814l2.782-1.376
			C91.297,32.05,91.898,31.453,92.126,30.964 M111.53,274.535c0.209-0.71,0.209-1.239-0.139-1.625
			c-0.228-0.522-0.847-0.814-1.749-1.092l-3.225-1.221l-1.432,4.149l2.93,1.034c0.998,0.252,1.822,0.356,2.307,0.145
			C110.891,275.781,111.249,275.209,111.53,274.535"/>
	</g>
</g>
<g id="icon-metrologia">
</g>
<g id="icon-graficos">
</g>
<g id="icon-aceros">
</g>
<g id="icon-pinturas">
</g>
<g id="icon-encendedores">
</g>
<g id="icon-escolares">
</g>
<g id="icon-pilas">
</g>
<g id="icon-mobiliarios">
</g>
<g id="icon-aluminio">
</g>
<g id="icon-usados">
</g>
</svg>
