<svg id="Iconos" xmlns="http://www.w3.org/2000/svg" xmlns:xlink="http://www.w3.org/1999/xlink" width="300" height="300" viewBox="0 0 300 300">
  <defs>
    <style>
      .cls-1, .cls-7 {
        fill: none;
      }

      .cls-2 {
        clip-path: url(#clip-path);
      }

      .cls-3 {
        fill: #706f6f;
      }

      .cls-4 {
        fill: #e30613;
      }

      .cls-5 {
        fill: #fff;
      }

      .cls-6 {
        fill: #1d1d1b;
      }

      .cls-7, .cls-9 {
        stroke: #1d1d1b;
        stroke-width: 4.88px;
      }

      .cls-7 {
        stroke-miterlimit: 10;
      }

      .cls-8 {
        fill: #878787;
      }

      .cls-9 {
        fill: #c9e6ed;
        stroke-linecap: round;
        stroke-linejoin: round;
      }
    </style>
    <clipPath id="clip-path">
      <path class="cls-1" d="M18.88,504.7s-3.81-39,20-37.14c0,0-2.85-30.47,21-32.37,0,0-2.86-29.52,24.76-32.38s107.6,13.33,107.6,13.33L344.54,546.6,223.61,630.4,20.78,559Z"/>
    </clipPath>
  </defs>
  <path d="M217.29,270.74H93.74a6.69,6.69,0,0,1-6.69-6.69v-9.44a6.68,6.68,0,0,1,6.69-6.69H217.29a6.69,6.69,0,0,1,6.69,6.69v9.44A6.68,6.68,0,0,1,217.29,270.74Z"/>
  <polygon points="110.49 222.63 198.69 222.63 223.06 251.31 220.28 255.02 145.65 257.79 92.6 255.94 88.59 250.24 110.49 222.63"/>
  <g class="cls-2">
    <g>
      <polygon class="cls-3" points="222.71 539.09 -142.53 328.02 -125.5 292.42 239.22 503.19 222.71 539.09"/>
      <polygon class="cls-3" points="206.71 520.38 -158.54 309.3 -141.51 273.7 223.21 484.48 206.71 520.38"/>
    </g>
  </g>
  <g>
    <path d="M197.05,221.42l-13.39-15.77V102.93H126.75V205.65l-13.38,15.77c-9.79,12.39-25.45,26.51-25.45,37.53,0,5.34,38.15,4.5,67.29,4.5,49.29,0,67.28.84,67.28-4.5C222.49,247.93,206.83,233.81,197.05,221.42Z"/>
    <path d="M197.05,221.42l-13.39-15.77V102.93H163.84v92.33L177.23,211c9.79,12.39,25.44,26.51,25.44,37.53,0,5.34-18,4.5-67.28,4.5-15.14,0-32.68.22-46.07-.31a16.57,16.57,0,0,0-1.4,6.2c0,5.34,38.15,4.5,67.29,4.5,49.29,0,67.28.84,67.28-4.5C222.49,247.93,206.83,233.81,197.05,221.42Z"/>
    <g>
      <path class="cls-4" d="M56.21,37.32c2.14,37.3,40.23,67,86.91,67h24.17c46.69,0,84.77-29.73,86.92-67Z"/>
      <path class="cls-4" d="M61.58,37.32c2.7,27.6,31.24,49.33,66.09,49.33h18.42c34.85,0,63.38-21.73,66.09-49.33Z"/>
      <path class="cls-4" d="M73.72,37.32A9.15,9.15,0,0,0,72.81,41a33.37,33.37,0,0,0,.6,6.48,26.24,26.24,0,0,0,4.92,12.14A44.8,44.8,0,0,0,99.07,74.84,56.75,56.75,0,0,0,115,77.63l12.15.37c12.17.36,25.72-3.67,34-11a33.7,33.7,0,0,0,6.29-7.24c2.59-4.31,6.55-14.76,7-22.41Z"/>
      <path class="cls-4" d="M82.25,45.65a18.45,18.45,0,0,0,.36,3.68,14.74,14.74,0,0,0,2.81,6.89,25.5,25.5,0,0,0,11.8,8.63,32.11,32.11,0,0,0,9,1.57l6.9.19c6.91.19,14.59-2.11,19.28-6.3A18.9,18.9,0,0,0,136,56.19c1.95-3.25,4.7-7.83,2.92-11.48-2.2-4.56-10.23-4.14-15-4.6-4.12-.38-8.21-.41-12.35-.46-5.19-.06-10.39-.2-15.59,0-3.84.12-10.12,0-12.58,2.94A5,5,0,0,0,82.25,45.65Z"/>
      <path class="cls-4" d="M233.86,37.32c-5.27,32.49-39.67,57.58-81.35,57.58h-22.8c-20.63,0-39.47-6.15-53.88-16.3,16,15.72,40.18,25.75,67.29,25.75h24.17c46.69,0,84.77-29.73,86.92-67Z"/>
    </g>
    <path class="cls-4" d="M220.68,177.41a65.47,65.47,0,1,0-65.47,65.46A65.47,65.47,0,0,0,220.68,177.41Z"/>
    <g>
      <circle class="cls-5" cx="155.21" cy="177.41" r="57.6"/>
      <path class="cls-6" d="M155.21,127.45a50,50,0,1,1-50,50,50,50,0,0,1,50-50m0-8.27a58.23,58.23,0,1,0,58.23,58.23,58.29,58.29,0,0,0-58.23-58.23Z"/>
    </g>
    <path class="cls-7" d="M187.06,177.41a31.86,31.86,0,1,0-31.85,31.85A31.85,31.85,0,0,0,187.06,177.41Z"/>
    <path class="cls-8" d="M159.79,177.41a4.59,4.59,0,1,0-4.58,4.59A4.58,4.58,0,0,0,159.79,177.41Z"/>
    <line class="cls-9" x1="155.21" y1="127.79" x2="155.21" y2="139.57"/>
    <line class="cls-9" x1="155.21" y1="215.24" x2="155.21" y2="227.02"/>
    <line class="cls-9" x1="105.6" y1="177.41" x2="117.37" y2="177.41"/>
    <line class="cls-9" x1="193.04" y1="177.41" x2="204.82" y2="177.41"/>
    <polygon class="cls-4" points="144.57 184.86 181.65 151.34 148.13 188.42 144.57 184.86"/>
    <path d="M157.91,177.41a2.7,2.7,0,1,0-2.7,2.7A2.7,2.7,0,0,0,157.91,177.41Z"/>
  </g>
</svg>
