<svg id="Iconos" xmlns="http://www.w3.org/2000/svg" width="300" height="300" viewBox="0 0 300 300">
  <defs>
    <style>
      .cls-1 {
        fill: #fed9ae;
      }

      .cls-2 {
        fill: #f1bc7c;
      }

      .cls-3 {
        fill: #fff;
      }

      .cls-4 {
        fill: #ffa600;
      }

      .cls-5 {
        fill: #313f5e;
      }
    </style>
  </defs>
  <path class="cls-1" d="M231.34,155.23c-1.65,2.06-65.45,69.31-65.45,69.31l-77.18-63.4,24.48-55.87,74.88-2.65,21.12-1Z"/>
  <path class="cls-2" d="M152.64,128.84c2.7-7,18.5-13.25,14-13.39-.19,0,20.21-2.09,20.21-2.09l-5.18,9L224,163.08l-3.3,3.51Z"/>
  <path class="cls-1" d="M167.94,233.75a12.28,12.28,0,0,1-7.48-2.53L87.92,175.89a12.35,12.35,0,0,1,15-19.64l72.53,55.33a12.35,12.35,0,0,1-7.5,22.17Z"/>
  <path class="cls-1" d="M184.85,221.17a12.26,12.26,0,0,1-7.48-2.53l-72.54-55.33a12.35,12.35,0,0,1,15-19.64L192.35,199a12.35,12.35,0,0,1-7.5,22.17Z"/>
  <path class="cls-1" d="M200.26,205.76a12.28,12.28,0,0,1-7.48-2.53L120.24,147.9a12.35,12.35,0,0,1,15-19.64l72.54,55.33a12.35,12.35,0,0,1-7.5,22.17Z"/>
  <path class="cls-1" d="M215.07,190.31a12.32,12.32,0,0,1-7.48-2.53l-72.54-55.34a12.35,12.35,0,1,1,15-19.63l17.12-4.66v13.38l55.42,46.61a12.35,12.35,0,0,1-7.5,22.17Z"/>
  <path class="cls-1" d="M148.91,205.76l1.51-1.91-.32-3.91,3.44,0,9.56-12.08-.59-4.45,4.15-.06,9.72-12.3-1.07-4.86,5.26-.43,5.49-6.94-42-57.16s-28.94,1-38.21-2.28C95.79,95.76,71.4,160.06,86.19,172S148.91,205.76,148.91,205.76Z"/>
  <path class="cls-2" d="M140.94,205.66a14.25,14.25,0,0,0-5.39-11.45,14.46,14.46,0,0,0-8.44-3.14,14.65,14.65,0,0,0-.24-2.64,14.36,14.36,0,0,0-14.11-11.78,13.64,13.64,0,0,0-1.81.12,14.39,14.39,0,0,0-14-11,14.44,14.44,0,0,0-12.13,6.66,12.43,12.43,0,0,0,3.08,3.45l65,49.6a14.37,14.37,0,0,0-12-19.83Z"/>
  <path class="cls-2" d="M167.15,121.83V108.45l-5.3,1.45v-1.45L158,109.51V100l-12.79,3.47-1.13-1.54h-1.53l-1.11-.16-21.22-.36a13.75,13.75,0,0,0-1.74,4s-1.16,5.63-1.28,6.31l-5.47,31.71c-4.56,25.4,32.3,13.62,35-1.93l2.88-16.71,17.63-2.88Z"/>
  <path class="cls-1" d="M123.34,152.33c-8.48-.63-7.58-6-6.48-12.43l5.47-31.71a11.74,11.74,0,0,1,7.88-9.14L164.29,85.7a11.77,11.77,0,0,1,5.83-.4l29.47,7.52a11.73,11.73,0,1,1-4.27,23.07l-26.52-.79-24.54,4-2.88,16.71C138.72,151.37,126.84,152.59,123.34,152.33Z"/>
  <g>
    <path class="cls-1" d="M106.09,210.92A9.89,9.89,0,0,1,98,195.43l6.74-9.94A9.87,9.87,0,1,1,121,196.7l-6.73,9.94A9.89,9.89,0,0,1,106.09,210.92Z"/>
    <path class="cls-1" d="M121.57,221.62a9.88,9.88,0,0,1-7.71-16.05l5.09-6.24a9.88,9.88,0,0,1,15.43,12.34l-5.09,6.24A9.85,9.85,0,0,1,121.57,221.62Z"/>
    <path class="cls-1" d="M137.22,232a9.88,9.88,0,0,1-7-16.86l2.61-2.12a9.88,9.88,0,0,1,14,14l-2.62,2.12A9.85,9.85,0,0,1,137.22,232Z"/>
    <path class="cls-1" d="M92.37,198.81A9.88,9.88,0,0,1,83.82,184l4.68-8.7a9.88,9.88,0,0,1,17.12,9.87l-4.68,8.71A9.87,9.87,0,0,1,92.37,198.81Z"/>
  </g>
  <path class="cls-2" d="M106.3,183.7a9.88,9.88,0,0,0,.4-5.55L92.47,198.81a10,10,0,0,0,4.32-1.06,9.9,9.9,0,0,0-.26,5.72l15.29-22.19A9.81,9.81,0,0,0,106.3,183.7Z"/>
  <path class="cls-2" d="M119.82,198.38,121,196.7a9.77,9.77,0,0,0,1.67-6.78l-16,21a9.87,9.87,0,0,0,5.49-2.06,9.94,9.94,0,0,0-.19,5l13.82-18.14A9.89,9.89,0,0,0,119.82,198.38Z"/>
  <path class="cls-2" d="M134.24,211.84l.14-.17a9.84,9.84,0,0,0,2.08-7.41L122.3,221.59a9.85,9.85,0,0,0,5.4-2.1,9.93,9.93,0,0,0,0,5l11.76-14.39A9.91,9.91,0,0,0,134.24,211.84Z"/>
  <path class="cls-2" d="M214,188.88l-22.9-17.66a3,3,0,0,0-3.66,4.75l22.91,17.65a3,3,0,0,0,1.82.63c.13,0,.25,0,.37,0a12.5,12.5,0,0,0-.47-4.26,12.28,12.28,0,0,0,2.95.36A2.93,2.93,0,0,0,214,188.88Z"/>
  <path class="cls-2" d="M197.18,209a12.32,12.32,0,0,0-.52-3.73,12.32,12.32,0,0,0,3.6.54c.39,0,.78,0,1.16-.06a2.92,2.92,0,0,0-1.07-1.79L176,184.73a3,3,0,1,0-3.71,4.7l24.33,19.18A3.06,3.06,0,0,0,197.18,209Z"/>
  <path class="cls-2" d="M185.11,221.16a3,3,0,0,0-1-1.67l-15.5-12.71a3,3,0,1,0-3.8,4.63L180,223.9a12.31,12.31,0,0,0,.21-3.63,12.28,12.28,0,0,0,4.61.9Z"/>
  <polygon class="cls-1" points="201.42 95.18 220.1 92.17 241.93 149.23 229.86 156.86 201.42 95.18"/>
  <polygon class="cls-1" points="105.86 99.34 89.27 93.21 64.32 157.54 83.81 164.88 105.86 99.34"/>
  <path class="cls-3" d="M238.88,168.61a4.42,4.42,0,0,0,5.36,2.74l16.13-4.8a3.93,3.93,0,0,0,2.61-5.1L237,87.29a4.42,4.42,0,0,0-5.36-2.74l-16.13,4.8a3.93,3.93,0,0,0-2.61,5.11Z"/>
  <rect class="cls-4" x="231.66" y="79.87" width="20.68" height="93.83" rx="4.16" transform="translate(-28.33 87.28) rotate(-19.34)"/>
  <path class="cls-3" d="M69,168.61a4.42,4.42,0,0,1-5.36,2.74l-16.13-4.8a3.93,3.93,0,0,1-2.61-5.1l26-74.16a4.42,4.42,0,0,1,5.36-2.74l16.13,4.8A3.93,3.93,0,0,1,95,94.46Z"/>
  <rect class="cls-5" x="18.92" y="116.45" width="93.83" height="20.68" rx="4.16" transform="translate(-75.6 146.93) rotate(-70.66)"/>
</svg>
