<svg id="Iconos" xmlns="http://www.w3.org/2000/svg" width="300" height="300" viewBox="0 0 300 300">
  <defs>
    <style>
      .cls-1, .cls-9 {
        fill: #e30613;
      }

      .cls-2 {
        fill: #dadada;
      }

      .cls-3 {
        fill: #fff;
      }

      .cls-4 {
        fill: #b03d44;
        opacity: 0.45;
      }

      .cls-5 {
        fill: #1d1d1b;
      }

      .cls-6 {
        fill: #ffed00;
      }

      .cls-7 {
        fill: #ffa000;
      }

      .cls-8 {
        fill: #19ade0;
      }

      .cls-9 {
        opacity: 0.5;
      }
    </style>
  </defs>
  <g>
    <path class="cls-1" d="M149.91,33.87a8.06,8.06,0,0,0-8.06,8.06V52.27H158V41.93A8.07,8.07,0,0,0,149.91,33.87Zm0,12.69A4.53,4.53,0,1,1,154.44,42,4.52,4.52,0,0,1,149.91,46.56Z"/>
    <path class="cls-1" d="M154.44,42a4.53,4.53,0,0,0-4.53-4.53,5.23,5.23,0,0,0-.68.07,3.36,3.36,0,0,1,1.84-.44,4.52,4.52,0,0,1,4.52,4.52,3.67,3.67,0,0,1-2.9,4A5,5,0,0,0,154.44,42Zm-10.13,9.19V40.9a7.89,7.89,0,0,1,3.39-6.72,8.07,8.07,0,0,0-5.85,7.75V52.27H158v-1Z"/>
    <path d="M82.76,52.81H214a10.38,10.38,0,0,1,10.38,10.38V257.33A10.37,10.37,0,0,1,214,267.7H82.76a10.37,10.37,0,0,1-10.37-10.37V63.18A10.37,10.37,0,0,1,82.76,52.81Z"/>
    <rect class="cls-2" x="81.2" y="61.24" width="134.37" height="198.04"/>
    <rect class="cls-3" x="86.36" y="67.29" width="124.03" height="185.94"/>
    <path class="cls-1" d="M107,50.69h82.81a7.48,7.48,0,0,1,7.48,7.48v6.27a0,0,0,0,1,0,0H99.5a0,0,0,0,1,0,0V58.17A7.48,7.48,0,0,1,107,50.69Z"/>
    <path class="cls-4" d="M103.27,62.42V56.57a7.86,7.86,0,0,1,2.44-5.69,7.89,7.89,0,0,0-6.21,7.71v5.85h97.77v-2Z"/>
    <g>
      <rect class="cls-5" x="97.82" y="136.87" width="46.34" height="3.08"/>
      <rect class="cls-5" x="97.82" y="142.26" width="46.34" height="3.08"/>
      <rect class="cls-5" x="97.81" y="147.65" width="46.34" height="3.08"/>
      <rect class="cls-5" x="97.81" y="153.03" width="46.34" height="3.08"/>
      <rect class="cls-5" x="97.81" y="158.42" width="46.34" height="3.08"/>
      <rect class="cls-5" x="97.8" y="163.81" width="46.34" height="3.08"/>
      <rect class="cls-5" x="97.8" y="169.2" width="46.34" height="3.08"/>
      <rect class="cls-5" x="97.8" y="174.58" width="32.62" height="3.08"/>
      <g>
        <polygon class="cls-6" points="102.26 118.75 99.42 114.9 134.68 88.89 157.6 104.56 194.2 79.5 196.9 83.45 157.6 110.36 134.78 94.76 102.26 118.75"/>
        <polygon class="cls-6" points="197.24 91.83 193.41 91.83 193.41 83.39 184.97 83.39 184.97 79.56 197.24 79.56 197.24 91.83"/>
      </g>
      <path class="cls-7" d="M162.56,106.56a5.27,5.27,0,1,0-5.26,5.27A5.27,5.27,0,0,0,162.56,106.56Z"/>
      <path class="cls-7" d="M140.07,91.83a5.26,5.26,0,1,0-5.26,5.26A5.26,5.26,0,0,0,140.07,91.83Z"/>
      <path class="cls-1" d="M187.84,197.16a11.93,11.93,0,0,1-2.62,4.49l8.92,12.45a27.21,27.21,0,0,0,9-15.25Z"/>
      <path class="cls-8" d="M178.73,181.37a12.25,12.25,0,0,1,9.66,10.84l15.25,1.68c0-.17,0-.34,0-.52a27.41,27.41,0,0,0-24.93-27.29Z"/>
      <path class="cls-7" d="M167.21,185.15a12.15,12.15,0,0,1,6.54-3.78V166.08A27.35,27.35,0,0,0,154,177.38Z"/>
      <path class="cls-6" d="M181.19,204.57a12.08,12.08,0,0,1-4.95,1.06A12.25,12.25,0,0,1,164,193.37a11.88,11.88,0,0,1,.7-3.92l-13.22-7.78a27.37,27.37,0,0,0,24.77,39.12A27.11,27.11,0,0,0,190.08,217Z"/>
      <g>
        <rect class="cls-5" x="98.85" y="209.9" width="2.7" height="28.7"/>
        <rect class="cls-5" x="98.85" y="238.6" width="80.83" height="2.7"/>
        <g>
          <rect class="cls-1" x="108.64" y="225.84" width="7.24" height="12.76"/>
          <rect class="cls-9" x="108.64" y="219.46" width="7.24" height="6.38"/>
        </g>
        <g>
          <rect class="cls-1" x="122.14" y="220.31" width="7.24" height="18.29"/>
          <rect class="cls-9" x="122.14" y="216.65" width="7.24" height="3.66"/>
        </g>
        <g>
          <rect class="cls-1" x="135.63" y="229.31" width="7.24" height="9.29"/>
          <rect class="cls-9" x="135.63" y="222.65" width="7.24" height="6.67"/>
        </g>
        <g>
          <rect class="cls-1" x="149.13" y="233.28" width="7.24" height="5.32"/>
          <rect class="cls-9" x="149.13" y="227.96" width="7.24" height="5.32"/>
        </g>
      </g>
    </g>
  </g>
</svg>
