<svg id="Iconos" xmlns="http://www.w3.org/2000/svg" xmlns:xlink="http://www.w3.org/1999/xlink" width="300" height="300" viewBox="0 0 300 300">
  <defs>
    <style>
      .cls-1 {
        fill: none;
      }

      .cls-2 {
        clip-path: url(#clip-path);
      }

      .cls-3 {
        fill: #706f6f;
      }

      .cls-4 {
        fill: #c6c6c6;
      }

      .cls-5 {
        fill: #3c3c3b;
      }

      .cls-6 {
        fill: #575756;
      }
    </style>
    <clipPath id="clip-path">
      <path class="cls-1" d="M19.88,170.47s-3.81-39,20-37.14c0,0-2.85-30.47,21-32.37,0,0-2.86-29.52,24.76-32.38s107.6,13.33,107.6,13.33L345.54,212.37,224.61,296.16,21.78,224.75Z"/>
    </clipPath>
  </defs>
  <g class="cls-2">
    <g>
      <g>
        <polygon class="cls-3" points="238.2 222.8 -127.04 11.72 -110.01 -23.88 254.71 186.9 238.2 222.8"/>
        <path class="cls-4" d="M246.39,187.64c-7.11,4.11-12.88,15.13-12.88,24.61s5.77,13.84,12.88,9.74,12.88-15.13,12.88-24.61S253.51,183.54,246.39,187.64Z"/>
        <path class="cls-5" d="M246.39,191.69c-5.43,3.14-9.84,11.56-9.84,18.81s4.41,10.58,9.84,7.44,9.85-11.56,9.85-18.81S251.83,188.55,246.39,191.69Z"/>
      </g>
      <g>
        <polygon class="cls-6" points="207.71 241.56 -157.54 30.49 -140.51 -5.11 224.21 205.67 207.71 241.56"/>
        <path class="cls-4" d="M215.9,206.41C208.79,210.52,203,221.54,203,231s5.77,13.84,12.88,9.74,12.88-15.13,12.88-24.61S223,202.31,215.9,206.41Z"/>
        <path class="cls-5" d="M215.9,210.46c-5.44,3.14-9.84,11.56-9.84,18.81s4.4,10.58,9.84,7.44,9.84-11.56,9.84-18.81S221.34,207.32,215.9,210.46Z"/>
      </g>
      <g>
        <polygon class="cls-3" points="176.66 258.76 -188.58 47.69 -171.55 12.09 193.16 222.87 176.66 258.76"/>
        <path class="cls-4" d="M184.85,223.61c-7.11,4.11-12.88,15.12-12.88,24.61s5.77,13.84,12.88,9.73,12.88-15.12,12.88-24.6S192,219.5,184.85,223.61Z"/>
        <path class="cls-5" d="M184.85,227.66c-5.43,3.14-9.84,11.56-9.84,18.81s4.41,10.58,9.84,7.44,9.85-11.56,9.85-18.81S190.29,224.52,184.85,227.66Z"/>
      </g>
      <g>
        <polygon class="cls-3" points="223.71 204.86 -141.53 -6.21 -124.5 -41.81 240.22 168.96 223.71 204.86"/>
        <path class="cls-4" d="M231.91,169.71c-7.12,4.1-12.88,15.12-12.88,24.61s5.76,13.84,12.88,9.73,12.87-15.12,12.87-24.61S239,165.6,231.91,169.71Z"/>
        <path class="cls-5" d="M231.91,173.75c-5.44,3.14-9.85,11.56-9.85,18.81s4.41,10.58,9.85,7.45,9.84-11.56,9.84-18.81S237.34,170.62,231.91,173.75Z"/>
      </g>
      <g>
        <polygon class="cls-6" points="192.52 222.86 -172.72 11.79 -155.69 -23.81 209.02 186.96 192.52 222.86"/>
        <path class="cls-4" d="M200.71,187.71c-7.11,4.1-12.88,15.12-12.88,24.61s5.77,13.84,12.88,9.73,12.88-15.12,12.88-24.61S207.83,183.6,200.71,187.71Z"/>
        <path class="cls-5" d="M200.71,191.75c-5.43,3.14-9.84,11.56-9.84,18.81s4.41,10.58,9.84,7.45,9.85-11.56,9.85-18.81S206.15,188.62,200.71,191.75Z"/>
      </g>
      <g>
        <polygon class="cls-3" points="207.71 186.14 -157.54 -24.93 -140.51 -60.53 224.21 150.25 207.71 186.14"/>
        <path class="cls-4" d="M215.9,151C208.79,155.1,203,166.11,203,175.6s5.77,13.84,12.88,9.73,12.88-15.12,12.88-24.6S223,146.88,215.9,151Z"/>
        <path class="cls-5" d="M215.9,155c-5.44,3.14-9.84,11.56-9.84,18.81s4.4,10.58,9.84,7.44,9.84-11.56,9.84-18.81S221.34,151.9,215.9,155Z"/>
      </g>
    </g>
  </g>
</svg>
