<svg id="Iconos" xmlns="http://www.w3.org/2000/svg" width="300" height="300" viewBox="0 0 300 300">
  <defs>
    <style>
      .cls-1 {
        fill: #0c1716;
      }

      .cls-2 {
        fill: #19ade0;
      }

      .cls-3 {
        fill: #ff7d32;
      }

      .cls-4 {
        fill: #c65634;
      }

      .cls-5 {
        fill: #575756;
      }

      .cls-6 {
        fill: #878787;
      }

      .cls-7 {
        fill: #b2b2b2;
      }
    </style>
  </defs>
  <g>
    <path class="cls-1" d="M89.73,50.11V261.59c0,6.52,28.21,16.33,63,16.33s63-9.81,63-16.33V50.11Z"/>
    <path class="cls-2" d="M89.73,60.64v70.3c0,11,28.21,19.85,63,19.85s63-8.89,63-19.85V60.64Z"/>
    <path class="cls-3" d="M89.73,50.11v70.3c0,11,28.21,19.85,63,19.85s63-8.89,63-19.85V50.11Z"/>
    <ellipse class="cls-4" cx="152.74" cy="50.11" rx="63.02" ry="19.84"/>
    <ellipse cx="152.74" cy="50.11" rx="46.66" ry="14.69"/>
    <path class="cls-5" d="M195.26,50.11c0,7.17-19,13-42.52,13s-42.51-5.81-42.51-13,19-13,42.51-13S195.26,42.94,195.26,50.11Z"/>
    <path class="cls-6" d="M170.32,39.81H135.17V50.92h0c0,1.67,5.35,5.62,16.94,5.62,12.53,0,18.21-3.95,18.21-5.62h0Z"/>
    <ellipse class="cls-7" cx="152.74" cy="39.74" rx="17.57" ry="4.39"/>
  </g>
</svg>
