<svg id="Iconos" xmlns="http://www.w3.org/2000/svg" width="300" height="300" viewBox="0 0 300 300">
  <defs>
    <style>
      .cls-1 {
        fill: #1d1d1b;
      }

      .cls-2 {
        fill: #ffba00;
      }

      .cls-3 {
        fill: #ffed00;
      }
    </style>
  </defs>
  <g>
    <path class="cls-1" d="M176.91,168.62l4.64,101.64a10.25,10.25,0,0,1-7.37,0c-2-23.92-7.37-70.35-8.37-79.52s-6.58-17.13-11.76-19.82C158.24,168,176.91,168.62,176.91,168.62Z"/>
    <path class="cls-1" d="M191.72,168.57,206.06,225a6.4,6.4,0,0,0,6.08,0c-1.89-12.16-9.06-62.18-9.06-62.18Z"/>
    <path class="cls-1" d="M130,172.25l-2.39,40.17s1.42,1.94,5.45.59c2.25-17.11,7.4-42.09,7.4-42.09Z"/>
    <path class="cls-1" d="M109.42,168.57s-10.77-.94-14.35,12.21-15.55,70.94-15.55,70.94-5,.6-5.75-1.86c2.24-12.71,9.79-63.3,11.28-72s4.11-12.25,6.54-12.7S109.42,168.57,109.42,168.57Z"/>
    <g>
      <path class="cls-2" d="M193.86,170.87s13.6,1.79,24.36-16c6-8.36,14.78-49.22,16.95-74.72-5.79-3.39-11.77,4.18-11.77,4.18s-16.14,15.09-16.34,30.16S193.86,170.87,193.86,170.87Z"/>
      <path class="cls-3" d="M74.94,145.31S53.62,111.43,59.2,94.69s26.7-8,42.44-21.52S126,39.29,157.24,36.11,213.64,37.5,224,47.86s12.16,33.48,10.76,38.46S232,96.5,222,101.37c-7.72,4.53-9.36,16.64-10,28.4s-.32,51.52-30,40.6S74.94,145.31,74.94,145.31Z"/>
      <path class="cls-2" d="M81.32,151s4.88-3.37,4.27-4.31c-4-6.28-14.79-32.7-17.13-44.39-2.69-13.46,5.83-13.16,15.4-15.85s20.17-4.63,31.68-20,27.75-24.32,60.63-21.73S216.63,57.83,219.62,67,223.2,86.52,214,92.3s-15.38,24.49-14.27,44.63S104.43,162.41,81.32,151Z"/>
      <path class="cls-3" d="M127.65,131s-14-18.83-3.2-59.48c-9.86,15.24-13.75,40.35-8.67,55.9S127.65,131,127.65,131Z"/>
      <path class="cls-2" d="M73.84,134.65s-.72-.9-1.3,2-.12,14.05,0,17.44S73,165.64,110.81,171s64.67,2.24,78.57-2.84,10.86-30.89,9.91-33.83C178.76,140.23,73.84,134.65,73.84,134.65Z"/>
      <path class="cls-3" d="M199.29,134.35s-23.37.65-46.38-3.69-49.17-7.14-67.71-1.77-13.75,9.39-4.48,12.68,38,10.46,75.18,9.27S199.64,144.91,199.29,134.35Z"/>
    </g>
  </g>
</svg>
