<svg id="Iconos" xmlns="http://www.w3.org/2000/svg" width="300" height="300" viewBox="0 0 300 300">
  <defs>
    <style>
      .cls-1 {
        fill: #ffba00;
      }

      .cls-2 {
        fill: #1d1d1b;
      }

      .cls-3 {
        fill: #ffed00;
      }

      .cls-4 {
        fill: #b17f4a;
      }

      .cls-5 {
        fill: #ca9e67;
      }

      .cls-6 {
        fill: #131523;
      }
    </style>
  </defs>
  <g>
    <g>
      <path class="cls-1" d="M100.91,39.89s18.51,9.63,45.54,0c0,0,7.59,29.07-22.77,29.07S100.91,39.89,100.91,39.89Z"/>
      <path class="cls-1" d="M191.81,120.06c5-1.11,34.44-29.26,34.44-29.26S200,62.85,194.41,57.11s-3.15-7.22-14.82-8.89-33.14-8.33-33.14-8.33c0,24.44-22.77,26.47-22.77,26.47s-22.77-2-22.77-26.47c0,0-21.48,6.66-33.15,8.33S58.51,51.37,53,57.11,21.11,90.8,21.11,90.8,50.54,119,55.54,120.06c0,0,11.11-11.11,12.59-10.74s-1.85,115.53-1.48,117.94H180.71c.37-2.41-3-117.57-1.49-117.94S191.81,120.06,191.81,120.06Z"/>
      <g>
        <path class="cls-2" d="M151.11,41.29c-2.84-.84-4.66-1.4-4.66-1.4,0,24.44-22.77,26.47-22.77,26.47s-22.77-2-22.77-26.47c0,0-1.82.56-4.67,1.4,0,0-1.41,29.51,27.44,29.51S151.11,41.29,151.11,41.29Z"/>
        <g>
          <path class="cls-3" d="M66.59,70.8s3.11,26-3.11,41.77c2.09-1.83,3.93-3.26,4.57-3.25C69.82,100.79,70.58,88,66.59,70.8Z"/>
          <path class="cls-3" d="M180.69,70.8s-3.11,26,3.11,41.77c-2.09-1.83-3.93-3.26-4.57-3.25C177.46,100.79,176.7,88,180.69,70.8Z"/>
        </g>
      </g>
    </g>
    <path class="cls-2" d="M66.65,227.26H180.71c0-.36,0-3.3-.06-8H66.71C66.63,224,66.6,226.9,66.65,227.26Z"/>
  </g>
  <g>
    <path class="cls-4" d="M185,270.05s-6.92.29-10.38-4.9-7.06-14.75-7.78-24.95.87-16.14,1.73-25.92a289.49,289.49,0,0,0,.72-33c-.43-7.73,1.15-21.7,15.71-23.15s14.26,23.2,14.69,36.17,2.31,28.52,2.45,35.15S200.65,270.19,185,270.05Z"/>
    <path class="cls-2" d="M174.81,209l1.69-1.56c9.13-7.85,15.7-.73,15.7-.73l4-.38-.18-4.54s0-23-2-31.59-6.37-10.64-12.39-7.64c-8.11,4-8.51,33.9-8.07,42.52Z"/>
    <g>
      <path class="cls-5" d="M166.79,240.2c.72,10.2,4.33,19.76,7.78,24.95s10.38,4.9,10.38,4.9c15.7.14,17.29-34,17.14-40.63-.1-4.7-1.07-13.89-1.78-23.46l-8.11.76s-6.57-7.12-15.7.73l-8,7.44C167.59,224.3,166.09,230.22,166.79,240.2Z"/>
      <g>
        <path class="cls-2" d="M198.15,226.64l1.15-.18c0,1.08-.63,26.6-4.32,34.33a12.69,12.69,0,0,1-10.65,7.41,9.07,9.07,0,0,1-8.38-4.78c-4.38-7.7-7.71-25.09-6.85-35.79l1.12.5c-.83,10.33,2.52,27.32,6.73,34.72a7.83,7.83,0,0,0,7.34,4.19,11.51,11.51,0,0,0,9.65-6.75C197.53,252.78,198.14,226.9,198.15,226.64Z"/>
        <g>
          <path class="cls-4" d="M191.57,227.26c2.48,1.43,9.08-1.26,10.32-1.78-.52-7.74-1.89-20.38-2.25-31.21-.72,6.33-8.93,12.67-10.08,16.85S188.84,225.67,191.57,227.26Z"/>
          <path class="cls-4" d="M178,228.56c2.74-1.73,5.48-12.25,4-16.14s-10.32-5.49-12.72-14.13c-.14,5.66-.42,11.44-.82,16-.43,4.89-1,8.83-1.46,12.82C167.06,227.1,175.29,230.28,178,228.56Z"/>
          <g>
            <g>
              <path class="cls-6" d="M176,223.75a1.45,1.45,0,1,1,1.44,1.3A1.37,1.37,0,0,1,176,223.75Z"/>
              <ellipse class="cls-6" cx="193.16" cy="223.08" rx="1.44" ry="1.3"/>
              <path class="cls-2" d="M193,222.6a27,27,0,0,1-15.48.67c-.63-.16-.9.82-.27,1a27.77,27.77,0,0,0,16-.67c.61-.23.34-1.2-.27-1Z"/>
            </g>
            <g>
              <g>
                <path class="cls-2" d="M176,216.26a1.45,1.45,0,1,1,1.44,1.3A1.37,1.37,0,0,1,176,216.26Z"/>
                <path class="cls-2" d="M191.72,215.59a1.45,1.45,0,1,1,1.44,1.3A1.37,1.37,0,0,1,191.72,215.59Z"/>
                <path class="cls-2" d="M193,215.1a26.87,26.87,0,0,1-15.48.68c-.63-.16-.9.82-.27,1a27.85,27.85,0,0,0,16-.67c.61-.23.34-1.21-.27-1Z"/>
              </g>
              <g>
                <path class="cls-2" d="M174.34,218.83c.39.92,1.36,1.39,2.88,1.39,2.67,0,6.46-1.44,7.94-2.05,1.47.61,5.26,2.05,7.94,2.05,1.51,0,2.48-.47,2.88-1.39a1.3,1.3,0,0,0-.06-1.25c-.49-.73-1.83-1.07-4.22-1.07a50.36,50.36,0,0,0-6.54.55,50.53,50.53,0,0,0-6.54-.55c-2.4,0-3.74.34-4.23,1.07A1.27,1.27,0,0,0,174.34,218.83Zm20.91-.8c0,.05.12.18,0,.49-.26.6-1,.9-2.14.9a22.62,22.62,0,0,1-6.88-1.69,44.08,44.08,0,0,1,5.48-.42C194.48,217.31,195.11,217.81,195.25,218Zm-20.19,0c.14-.22.78-.72,3.56-.72a44.06,44.06,0,0,1,5.47.42,22.63,22.63,0,0,1-6.87,1.69c-1.17,0-1.89-.3-2.15-.9C174.94,218.21,175,218.08,175.06,218Z"/>
                <g>
                  <path class="cls-2" d="M185.81,217.81a13.63,13.63,0,0,1,7.95-4.71c.64-.14.37-1.11-.26-1a14.43,14.43,0,0,0-8.56,5.17c-.39.53.48,1,.87.51Z"/>
                  <path class="cls-2" d="M184.67,217.81a13.68,13.68,0,0,0-8-4.71c-.64-.14-.37-1.11.27-1a14.49,14.49,0,0,1,8.56,5.17c.39.53-.49,1-.87.51Z"/>
                </g>
              </g>
            </g>
          </g>
        </g>
      </g>
    </g>
  </g>
  <g>
    <path class="cls-4" d="M234.44,270.05s6.92.29,10.37-4.9,7.06-14.75,7.78-24.95-.86-16.14-1.72-25.92a289.64,289.64,0,0,1-.73-33c.44-7.73-1.15-21.7-15.7-23.15s-14.26,23.2-14.69,36.17-2.31,28.52-2.45,35.15S218.74,270.19,234.44,270.05Z"/>
    <path class="cls-2" d="M244.58,209l-1.69-1.56c-9.13-7.85-15.7-.73-15.7-.73l-4-.38.17-4.54s0-23,2-31.59,6.37-10.64,12.39-7.64c8.11,4,8.52,33.9,8.08,42.52Z"/>
    <g>
      <path class="cls-5" d="M252.59,240.2c-.72,10.2-4.32,19.76-7.78,24.95s-10.37,4.9-10.37,4.9c-15.7.14-17.29-34-17.14-40.63.1-4.7,1.07-13.89,1.78-23.46l8.11.76s6.57-7.12,15.7.73l8,7.44C251.8,224.3,253.3,230.22,252.59,240.2Z"/>
      <g>
        <path class="cls-2" d="M221.24,226.64l-1.15-.18c0,1.08.62,26.6,4.32,34.33a12.69,12.69,0,0,0,10.64,7.41,9.1,9.1,0,0,0,8.39-4.78c4.38-7.7,7.7-25.09,6.85-35.79l-1.12.5c.83,10.33-2.52,27.32-6.73,34.72a7.83,7.83,0,0,1-7.35,4.19,11.51,11.51,0,0,1-9.64-6.75C221.86,252.78,221.25,226.9,221.24,226.64Z"/>
        <g>
          <path class="cls-4" d="M227.81,227.26c-2.47,1.43-9.07-1.26-10.32-1.78.53-7.74,1.89-20.38,2.26-31.21.72,6.33,8.93,12.67,10.08,16.85S230.55,225.67,227.81,227.26Z"/>
          <path class="cls-4" d="M241.36,228.56c-2.74-1.73-5.48-12.25-4-16.14s10.33-5.49,12.73-14.13c.14,5.66.41,11.44.82,16,.43,4.89,1,8.83,1.46,12.82C252.32,227.1,244.09,230.28,241.36,228.56Z"/>
          <g>
            <g>
              <path class="cls-6" d="M243.42,223.75a1.45,1.45,0,1,0-1.44,1.3A1.37,1.37,0,0,0,243.42,223.75Z"/>
              <ellipse class="cls-6" cx="226.23" cy="223.08" rx="1.44" ry="1.3"/>
              <path class="cls-2" d="M226.36,222.6a27,27,0,0,0,15.49.67.5.5,0,0,1,.26,1,27.78,27.78,0,0,1-16-.67c-.6-.23-.34-1.2.27-1Z"/>
            </g>
            <g>
              <g>
                <path class="cls-2" d="M243.42,216.26a1.45,1.45,0,1,0-1.44,1.3A1.37,1.37,0,0,0,243.42,216.26Z"/>
                <path class="cls-2" d="M227.67,215.59a1.45,1.45,0,1,0-1.44,1.3A1.38,1.38,0,0,0,227.67,215.59Z"/>
                <path class="cls-2" d="M226.36,215.1a26.91,26.91,0,0,0,15.49.68.5.5,0,0,1,.26,1,27.86,27.86,0,0,1-16-.67c-.6-.23-.34-1.21.27-1Z"/>
              </g>
              <g>
                <path class="cls-2" d="M245,217.58c-.48-.73-1.82-1.07-4.22-1.07a50.36,50.36,0,0,0-6.54.55,50.36,50.36,0,0,0-6.54-.55c-2.39,0-3.74.34-4.22,1.07a1.27,1.27,0,0,0-.06,1.25c.39.92,1.36,1.39,2.88,1.39,2.68,0,6.46-1.44,7.94-2.05,1.48.61,5.26,2.05,7.94,2.05,1.52,0,2.49-.47,2.88-1.39A1.24,1.24,0,0,0,245,217.58Zm-17.3-.27a44.08,44.08,0,0,1,5.48.42,22.7,22.7,0,0,1-6.88,1.69c-1.17,0-1.89-.3-2.14-.9-.13-.31-.05-.44,0-.49C224.28,217.81,224.91,217.31,227.69,217.31Zm16.63,1.21c-.26.6-1,.9-2.15.9a22.77,22.77,0,0,1-6.88-1.69,44.08,44.08,0,0,1,5.48-.42c2.78,0,3.41.5,3.56.72C244.36,218.08,244.45,218.21,244.32,218.52Z"/>
                <g>
                  <path class="cls-2" d="M233.58,217.81a13.65,13.65,0,0,0-8-4.71c-.63-.14-.36-1.11.27-1a14.49,14.49,0,0,1,8.56,5.17c.39.53-.49,1-.87.51Z"/>
                  <path class="cls-2" d="M234.72,217.81a13.65,13.65,0,0,1,8-4.71c.63-.14.36-1.11-.27-1a14.49,14.49,0,0,0-8.56,5.17c-.39.53.49,1,.87.51Z"/>
                </g>
              </g>
            </g>
          </g>
        </g>
      </g>
    </g>
  </g>
</svg>
