<svg id="Iconos" xmlns="http://www.w3.org/2000/svg" width="300" height="300" viewBox="0 0 300 300">
  <defs>
    <style>
      .cls-1 {
        fill: #b2b2b2;
      }

      .cls-2 {
        fill: #dadada;
      }

      .cls-3 {
        fill: #1d1d1b;
      }

      .cls-4, .cls-5 {
        fill: #fff;
      }

      .cls-5 {
        opacity: 0.03;
      }

      .cls-6 {
        fill: #e30613;
      }

      .cls-7 {
        fill: #ffed00;
      }

      .cls-8 {
        fill: #f75c00;
      }

      .cls-9 {
        fill: #19ade0;
      }

      .cls-10 {
        fill: #a0d700;
      }

      .cls-11 {
        fill: #bae6f6;
      }
    </style>
  </defs>
  <g>
    <g>
      <polygon class="cls-1" points="174.29 224.42 125.38 224.42 117.18 254.07 182.5 254.07 174.29 224.42"/>
      <path class="cls-1" d="M110.85,252.11h77.67a3,3,0,0,1,3,3v1.51a0,0,0,0,1,0,0H107.85a0,0,0,0,1,0,0v-1.51A3,3,0,0,1,110.85,252.11Z"/>
      <path class="cls-2" d="M27.45,204.9V220A6.52,6.52,0,0,0,34,226.5H265.68A6.52,6.52,0,0,0,272.2,220V204.9Z"/>
      <path class="cls-3" d="M272.2,65.69a6.52,6.52,0,0,0-6.52-6.51H34a6.52,6.52,0,0,0-6.52,6.51V204.9H272.2Z"/>
      <rect class="cls-4" x="36.05" y="67.87" width="227.26" height="128.16"/>
      <path class="cls-3" d="M154.17,215.15a3.89,3.89,0,1,1-3.89-3.89A3.89,3.89,0,0,1,154.17,215.15Z"/>
      <path class="cls-5" d="M272.2,65.69a6.52,6.52,0,0,0-6.52-6.51H34a6.52,6.52,0,0,0-4.67,2l242.9,133Z"/>
    </g>
    <g>
      <rect class="cls-6" x="40.41" y="73.63" width="36.88" height="3.33"/>
      <rect class="cls-3" x="75.95" y="73.63" width="36.88" height="3.33"/>
      <rect class="cls-7" x="111.48" y="73.63" width="36.88" height="3.33"/>
      <rect class="cls-8" x="147.02" y="73.63" width="36.88" height="3.33"/>
      <rect class="cls-9" x="182.55" y="73.63" width="36.88" height="3.33"/>
      <rect class="cls-10" x="218.08" y="73.63" width="36.88" height="3.33"/>
    </g>
    <g>
      <g>
        <path class="cls-11" d="M210.62,149.08l1,1.55a.55.55,0,0,0,.26.24l2.84,1.39-.53.8,2.14.64a.55.55,0,0,0,.38,0l.72-.31a.56.56,0,0,1,.57.08l1.06.8a.57.57,0,0,0,.28.11h0a.67.67,0,0,0,.48-1.16l-.55-.57a.46.46,0,0,1-.13-.18l-.71-1.48a.6.6,0,0,0-.37-.33l-3.56-1.14a.49.49,0,0,0-.41,0l-.38.17a.55.55,0,0,1-.53,0l-1.35-.77a.55.55,0,0,0-.45,0Z"/>
        <path class="cls-11" d="M210.91,155.13l-1.15,1.25a.61.61,0,0,1-.72.14h0a.61.61,0,0,0-.73.15l-2.37,2.62a.54.54,0,0,1-.27.18l-1.3.44a3.43,3.43,0,0,0-2.14,3.81l.22,1.49a3.13,3.13,0,0,0,3.76,2.76l4.29-1.1a.62.62,0,0,1,.54.12l2.16,1.75,2.67,2.27a2.89,2.89,0,0,0,2.92.52l.44-.17a3.31,3.31,0,0,0,1.92-2.12l1.52-4.92a.76.76,0,0,0-.12-.7l-3.84-4.83-.06-.1-1.33-2.38a.63.63,0,0,0-1.19.22l-.19.95a.63.63,0,0,1-1,.44l-1.37-1a.72.72,0,0,1-.29-.55l0-.44a.7.7,0,0,0-.5-.65l-1.24-.33A.62.62,0,0,0,210.91,155.13Z"/>
      </g>
      <path class="cls-11" d="M125.92,150.93l-1.32-.79-.19-.1-4.3-2a2.14,2.14,0,0,1-.63-.45l-1.75-1.86a2,2,0,0,0-1.42-.62l-2.24-2a3.41,3.41,0,0,0-1.62-.81l-2.61-.49a3.27,3.27,0,0,0-2.77.79l-1.16,1-1.15-.45a.63.63,0,0,0-.3,0l-.84,1.36.14,0,.31-.14a.67.67,0,0,1,.8.18l.7.79-2.07,5.75a1.18,1.18,0,0,0,0,.92l2.41,4.89a1.05,1.05,0,0,0,.41.45l2.09,1.19a1.12,1.12,0,0,1,.52,1.14l-2,13.66a.28.28,0,0,0,0,.09l-.29,7.16a.84.84,0,0,0,.24.62l2,1.94a.68.68,0,0,0,.65.18l.67-.19a.81.81,0,0,0,.34-1.3l-.3-.35a.85.85,0,0,1-.15-.8l2.31-7a1,1,0,0,1,.07-.15l1-1.85a.76.76,0,0,1,.33-.31l1.64-.77a.83.83,0,0,0,.43-.79.77.77,0,0,1,.53-.83l1.1-.31,2.39-2.66a2.32,2.32,0,0,0,.57-1.27l.1-.78a2.2,2.2,0,0,1,1.2-1.75l1.82-.86a2.19,2.19,0,0,0,1.19-1.68l.36-2.26a2.45,2.45,0,0,1,.22-.71l1.38-2.72A2.34,2.34,0,0,0,125.92,150.93Z"/>
      <g>
        <path class="cls-11" d="M239.85,104.18l-6.36-3.1-6.81.31a1,1,0,0,1-.94-.7A1,1,0,0,0,225,100l-4.56-.55-.08-.64-3.25-.44a2.46,2.46,0,0,0-2.46,1.31l-2.37-.42a.51.51,0,0,0-.51.25l-.19.33a.48.48,0,0,1-.72.16l-.92-.71a.59.59,0,0,1-.21-.49l0-.7a.56.56,0,0,0-.37-.57l-1.7-.5a.49.49,0,0,0-.62.4.53.53,0,0,1-.47.43l-8.29.41a.67.67,0,0,1-.66-.54h0a.74.74,0,0,1,.38-.84l4.39-2a1.5,1.5,0,0,0-1-1l-4.21-1.11a1.27,1.27,0,0,0-.86.06L189,96.07l-2.7,1.77-1.47.52a2.34,2.34,0,0,0-1.38,2.09,6.18,6.18,0,0,1-1.66,3.94l-.39.36.76-1.46-.12-3.63a1.47,1.47,0,0,0-.57-1.18,1.18,1.18,0,0,0-1.68.34l-.5.75a1.47,1.47,0,0,0-.18,1.24l.59,1.92-2.46-1.06a1.59,1.59,0,0,0-1.78.34,1.68,1.68,0,0,1-1.13.48l-2.35,0a1.56,1.56,0,0,0-.78.22l-6.85,4a.8.8,0,0,1-1-.23l-1.27-1.72c-.16-.22,0-.54.27-.47l1.9.58a.43.43,0,0,0,.38-.06l1.18-.82a.55.55,0,0,0-.06-.91l-6-2.94a1.39,1.39,0,0,0-1-.1l-1.16.32c.49.9.75,2,1.14,2.88a39.39,39.39,0,0,1,1.45,4,55.62,55.62,0,0,1,1.62,8.89,7.44,7.44,0,0,1-.14,3.32,6.3,6.3,0,0,1-.51,1.12l4.34,2.38a.44.44,0,0,1,.17.55l-.11.24a.37.37,0,0,1-.42.22l-3.17-.81a.41.41,0,0,0-.32.08l-.65.58a.43.43,0,0,1-.22.09l-1.2.07-1.24.63a.4.4,0,0,0-.17.47l.52,1.5a.81.81,0,0,0,.68.57l2.06.2a.65.65,0,0,0,.28,0l.77-.23a.32.32,0,0,1,.37.41l-.63,2.28a.56.56,0,0,1-.39.4,10.44,10.44,0,0,1,.91,2.62l3.9,7.41a1.37,1.37,0,0,0,1.8.24l6.15-4.13a.69.69,0,0,0,.1-1l-1.17-1.22a.57.57,0,0,0-.72-.1l-1,.66a.62.62,0,0,1-.88-.22L169.43,132a.72.72,0,0,1,.19-1,.57.57,0,0,1,.64,0l3.62,2.35a3.17,3.17,0,0,0,1.56.51l2.76.1a1.46,1.46,0,0,1,1,.41l2.38,2.3a1.68,1.68,0,0,1,.44.71l1.62,5.12a.88.88,0,0,0,1.44.54,1,1,0,0,0,.35-.68l.2-1.89a2.17,2.17,0,0,1,.77-1.47l2.84-2.31a1.76,1.76,0,0,1,2.59.36l1.95,2.67a1.76,1.76,0,0,1,.32,1.27l-.28,2a1.45,1.45,0,0,0,.15.82l1.58,3a.43.43,0,0,0,.82-.22l0-.82a.58.58,0,0,0-.11-.38L195,143.7a1.38,1.38,0,0,1-.17-1.23l.27-.78a.48.48,0,0,1,.85-.17l1.29,1.59a.69.69,0,0,0,1.11,0l1.35-1.89a.88.88,0,0,0,0-.95l-1.26-2a1.11,1.11,0,0,1,.19-1.42l.85-.73,2.42-.41a3.82,3.82,0,0,0,2.41-1.51l1.57-2.1a2.51,2.51,0,0,0,.26-2.51l-1.45-3.25a1.29,1.29,0,0,1,.11-1.33,1,1,0,0,1,1.61,0l2.61,3.44a1.53,1.53,0,0,0,.7-1.81l-.13-.43a1.52,1.52,0,0,1,.62-1.75l2.3-1.4a1.47,1.47,0,0,0,.59-.69l2.62-6.19c.32-.78,0-1.41-.82-1.41l-.78-.24a.59.59,0,0,1-.18-1l3.6-3.1a.47.47,0,0,1,.39-.12l3.5.5a2.9,2.9,0,0,0,2.25-.65l1-.85a1,1,0,0,1,1-.14.93.93,0,0,0,1-.15l1.35-1.1.15.63-3.74,3.8a2.59,2.59,0,0,0-.66,2.26l.21,1.09a.67.67,0,0,0,1.18.36l2.19-2.56a.83.83,0,0,0,.13-.83l-.53-1.31,3.62-1.59.46.43,4.32-2.28a1.38,1.38,0,0,1,.85-1.73l1.38-.41a1.38,1.38,0,0,1,1.07.12l.42.23a.94.94,0,0,0,1.32-.49A1.13,1.13,0,0,0,239.85,104.18Z"/>
        <path class="cls-11" d="M194.07,145.92h0a.76.76,0,0,1,.6.29l3.15,3.7a1,1,0,0,1,.21.76l0,.23a.8.8,0,0,1-1.28.58l-1.53-1.21A.88.88,0,0,1,195,150l-1.57-2.73A.89.89,0,0,1,194.07,145.92Z"/>
        <path class="cls-11" d="M198.7,151.9l0,0a.91.91,0,0,0,.36,1.58l6.14,1a.59.59,0,0,0,.6-.19h0a.71.71,0,0,0-.34-1.16Z"/>
        <path class="cls-11" d="M199.55,148.33l.4,1.49a.87.87,0,0,0,.64.63l2.21.44a.82.82,0,0,0,.9-.54l.82-2.16a.94.94,0,0,0,0-.44l-.19-2a1,1,0,0,0-.31-.61h0a.77.77,0,0,0-.94,0l-3.24,2.27A1,1,0,0,0,199.55,148.33Z"/>
        <path class="cls-11" d="M204.87,151.89l-.26-1.25a1.46,1.46,0,0,1,0-.72l.45-1.31a1.18,1.18,0,0,1,1-.81l1.4-.12,0,.56-.29.09a1.3,1.3,0,0,0-.76,1.63l0,.07a1.33,1.33,0,0,1-.52,1.51h0l-.26-1-.44.16.16,1.06Z"/>
        <path class="cls-11" d="M205.12,138.39l-.27,1.75a.71.71,0,0,0,.05.38l1.86,4.32a.6.6,0,0,0,.51.37h0a.62.62,0,0,0,.62-.65v-2.45a.74.74,0,0,0-.11-.39l-1.4-2.08a.72.72,0,0,1-.11-.47l.08-.61a.69.69,0,0,0-.34-.68l-.64-.32-.23.73A.36.36,0,0,0,205.12,138.39Z"/>
        <path class="cls-11" d="M210.51,129.81h0a.57.57,0,0,0,.83.41l4.36-2.51a.57.57,0,0,0,.25-.28l2.34-5.1.22-4.7a1.38,1.38,0,0,0-2.28-1.24h0l.48,3.74a3.32,3.32,0,0,1-.37,2l-2.69,5a.7.7,0,0,1-.2.22l-2.68,1.77A.67.67,0,0,0,210.51,129.81Z"/>
        <path class="cls-11" d="M173.29,100.28h-.67a.63.63,0,0,1-.39-.15l-.79-.7a.73.73,0,0,1-.08-1L174,95.07a.63.63,0,0,1,.28-.2l1.8-.63.05,0,2.83-.69a.6.6,0,0,1,.37,0L180,94a.65.65,0,0,1-.13,1.17l-4.3,1a.63.63,0,0,0-.3.26l-1.37,2.25a.71.71,0,0,0,0,.65h0A.68.68,0,0,1,173.29,100.28Z"/>
        <path class="cls-11" d="M192.93,88.13l-.85.1a.63.63,0,0,0-.51.34l-.43.75a.76.76,0,0,0,.38,1.09l2.63.81a.62.62,0,0,0,.72-.28l.06-.09a.76.76,0,0,0-.25-1.08l-.62-.32a.72.72,0,0,1-.36-.54l0-.18A.67.67,0,0,0,192.93,88.13Z"/>
        <path class="cls-11" d="M195.51,91l-.06.11a.73.73,0,0,0,.56,1.11h1.13a.65.65,0,0,0,.55-.31h0a.76.76,0,0,0-.24-1.06L197,90.6a.65.65,0,0,0-.43-.07l-.65.14A.69.69,0,0,0,195.51,91Z"/>
        <path class="cls-11" d="M214.11,95.58l0,.45,1.15.22h5.44l.06-.16a.83.83,0,0,0-.61-1.12l-3.74-.56-1.81.39A.73.73,0,0,0,214.11,95.58Z"/>
      </g>
      <g>
        <path class="cls-11" d="M169.8,142l-2.29.51a.7.7,0,0,1-.45-.07.43.43,0,0,1-.27-.21l-4.91-9.34a.38.38,0,0,1,0-.31h0a21.74,21.74,0,0,1-1.29-2.37h-.14a.37.37,0,0,0-.23,0l-.42.21a.56.56,0,0,1-.36,0l-3.38-1a.59.59,0,0,0-.72.34l-.24.47a.59.59,0,0,1-.81.3l-3.6-1.83a.66.66,0,0,1-.36-.49l-.13-.79a.57.57,0,0,0-.43-.47l-1.23-.29a.76.76,0,0,0-.26,0l-3.92,1.22a.38.38,0,0,1-.15,0l-1.68-.35a.34.34,0,0,0-.32.13l-3.57,4.81a3.74,3.74,0,0,0-.62,1.36L137,138c0,.13-.05.26-.07.4l-.14,1.13a3.81,3.81,0,0,0,.92,3l2.69,3a1.33,1.33,0,0,0,1.11.44l2.44-.23,2.57-.6a1.33,1.33,0,0,1,1.35.5l0,0a1.1,1.1,0,0,0,.7.42l.82.14a.64.64,0,0,1,.49.75l-.31,1.82a.65.65,0,0,0,0,.39l2.09,5a2.29,2.29,0,0,1,.05,1.61l-.59,1.7a2.3,2.3,0,0,0,0,1.53l3.12,8.32a1.55,1.55,0,0,0,1.63,1l1.56-.2a1.57,1.57,0,0,0,1.05-.64l2.55-3.51a1.54,1.54,0,0,0,.21-.45l.1-.34a1.44,1.44,0,0,1,.51-.74,1.45,1.45,0,0,0,.53-1.45l-.15-.77a1.49,1.49,0,0,1,.44-1.38l1.58-1.38a2.34,2.34,0,0,0,.71-2.2l-.52-2.7a2.39,2.39,0,0,1,.46-1.92l5.1-6.47a.57.57,0,0,0,.12-.26l.25-1.27A.59.59,0,0,0,169.8,142Z"/>
        <path class="cls-11" d="M168.52,156.1l-1.05,1a1.09,1.09,0,0,0-.34.68l-.45,3.77a1,1,0,0,0,1,1.2H168a1,1,0,0,0,.94-.79l1.16-4.72a1.18,1.18,0,0,0,0-.59h0A.94.94,0,0,0,168.52,156.1Z"/>
      </g>
      <g>
        <path class="cls-11" d="M103.76,144.48l.31-.14a.67.67,0,0,1,.8.18l0,0a3.3,3.3,0,0,0,.43-1.12l-.56-.22a.67.67,0,0,0-.57,0,.69.69,0,0,1-.81-.13l-.71-.73a.86.86,0,0,1-.23-.58v-1.12a.77.77,0,0,0-.64-.8l-1-.13a.8.8,0,0,1-.62-1l.31-1.22a.76.76,0,0,0-.72-1h-.38a.69.69,0,0,0-.55.33l-.31.46a.68.68,0,0,1-.94.21l-1.4-.88a1.2,1.2,0,0,1-.52-1.14l.23-2.21a1.62,1.62,0,0,1,1.32-1.47l3.85-.55a1.49,1.49,0,0,1,1.57.91l.17.38a2.91,2.91,0,0,0,.48.75c.68.51,1.45-.47.9-1.13l-.34-.4a3,3,0,0,1,.67-2l1.63-2a1.53,1.53,0,0,0,.32-.86,1.4,1.4,0,0,1,.42-1l2.14-2.08a1.51,1.51,0,0,0,.22-.28l.54-.91a1.2,1.2,0,0,1,1.4-.57l.32.1a.64.64,0,0,0,.54-.06l.76-.43a.82.82,0,0,0-.16-1.47.78.78,0,0,1-.54-.87l.09-.79a.76.76,0,0,1,.6-.68l1.42-.26a1.09,1.09,0,0,0,.24-.07l1.48-.52a1.1,1.1,0,0,0,.67-1.24,1.2,1.2,0,0,0-.22-.5l-3.76-4.78a.93.93,0,0,0-1.36-.15.94.94,0,0,1-1.52-.44l-.07-.19a1.08,1.08,0,0,0-.39-.5l-1.39-1a.87.87,0,0,0-.43-.16l-1.13-.12a1,1,0,0,0-1,.76l-.55,2-.1,2.41a.69.69,0,0,1-.93.67l-5.65-2.39a1,1,0,0,1-.41-1.37l1.52-2.61a.85.85,0,0,1,.53-.4l2.2-.54a1,1,0,0,0,.44-1.54l.85-1.39a1,1,0,0,0-.39-1.39l-.72-.3a.77.77,0,0,0-.75.07l-.24.16a1.41,1.41,0,0,1-2-.39L98,100.18a.87.87,0,0,0-1.27-.2,1.08,1.08,0,0,0-.13,1.53l.35.41-1.23.68a2.57,2.57,0,0,1-1.51.29l-2.07-.27a2.43,2.43,0,0,0-1.4.24l-.07,0a2.44,2.44,0,0,1-1.7.18l-7.57-1.92a4.47,4.47,0,0,0-3,.3,4.45,4.45,0,0,1-2.71.37l-10-1.8a.6.6,0,0,0-.35,0L61,102.13a.74.74,0,0,0-.28,1l.35.57a.74.74,0,0,1-.25,1,.72.72,0,0,0,0,1.26l.25.12a.62.62,0,0,1,.31.31l.34.69a.76.76,0,0,1-.08.78,1.39,1.39,0,0,0,.11,1.83c.63.61,1.33,1.32,1.18,1.36s0,.33.18.68a1.14,1.14,0,0,0,1.64.52L67,110.93a1.1,1.1,0,0,1,.46-.16l3.91-.48a3.12,3.12,0,0,1,2.56.91l6.87,6.86a2.54,2.54,0,0,1,.71,1.56,49,49,0,0,1,.28,5c-.12.53,4.32,6.4,4.32,6.4l1.12-.75,3.66,6.68a1.25,1.25,0,0,0,.38.41L95,139.7a1,1,0,0,0,1.09,0,1,1,0,0,1,1.07,0l2.93,1.8a.49.49,0,0,1,.14.11l2.74,2.77A.68.68,0,0,0,103.76,144.48Z"/>
        <path class="cls-11" d="M123.36,109.09c.42-.9,1-2.25,1.35-3a1.14,1.14,0,0,1,.63-.61l1.87-.66a.55.55,0,0,0,.2-.15l1.23-1.69a.49.49,0,0,1,.18-.14l4-1.72a1.11,1.11,0,0,0,.62-.73l2-6.92a1.26,1.26,0,0,0-.19-1.1h0a1.24,1.24,0,0,1,.13-1.64l2-1.76a1.13,1.13,0,0,0-.41-1.9h0a.82.82,0,0,0-.35,0l-1.87.26a1,1,0,0,1-.79-.27l-.53-.53h0a.88.88,0,0,0-.07-1.55l-.43-.18a1.43,1.43,0,0,0-1.13,0,1.4,1.4,0,0,1-.64.18l-5.59.17a1,1,0,0,0-.25,0l-10.86,2a1.69,1.69,0,0,0-.73.31l-1.1.82,0,0-1.62.93a.49.49,0,0,0-.07.79h0a.49.49,0,0,1-.17.84l-1.92.46a.48.48,0,0,0-.21.79l2.1,2.4a.52.52,0,0,0,.25.14l4.36.66a.44.44,0,0,1,.33.26l1.89,4.42a.57.57,0,0,0,.08.13l.84,1a1.27,1.27,0,0,1-.07,1.73h0a1.27,1.27,0,0,0-.28,1.42l1.79,4.17a1.12,1.12,0,0,0,.63.63l1.58.58A1,1,0,0,0,123.36,109.09Z"/>
        <path class="cls-11" d="M103.77,135.11a1.21,1.21,0,0,1,.56.1l6.11,2.76-.29.22a1.15,1.15,0,0,1-.71.22l-2.74-.09a1.21,1.21,0,0,1-1-.65l-.21-.4a1.21,1.21,0,0,0-.61-.57l-1.61-.67-.11-.05Z"/>
        <path class="cls-11" d="M81.46,97.33h0a1.68,1.68,0,0,0,.43,1.55L82,99a1.35,1.35,0,0,0,.87.4l1.06.08a1.35,1.35,0,0,1,.94.48l1.26,1.45a1.36,1.36,0,0,0,1,.49H90.9a1.3,1.3,0,0,0,.52-.1l.59-.25a1.65,1.65,0,0,0,.64-2.41l-1-1.47a1.37,1.37,0,0,0-1.73-.51l-.79.38a1.32,1.32,0,0,1-1.13,0l-2.8-1.31a1.29,1.29,0,0,0-.58-.13l-1.79,0A1.47,1.47,0,0,0,81.46,97.33Z"/>
        <path class="cls-11" d="M99.83,97.43l-.48,1.45a.79.79,0,0,0,.27.89l1.61,1.18a.61.61,0,0,0,.36.13l3.4.18a.69.69,0,0,1,.42.18l1.82,1.72a.8.8,0,0,1-.08,1.22l-1.2.84a.81.81,0,0,0-.1,1.2l.31.31a.64.64,0,0,0,.69.16l.81-.29a.67.67,0,0,1,.52,0l2.8,1.47a.69.69,0,0,0,1-.54l.08-.43a.83.83,0,0,0-.11-.6h0a.81.81,0,0,1,.16-1.06l.93-.73a.81.81,0,0,0,0-1.21l-1.94-1.75a.41.41,0,0,1-.12-.14L109.9,100a.66.66,0,0,0-.18-.19L105.8,97a.64.64,0,0,0-.38-.12h-4.94A.7.7,0,0,0,99.83,97.43Z"/>
        <path class="cls-11" d="M110.72,88.45l-5,3.37a1.86,1.86,0,0,0-.75,1.09l-.35,1.37a1.71,1.71,0,0,1-1.56,1.36l-3.54.18a1.65,1.65,0,0,0-1.35.86h0a1.64,1.64,0,0,1-1.8.82l-1.68-.39a1.79,1.79,0,0,1-1-.68l-.36-.52a1.64,1.64,0,0,0-1.71-.68l-3.46.84A1.62,1.62,0,0,1,87.16,96l-.57-.28a2,2,0,0,1,0-3.4l1.86-1a1.31,1.31,0,0,1,.46-.15l4.2-.73a1.56,1.56,0,0,0,.59-.22L97.15,88a2,2,0,0,1,.45-.2l11.32-3a1.5,1.5,0,0,1,1,.07l.5.2A2,2,0,0,1,110.72,88.45Z"/>
      </g>
      <g>
        <path class="cls-11" d="M159.14,123.73a.38.38,0,0,0-.14-.36.29.29,0,0,1,0-.32l1.37-2.5a.36.36,0,0,1,.49-.15L162,121l1.6-8.17c-.45-.82-4.49-12.92-4.82-12.83l-3.91,1.07a1.55,1.55,0,0,0-.87.67l-3.15,5L148.4,108a1.07,1.07,0,0,0-.52,1.25l.34,1.26a.93.93,0,0,0,1.42.59l.14-.1a.92.92,0,0,1,1.28.27l.87,1.29a.72.72,0,0,0,1.26-.07l1-1.9a1.07,1.07,0,0,0,0-1.08l-.5-.79,2.57-3.83a.56.56,0,0,1,.58-.25.66.66,0,0,1,.32,1.06l-1.1,1.32a.91.91,0,0,0-.19.76l.29,1.41a.78.78,0,0,0,.87.65l2.06-.33c.2,0,.7.17.68.46,0,.45-.93.66-1.52.75a1.17,1.17,0,0,0-.84.58l-1.11,1.9a1.29,1.29,0,0,1-.83.62l-3.19.69a.65.65,0,0,1-.7-.33l-1.14-2a.23.23,0,0,0-.35-.08l-.71.52a.27.27,0,0,0-.1.31l.5,1.76a.47.47,0,0,1-.32.6l-1.14.27-.16.08-3.79,3-.18.09-.62.15a.55.55,0,0,0-.23.9l1,1a.54.54,0,0,1,.15.46l-.18,1c0,.26-.24.13-.48.13h-3.38c-.27,0-.44.88-.44,1.17v2.49a.54.54,0,0,0,.25.48l1.4.73a.42.42,0,0,0,.29,0l2-.41a.58.58,0,0,0,.25-.15l.85-1a.45.45,0,0,0,.12-.21l.18-.63a1.64,1.64,0,0,1,.48-.8l.71-1c.3-.28.67-.75,1.05-.75H148c.34,0,.67.2.94,0l.37-.14a.62.62,0,0,1,.77.08l2.39,2a1.05,1.05,0,0,1,.5,1.24l-.09.17a.3.3,0,0,0,.09.37.24.24,0,0,0,.33-.09l.24-.41a.7.7,0,0,0,0-.66l-.19-.39.22-.16.36.29a.16.16,0,0,0,.23,0,.2.2,0,0,0,0-.25l-.39-.32L151.48,122a.39.39,0,0,1,0-.51l.24-.27a.29.29,0,0,1,.43,0l2.41,2.22a.81.81,0,0,1,.26.53l0,.5a.9.9,0,0,0,.16.42l1.11,1.51a.5.5,0,0,0,.77.06.63.63,0,0,0,.05-.79l-.21-.27a.46.46,0,0,1,.06-.61l.49-.43a.34.34,0,0,1,.36-.07l.39.14a.34.34,0,0,0,.28,0S159.08,124.05,159.14,123.73Z"/>
        <path class="cls-11" d="M141,114.06h0a.71.71,0,0,0-.4.21L140,115a.83.83,0,0,0-.22.59l0,.34a.72.72,0,0,0,.88.72l.72-.19a.79.79,0,0,0,.53-.83l-.06-.85A.73.73,0,0,0,141,114.06Z"/>
        <path class="cls-11" d="M142.29,111.6l-.46.77a.9.9,0,0,0-.1.66l.89,3.73a.76.76,0,0,0,.94.59l1.35-.43a.81.81,0,0,0,.52-.58l.07-.28a1,1,0,0,0-.12-.7l-1.52-2.29a.81.81,0,0,1-.14-.43l-.05-.65a.77.77,0,0,0-.84-.76h0A.73.73,0,0,0,142.29,111.6Z"/>
        <path class="cls-11" d="M133.21,105.66l.91,1.14a.68.68,0,0,0,.46.26l1.29.13a.71.71,0,0,0,.48-.15l1.07-.9a.8.8,0,0,0,.07-1.13l-.35-.38a.65.65,0,0,0-.67-.19l-1.51.47a.62.62,0,0,1-.68-.21l-.05,0a.65.65,0,0,0-1.1.15h0A.81.81,0,0,0,133.21,105.66Z"/>
        <path class="cls-11" d="M150.72,91.45l2.07,2.28a.7.7,0,0,0,1,0l1.44-1.4a.69.69,0,0,1,.8-.14h0a.75.75,0,0,0,1.06-.67l0-.6a.84.84,0,0,1,.39-.64l1.16-.69-2.38-.49h-.15l-3.84.07a.68.68,0,0,0-.42.15l-1.11.85A.87.87,0,0,0,150.72,91.45Z"/>
      </g>
    </g>
  </g>
</svg>
