<svg id="Iconos" xmlns="http://www.w3.org/2000/svg" width="300" height="300" viewBox="0 0 300 300">
  <defs>
    <style>
      .cls-1 {
        fill: #ffed00;
      }

      .cls-2 {
        fill: #ffa600;
      }
    </style>
  </defs>
  <g>
    <path class="cls-1" d="M42.83,183c-2,2.75-4,6.12-3,9.41A11.53,11.53,0,0,0,43,197a114.82,114.82,0,0,0,72.79,33.69c36.81,2.67,72.34-12.53,105.69-28.33a170,170,0,0,0,19.82-10.53c3.81-2.47,7.52-5.34,9.83-9.25s2.95-9.08.6-13c-2.07-3.42-6-5.23-9.67-6.69a145.21,145.21,0,0,0-16.88-5.5c-15.22-3.94-31-5.38-46.64-6.64-32.08-2.57-64.87-4.36-96,3.87C66.23,158.93,52.85,169.51,42.83,183Z"/>
    <path class="cls-2" d="M248.32,168c-1.53,4.87-5.37,8.69-9.56,11.6-10.23,7.09-22.81,9.77-35.08,11.8a476.32,476.32,0,0,1-65.17,6.25c-7.92.21-15.94.21-23.63-1.7-8-2-15.32-6-22.55-9.94a174.07,174.07,0,0,1-15.25-9,21.85,21.85,0,0,1-5.47-4.89c-3-4.2-3.16-9.81-2.72-15a94.52,94.52,0,0,1,14.91-43.3,92.8,92.8,0,0,1,6.87-9.26,94.52,94.52,0,0,1,38.51-27.19,55.53,55.53,0,0,1,21.18-3.48l29.75.66a91.84,91.84,0,0,1,13,.91c17.93,3,31.53,18.44,40.75,33.19A102,102,0,0,1,239,118a99.3,99.3,0,0,1,10.2,40.92c0,.16,0,.32,0,.49A26.57,26.57,0,0,1,248.32,168Z"/>
    <path class="cls-1" d="M237.2,108a1.84,1.84,0,0,1-.7.5,58,58,0,0,0-6.05-2.67,52.53,52.53,0,0,0-6-.48c-16.43-.66-32.57,6.49-45.61,16.11a80.37,80.37,0,0,0-7.77,6.55c-6,5.72-12.81,12.7-16.43,20.19a5.88,5.88,0,0,1-1.93,2.6c-4,2.49-12.32-2.3-14.65-5.47a4.64,4.64,0,0,1-.76-1.9c.15-.43.29-.83.4-1.17,4.42-14.16,14.25-23.62,26.2-31.92,13.38-9.3,29.21-15.22,45.46-16.12a36,36,0,0,1,14.11,1.92c3.09,1.11,6.58,2.46,9.1,4.84A20.46,20.46,0,0,1,237.2,108Z"/>
    <path class="cls-1" d="M195.77,75.79c-.59.07-1.2.11-1.83.14-20.53.91-37.23,8-52.71,21.42C130.16,107,121,119,116,132.85c-2.83,7.87-4.29,16.17-5.53,24.44A150.39,150.39,0,0,0,108.42,182c.11,6.2.86,12.44-.17,18.55a13.34,13.34,0,0,1-.51,2.12,14.7,14.7,0,0,1-6.9-1.91c-5.49-3.26-11.27-6.28-16.57-9.85-4.4-3-9.38-4.89-13.89-7.74s-3.31-8.61-2.52-13.52C73.74,133.19,99.65,101.8,132,84.11A107.85,107.85,0,0,1,151,75.89C165.39,71.28,181.27,72,195.77,75.79Z"/>
  </g>
</svg>
