<svg id="Iconos" xmlns="http://www.w3.org/2000/svg" width="300" height="300" viewBox="0 0 300 300">
  <defs>
    <style>
      .cls-1 {
        fill: #1d1d1b;
      }

      .cls-11, .cls-2 {
        fill: #fff;
      }

      .cls-2 {
        stroke: #d9d9d9;
        stroke-width: 0.81px;
      }

      .cls-2, .cls-5 {
        stroke-miterlimit: 10;
      }

      .cls-3 {
        fill: #b1b1b1;
      }

      .cls-4 {
        fill: #454f56;
      }

      .cls-5 {
        fill: none;
        stroke: #454f56;
        stroke-width: 0.5px;
      }

      .cls-6 {
        fill: #9d9d9c;
      }

      .cls-7 {
        fill: #706f6f;
      }

      .cls-8 {
        fill: #a0d700;
      }

      .cls-9 {
        fill: #e30613;
      }

      .cls-10 {
        fill: #f2f9ff;
      }

      .cls-12 {
        fill: #575756;
      }
    </style>
  </defs>
  <g>
    <g>
      <path class="cls-1" d="M211.18,43.5H71.35c-5.6,0-10.15,4.26-10.15,9.52V236.39c0,5.26,4.55,9.52,10.15,9.52H211.18c5.61,0,10.15-4.26,10.15-9.52V53C221.33,47.76,216.79,43.5,211.18,43.5Z"/>
      <g>
        <rect class="cls-2" x="67.27" y="49.85" width="147.42" height="185.24"/>
        <rect class="cls-3" x="86.12" y="110.79" width="112.1" height="5.97"/>
        <rect class="cls-3" x="86.12" y="120.32" width="112.1" height="5.97"/>
        <rect class="cls-3" x="86.12" y="129.86" width="59.73" height="5.97"/>
        <rect class="cls-3" x="86.12" y="197.77" width="112.1" height="5.97"/>
        <rect class="cls-3" x="86.12" y="207.3" width="112.1" height="5.97"/>
        <rect class="cls-3" x="86.12" y="216.84" width="59.73" height="5.97"/>
        <rect class="cls-3" x="126.09" y="70.83" width="72.13" height="6.91"/>
        <rect class="cls-3" x="126.09" y="81.86" width="72.13" height="6.91"/>
        <rect class="cls-3" x="126.09" y="92.89" width="43.54" height="6.91"/>
        <rect class="cls-4" x="86.12" y="140.51" width="112.1" height="13.61"/>
        <path class="cls-4" d="M197.72,141v49.28H86.62V141h111.1m.5-.5H86.12v50.28h112.1V140.51Z"/>
        <g>
          <path class="cls-4" d="M99.37,91v8.52a2.32,2.32,0,0,1-.77,1.75,2.42,2.42,0,0,1-1.74.75H92.22a.55.55,0,0,1-.62-.62V89.15a.55.55,0,0,1,.62-.62h4.63a2.44,2.44,0,0,1,1.75.76A2.37,2.37,0,0,1,99.37,91Zm-2.5,8.53V91H94.11v8.54Z"/>
          <path class="cls-4" d="M106.42,101.56l-.5-2.51H103.3l-.5,2.51a.56.56,0,0,1-.61.5H100.9a.58.58,0,0,1-.48-.22.6.6,0,0,1-.13-.52L102.76,89a.55.55,0,0,1,.6-.5h2.5a.57.57,0,0,1,.61.5l2.45,12.29a.6.6,0,0,1-.13.52.57.57,0,0,1-.47.22H107A.55.55,0,0,1,106.42,101.56Zm-1-5-.81-4-.81,4Z"/>
          <path class="cls-4" d="M113,97.08v4.36a.55.55,0,0,1-.62.62h-1.3a.55.55,0,0,1-.62-.62V97.06l-2.71-7.7a.59.59,0,0,1,.08-.57.62.62,0,0,1,.51-.26h1.25a.58.58,0,0,1,.59.43l1.56,4.61L113.27,89a.57.57,0,0,1,.59-.43h1.33a.58.58,0,0,1,.5.27.59.59,0,0,1,.08.56Z"/>
        </g>
        <g>
          <path class="cls-4" d="M97.15,73.65h-2v11a.58.58,0,0,1-.66.65H93.18a.58.58,0,0,1-.66-.65v-11h-2A.57.57,0,0,1,89.9,73V71.67a.58.58,0,0,1,.65-.66h6.6a.58.58,0,0,1,.65.66V73A.57.57,0,0,1,97.15,73.65Z"/>
          <path class="cls-4" d="M103.12,84.8l-.53-2.66H99.82l-.53,2.66a.6.6,0,0,1-.65.53H97.28a.63.63,0,0,1-.51-.24.61.61,0,0,1-.14-.54l2.61-13a.59.59,0,0,1,.64-.53h2.64a.6.6,0,0,1,.65.53l2.6,13a.61.61,0,0,1-.14.54.62.62,0,0,1-.5.24h-1.37A.58.58,0,0,1,103.12,84.8Zm-1.06-5.3-.86-4.29-.85,4.29Z"/>
          <path class="cls-4" d="M115,85.33h-1.46a.61.61,0,0,1-.6-.4l-1.53-3.58-1.53,3.58a.59.59,0,0,1-.6.4h-1.46a.66.66,0,0,1-.6-.91L110,78l-2.58-6a.6.6,0,0,1,0-.62A.61.61,0,0,1,108,71h1.46a.61.61,0,0,1,.6.4l1.37,3.19,1.37-3.19a.58.58,0,0,1,.6-.4h1.46a.62.62,0,0,1,.54.29.66.66,0,0,1,.06.62l-2.59,6,2.75,6.45a.71.71,0,0,1,0,.62A.64.64,0,0,1,115,85.33Z"/>
        </g>
        <line class="cls-5" x1="86.12" y1="159.98" x2="198.22" y2="159.98"/>
        <line class="cls-5" x1="86.12" y1="166.05" x2="198.22" y2="166.05"/>
        <line class="cls-5" x1="86.12" y1="172.12" x2="198.22" y2="172.12"/>
        <line class="cls-5" x1="86.12" y1="178.19" x2="198.22" y2="178.19"/>
        <line class="cls-5" x1="86.12" y1="184.26" x2="198.22" y2="184.26"/>
        <line class="cls-5" x1="97.12" y1="190.79" x2="97.12" y2="140.51"/>
        <line class="cls-5" x1="163.77" y1="190.79" x2="163.77" y2="140.51"/>
        <line class="cls-5" x1="181.36" y1="190.79" x2="181.36" y2="140.51"/>
      </g>
      <path class="cls-1" d="M78.1,63.8a4.46,4.46,0,1,1,4.45-4.45A4.45,4.45,0,0,1,78.1,63.8Z"/>
      <path class="cls-1" d="M96.32,63.8a4.46,4.46,0,1,1,4.46-4.45A4.46,4.46,0,0,1,96.32,63.8Z"/>
      <path class="cls-1" d="M114.55,63.8A4.46,4.46,0,1,1,119,59.35,4.45,4.45,0,0,1,114.55,63.8Z"/>
      <path class="cls-1" d="M132.78,63.8a4.46,4.46,0,1,1,4.45-4.45A4.45,4.45,0,0,1,132.78,63.8Z"/>
      <path class="cls-1" d="M151,63.8a4.46,4.46,0,1,1,4.45-4.45A4.45,4.45,0,0,1,151,63.8Z"/>
      <path class="cls-1" d="M169.24,63.8a4.46,4.46,0,1,1,4.45-4.45A4.46,4.46,0,0,1,169.24,63.8Z"/>
      <path class="cls-1" d="M187.46,63.8a4.46,4.46,0,1,1,4.45-4.45A4.45,4.45,0,0,1,187.46,63.8Z"/>
      <path class="cls-1" d="M205.69,63.8a4.46,4.46,0,1,1,4.45-4.45A4.45,4.45,0,0,1,205.69,63.8Z"/>
      <path class="cls-6" d="M80.75,57.43c0,2-1.19,3.53-2.65,3.53h0c-1.47,0-2.66-1.58-2.66-3.53V42.55c0-1.95,1.19-3.53,2.66-3.53h0c1.46,0,2.65,1.58,2.65,3.53Z"/>
      <path class="cls-6" d="M99,57.43c0,2-1.19,3.53-2.65,3.53h0c-1.46,0-2.65-1.58-2.65-3.53V42.55c0-1.95,1.19-3.53,2.65-3.53h0C97.82,39,99,40.6,99,42.55Z"/>
      <path class="cls-6" d="M117.13,57.43c0,2-1.18,3.53-2.65,3.53h0c-1.46,0-2.65-1.58-2.65-3.53V42.55c0-1.95,1.19-3.53,2.65-3.53h0c1.47,0,2.65,1.58,2.65,3.53Z"/>
      <path class="cls-6" d="M135.4,57.43c0,2-1.19,3.53-2.66,3.53h0c-1.46,0-2.65-1.58-2.65-3.53V42.55c0-1.95,1.19-3.53,2.65-3.53h0c1.47,0,2.66,1.58,2.66,3.53Z"/>
      <path class="cls-6" d="M153.66,57.43c0,2-1.19,3.53-2.65,3.53h0c-1.47,0-2.65-1.58-2.65-3.53V42.55c0-1.95,1.18-3.53,2.65-3.53h0c1.46,0,2.65,1.58,2.65,3.53Z"/>
      <path class="cls-6" d="M171.89,57.43c0,2-1.19,3.53-2.65,3.53h0c-1.47,0-2.66-1.58-2.66-3.53V42.55c0-1.95,1.19-3.53,2.66-3.53h0c1.46,0,2.65,1.58,2.65,3.53Z"/>
      <path class="cls-6" d="M190.12,57.43c0,2-1.19,3.53-2.65,3.53h0c-1.47,0-2.66-1.58-2.66-3.53V42.55c0-1.95,1.19-3.53,2.66-3.53h0c1.46,0,2.65,1.58,2.65,3.53Z"/>
      <path class="cls-6" d="M208.35,57.43c0,2-1.19,3.53-2.66,3.53h0c-1.46,0-2.65-1.58-2.65-3.53V42.55c0-1.95,1.19-3.53,2.65-3.53h0c1.47,0,2.66,1.58,2.66,3.53Z"/>
    </g>
    <g id="calculator">
      <path class="cls-7" d="M246.28,187.67H168v74.62a3.64,3.64,0,0,0,3.63,3.63h71a3.62,3.62,0,0,0,3.63-3.63Z"/>
      <g>
        <path class="cls-8" d="M176.7,195.43h26.07a.63.63,0,0,1,.63.63v8.39a.63.63,0,0,1-.63.63H176.7a.63.63,0,0,1-.63-.63v-8.39A.64.64,0,0,1,176.7,195.43Z"/>
        <path class="cls-9" d="M221.09,204.45a.64.64,0,0,1-.64.64h-8.38a.64.64,0,0,1-.63-.64v-8.38a.64.64,0,0,1,.63-.64h8.38a.64.64,0,0,1,.64.64Z"/>
        <path class="cls-10" d="M238.77,204.45a.64.64,0,0,1-.63.64h-8.38a.64.64,0,0,1-.63-.64v-8.38a.64.64,0,0,1,.63-.64h8.38a.64.64,0,0,1,.63.64Z"/>
        <path class="cls-10" d="M185.71,222.15a.63.63,0,0,1-.63.62H176.7a.63.63,0,0,1-.63-.62v-8.39a.63.63,0,0,1,.63-.63h8.38a.63.63,0,0,1,.63.63Z"/>
        <path class="cls-10" d="M203.4,222.15a.63.63,0,0,1-.63.62h-8.38a.63.63,0,0,1-.64-.62v-8.39a.64.64,0,0,1,.64-.63h8.38a.63.63,0,0,1,.63.63Z"/>
        <rect class="cls-10" x="211.44" y="213.13" width="9.65" height="9.65" rx="0.63"/>
        <rect class="cls-10" x="229.13" y="213.13" width="9.64" height="9.65" rx="0.63"/>
        <rect class="cls-10" x="176.07" y="230.81" width="9.65" height="9.65" rx="0.63"/>
        <rect class="cls-10" x="193.75" y="230.81" width="9.65" height="9.65" rx="0.63"/>
        <path class="cls-1" d="M221.09,239.83a.64.64,0,0,1-.64.63h-8.38a.63.63,0,0,1-.63-.63v-8.39a.63.63,0,0,1,.63-.63h8.38a.64.64,0,0,1,.64.63Z"/>
        <path class="cls-10" d="M185.71,257.51a.64.64,0,0,1-.63.64H176.7a.64.64,0,0,1-.63-.64v-8.38a.63.63,0,0,1,.63-.63h8.38a.63.63,0,0,1,.63.63Z"/>
        <path class="cls-10" d="M194.38,248.5h8.38a.63.63,0,0,1,.63.63v8.38a.64.64,0,0,1-.64.64h-8.38a.63.63,0,0,1-.63-.63v-8.38A.63.63,0,0,1,194.38,248.5Z"/>
        <path class="cls-1" d="M212.07,248.5h8.38a.63.63,0,0,1,.63.63v8.38a.64.64,0,0,1-.64.64h-8.38a.64.64,0,0,1-.64-.64v-8.38A.63.63,0,0,1,212.07,248.5Z"/>
        <path class="cls-1" d="M238.77,257.51a.64.64,0,0,1-.63.64h-8.38a.64.64,0,0,1-.63-.64v-8.38a.63.63,0,0,1,.63-.63h8.38a.63.63,0,0,1,.63.63Z"/>
        <rect class="cls-1" x="229.13" y="230.81" width="9.64" height="9.65" rx="0.63"/>
      </g>
      <path class="cls-1" d="M246.28,156.46a3.62,3.62,0,0,0-3.63-3.63h-71a3.64,3.64,0,0,0-3.63,3.63v31.21h78.26Z"/>
      <path class="cls-11" d="M176.7,160.6a.67.67,0,0,0-.45.19.64.64,0,0,0-.18.45v18a.62.62,0,0,0,.18.44.63.63,0,0,0,.45.19h61.44a.63.63,0,0,0,.45-.19.62.62,0,0,0,.18-.44v-18a.64.64,0,0,0-.18-.45.67.67,0,0,0-.45-.19Z"/>
      <rect class="cls-12" x="168.02" y="186.16" width="78.26" height="1.51"/>
    </g>
  </g>
</svg>
