<svg id="Iconos" xmlns="http://www.w3.org/2000/svg" width="300" height="300" viewBox="0 0 300 300">
  <defs>
    <style>
      .cls-1 {
        fill: #706f6f;
      }

      .cls-2 {
        fill: #b2b2b2;
      }

      .cls-3 {
        fill: #575756;
      }
    </style>
  </defs>
  <polygon class="cls-1" points="167.31 167.44 106.43 202.59 106.43 196 167.31 160.86 167.31 167.44"/>
  <g>
    <g>
      <polygon class="cls-2" points="106.3 125.74 167.18 160.84 106.3 195.99 45.42 160.89 106.3 125.74"/>
      <polygon class="cls-3" points="142.19 146.55 81.31 181.7 81.31 146.66 142.19 111.51 142.19 146.55"/>
      <polygon class="cls-1" points="167.18 125.92 106.3 161.07 106.3 154.49 167.18 119.34 167.18 125.92"/>
      <polygon class="cls-2" points="106.3 84.3 167.18 119.34 106.3 154.49 45.42 119.45 106.3 84.3"/>
      <g>
        <polygon class="cls-1" points="45.42 125.92 106.3 161.07 106.3 154.49 45.42 119.34 45.42 125.92"/>
        <polygon class="cls-1" points="45.42 167.42 106.3 202.57 106.3 195.99 45.42 160.84 45.42 167.42"/>
        <polygon class="cls-1" points="70.4 178.55 81.31 184.85 81.31 143.37 70.4 137.08 70.4 178.55"/>
      </g>
    </g>
    <g>
      <polygon class="cls-2" points="187.48 169.17 248.36 204.26 187.48 239.41 126.6 204.32 187.48 169.17"/>
      <polygon class="cls-3" points="223.37 189.98 162.49 225.13 162.49 190.08 223.37 154.93 223.37 189.98"/>
      <polygon class="cls-1" points="248.36 169.34 187.48 204.49 187.48 197.91 248.36 162.76 248.36 169.34"/>
      <polygon class="cls-2" points="187.48 127.73 248.36 162.76 187.48 197.91 126.6 162.87 187.48 127.73"/>
      <g>
        <polygon class="cls-1" points="126.6 169.34 187.48 204.49 187.48 197.91 126.6 162.76 126.6 169.34"/>
        <polygon class="cls-1" points="126.6 210.84 187.48 245.99 187.48 239.41 126.6 204.26 126.6 210.84"/>
        <polygon class="cls-1" points="151.59 221.98 162.49 228.28 162.49 186.8 151.59 180.5 151.59 221.98"/>
      </g>
    </g>
    <polygon class="cls-1" points="210.6 139.1 149.72 174.25 149.72 167.67 210.6 132.52 210.6 139.1"/>
    <g>
      <polygon class="cls-2" points="149.72 97.42 210.6 132.52 149.72 167.67 88.84 132.57 149.72 97.42"/>
      <polygon class="cls-3" points="185.61 118.23 124.73 153.38 124.73 118.34 185.61 83.19 185.61 118.23"/>
      <polygon class="cls-1" points="210.6 97.6 149.72 132.75 149.72 126.17 210.6 91.02 210.6 97.6"/>
      <polygon class="cls-2" points="149.72 55.98 210.6 91.02 149.72 126.17 88.84 91.13 149.72 55.98"/>
      <g>
        <polygon class="cls-1" points="88.84 97.6 149.72 132.75 149.72 126.17 88.84 91.02 88.84 97.6"/>
        <polygon class="cls-1" points="88.84 139.1 149.72 174.25 149.72 167.67 88.84 132.52 88.84 139.1"/>
        <polygon class="cls-1" points="113.83 150.23 124.73 156.53 124.73 115.05 113.83 108.76 113.83 150.23"/>
      </g>
    </g>
  </g>
  <polygon class="cls-1" points="248.26 210.86 187.38 246.01 187.38 239.43 248.26 204.28 248.26 210.86"/>
</svg>
