<svg id="Iconos" xmlns="http://www.w3.org/2000/svg" xmlns:xlink="http://www.w3.org/1999/xlink" width="300" height="300" viewBox="0 0 300 300">
  <defs>
    <style>
      .cls-1, .cls-6, .cls-7 {
        fill: none;
      }

      .cls-2 {
        clip-path: url(#clip-path);
      }

      .cls-3 {
        fill: #706f6f;
      }

      .cls-4 {
        fill: #808997;
      }

      .cls-5 {
        fill: #fff;
      }

      .cls-6, .cls-7 {
        stroke: #575756;
      }

      .cls-6 {
        stroke-width: 5.32px;
      }

      .cls-7 {
        stroke-width: 5.11px;
      }

      .cls-8, .cls-9 {
        fill: #575756;
      }

      .cls-9 {
        fill-rule: evenodd;
      }
    </style>
    <clipPath id="clip-path">
      <path class="cls-1" d="M357.65,504.7s-3.8-39,20-37.14c0,0-2.86-30.47,21-32.37,0,0-2.86-29.52,24.76-32.38S531,416.14,531,416.14L683.32,546.6,562.38,630.4,359.56,559Z"/>
    </clipPath>
  </defs>
  <g class="cls-2">
    <g>
      <g>
        <polygon class="cls-3" points="561.49 539.09 196.25 328.02 213.28 292.42 578 503.19 561.49 539.09"/>
        <path class="cls-4" d="M204.85,293.1c-7.11,4.1-12.88,15.12-12.88,24.61s5.77,13.84,12.88,9.73,12.88-15.12,12.88-24.61S212,289,204.85,293.1Z"/>
      </g>
      <g>
        <polygon class="cls-3" points="545.49 520.38 180.24 309.3 197.27 273.7 561.99 484.48 545.49 520.38"/>
        <path class="cls-4" d="M188.84,274.38C181.73,278.49,176,289.5,176,299s5.76,13.84,12.87,9.73,12.88-15.12,12.88-24.6S196,270.27,188.84,274.38Z"/>
      </g>
    </g>
  </g>
  <g>
    <path class="cls-5" d="M263.71,151.07A115.59,115.59,0,1,1,148.13,35.5,115.59,115.59,0,0,1,263.71,151.07"/>
    <path class="cls-6" d="M244,152c0,50.81-42.8,92-95.59,92s-95.59-41.19-95.59-92,42.81-92,95.59-92S244,101.14,244,152Z"/>
    <path class="cls-7" d="M208.15,152c0,31.74-26.74,57.47-59.71,57.47S88.74,183.69,88.74,152s26.75-57.47,59.7-57.47S208.15,120.21,208.15,152Z"/>
    <path class="cls-8" d="M88.74,152c0-31.74,26.75-57.47,59.71-57.47a60.8,60.8,0,0,1,36.87,12.32V86.5a79.39,79.39,0,0,0-36.87-9c-42.72,0-77.33,33.32-77.33,74.43s34.61,74.44,77.33,74.44a79.41,79.41,0,0,0,36.87-9v-20.3a60.87,60.87,0,0,1-36.87,12.33c-33,0-59.71-25.73-59.71-57.47"/>
    <path class="cls-8" d="M219.63,129h-1.32c-1.65,0-6.18,0-8.2.62-2.35.73-3.9,4.37-4.65,6.05-.11.26-.26.29-.52.26l-.94-.26c-.17-.06-.29-.1-.21-.42.54-1.89,2.35-8.6,2.44-9.16s.33-.86.53-.86a.81.81,0,0,1,.61.23l.69.46a4.3,4.3,0,0,0,3,.89c2.75.1,4.93.31,9.84.31h2.5c5.68,0,7.9-.21,10.45-.31a5.16,5.16,0,0,0,2.71-.72l1-.63a1.14,1.14,0,0,1,.62-.23c.26,0,.35.18.45.86s1.1,7.08,1.5,9.37c.08.26,0,.36-.3.41l-.82.22c-.22,0-.27,0-.41-.37-.42-1-2-5-3.71-5.83-1.57-.78-6.46-.89-9-.89h-1.45v14.84c0,.73,0,15.3.06,16.19.09,1.3.52,2.09,1.75,2.09h3.28c.47,0,.54.15.54.52v1.09c0,.26-.07.43-.54.43s-2.17-.17-7.28-.17-7.2.17-7.91.17c-.42,0-.49-.23-.49-.53v-1c0-.37.07-.52.39-.52h3.53c1.06,0,1.68-.62,1.72-1.24.16-1.51.16-17.51.16-18.5Z"/>
    <path class="cls-9" d="M180.12,118v18.4c-3.85-.61-6.73-5.64-12.9-7.38-10.95-3.06-28.42-1.72-26.67,9.21,2.49,5.59,9.47,4.26,14.73,5.5,4.75,1.14,11.61,2.61,15.63,4.61,1,.51,7,4.81,8.28,6.45,4.32,5.47,6.2,17.69.93,24.81-10.35,13.9-40.87,15.92-58.86,6.44V168.53c6.19,1.49,10.46,7,19.29,8.29,9.79,1.38,22.24-.48,23-7.36,1-9.3-13.45-8.87-22.06-11-10.6-2.63-15.61-6.64-21.17-11.95-10.19-34.49,37.32-41.6,59.8-28.5"/>
    <path class="cls-8" d="M96.59,62.34V74.71A98.28,98.28,0,0,1,199,74V61.58a98.28,98.28,0,0,0-102.42.76"/>
    <path class="cls-8" d="M199,242.62V230.24A98.45,98.45,0,0,1,96.59,231v12.34A98.22,98.22,0,0,0,199,242.62"/>
    <path class="cls-5" d="M111.71,66c-1-2.93-2.11-5.87-3.14-8.8,1.36-.48,2.76-1,4.18-1.42a7.39,7.39,0,0,1,2.4-.47,2.27,2.27,0,0,1,1.38.52,2.48,2.48,0,0,1,.85,1.3A2.25,2.25,0,0,1,117.2,59a3.29,3.29,0,0,1-1.63,1.4,4.44,4.44,0,0,1,1.23.44,7.82,7.82,0,0,1,1.49,1.14c.58.47,1.1,1,1.67,1.44l-2.24.63c-.64-.51-1.29-1-1.93-1.54a9.68,9.68,0,0,0-1.42-1,1.45,1.45,0,0,0-.69-.18,3.41,3.41,0,0,0-1,.2l-.38.13c.42,1.23.84,2.46,1.25,3.68-.6.23-1.22.44-1.83.67m.12-5.77c.44-.16.94-.31,1.4-.46a9.18,9.18,0,0,0,1.71-.66,1.11,1.11,0,0,0,.45-.54,1,1,0,0,0,0-.75,1.11,1.11,0,0,0-.45-.63,1.3,1.3,0,0,0-.87-.12,12.14,12.14,0,0,0-1.46.42l-1.52.51c.24.74.51,1.51.77,2.23"/>
    <path class="cls-5" d="M121,63.09c-.82-3-1.59-6-2.39-9q3.71-1,7.49-1.72c.1.52.2,1,.31,1.54-1.8.35-3.61.76-5.38,1.21.15.65.29,1.35.48,2,1.62-.39,3.28-.77,4.9-1.09.12.5.21,1,.33,1.53-1.63.34-3.25.69-4.85,1.09.2.83.39,1.65.6,2.47,1.75-.43,3.52-.82,5.27-1.17.11.51.21,1,.32,1.56-2.39.45-4.74,1-7.08,1.6"/>
    <path class="cls-5" d="M129.63,61.18q-.82-4.6-1.63-9.2c1.08-.19,2.18-.36,3.3-.54a11.13,11.13,0,0,1,2.46-.2,2.44,2.44,0,0,1,1.57.72,2.55,2.55,0,0,1,.81,1.73,3,3,0,0,1-.18,1.47,2.39,2.39,0,0,1-.72,1,2.37,2.37,0,0,1-1,.57,13.94,13.94,0,0,1-2,.43c-.43,0-.86.13-1.28.19.18,1.18.39,2.33.56,3.47-.64.13-1.25.22-1.9.34m.65-8c.15.87.29,1.73.45,2.62.34-.07.71-.12,1.06-.18a5.73,5.73,0,0,0,1.57-.37,1.48,1.48,0,0,0,.56-.55A1.2,1.2,0,0,0,134,54a1.13,1.13,0,0,0-.42-.81,1.41,1.41,0,0,0-.88-.29,8.49,8.49,0,0,0-1.46.15l-1,.16"/>
    <path class="cls-5" d="M137.5,50.64l2.07-.16c.15,1.66.27,3.35.41,5a11.09,11.09,0,0,0,.19,1.56,1.76,1.76,0,0,0,.67.88,2.46,2.46,0,0,0,1.3.25,2.33,2.33,0,0,0,1.24-.4,1.43,1.43,0,0,0,.49-.84,13.45,13.45,0,0,0,0-1.59c-.11-1.72-.2-3.42-.27-5.14.69,0,1.4-.07,2.1-.09,0,1.62.1,3.25.13,4.89a14,14,0,0,1-.08,2.39,2.83,2.83,0,0,1-.54,1.19,3.27,3.27,0,0,1-1.1.82,5,5,0,0,1-1.78.36,5.53,5.53,0,0,1-2.1-.16,2.82,2.82,0,0,1-1.17-.69,2.7,2.7,0,0,1-.66-1,12.33,12.33,0,0,1-.42-2.35c-.17-1.65-.33-3.28-.48-5"/>
    <path class="cls-5" d="M147.9,50.1c1.35,0,2.74,0,4.11,0a12.05,12.05,0,0,1,1.81.12,2.85,2.85,0,0,1,1.06.43,2.27,2.27,0,0,1,.75.82,2,2,0,0,1,.24,1.11,2.2,2.2,0,0,1-.43,1.18,2.82,2.82,0,0,1-1.07.79,2.38,2.38,0,0,1,1.33.9,2.08,2.08,0,0,1,.41,1.43,2.64,2.64,0,0,1-.38,1.22,2.37,2.37,0,0,1-.88.92,3.16,3.16,0,0,1-1.29.4c-.33,0-1.1,0-2.34,0-1.06,0-2.13,0-3.23,0,0-3.12-.07-6.23-.09-9.33m2,1.53v2.16h1.32l1.46,0a1.3,1.3,0,0,0,.83-.33.9.9,0,0,0,.31-.7,1,1,0,0,0-.21-.72,1.24,1.24,0,0,0-.78-.35c-.19,0-.79-.06-1.73-.07-.41,0-.81,0-1.2,0m0,3.71c0,.84,0,1.68,0,2.49.6,0,1.23,0,1.8.05a8.82,8.82,0,0,0,1.33,0,1.23,1.23,0,0,0,.74-.35,1,1,0,0,0,.29-.78,1,1,0,0,0-.19-.73,1.06,1.06,0,0,0-.6-.43,5.82,5.82,0,0,0-1.76-.21H150"/>
    <path class="cls-5" d="M157.63,59.73q.31-4.63.68-9.24l2.07.15c-.22,2.57-.48,5.13-.69,7.68,1.58.14,3.2.32,4.81.55-.1.52-.14,1-.23,1.55-2.22-.3-4.43-.54-6.64-.69"/>
    <path class="cls-5" d="M165.58,60.61q.67-4.62,1.36-9.23l2.07.32c-.52,3.08-1,6.12-1.52,9.21l-1.91-.3"/>
    <path class="cls-5" d="M176.06,59.15c.59.33,1.17.68,1.72,1a4.12,4.12,0,0,1-2,1.85,4.37,4.37,0,0,1-2.63.14,4.22,4.22,0,0,1-2.82-1.88,5.47,5.47,0,0,1,1.34-7,4.54,4.54,0,0,1,3.66-.56,4.29,4.29,0,0,1,2.76,1.69,3.49,3.49,0,0,1,.61,1.94c-.7,0-1.38-.06-2.08-.08A2,2,0,0,0,176.2,55a2.34,2.34,0,0,0-1.28-.72,2.43,2.43,0,0,0-2,.35,3.54,3.54,0,0,0-1.15,2.24,3.68,3.68,0,0,0,.19,2.6,2.15,2.15,0,0,0,1.51,1.1,2,2,0,0,0,1.41-.18,2.67,2.67,0,0,0,1.14-1.27"/>
    <path class="cls-5" d="M186.94,66c-.66-.24-1.32-.48-2-.71,0-.75-.07-1.52-.13-2.27-1.26-.42-2.48-.8-3.72-1.16-.48.6-.94,1.21-1.39,1.81-.63-.2-1.29-.37-1.94-.55,2-2.69,4.08-5.35,6.26-7.92.72.21,1.43.44,2.15.66.36,3.38.62,6.77.78,10.14m-2.24-4.68c-.09-1.23-.16-2.47-.28-3.73-.79,1-1.56,2-2.31,2.92l2.59.81"/>
    <path class="cls-5" d="M116.09,249.36c-.73-.19-1.44-.42-2.17-.63-.09-.76-.19-1.53-.25-2.29-1.31-.42-2.61-.83-3.9-1.3-.51.59-1,1.14-1.52,1.73l-2.1-.78c2.39-2.44,4.66-4.92,6.86-7.47l1.91.66c.28,3.34.68,6.71,1.17,10.08m-2.58-4.62c-.11-1.25-.16-2.49-.25-3.74-.79,1-1.57,1.91-2.39,2.87l2.64.87"/>
    <path class="cls-5" d="M117.2,249.65c.78-3,1.61-6,2.43-9,1.32.35,2.6.67,4,1a8.29,8.29,0,0,1,2.13.74,2.28,2.28,0,0,1,.9,1.11,2.75,2.75,0,0,1-.84,3.1,3.18,3.18,0,0,1-2.1.43,8.77,8.77,0,0,1,.9,1,11.77,11.77,0,0,1,.84,1.71c.28.69.57,1.37.88,2-.82-.15-1.66-.32-2.45-.49-.37-.78-.72-1.52-1-2.31a13.66,13.66,0,0,0-.74-1.56,1.83,1.83,0,0,0-.5-.53,3.6,3.6,0,0,0-1-.34,1.67,1.67,0,0,1-.4-.1c-.33,1.26-.65,2.51-1,3.78-.66-.16-1.35-.35-2-.54m3.34-4.69,1.43.35a7.7,7.7,0,0,0,1.77.3,1.27,1.27,0,0,0,.65-.28,1.15,1.15,0,0,0,.35-.62,1,1,0,0,0-.13-.82,1.11,1.11,0,0,0-.62-.53l-1.38-.33-1.5-.37c-.18.76-.39,1.52-.57,2.3"/>
    <path class="cls-5" d="M132.62,249.29c.07-.53.14-1,.21-1.56,1.44.2,2.83.36,4.27.5-.12,1.25-.24,2.48-.36,3.71a5.35,5.35,0,0,1-2,.8,7.38,7.38,0,0,1-2.56.12,6.14,6.14,0,0,1-2.71-1,4.2,4.2,0,0,1-1.48-2,5.16,5.16,0,0,1-.13-2.56,5.23,5.23,0,0,1,1.07-2.44,4.4,4.4,0,0,1,2.13-1.41,5.61,5.61,0,0,1,2.32-.13,4.93,4.93,0,0,1,2.67,1.06,3.53,3.53,0,0,1,1.08,2.16l-2,.12a2.06,2.06,0,0,0-.62-1.17,2.64,2.64,0,0,0-1.38-.58,2.7,2.7,0,0,0-2.11.5,3.13,3.13,0,0,0-1.13,2.17,3.51,3.51,0,0,0,.38,2.59,2.91,2.91,0,0,0,2,1.13,3.55,3.55,0,0,0,1.3-.07,4.7,4.7,0,0,0,1.17-.42c.05-.39.11-.81.14-1.19-.74-.07-1.52-.18-2.28-.28"/>
    <path class="cls-5" d="M138.54,253.39c.24-3.11.49-6.22.75-9.3,2.36.18,4.7.3,7.05.34,0,.53,0,1,0,1.57-1.72,0-3.47-.08-5.22-.2,0,.69-.05,1.37-.11,2,1.64.12,3.29.18,4.94.23,0,.52,0,1,0,1.55-1.67,0-3.33-.1-5-.2,0,.83-.09,1.68-.16,2.54,1.91.11,3.8.2,5.7.22,0,.54,0,1.05,0,1.58-2.62,0-5.25-.18-7.84-.38"/>
    <path class="cls-5" d="M148.15,253.78c0-3.11,0-6.23,0-9.32l1.87,0c1.32,2.05,2.73,4.09,4.21,6.08-.09-2.08-.22-4.15-.34-6.22l1.81-.12c.19,3.11.41,6.22.61,9.33l-2.08.13q-2.23-3-4.24-6c0,2,0,4.06.08,6.09h-1.95"/>
    <path class="cls-5" d="M160.89,253.13c-.28-2.59-.58-5.15-.83-7.73-1,.1-1.91.2-2.89.27,0-.51-.06-1.06-.08-1.58,2.48-.2,5-.5,7.48-.86.08.52.15,1,.24,1.56-.94.16-1.89.27-2.84.38.33,2.59.64,5.14,1,7.7l-2.05.26"/>
    <path class="cls-5" d="M167.24,252.27c-.48-3.07-1-6.15-1.47-9.23.63-.11,1.27-.19,1.88-.32.56,3.08,1.12,6.13,1.64,9.21-.69.1-1.35.22-2,.34"/>
    <path class="cls-5" d="M171.28,251.55c-.62-3.06-1.2-6.12-1.8-9.18.61-.1,1.22-.24,1.83-.37,1.73,1.77,3.49,3.46,5.35,5.16-.5-2-1-4-1.55-6,.6-.16,1.18-.3,1.75-.46.82,3,1.64,6,2.44,9-.66.19-1.34.36-2,.54-1.85-1.62-3.64-3.3-5.35-5,.43,2,.86,4,1.3,6l-1.93.4"/>
    <path class="cls-5" d="M190.39,246.09l-2.18.8-1.55-1.72c-1.31.47-2.58.89-3.9,1.3-.08.75-.15,1.52-.2,2.27-.72.23-1.43.43-2.13.62.45-3.36.81-6.71,1.06-10.05l2-.65c2.2,2.54,4.51,5,6.93,7.43m-4.86-2.17c-.82-.95-1.64-1.89-2.39-2.85-.09,1.23-.16,2.47-.23,3.71l2.62-.86"/>
  </g>
</svg>
