<svg id="Iconos" xmlns="http://www.w3.org/2000/svg" width="300" height="300" viewBox="0 0 300 300">
  <defs>
    <style>
      .cls-1 {
        fill: #19ade0;
      }

      .cls-1, .cls-2 {
        fill-rule: evenodd;
      }

      .cls-2 {
        fill: #bae6f6;
      }
    </style>
  </defs>
  <g id="globe">
    <path class="cls-1" d="M248.46,129.79A102.46,102.46,0,1,1,127.55,49.92,102.46,102.46,0,0,1,248.46,129.79Z"/>
    <path class="cls-2" d="M134.29,251.86a101.73,101.73,0,0,1-22-5.54,100.89,100.89,0,0,0-3.63-15c-2.49-3.35-6-2.25-9-4.78-2.86-2.38-5.5-9.65-9.47-10.9.07-4.92-2.91-7.62,1.35-11.25-2.64-6.41-.72-9.73,2.19-12.44-.3-.61-.95-.66-1.14-1.44a2,2,0,0,0-.91,2.58c-2.74-.31-4.52-2.15-7.52-2-1.58-6.39-9.41-2.85-12.53-6.62-5,2.64-9.44-1-14.37-1.3-1.13-4.17-5.09-6.62-8.89-9.13-.25-1.05-.48-2.09-.7-3.15a102,102,0,0,1,8.55-65.95,15.72,15.72,0,0,0,1.52-.64c-.65-.43-.35-1.25-.31-1.73.49-.93,1-1.85,1.52-2.76,1.14,1.24-1.05,2.51.14,4.71,2.19-2.19,1.59-4.18,3.22-5.28-.52-.83-1.8-.39-2.9-.23.94-1.63,1.92-3.22,2.95-4.79.49,2.89,1.55,1.79,2.62,4.74,1.2-.38,1.36-1.54,2.62-1.86,1.31.92-.69,2.64.85,3.73,3.61-1.87,1.35-5.78,3.72-7.14-2.15-1.1-3.29.62-5.34.49,2-3.49-1.13-1.09-1.37-1.85a5.14,5.14,0,0,1,0-2.57C66.6,88.13,67.8,86.6,69,85.11a6.74,6.74,0,0,1,.82-.35c-1.3,2.34-.36,5.55.86,6.16-.21-.78-1.21-7.17,3.64-8,1,1.53,1.43,1,.83,3.79,2.88-.93,1.76-2.72,5.76-3.88.47,1.53,2.08.88.88,3,2.07-1.86,5.18.07,8.89.29-.67,2.23.53,1.74-1,3.74,2.5.75,4.91,1.75,7.91,1.79.64,2.5-1.58,2.74-1.55,4.75-2.41.56-3-2.13-5.17-1.82.11,4.66,4.51,3.88,4.3,6.36-1,3-3.17-.39-5,.65.81.9,2,1.07,3.07,1.62-5.65,4.58-7.06-5.42-13.55.08,1.48-4.1,5.06-3.11,5.53-8.58-.79-2.11-2.23-3-5-1.63,1.76-3-2-1.28-2.28-3.34,0,2.49-1.86,1.47-4.53,3.36,3,2.51-1.06,2.14,1.73,6-3.45,2.86-1.6,1.53-5.34,2.79,1.75,2,4.32,2.81,7.2,3.18-2.79,1.52-4.11,3.36-7.47,3.44.62-1.3.47-3.18,1.09-4.48-.09-1.41-3.12,2.44-4.1.71.23,1.34,1.26,1.37,2.8.58-3.67,5.23-6.13,7.41-8.23,14.24.5,2.08,3.72-.14,3.15,3.72,5.26-2.52,6.12,2.18,11.6-.47,1.22,2.4,1.6,6.24,4.43,6.13.56-.32.61-1,1.34-1.21-.59-1.32-.8-3.23-1.94-3.6.25-2.26,3-2.65,3.08-5.07,0-2.64-1.27-3-2.58-3.39,1.68-3.13.19-4.2-.12-8.29,4.74-2.17,5.87-.36,10.08.2.13,1.09.26,2.18.4,3.28.29.83,1.47.14,1.62,1.22,3.11-.34,1.76-4.08,4.5-4.7,2.79,6.28,5.43,8.17,11.22,10.74-1.11,9.81-11.62,5.41-14.63,12.3,1,1.39,2.63-2.82,5.68-2.31-1.72,3,.12,4.78,3.12,5.18,2.25.6,1.1-4.8,2.65-2.35,1.17,2.16-3.83,5.07-6.5,6.7-.71-1.7,1.2-1.5,1.06-2.81-3.26.49-3.39,3.27-6.2,4.08l.54,3.24c-5.36,1.83-4.82,7.88-5.44,13-3,1.1-3.57,3.95-5.08,6.09,1.09,3.14,4.18,4.74,3.19,8.34-2.89-.25-3.55-4-5.13-6.28-1.54,2.68-6.79-2.25-7.3,2.41C61.1,163.93,62.54,184,73.2,181c1.36-.8,1.54-2.41,1.4-4.24l4.5-.87c-.88,1.82.52,5.17-.89,6.58,1.79,1.38,6-1.06,7.29,1.11-.85,3.38,1.13,7,4.11,7.4,1.88,0,1.28-1.69,3.55-1.4,3.48,3.5,11.25,3.39,15.16,1.6,3.3,7.27,13.66,2.6,17,9.79,1,2.5-1.47,2.48-1.23,4.43,1.75.19.67-1.72,1.82-2,7,1.31,14.85,1.12,20.24,5.06,1.21,5.28-1.15,7.8-2.78,10.82,2,6.06,1.07,9.79.35,13.62-4,.15-4.84,2.77-6.89,4.37,1.42,4,.78,8.74-1.47,7.72C135.9,248,134.93,249.82,134.29,251.86ZM179,118.13c1.43-1.07-1.22-4.68-2.1-5.58C178.48,114.86,175.42,118.6,179,118.13Zm57.11,78.17,2.78-1c1.47-4.7,5-14.73,1.38-18a11.06,11.06,0,0,1-5.16,7.21C236.85,189.25,233.9,192,236.08,196.3Zm-6.76-72.52c2.21,3.44,5.29,3.87,6.29,6.7,2.93-.17,4.61-1.17,4.74-3.15a15.77,15.77,0,0,0,6.26,3.42c-1.55,7.69-10.22,11.14-16.1,16.49-5.18-6.47-10.88-12.69-16.57-19.28-.6.56-.63,2.37-1.32,1,3.49,7,11.22,15.85,17.57,20.71,3.63-.68,5.77-2.36,8.65-3.54,0,10.36-8,15.81-11.42,24.42.19,5.46,3.93,8.92,3.31,14.52-1.86,2.56-5,4.2-5.79,7.53-.34,2.44,1.21,1.76,1.11,3.77.31,2.7-1.77,3.65-3.1,5.14,1,7.3-5.27,15.57-13.79,17.9-4.13-6.52-7.16-15.53-11.69-22.35a13,13,0,0,1,.87-8.8c-.82-6.1-4-9.53-8.24-12.6.54-1.74.24-4.11.43-6.1-2.47-3.65-5.85.66-8.35-3.31-5.28,1.55-8.84,5.67-13.64,5.53-5.91-.19-8.91-6.26-13.54-9.36-2.11-9.13-3.44-20.8,4-26-3.35-4,2.8-6.13,2.52-10-.5-1.8-2.25-1.43-4.07-.95a23.4,23.4,0,0,1-1.59-10.94c2.35.09,6.09-2.24,7.54-.53,1.48-.49-.62-3.67.53-4.39-1-2.87-4.44-1.47-5.53-4.18,2.88-.67,4.47-1.93,6.52-4.56-2-1.68-5.73,1-7.08,2.08-.3-1.11-1.28-4.89.64-7-2-2.41-1.83-1.94-4.56-3.51-.7-2.35-.79-4.23.27-5.2,2.84-.89-.36,2.69,3.24,1.17-.39,5.21,7.11,7.26,7.3,11.63,5.45-2.61,1.46-4.78,7.5-6.26-1-2.85-1.53-4.83-2.2-5.58.95-.59.63-.93,2.44-2-1.48,8.52,7.13,6.7,13.61,3.28-.37-1.33-.76-2.65-1.14-4,.94-1.63,1.79-.28,3.61-.39-.07-2.28-1.63-1.94-1.91-3.86,2-2.1,5.53.57,6-2.15-4.3-.78-8.9,3.73-11-4.68A13.91,13.91,0,0,0,185,69.34c-5.74-4.61-3.84,5.85-7.22,7.12-.31,3.13,4.39,3.28,2.83,4.63-1.77,2.58.07,8-4.22,8.8a56.57,56.57,0,0,1-4.13-7c-2.51.41-1.8,3.33-5.08,3.2-2.27-2.87-2.06-3.21-3.55-7.94,8.71-7.25,9.19-25.5,23.6-20.74.26.74-.62.61-1.1.8C191.4,59.91,197.58,60,201.72,64c.87,4.23-4,2.3-7.18,1.69.37,1.1,1.83,5.65,6.19,5.14-.74-.75-1.92-.72-2.25-2.21,1.6-.37,2.05,1.32,3.83.63.94-.35-.64-1-.85-2.24,2.44-.33,1.82-2,4.68-.82-.06-.15-.12-.28-.17-.43a102.12,102.12,0,0,1,41.91,61.35c-2.54.64-4.78.8-6.38-1.51C236.13,129.93,233.47,121.18,229.32,123.78ZM212,117c-2.91,2.45-5.7-1.25-6.53,1.82-4.13-.86-5.28-2.24-6.29-6.41-2.42-.23-2.5,1.22-4.26,1.47-.22,2.64,1.66,1.75,2.29,3-1.78,0-.26,2.43-1.65,2.75-3.92-6.68-9.52-10.08-14.72-12.71-.79,5.17,6.66,5.24,9.07,8.63-3.63-1.91-.55,3.19-3.49,4.77a3.49,3.49,0,0,1-3.36-1.12c1.86-.2,3.61-.48,4.27-1.55-2-4.57-7.65-3-9.58-7.71-3.21.51-3.51,3.2-7.73,3,1.95,3.24-1.4,2-2.2,3.81-1.33,3,1.15,8.55-5.76,8.82.09,3.26,3.74.38,5.57.67,2-3.66,10.8-4.82,14.32-5.15-.46,1.86,1.19,3.09-.36,5.15,5-.16,7.92,3.15,13.06,2.72-.63-1.79-.52-3,.75-3.47,6.23.93,11,.25,17-.44C212.09,122.13,213.43,120.5,212,117Zm5.41-8.7c-2.65-3.53-7.15-3.4-7.64-7.76.2,1.76-4.1.36-3,2.74,1.56,1.58,1.53-1.19,2.45.5a4.29,4.29,0,0,1-3.5,1.24c-1.47-1.7-.11-1.78-2.36-2.92-3,1.24-4.4,7.26-1.36,9.09-.8.08-1.8.64-.54.89C205.36,107.17,212.05,110.93,217.42,108.27Zm10.66,4.83c2.27-.66,2.33,2.05,4.92.88,0-.6.39-.94,1.29-.93-.3-2.68-1.88-3.42-3-4.93.59-1.82,2.81,1.14,1.81-1.72-2.46.56-3.76-2.27-6.58-3.82,1.15-1,3.11-1.37,2.8-3.28-3.18-1.93-5.13,1.84-6.76,2.93C225,107.25,229.5,107.49,228.08,113.1ZM94.58,62.88a102.17,102.17,0,0,1,30.35-12.39,18.29,18.29,0,0,1,.7,3.22c.12.82,1,.47,1.45.56.14.82-.66.82-1.13,1.12,1.31,2,5-.64,5.4,3.21-1.89,1-2.57-.36-4.1,0-.53.8.82,2.87-.51,4.47,1.22-1.55,2.34-3.16,4.78-3.62a13.32,13.32,0,0,1-6.18,10.91c1.34,4.22-1.09,8.17-3.67,7,.89,2.73-3.82,5.19-.6,8.86-.85.52-.83,1.73-1.79,2.18,1.76,2.55.6,4,1.3,7.52-2.13.55-4.55,1.62-4.63-1.47-3.63,4.81-7.31-.58-10.48-2.44-.82-2.14,1.13-2.06.9-3.72-2.35,3.89-4.69-2.73-5.06-6.32.73-1.71,4.55-4.66,1.93-6.64-2.44.41.93,3.22-3,3.51-1.43-1.2-.32-2.07-.5-4.17a3.42,3.42,0,0,1,3.39-.17c-.87-3.51-2.58-2.32-4.88-1.08C99.35,69.32,97.8,64.39,94.58,62.88Zm31-5.68c-1.42-2.24.14-3.27-2.07-3.89C122.59,55.13,124.62,56,125.62,57.2Zm-17.84,64.37a31.9,31.9,0,0,0-1.82,7.32c4.36-.82,5.18-1.5,7.59-.1-.24-2.57-2.9-2.66-1.59-4.8C107.82,125.89,109,122.72,107.78,121.57ZM141,74.09c-3.47-2.39-5.5-.75-8.91,1.76,0-3.17-4.16-1-3.42.74,3.63-1.75,2.69,2,2.87,3.73C136.57,80.43,139.9,78.66,141,74.09Zm-59,100.41c4.27-3.17,7.74,1.71,12.66.82C92.18,172.91,84.24,170.19,81.93,174.5Zm13.92,3.07c2.82-.47,5.11-1.31,6.4-2.89-1.69.15-6-.87-6.17.36.47,0,.92,0,.92.65C97.23,176.75,95.85,176.67,95.85,177.57Zm79.64-88.39-1.45.19c.15.54.29,1.08.43,1.62l1.45-.2C175.78,90.25,175.63,89.71,175.49,89.18Zm-95.6,7.4c1.56-.32,2.52-1.08,2.56-2.57C81.35,93.07,79.38,94.16,79.89,96.58Zm72.78-3c.07,1-.68.65-1.44.26.43,1.47-.27,2.06-1.78,2,.83,3,1.7,3,1.29,5.81,2.77,0,2.38-2.31,4.69-2.58C154.78,96.79,154.74,93.32,152.67,93.57ZM76,77.45q-2.16,2.13-4.17,4.38A6.4,6.4,0,0,0,76,77.45Zm-26.9,99.42q.28,1.08.6,2.13a2,2,0,0,0,1-.68A19.13,19.13,0,0,0,49.11,176.87Z"/>
  </g>
  <path d="M183.2,161.38c-21.83,27.68-51.67,53.16-87.76,58.14-17.12,2.36-36.85-.41-49.46-13.27-10.92-11.15-12.38-29.18-.4-40.13-17.06,35.6,29,48,55.28,43.4C133,203.93,160.09,183.33,183.2,161.38Z"/>
  <g id="airplane">
    <g>
      <path d="M179.37,139.79a2.44,2.44,0,0,0-1.6.75l-1.41,1.58,15.49,6.23c1.1-2,2.66-4.49,4.56-7.3Z"/>
      <path d="M233.7,94.64,216.17,91.1a15,15,0,0,1-1.1,1.38c-2.87,3.22-8.15,7.26-9.3,6.23s1.59-5.58,4.21-8.85l-12.24-2.47c-.27.36-.59.76-1,1.19-2.88,3.23-8.15,7.26-9.31,6.23s1.5-5.4,4.07-8.67l-17.29-3.48a5.83,5.83,0,0,0-4.6,1.57L166,88.33l54.41,21.5c3.09-3.7,6.14-7.25,9-10.48C230.94,97.63,232.37,96.07,233.7,94.64Z"/>
      <path d="M216.17,87.05c-1.15-1-2.4-1.51-5.27,1.71-.3.34-.61.71-.92,1.1l6.19,1.24C217.73,88.89,217.14,87.91,216.17,87.05Z"/>
      <path d="M205.77,98.71c1.15,1,6.43-3,9.3-6.23a15,15,0,0,0,1.1-1.38L210,89.86C207.36,93.13,204.74,97.79,205.77,98.71Z"/>
      <path d="M197.87,83.15c-1.16-1-2.4-1.51-5.27,1.71-.35.4-.71.83-1.07,1.28l6.21,1.25C199.46,85.05,198.86,84,197.87,83.15Z"/>
      <path d="M187.46,94.81c1.16,1,6.43-3,9.31-6.23.38-.43.7-.83,1-1.19l-6.21-1.25C189,89.41,186.45,93.91,187.46,94.81Z"/>
      <path d="M200.5,142.14h0l51.25-57.47h0A7,7,0,0,0,248.41,83a3.71,3.71,0,0,1,5-.15h0l.73-.82h0c-2.59-2.32-6.35-2.43-20.41,12.63l2.78.56-13.83,15.52-2.26-.89c-8.91,10.66-18.09,22.51-24,31.22l3.13.24-6.67,7.47-1-.41c-1.23,2.25-1.89,3.91-1.8,4.76,1.76-2.15,4-4.76,5.81-6.81C199.58,142.13,200.21,141.89,200.5,142.14Z"/>
      <path d="M199.54,141.29l-3.13-.24c-1.9,2.81-3.46,5.29-4.56,7.3l1,.41Z"/>
      <path d="M236.48,95.2l-2.78-.56c-1.33,1.43-2.76,3-4.29,4.71-2.88,3.23-5.93,6.78-9,10.48l2.26.89Z"/>
      <path d="M200.51,142.15l-10.23,11.48-3.21,3.6c.22,0,1.77-1.45,3.72-3.45s4.28-4.51,6.11-6.56C200.56,143.12,200.78,142.42,200.51,142.15Z"/>
      <path d="M253.8,87.79a3.72,3.72,0,0,0-.4-5l-1.64,1.84A6.88,6.88,0,0,1,253.8,87.79Z"/>
    </g>
    <g>
      <path d="M203.28,166.12s.87-1,1.41-1.57a2.52,2.52,0,0,0,.56-1.68l-3.2-16.79c-2.58,2.21-4.86,4-6.73,5.37Z"/>
      <path d="M230.33,118.69l27.57,51.6,3.65-4.1a5.88,5.88,0,0,0,1.05-4.75l-5.44-16.78c-3,2.92-7.14,5.93-8.15,5s2.25-6.72,5.12-10c.39-.43.75-.79,1.08-1.1l-3.85-11.87c-3,3-7.28,6.11-8.31,5.19s2.25-6.73,5.13-10c.45-.5.86-.91,1.23-1.25l-5.51-17c-1.27,1.49-2.66,3.09-4.19,4.8C236.83,111.76,233.65,115.2,230.33,118.69Z"/>
      <path d="M252.35,125.72c2.87-3.22,2.25-4.41,1.1-5.44-1-.86-2-1.34-4,.46l2,6C251.71,126.4,252,126.06,252.35,125.72Z"/>
      <path d="M243.05,132c1,.92,5.35-2.22,8.31-5.19l-2-6c-.37.34-.78.75-1.23,1.25C245.3,125.22,241.89,130.92,243.05,132Z"/>
      <path d="M258.31,143.45c2.87-3.22,2.25-4.4,1.1-5.43s-2.07-1.36-4.2.61l2,6C257.57,144.25,258,143.85,258.31,143.45Z"/>
      <path d="M249,149.68c1,.91,5.2-2.1,8.15-5l-2-6c-.33.31-.69.67-1.08,1.1C251.26,143,247.85,148.66,249,149.68Z"/>
      <path d="M229.19,116.55,243,101l.87,2.7C257.23,88.07,256.71,84.34,254.13,82l-.73.82a3.72,3.72,0,0,1,.4,5,6.88,6.88,0,0,0-2-3.11l-51.25,57.47c.27.27.05,1-3.61,5.07-1.83,2.05-4.16,4.56-6.11,6.56.86,0,2.43-.85,4.53-2.33l-.53-1,6.67-7.48.59,3.09c8-6.85,18.71-17.32,28.28-27.39Z"/>
      <path d="M194.79,150.47l.53,1c1.87-1.33,4.15-3.16,6.73-5.37l-.59-3.09Z"/>
      <path d="M229.19,116.55l1.14,2.14c3.32-3.49,6.5-6.93,9.38-10.16,1.53-1.71,2.92-3.31,4.19-4.8L243,101Z"/>
      <path d="M200.5,142.14c-.29-.25-.92,0-4.64,4.16-1.82,2-4.05,4.66-5.81,6.81s-3.15,4-3,4.12h0l3.21-3.6,10.23-11.48Z"/>
      <path d="M248.41,83a7,7,0,0,1,3.33,1.69h0l1.64-1.84h0A3.71,3.71,0,0,0,248.41,83Z"/>
    </g>
  </g>
</svg>
