<svg xmlns="http://www.w3.org/2000/svg" width="300" height="300" viewBox="0 0 300 300">
  <defs>
    <style>
      .cls-1 {
        isolation: isolate;
      }

      .cls-2 {
        fill: #19ade0;
      }

      .cls-3, .cls-4 {
        fill: #313f5e;
      }

      .cls-4 {
        opacity: 0.43;
        mix-blend-mode: multiply;
      }

      .cls-5 {
        fill: none;
        stroke: #1d1d1b;
        stroke-linecap: round;
        stroke-miterlimit: 10;
        stroke-width: 7.08px;
      }

      .cls-6 {
        fill: #ffed00;
      }
    </style>
  </defs>
  <g class="cls-1">
    <g id="Iconos">
      <g>
        <path class="cls-2" d="M77,65.79,79.58,246.9c0,3.68,32.2,11.38,71.92,11.38s71.92-7.7,71.92-11.38L226,65.79Z"/>
        <path class="cls-3" d="M225.84,75.32H76.71a4.77,4.77,0,0,1-4.77-4.76h0a4.77,4.77,0,0,1,4.77-4.77H225.84a4.76,4.76,0,0,1,4.77,4.77h0A4.76,4.76,0,0,1,225.84,75.32Z"/>
        <path class="cls-4" d="M129.08,217.73c-18.25,7.55-36.13,5.68-49.5,1.45V246.9c0,3.68,32.2,11.38,71.92,11.38s71.92-7.7,71.92-11.38L225.2,87.09C215.13,135.43,188.66,193.1,129.08,217.73Z"/>
        <path class="cls-5" d="M74.91,94H61.51S48.86,226.27,162.71,221.71C251.13,218.16,241.29,94,241.29,94H228.93"/>
        <path class="cls-6" d="M132.56,64.88V65H95.06a6.49,6.49,0,0,0-6.5,6.49V86.73a4.42,4.42,0,0,0,3.54,4.43,4.26,4.26,0,0,0,5-4.2V83.81A13.79,13.79,0,0,1,112.45,70.1l.89.11c11.14,1.58,19.22,11.45,19.22,22.7v18.3c0,4.86,3.65,9.22,8.51,9.48a9,9,0,0,0,9.47-9V83.38a4.9,4.9,0,0,1,3.34-4.73,6.75,6.75,0,0,1,5.76.85,4.73,4.73,0,0,1,2,4V126a6.07,6.07,0,0,0,4.54,5.88h0a8.25,8.25,0,0,1,6.16,8v20.91a10.79,10.79,0,0,0,9.48,10.89,10.51,10.51,0,0,0,11.55-10.46V77.93A4.67,4.67,0,0,1,198,73.25h0a6.18,6.18,0,0,1,1.07.09A4.85,4.85,0,0,1,203,78.21v31c0,4.87,3.64,9.23,8.5,9.49a9,9,0,0,0,9.47-9V72.76a7.9,7.9,0,0,0-7.89-7.9Z"/>
      </g>
    </g>
  </g>
</svg>
