<svg id="Iconos" xmlns="http://www.w3.org/2000/svg" width="300" height="300" viewBox="0 0 300 300">
  <defs>
    <style>
      .cls-1 {
        fill: #1d1d1b;
      }

      .cls-2 {
        fill: #ffed00;
      }

      .cls-3 {
        fill: #b17f4a;
      }

      .cls-4 {
        fill: #008837;
      }

      .cls-5 {
        fill: #e30613;
      }
    </style>
  </defs>
  <g>
    <path class="cls-1" d="M106.19,175.11c8.83,0,16-23.52,16-52.59-26.73-29.34-75.24-8.71-72,52.59Z"/>
    <path class="cls-2" d="M246.25,132.09a15.81,15.81,0,0,1-3.41,4.08l-4.48-2.07v4.83a16,16,0,0,1-4.72,1.15V126.25Z"/>
    <path class="cls-1" d="M204.14,48c16.41,0,30.4,7.44,40.54,21.53l9.94,17.37-19.69,16.23-7.37-15.28C223.81,80.06,216,75.6,206,75.6c-6,0-22,0-28.19,49l-1.05,8.24H152.24l3.88-9.43C150,73,178.17,48.13,204.14,48Z"/>
    <path class="cls-3" d="M168.34,119.93c3-20.8,9.33-34.48,16.27-42.09l24.83,43.7C197.32,124.3,180.62,125.16,168.34,119.93Z"/>
    <path class="cls-3" d="M189.34,73.43c8.75-6.77,17.89-7.28,23.24-7.28,1.57-3.41,4.08-5.52,6.39-5,2.48.53,3.92,3.93,3.73,8.1a27.76,27.76,0,0,1,12.93,13,39.3,39.3,0,0,1,3.5,18.73l2,4.2c-6.07,5.8-15.82,11.57-25.44,14.64Z"/>
    <path class="cls-2" d="M245,113.36l1.79,3.78a16,16,0,0,1-.58,15l-12.61-5.84v13.83A16.09,16.09,0,0,1,217.76,131l-1.67-3.49-.46-1c11.34-3.34,21.24-9,28.24-15.61Z"/>
    <path class="cls-1" d="M152.24,121.92H168c.14-1.07.17-1,.32-2,12.73,4.46,29,4.37,41.1,1.61l-24.83-43.7a37.65,37.65,0,0,1,4.73-4.41l26.35,46.38c9.62-3.07,19.37-8.84,25.44-14.64l1.35,2.81,1.39,2.94c-7,6.63-16.9,12.27-28.24,15.61l-2.13-4.45.78,4.79a79.75,79.75,0,0,1-21.1,2.94C184.9,129.81,165.05,127.8,152.24,121.92Z"/>
    <path class="cls-1" d="M222.82,101.69A4.72,4.72,0,1,0,227.53,97,4.71,4.71,0,0,0,222.82,101.69Z"/>
    <path class="cls-3" d="M74,202.74l13-26.41,6-12.11A27.89,27.89,0,0,1,89.62,151c0-13.74,9.28-25.51,22.09-28.38-.08,1-.14,2-.14,3.08,0,19,12.71,30.52,28.39,30.52,15.51,0,28.07-11.27,28.34-29.93a106.53,106.53,0,0,0,24.88,3.52,79.75,79.75,0,0,0,21.1-2.94l3.46,21.37h-.22c.06.77.22,1.5.22,2.28a28.48,28.48,0,0,1-7.27,18.92l3.39,6.89,13,26.41a13.16,13.16,0,1,1-23.61,11.64l-17.34-35.19h-67.8a29.31,29.31,0,0,1-3-.29L97.64,214.38A13.16,13.16,0,1,1,74,202.74Z"/>
    <path class="cls-2" d="M140,156.22c-15.68,0-28.39-11.5-28.39-30.52,0-1,.06-2.06.14-3.08a27.3,27.3,0,0,1,6.05-.7h37.93a77.92,77.92,0,0,0,12.61,4.37C168,145,155.47,156.22,140,156.22Z"/>
    <path class="cls-1" d="M216.37,210l-2.72,2.57c-12.36,11.69-36.46,18.94-62.91,18.94-25.89,0-49.19-7-63.91-19.32L84.2,210H49.35v9.75H84.2l2.63,2.18c14.72,12.29,38,19.33,63.91,19.33,26.45,0,50.55-7.26,62.91-18.94l2.72-2.57h35.19V210Z"/>
    <path class="cls-1" d="M213.65,222.32c-12.36,11.68-36.46,18.94-62.91,18.94-25.89,0-49.19-7-63.91-19.33l-2.63-2.18H49.35v9.11H77.49c18.11,13.76,44,21.34,73,21.34,29.64,0,56.86-8,73.15-21.34h27.89v-9.11H216.37Z"/>
    <path class="cls-4" d="M220.13,210.91a8.84,8.84,0,1,0,8.83,8.84A8.84,8.84,0,0,0,220.13,210.91Zm0,13.62a4.79,4.79,0,1,1,4.78-4.78A4.79,4.79,0,0,1,220.13,224.53Z"/>
    <path class="cls-5" d="M220.13,198.8a21,21,0,1,0,20.94,20.95A21,21,0,0,0,220.13,198.8Zm0,29.79a8.84,8.84,0,1,1,8.83-8.84A8.84,8.84,0,0,1,220.13,228.59Z"/>
    <path class="cls-4" d="M80.78,210.91a8.84,8.84,0,1,0,8.84,8.84A8.84,8.84,0,0,0,80.78,210.91Zm0,13.62a4.79,4.79,0,1,1,4.79-4.78A4.79,4.79,0,0,1,80.78,224.53Z"/>
    <path class="cls-5" d="M80.78,198.8a20.95,20.95,0,1,0,21,20.95A21,21,0,0,0,80.78,198.8Zm0,29.79a8.84,8.84,0,1,1,8.84-8.84A8.84,8.84,0,0,1,80.78,228.59Z"/>
    <path class="cls-1" d="M80.78,210.91a8.84,8.84,0,1,1-8.84,8.84A8.84,8.84,0,0,1,80.78,210.91Z"/>
    <path class="cls-1" d="M220.13,210.91a8.84,8.84,0,1,1-8.85,8.84A8.83,8.83,0,0,1,220.13,210.91Z"/>
  </g>
</svg>
