<svg id="Iconos" xmlns="http://www.w3.org/2000/svg" xmlns:xlink="http://www.w3.org/1999/xlink" width="300" height="300" viewBox="0 0 300 300">
  <defs>
    <style>
      .cls-1 {
        fill: none;
      }

      .cls-2 {
        clip-path: url(#clip-path);
      }

      .cls-3 {
        fill: #706f6f;
      }

      .cls-4 {
        fill: #808997;
      }

      .cls-5 {
        fill: #575756;
      }

      .cls-6 {
        fill: #69717c;
      }

      .cls-7 {
        fill: #e30613;
      }

      .cls-8 {
        fill: #ca9e67;
      }

      .cls-9 {
        fill: #ffa600;
      }

      .cls-10 {
        fill: #ffed00;
      }

      .cls-11 {
        fill: #1d1d1b;
      }

      .cls-12 {
        fill: #b2b2b2;
      }

      .cls-13 {
        fill: #ececec;
      }
    </style>
    <clipPath id="clip-path">
      <path class="cls-1" d="M356.38,170.47s-3.81-39,20-37.14c0,0-2.86-30.47,20.95-32.37,0,0-2.86-29.52,24.75-32.38S529.69,81.91,529.69,81.91L682,212.37,561.11,296.16,358.28,224.75Z"/>
    </clipPath>
  </defs>
  <g class="cls-2">
    <g>
      <g>
        <polygon class="cls-3" points="574.71 222.8 209.46 11.72 226.49 -23.88 591.21 186.9 574.71 222.8"/>
        <path class="cls-4" d="M218.07-23.2C211-19.09,205.19-8.07,205.19,1.41s5.76,13.84,12.88,9.74S231-4,231-13.46,225.18-27.31,218.07-23.2Z"/>
      </g>
      <g>
        <polygon class="cls-5" points="544.21 241.56 178.97 30.49 196 -5.11 560.72 205.67 544.21 241.56"/>
        <path class="cls-6" d="M187.57-4.43c-7.11,4.11-12.88,15.12-12.88,24.61s5.77,13.84,12.88,9.74,12.88-15.13,12.88-24.61S194.68-8.54,187.57-4.43Z"/>
      </g>
      <g>
        <polygon class="cls-3" points="513.16 258.76 147.92 47.69 164.95 12.09 529.67 222.87 513.16 258.76"/>
        <path class="cls-4" d="M156.52,12.77c-7.11,4.1-12.87,15.12-12.87,24.61s5.76,13.84,12.87,9.73S169.4,32,169.4,22.5,163.64,8.66,156.52,12.77Z"/>
      </g>
      <polygon class="cls-3" points="560.22 204.86 194.97 -6.21 212.01 -41.81 576.72 168.96 560.22 204.86"/>
      <g>
        <polygon class="cls-5" points="529.03 222.86 163.78 11.79 180.81 -23.81 545.53 186.96 529.03 222.86"/>
        <path class="cls-6" d="M172.39-23.13C165.27-19,159.51-8,159.51,1.47s5.76,13.85,12.88,9.74S185.26-3.91,185.26-13.4,179.5-27.24,172.39-23.13Z"/>
      </g>
      <polygon class="cls-3" points="544.21 186.14 178.97 -24.93 196 -60.53 560.72 150.25 544.21 186.14"/>
    </g>
  </g>
  <g>
    <path class="cls-7" d="M238.3,102.88,253.12,87c1.87-2,.63-6.2-2.77-9.36L213.71,43.48c-3.4-3.16-7.66-4.1-9.53-2.09L189.36,57.3Z"/>
    <path class="cls-8" d="M119.21,227.63c-8.52-49.58-49-45.67-49-45.67l-1.46,7.91h0L68.32,192h0l-2.14,11.59h0L65.75,206h0l-1,5.46h0l0,.2a.36.36,0,0,0,0-.1l-.31,1.73-4.82,26.12,25.63-5.05h0l3-.59-.12,0,.58-.11h0l1.56-.31h0l2.13-.42h0l17.44-3.43h0l2-.39h0Z"/>
    <path class="cls-9" d="M216.29,108.1,111.94,217a5,5,0,0,0-.31,1s-.08.67-.07,1h0s0,.06,0,.09a4.4,4.4,0,0,0,.05.51,1.38,1.38,0,0,0,0,.2s0,.06,0,.09h0v0c0,.12.1.43.1.46s.12.38.13.41h0c0,.06.22.6.29.74l.09.21c0,.12.11.24.17.36l.11.21c.06.12.86,1.43,1,1.6l.06.07.31.44.39.5.11.13c.2.25,1,1.22,1.2,1.38l.07.08c.14.14.8.82.94.95l0,.05.41.39.34.31h0a.93.93,0,0,0,.15.13l.08.08.13.11.08.06,0,0s.05,0,.08.06l0,0a.47.47,0,0,1,.1.09h0l0,0,0,0L225.53,116.7Z"/>
    <path class="cls-10" d="M176.56,71.09,69.19,183.26l0,.05,0,0s1.79,2.18,1.92,2.32l.21.21c.18.19.36.37.57.56h0l.17.17.65.58.49.4c.07.07.43.34.53.41l.55.4.24.16.34.22.6.36.63.33.26.13.66.3.46.17.2.08h0c.35.12.7.22,1.05.31l.12,0H79c.27.06.55.1.83.14h.07l.18,0c.29,0,.59.05.89.06h.13c.33,0,.67,0,1,0l.23,0a9.78,9.78,0,0,0,1.06-.18L187.79,81.55Z"/>
    <path class="cls-11" d="M88.62,233.65h0L85.77,231l-.82-.76-1.43-1.33-4.34-4.05L78.3,224,74,220l-.88-.82-3.52-3.27-.82-.77-1.43-1.33-.82-.77-1.79-1.66a.36.36,0,0,1,0,.1c-.2,1.13-.3,1.63-.51,2.8v0l-5.15,23.89a1.69,1.69,0,0,0,.54,1.14h0a1.72,1.72,0,0,0,1.19.48l24.4-5.53.66-.15,2.3-.44.46-.08"/>
    <path class="cls-9" d="M187.65,81.42,83.29,190.36l0,.06,0,.06.08.15.07.14.1.17.13.25.07.13c.06.1.11.19.17.31l.33.57.09.15.17.29.09.15.18.29.23.38.27.44.13.2.06.09c.14.23.3.47.46.71a1.63,1.63,0,0,0,.11.17l0,.05c.14.22.3.45.45.67l.28.42.64.91,0,0,.67.94c.07.08.14.18.2.26.22.3.45.61.69.91l.34.44.69.88.22.27c0,.07.12.14.18.21l.29.36.57.67v0l.09.1.51.58.84.94.16.18,0,0,.23.25.3.32c.39.42.8.84,1.22,1.26l.3.29,1,1,.17.16.05,0,.71.65,0,.05a.34.34,0,0,1,.06.06l.64.55h0l.21.17L204.65,97.26Z"/>
    <path class="cls-10" d="M204.63,97.23,97.77,208.53h0l.6.51.86.72c.65.52,1.32,1,2,1.54l.92.64,1.14.76h0l.13.09a.6.6,0,0,1,.13.09l1,.6a42.66,42.66,0,0,0,4.08,2.15q.54.26,1.08.48c.72.31,1.45.59,2.2.85L216.23,108Z"/>
    <rect class="cls-12" x="197.56" y="52.51" width="21.69" height="66.84" transform="translate(3.49 179.88) rotate(-47.04)"/>
    <g>
      <rect class="cls-13" x="202.35" y="57.14" width="3.5" height="66.84" transform="translate(-1.27 178.19) rotate(-47.03)"/>
      <rect class="cls-13" x="206.74" y="52.43" width="3.5" height="66.84" transform="translate(3.58 179.91) rotate(-47.04)"/>
      <rect class="cls-13" x="211.13" y="47.71" width="3.5" height="66.84" transform="matrix(0.68, -0.73, 0.73, 0.68, 8.42, 181.62)"/>
    </g>
  </g>
</svg>
