<svg id="Iconos" xmlns="http://www.w3.org/2000/svg" width="300" height="300" viewBox="0 0 300 300">
  <defs>
    <style>
      .cls-1 {
        fill: #b2b2b2;
      }

      .cls-2 {
        fill: #e94e1b;
      }

      .cls-3 {
        fill: #ffa000;
      }

      .cls-4 {
        fill: #ffed00;
      }
    </style>
  </defs>
  <g>
    <path class="cls-1" d="M222.51,251.68c0,7-33.29,12.65-74.36,12.65s-74.37-5.67-74.37-12.65S107.08,239,148.15,239,222.51,244.7,222.51,251.68Z"/>
    <g>
      <path class="cls-2" d="M208.45,123c2.85,15.14-2.59,28.92-8,38.19,4.18-42.82-23.59-65.82-23.59-65.82-33.16-36.31-10.26-65.52-10.26-65.52C107,56.31,111,136.43,111,136.43c-14.6-22.1-4.34-45-4.34-45-50.52,62.36-9.47,107-9.47,107C83.32,185,75.83,168,75.83,168c1.57,75.38,74.59,83.67,74.59,83.67C259.75,197.21,208.45,123,208.45,123Z"/>
      <path class="cls-3" d="M177.68,205.34c2.36-24.17-13.32-37.15-13.32-37.15-18.72-20.5-5.79-37-5.79-37-33.64,14.93-31.42,60.16-31.42,60.16-8.24-12.48-2.45-25.4-2.45-25.4-28.52,35.2-5.34,60.38-5.34,60.38a62.08,62.08,0,0,1-12-17.16c.32,15.07,5.7,25.37,12.5,32.41a97.13,97.13,0,0,0,30.6,10.09,198.92,198.92,0,0,0,27.84-16.6c21.55-25.81,3.92-51.29,3.92-51.29C183.8,192.33,180.73,200.11,177.68,205.34Z"/>
      <path class="cls-4" d="M166.85,242.63c11.15-14.76,1.33-29,1.33-29,.95,5-.85,9.61-2.65,12.69,1.39-14.23-7.84-21.87-7.84-21.87-11-12.06-3.41-21.77-3.41-21.77-19.8,8.79-18.49,35.41-18.49,35.41a16.52,16.52,0,0,1-1.44-15c-16.79,20.72-3.15,35.54-3.15,35.54a36.43,36.43,0,0,1-7.08-10.1c.16,7.9,2.69,13.58,6.07,17.66a91.22,91.22,0,0,0,20.23,5.41C156.37,248.72,161.82,245.69,166.85,242.63Z"/>
    </g>
  </g>
</svg>
