<svg id="Iconos" xmlns="http://www.w3.org/2000/svg" width="300" height="300" viewBox="0 0 300 300">
  <defs>
    <style>
      .cls-1 {
        fill: #706f6f;
      }

      .cls-2 {
        fill: #9d9d9c;
      }

      .cls-3 {
        fill: #1d1d1b;
      }

      .cls-4 {
        fill: #eeefef;
      }
    </style>
  </defs>
  <g>
    <g>
      <polygon class="cls-1" points="230.4 139.38 81.2 118.01 81.2 80.83 230.4 102.2 230.4 139.38"/>
      <rect class="cls-1" x="52.71" y="173.24" width="174.85" height="36.91"/>
      <rect class="cls-2" x="201.58" y="128.13" width="51.94" height="102.22"/>
      <g>
        <path class="cls-2" d="M253.53,128.13a26,26,0,1,1-26-26A26,26,0,0,1,253.53,128.13Z"/>
        <path class="cls-3" d="M240.82,128.13a13.27,13.27,0,1,1-13.26-13.27A13.27,13.27,0,0,1,240.82,128.13Z"/>
        <path class="cls-4" d="M234.05,128.13a6.5,6.5,0,1,1-6.49-6.49A6.49,6.49,0,0,1,234.05,128.13Z"/>
      </g>
      <rect class="cls-3" x="42.93" y="238.12" width="228.47" height="13.21"/>
      <rect class="cls-3" x="200.03" y="230.35" width="56.64" height="7.77"/>
      <g>
        <rect class="cls-3" x="234.05" y="168.96" width="29.96" height="9.46"/>
        <rect class="cls-3" x="234.05" y="186.96" width="29.96" height="9.46"/>
        <rect class="cls-3" x="234.05" y="204.96" width="29.96" height="9.46"/>
      </g>
      <rect class="cls-3" x="58.57" y="82.83" width="8.09" height="36.69"/>
      <rect class="cls-3" x="43.23" y="61.85" width="17.32" height="43.94"/>
      <polygon class="cls-3" points="43.23 105.79 56.01 146.06 62.61 146.06 60.55 104.52 43.23 105.79"/>
      <g>
        <path class="cls-2" d="M99.79,99.42A18.59,18.59,0,1,1,81.2,80.84,18.59,18.59,0,0,1,99.79,99.42Z"/>
        <path class="cls-3" d="M90.7,99.42a9.5,9.5,0,1,1-9.5-9.49A9.5,9.5,0,0,1,90.7,99.42Z"/>
        <path class="cls-4" d="M85.85,99.42a4.65,4.65,0,1,1-4.65-4.64A4.65,4.65,0,0,1,85.85,99.42Z"/>
      </g>
      <rect class="cls-3" x="157.16" y="210.15" width="28.79" height="27.98"/>
      <rect class="cls-3" x="69.96" y="210.15" width="28.79" height="27.98"/>
      <g>
        <path class="cls-2" d="M84.36,191.69a26,26,0,1,1-26-26A26,26,0,0,1,84.36,191.69Z"/>
        <path class="cls-3" d="M71.65,191.69a13.27,13.27,0,1,1-13.26-13.27A13.27,13.27,0,0,1,71.65,191.69Z"/>
        <path class="cls-4" d="M64.88,191.69a6.5,6.5,0,1,1-6.49-6.49A6.49,6.49,0,0,1,64.88,191.69Z"/>
      </g>
    </g>
    <g>
      <rect class="cls-3" x="253.53" y="155.23" width="8.67" height="7.51"/>
      <rect class="cls-3" x="253.53" y="141.4" width="8.67" height="7.51"/>
    </g>
  </g>
</svg>
