<svg id="Iconos" xmlns="http://www.w3.org/2000/svg" width="300" height="300" viewBox="0 0 300 300">
  <defs>
    <style>
      .cls-1 {
        fill: #ffba00;
      }

      .cls-2 {
        fill: #1d1d1b;
      }

      .cls-3 {
        fill: #ffed00;
      }

      .cls-4 {
        fill: #fff;
      }
    </style>
  </defs>
  <g>
    <g>
      <path class="cls-1" d="M255.94,120.59c0,1.6-1.4,4.11-3.35,4.52l2.09,3.84s1.8-3,6.19-1.73h1.89v-6.63Z"/>
      <path class="cls-1" d="M278.78,119.93c.17,3.37-4.59,6.63-9.33,7.83-7,1.77-13.59-1.55-13.59-8.45,0-6.69,4.66-10.15,11.46-8.16C272,112.51,278.61,116.6,278.78,119.93Z"/>
      <path class="cls-1" d="M52,120.59c0,1.6,1.41,4.11,3.36,4.52L53.27,129s-1.8-3-6.19-1.73H45.19v-6.63Z"/>
      <path class="cls-1" d="M29.17,119.93c-.17,3.37,4.59,6.63,9.33,7.83,7,1.77,13.59-1.55,13.59-8.45,0-6.69-4.66-10.15-11.46-8.16C35.94,112.51,29.33,116.6,29.17,119.93Z"/>
    </g>
    <g>
      <rect class="cls-2" x="236.87" y="185.88" width="30.1" height="68.04" rx="5.87"/>
      <rect class="cls-2" x="40.98" y="185.88" width="30.1" height="68.04" rx="5.87"/>
    </g>
    <path class="cls-1" d="M264.85,148c-1.26-8.36-7.74-17.77-11.29-24.88S236.9,82.61,233.7,76.75s-10-11.81-18.4-13.06S170,62.26,154,62.26s-53,.17-61.32,1.43S77.46,70.9,74.25,76.75,58,116.05,54.39,123.16,44.36,139.68,43.1,148,42.27,206,44.36,214.1s9.82,13.17,15.89,13.17H247.7c6.07,0,13.8-5,15.89-13.17S266.1,156.4,264.85,148Z"/>
    <path class="cls-3" d="M42.49,181.77c.21,14.24.84,28.32,1.87,32.33,2.09,8.16,9.82,13.17,15.89,13.17H247.7c6.07,0,13.8-5,15.89-13.17,1-4,1.65-18.09,1.87-32.33Z"/>
    <path class="cls-2" d="M254.09,212.45c1.19,2.92-.26,5.35-3.28,5.35H57.13c-3,0-4.47-2.43-3.27-5.35l4.2-10.3a8.08,8.08,0,0,1,6.94-4.7H243a8.07,8.07,0,0,1,6.93,4.7Z"/>
    <path class="cls-2" d="M198.5,165.39c-1.25-3.76-6.69-6.69-12.12-6.69H121.57c-5.43,0-10.87,2.93-12.12,6.69s4.39,19.25,6.48,22.07S120.32,191,127,191h53.93c6.69,0,9-.7,11.08-3.51S199.76,169.16,198.5,165.39Z"/>
    <path class="cls-2" d="M244.78,116.61c-1.05-3.62-11.08-29.2-14-35.26s-6.9-8.15-9.83-8.15H87c-2.93,0-6.9,2.09-9.83,8.15s-13,31.64-14,35.26.63,5.3,3.35,5.3H241.43C244.15,121.91,245.82,120.24,244.78,116.61Z"/>
    <g>
      <path class="cls-4" d="M210,158.7s9.2,11.5,13.8,11.5H250.3c4.18,0,5.23-2.51,6.07-4.81s1.25-14.42,0-18.6C256.37,146.79,237.76,154.52,210,158.7Z"/>
      <path class="cls-4" d="M98,158.7S88.8,170.2,84.2,170.2H57.65c-4.19,0-5.23-2.51-6.07-4.81s-1.25-14.42,0-18.6C51.58,146.79,70.19,154.52,98,158.7Z"/>
    </g>
  </g>
</svg>
