<svg id="Iconos" xmlns="http://www.w3.org/2000/svg" width="300" height="300" viewBox="0 0 300 300">
  <defs>
    <style>
      .cls-1 {
        fill: #1d1d1b;
      }

      .cls-2 {
        fill: #706f6f;
      }

      .cls-3 {
        fill: #b2b2b2;
      }

      .cls-4, .cls-5 {
        fill: #ffed00;
      }

      .cls-5 {
        opacity: 0.68;
      }

      .cls-6 {
        fill: none;
        stroke: #fff;
        stroke-miterlimit: 10;
        stroke-width: 1.9px;
      }
    </style>
  </defs>
  <g>
    <g>
      <path class="cls-1" d="M139.53,219.63h29.17a0,0,0,0,1,0,0v10.26a12.32,12.32,0,0,1-12.32,12.32h-4.54a12.32,12.32,0,0,1-12.32-12.32V219.63A0,0,0,0,1,139.53,219.63Z"/>
      <path class="cls-2" d="M131,187.92h46.52a0,0,0,0,1,0,0v33.73a9.27,9.27,0,0,1-9.27,9.27h-28a9.27,9.27,0,0,1-9.27-9.27V187.92a0,0,0,0,1,0,0Z"/>
      <path class="cls-3" d="M177.65,207.76H130.52a5.61,5.61,0,0,1-5.61-5.6h0a5.6,5.6,0,0,1,5.61-5.6h47.13a5.6,5.6,0,0,1,5.61,5.6h0A5.61,5.61,0,0,1,177.65,207.76Z"/>
      <path class="cls-3" d="M177.65,224.75H130.52a5.61,5.61,0,0,1-5.61-5.6h0a5.61,5.61,0,0,1,5.61-5.61h47.13a5.61,5.61,0,0,1,5.61,5.61h0A5.61,5.61,0,0,1,177.65,224.75Z"/>
    </g>
    <g>
      <path class="cls-4" d="M220.43,110.86c0-33.76-29.62-61.14-66.15-61.14S88.12,77.1,88.12,110.86c0,20.24,10.64,38.18,27,49.3h0s7.69,4.22,8.54,15.67v8.23a7.3,7.3,0,0,0,7.56,7H177.4a7.3,7.3,0,0,0,7.56-7v-8.3c.88-11.41,8.39-15.56,8.39-15.56h0C209.77,149.08,220.43,131.12,220.43,110.86Z"/>
      <circle class="cls-5" cx="155.04" cy="116.61" r="47.79" transform="translate(8.06 243.23) rotate(-77.7)"/>
      <g>
        <path class="cls-6" d="M147.3,191.06V122.13a9.24,9.24,0,0,0-9.24-9.23h0a9.23,9.23,0,0,0-9.23,9.23v5.16a9.23,9.23,0,0,0,9.23,9.23l15.95,0"/>
        <path class="cls-6" d="M160.87,191.06V122.13a9.24,9.24,0,0,1,9.24-9.23h0a9.23,9.23,0,0,1,9.23,9.23v5.16a9.23,9.23,0,0,1-9.23,9.23l-17.17,0"/>
      </g>
    </g>
  </g>
</svg>
