<svg id="Iconos" xmlns="http://www.w3.org/2000/svg" width="300" height="300" viewBox="0 0 300 300">
  <defs>
    <style>
      .cls-1 {
        fill: #fed9ae;
      }

      .cls-2 {
        fill: #f1bc7c;
      }

      .cls-3 {
        fill: #313f5e;
      }

      .cls-4 {
        fill: #19ade0;
      }

      .cls-5 {
        fill: #ffed00;
      }

      .cls-6 {
        fill: #ffa000;
      }

      .cls-7 {
        fill: #fff;
      }
    </style>
  </defs>
  <g>
    <g>
      <path class="cls-1" d="M106.62,135.6s-6.83,7.27-10.14-10.06C92.93,107,93.05,97,99.41,94.83c4.06-1.35,5.23,2.11,5.23,2.11Z"/>
      <path class="cls-2" d="M120.57,161.72v13.11a15.89,15.89,0,0,0,5.84,12.31l11.43,9.32a15.88,15.88,0,0,0,20,0l11.59-9.37a15.88,15.88,0,0,0,5.91-12.36V160.46Z"/>
      <path class="cls-1" d="M147.41,177.42c25,0,44.2-26.2,44.2-69.61,0-54.14-15.88-66.7-44.2-66.7s-44.21,12.56-44.21,66.7C103.2,151.22,122.39,177.42,147.41,177.42Z"/>
      <path class="cls-1" d="M188.83,135.6s6.83,7.27,10.16-10.06c3.54-18.53,3.42-28.59-2.94-30.71-4.06-1.35-5.23,2.11-5.23,2.11Z"/>
      <path class="cls-1" d="M148,41.11V177.39c24.75-.39,43.65-26.49,43.65-69.58C191.61,54,175.93,41.28,148,41.11Z"/>
      <path class="cls-3" d="M106.66,194.07,71.4,216.91a15.85,15.85,0,0,0-6.75,9.36L56.87,256.4h90.57V199.14Z"/>
      <polygon class="cls-4" points="120.6 173.96 117.82 173.96 106.66 194.07 133.31 220.28 147.44 199.15 120.6 173.96"/>
      <path class="cls-3" d="M188.17,194l35.25,22.84a15.85,15.85,0,0,1,6.75,9.36L238,256.34H147.38V199.08Z"/>
      <polygon class="cls-4" points="174.22 173.89 177 173.89 188.17 194 161.52 220.21 147.38 199.07 174.22 173.89"/>
      <path d="M103.2,107.81S92,101.14,99.63,70c5-20.43,18.2-19.44,18.2-19.44S104.71,71.37,103.2,107.81Z"/>
      <path d="M191.67,107.81s11.2-6.67,3.58-37.77c-5-20.43-18.2-19.44-18.2-19.44S190.17,71.37,191.67,107.81Z"/>
    </g>
    <g>
      <path class="cls-4" d="M215.92,60.14s-9.65-16.7-17.79-17.73c-23-2.89-39.85-11.18-50.75-11.18s-27.8,8.29-50.75,11.18c-8.15,1-17.8,17.73-17.8,17.73L97.86,79h99.27v.41Z"/>
      <path class="cls-5" d="M159.35,50.43A1.33,1.33,0,0,0,158,51.75h-7.7l-2.4-7.34a1.32,1.32,0,0,0,.94-1.25,1.34,1.34,0,1,0-2.67,0,1.31,1.31,0,0,0,.93,1.25l-2.39,7.34h-7.09a1.34,1.34,0,1,0-1.33,1.34,1.35,1.35,0,0,0,.81-.29L143,57.07l-2.37,7.29-.13,0a1.34,1.34,0,1,0,1.34,1.34,1.28,1.28,0,0,0-.38-.91l6.05-4.41,6.47,4.7a1.21,1.21,0,0,0-.18.62,1.34,1.34,0,1,0,1.34-1.34,1.32,1.32,0,0,0-.67.21l-2.43-7.47,6.25-4.54a1.31,1.31,0,0,0,1,.56,1.33,1.33,0,1,0,0-2.66Z"/>
      <path class="cls-3" d="M197.13,86.87V79H97.86v7.92l-5.23,6s11.13,8.23,54.75,8.23,54.75-8.23,54.75-8.23Z"/>
      <path class="cls-5" d="M154,65.05a1.21,1.21,0,0,0-.18.62,1.34,1.34,0,1,0,1.34-1.34,1.32,1.32,0,0,0-.67.21l-2.43-7.47,6.25-4.54a1.31,1.31,0,0,0,1,.56A1.33,1.33,0,1,0,158,51.75h-7.7l-2.4-7.34a1.32,1.32,0,0,0,.94-1.25,1.34,1.34,0,0,0-1.34-1.34V60.35Z"/>
    </g>
  </g>
  <g>
    <path class="cls-6" d="M210.81,273.45V234.5a26.51,26.51,0,0,1,53,0v39.09Z"/>
    <path d="M270.39,275.31H204.25v-2.89a3.5,3.5,0,0,1,3.5-3.5h59.14a3.5,3.5,0,0,1,3.5,3.5Z"/>
    <path class="cls-7" d="M236.51,249.89c3.73,0,6.25,2.57,6.25,5.56s-2.41,5.41-6.25,5.41a5.51,5.51,0,1,1,0-11Zm-5.77-25.79h12.55v10l-2.79,13.24h-6.93l-2.83-13.24Z"/>
  </g>
</svg>
