<svg id="Iconos" xmlns="http://www.w3.org/2000/svg" width="300" height="300" viewBox="0 0 300 300">
  <defs>
    <style>
      .cls-1 {
        fill: #ffa000;
      }

      .cls-2 {
        fill: #ffed00;
      }

      .cls-3 {
        fill: #1d1d1b;
      }

      .cls-4 {
        fill: #b2b2b2;
      }

      .cls-5 {
        fill: #fff;
      }
    </style>
  </defs>
  <g>
    <path class="cls-1" d="M134.45,83.37c1.66-17-9.38-26.18-9.38-26.18C111.88,42.74,121,31.13,121,31.13,97.28,41.65,98.85,73.51,98.85,73.51,93,64.72,97.12,55.62,97.12,55.62,77,80.42,93.36,98.16,93.36,98.16a43.57,43.57,0,0,1-8.48-12.09c.22,10.62,4,17.87,8.8,22.84A68.63,68.63,0,0,0,115.25,116a141.44,141.44,0,0,0,19.61-11.7c15.18-18.18,2.77-36.14,2.77-36.14C138.76,74.2,136.6,79.68,134.45,83.37Z"/>
    <path class="cls-2" d="M126.82,109.64c7.86-10.4.94-20.41.94-20.41a13.1,13.1,0,0,1-1.87,8.94,18.26,18.26,0,0,0-5.52-15.41c-7.76-8.5-2.4-15.34-2.4-15.34-14,6.19-13,25-13,25a11.63,11.63,0,0,1-1-10.53c-11.83,14.6-2.22,25-2.22,25a25.75,25.75,0,0,1-5-7.12A19.5,19.5,0,0,0,101,112.2,64.19,64.19,0,0,0,115.25,116C119.44,113.93,123.27,111.8,126.82,109.64Z"/>
    <g>
      <circle class="cls-3" cx="172.11" cy="159.43" r="10.92" transform="translate(-31.64 43.13) rotate(-13.09)"/>
      <path class="cls-3" d="M166.1,159.41a6,6,0,1,0,6-6A6,6,0,0,0,166.1,159.41Z"/>
      <rect class="cls-4" x="87.69" y="104.82" width="50.14" height="54.41" rx="2.91" transform="translate(225.08 264.42) rotate(-179.81)"/>
      <rect class="cls-3" x="64.55" y="142.68" width="96.23" height="37.7" transform="translate(224.79 323.43) rotate(-179.81)"/>
      <path class="cls-4" d="M60.48,159.23H163.3a8.62,8.62,0,0,1,8.62,8.62V274.72a0,0,0,0,1,0,0H53a0,0,0,0,1,0,0V166.66A7.43,7.43,0,0,1,60.48,159.23Z" transform="translate(224.24 434.33) rotate(-179.81)"/>
      <path class="cls-4" d="M171,91.09H273.77a8.62,8.62,0,0,1,8.62,8.62v45.82a0,0,0,0,1,0,0H163.52a0,0,0,0,1,0,0v-47A7.43,7.43,0,0,1,171,91.09Z" transform="translate(428.18 -28.61) rotate(116.45)"/>
      <circle class="cls-3" cx="130.21" cy="112.34" r="3.46"/>
      <path class="cls-3" d="M116,112.29a3.46,3.46,0,1,0,3.46-3.44A3.45,3.45,0,0,0,116,112.29Z"/>
      <circle class="cls-3" cx="108.71" cy="112.27" r="3.46"/>
      <path class="cls-3" d="M94.51,112.22A3.46,3.46,0,1,0,98,108.78,3.45,3.45,0,0,0,94.51,112.22Z"/>
      <circle class="cls-3" cx="130.14" cy="134.03" r="3.46"/>
      <path class="cls-3" d="M115.94,134a3.46,3.46,0,1,0,3.46-3.44A3.45,3.45,0,0,0,115.94,134Z"/>
      <circle class="cls-3" cx="108.64" cy="133.96" r="3.46"/>
      <path class="cls-3" d="M94.43,133.91a3.46,3.46,0,1,0,3.47-3.45A3.47,3.47,0,0,0,94.43,133.91Z"/>
      <path class="cls-3" d="M121.35,123.23a3.46,3.46,0,1,0,3.46-3.45A3.44,3.44,0,0,0,121.35,123.23Z"/>
      <path class="cls-3" d="M110.6,123.19a3.46,3.46,0,1,0,3.46-3.44A3.45,3.45,0,0,0,110.6,123.19Z"/>
      <path class="cls-3" d="M99.85,123.16a3.46,3.46,0,1,0,3.46-3.45A3.44,3.44,0,0,0,99.85,123.16Z"/>
      <circle class="cls-3" cx="77.88" cy="126.54" r="16.58"/>
      <circle class="cls-5" cx="77.88" cy="126.54" r="9.12"/>
    </g>
  </g>
</svg>
